<?xml version="1.0" encoding="utf-8"?>
<!-- Generator: Adobe Illustrator 25.0.1, SVG Export Plug-In . SVG Version: 6.00 Build 0)  -->
<svg version="1.1" id="Layer_1" xmlns="http://www.w3.org/2000/svg" xmlns:xlink="http://www.w3.org/1999/xlink" x="0px" y="0px"
	 viewBox="0 0 100 100" style="enable-background:new 0 0 100 100;" xml:space="preserve">
<style type="text/css">
	.st0{fill:#BBBCBE;}
	.st1{fill:#E6E7E8;}
	.st2{fill:#FFFFFF;}
</style>
<path class="st0" d="M21.6,3.9C24.5,4,49.7,1.6,58.4,5.4s7.4,4.2,12.6,8.4c-0.8-2.5-0.1-0.4-1.8-2.7c6,2.8,14.7,6.8,16.7,17.1
	c5.1,4.2,6.8,6.5,10.1,14.7l-2,33.7l-4.6-23.5c0,0-5.7-5-6.9-9.9c-4.9,0.4-18.1-5.1-22.1-2.9c-4,2.2-6.2,3.9-12,1.4
	s-7.1-1.9-13.5,1.3c-4.5,1.2-15.3,6.7-15.3,6.7l-6.1,26.5l-1.6-34.4L4,33.4c0,0,1.1-2.8,5.4-5.6s7-3.4,7-3.4c-4.5-2.4-5-3.8-9.3-5.9
	c7.1-7.9,14.6-9,18.2-8.8C22.7,8.4,22.5,6.6,21.6,3.9L21.6,3.9z"/>
<path class="st1" d="M41,67.4c4.9,1.4,5,0.7,6.4,0.9c0,1.1-0.1,2.6-2,2.9s-24.9-3.3-28.1-1.4C21.1,61.9,36.1,66,41,67.4L41,67.4z"/>
<path class="st1" d="M66.8,66.1c-4.7,2.1-5.7,1.6-7.1,1.8c0,0.9,0.6,2.4,2.5,2.6s16.8-8.8,27.6-1.4c-1.9-3.3-6-7.6-10.8-7.4
	C74.2,61.9,69.5,64.9,66.8,66.1L66.8,66.1z"/>
<path class="st2" d="M78,68.5c-6.8,0-13.3,2.1-20,2.9c-2.8,0.3-5.6,0.4-8.4,0.1c-3.7-0.4-7.3-1.6-11-2.1c-3.3-0.5-6.7-0.9-10-0.9
	c-5.8,0-11.4,1.7-17.1,2.7c0,1.6-0.3,3.7,0.5,4.9c0.9,1.2,2.4,2.3,2.7,3.9c0.9,3.8,2.2,7.5,3.9,11.1c0.8,1.7,2.3,2.9,4,3.8
	c4.1,2,8.9,2.3,13.4,1.7c6.4-0.9,9.8-5.6,12.5-10.9c1-2.2,1.1-4.7,2.4-6.7c0.8-1.2,2.6-0.7,3.9-0.7c1.3,0,2.4,2.1,2.8,3.5
	c1.4,4.9,3.8,10.1,8.4,12.7c7,3.8,18,3.1,22.5-3.8c1.8-2.7,2.3-6,3.1-9.1c0.5-1.9,1-4.1,2.9-5.1c0.8-0.4,0.2-2.1,0.3-3
	c0.1-1,0.4-2-1.2-2.2c-2.7-0.4-5.2-1.4-8-1.8C83.1,69,80.6,68.5,78,68.5L78,68.5z M33.1,70.3c1.9,0,3.8,0.1,5.7,0.5
	c11.2,2.3,11.4,6.8,6.8,16c-3.7,7.5-11.5,9.4-19.3,7.6c-3.6-0.8-6.1-3.3-7.2-6.6c-1.2-3.5-2.2-7.3-1.9-11c0.3-5,6.1-5.7,10.2-6.1
	C29.3,70.5,31.2,70.3,33.1,70.3L33.1,70.3z M73.8,70.3c1.9,0,3.9,0.2,5.8,0.4c4.1,0.5,9.9,1.2,10.2,6.1c0.2,3.7-0.7,7.5-1.9,11
	c-1.2,3.4-3.6,5.8-7.2,6.6c-7.8,1.8-15.6-0.1-19.3-7.6c-4.6-9.3-4.4-13.7,6.8-16C70,70.4,71.9,70.3,73.8,70.3L73.8,70.3z"/>
</svg>
