<?xml version="1.0" encoding="UTF-8" standalone="no"?>
<svg
   version="1"
   width="746.66669"
   height="496"
   id="svg2"
   inkscape:version="1.2.1 (9c6d41e, 2022-07-14)"
   sodipodi:docname="sprite.svg"
   inkscape:export-filename="/home/huntingbears/Desarrollo/luisalejandro.github.io/static/img/site/sprite.png"
   inkscape:export-xdpi="90"
   inkscape:export-ydpi="90"
   xmlns:inkscape="http://www.inkscape.org/namespaces/inkscape"
   xmlns:sodipodi="http://sodipodi.sourceforge.net/DTD/sodipodi-0.dtd"
   xmlns:xlink="http://www.w3.org/1999/xlink"
   xmlns="http://www.w3.org/2000/svg"
   xmlns:svg="http://www.w3.org/2000/svg"
   xmlns:rdf="http://www.w3.org/1999/02/22-rdf-syntax-ns#"
   xmlns:cc="http://creativecommons.org/ns#"
   xmlns:dc="http://purl.org/dc/elements/1.1/">
  <metadata
     id="metadata142">
    <rdf:RDF>
      <cc:Work
         rdf:about="">
        <dc:format>image/svg+xml</dc:format>
        <dc:type
           rdf:resource="http://purl.org/dc/dcmitype/StillImage" />
        <dc:title />
      </cc:Work>
    </rdf:RDF>
  </metadata>
  <sodipodi:namedview
     pagecolor="#ffffff"
     bordercolor="#666666"
     borderopacity="1"
     objecttolerance="10"
     gridtolerance="10"
     guidetolerance="10"
     inkscape:pageopacity="0"
     inkscape:pageshadow="2"
     inkscape:window-width="1434"
     inkscape:window-height="1387"
     id="namedview140"
     showgrid="true"
     inkscape:zoom="4.0000001"
     inkscape:cx="601.49998"
     inkscape:cy="49.124999"
     inkscape:window-x="2005"
     inkscape:window-y="25"
     inkscape:window-maximized="0"
     inkscape:current-layer="svg2"
     inkscape:lockguides="false"
     inkscape:showpageshadow="2"
     inkscape:pagecheckerboard="0"
     inkscape:deskcolor="#d1d1d1" />
  <style
     id="style4">.s0{fill:#000;}.s1{fill:#fff;}.s2{fill:#c2beb2;}.s3{fill:#fafafb;}</style>
  <defs
     id="defs6">
    <defs
       id="defs144">
      <path
         id="SVGID_11_"
         d="M 961.25,132.155 C 961.562,68.752 910.42,17.1 847.018,16.788 783.616,16.475 731.963,67.619 731.652,131.022 c -0.312,63.403 50.831,115.055 114.233,115.369 23.257,0.114 44.918,-6.717 63.06,-18.515 l 34.765,4.61 -11.057,-25.122 C 950.316,187.284 961.109,161 961.25,132.155"
         inkscape:connector-curvature="0" />
    </defs>
    <clipPath
       id="SVGID_12_">
      <use
         xlink:href="#SVGID_11_"
         overflow="visible"
         id="use146"
         style="overflow:visible"
         x="0"
         y="0"
         width="100%"
         height="100%" />
    </clipPath>
  </defs>
  <g
     style="display:none"
     id="g173"
     clip-path="url(#SVGID_12_)"
     display="none"
     transform="matrix(0.16666666,0,0,0.16666666,-13.630739,-70.308823)">
    <path
       style="clip-rule:evenodd;display:inline;fill:#841b1e;fill-rule:evenodd"
       inkscape:connector-curvature="0"
       id="path161"
       d="m 848.439,40.494 c 43.129,0.803 55.189,34.125 47.912,73.027 -1.7,9.077 -3.246,18.25 1.146,26.712 4.202,8.102 -6.982,8.447 -10.883,8.799 h -79.049 c -3.359,-0.012 -11.196,0.517 -12.577,-3.576 -0.981,-2.917 1.585,-6.723 2.922,-11.922 2.138,-8.312 -0.374,-17.854 -1.092,-26.391 -3.086,-36.803 6.615,-65.888 49.078,-66.648 0.851,-0.014 1.691,-0.016 2.543,-10e-4 z"
       display="inline" />
    <path
       style="clip-rule:evenodd;display:inline;fill:#841b1e;fill-rule:evenodd"
       inkscape:connector-curvature="0"
       id="path163"
       d="m 870.713,139.555 -47.137,0.003 -2.47,9.499 c -15.549,7.388 -48.799,17.28 -51.721,34.626 l -7.42,44.148 h 170.353 l -7.423,-44.148 c -2.916,-17.346 -36.167,-27.238 -51.715,-34.624 z"
       display="inline" />
    <path
       style="clip-rule:evenodd;display:inline;fill:#d22b31;fill-rule:evenodd"
       inkscape:connector-curvature="0"
       id="path165"
       d="m 822.46,156.228 5.087,-4.908 c 1.78,1.27 3.669,2.476 5.653,3.637 10.563,6.187 16.102,6.157 26.652,-0.029 2.794,-1.641 5.337,-3.355 7.643,-5.162 l 4.414,6.394 -16.045,17.846 h -17.442 z"
       display="inline" />
    <path
       style="clip-rule:evenodd;display:inline;fill:#d22b31;fill-rule:evenodd"
       inkscape:connector-curvature="0"
       id="path167"
       d="m 814.352,112.159 c -1.431,-11.111 11.151,-14.12 19.377,-16.879 8.801,-2.954 19.541,-6.56 29.926,-13.983 3.178,-2.269 5.673,-3.091 7.682,2.762 1.094,3.195 1.742,7.358 3.624,9.646 1.381,1.685 2.354,0.302 3.357,-1.605 1.067,-2.017 2.275,-3.223 3.447,-3.223 2.779,0 4.33,6.73 3.47,15.03 -0.867,8.3 -3.818,15.033 -6.596,15.033 -0.523,0.024 -0.723,0.077 -0.827,0.625 -0.895,4.606 -2.243,8.786 -3.928,11.965 -4.104,7.754 -10.793,13.915 -20.491,19.177 -4.574,2.688 -9.041,2.688 -13.617,0 -5.605,-3.04 -12.318,-7.619 -16.146,-12.816 -3.744,-1.309 -7.304,-2.974 -10.723,-5.082 -2.408,-1.256 -3.076,-3.667 -3.216,-4.3 8.171,5.825 17.283,8.802 27.209,10.255 0.713,1.802 2.478,3.2 4.591,3.2 h 10.446 c 6.573,0 6.573,-10.648 0,-10.648 H 841.49 c -1.869,0 -3.268,1.149 -4.112,2.635 -6.862,-1.027 -14.043,-3.303 -19.796,-6.276 -1.782,-4.808 -2.819,-10.408 -3.23,-15.516 z"
       display="inline" />
    <polygon
       style="clip-rule:evenodd;display:inline;fill:#d22b31;fill-rule:evenodd"
       id="polygon169"
       points="905.928,230.553 910.729,178.069 907.638,172.716 786.645,172.716 783.554,178.069 788.354,230.505 788.354,251.079 905.928,251.079 "
       display="inline" />
    <path
       style="clip-rule:evenodd;display:inline;fill:#841b1e;fill-rule:evenodd"
       inkscape:connector-curvature="0"
       id="path171"
       d="m 795.209,239.748 h 103.866 v 7.146 H 795.209 Z m 0,-3.273 h 103.866 c 1.758,-19.22 3.518,-38.439 5.274,-57.657 l -114.415,-0.003 c 1.76,19.22 3.515,38.44 5.275,57.66 z"
       display="inline" />
  </g>
  <path
     d="M 8.9672728,96 C 8.8036366,96 8.6400006,95.9364 8.509091,95.80932 L 2.2581821,89.930085 C 2.1927244,89.86656 2.0945452,89.802967 1.9963639,89.67585 1.8654544,89.548732 1.7018184,89.358052 1.4400003,89.040255 1.1781821,88.722458 0.94909131,88.404668 0.7527271,88.08687 0.55636366,87.769072 0.36000025,87.355935 0.22909079,86.91102 0.06545473,86.43432 0,85.989412 0,85.576267 0,84.146182 0.42545422,83.033895 1.2763634,82.207627 2.1272727,81.381353 3.3054548,81 4.8109096,81 c 0.4254542,0 0.8509084,0.06352 1.2763634,0.222458 0.4254542,0.127117 0.8181818,0.317797 1.2109094,0.572032 0.3599994,0.222457 0.6872724,0.444915 0.9490905,0.667372 C 8.509091,82.68432 8.7709092,82.906778 9,83.129235 9.2290914,82.906778 9.4909095,82.68432 9.7527276,82.461862 10.014546,82.239405 10.341819,82.016947 10.701818,81.79449 11.061819,81.572033 11.487273,81.381353 11.912727,81.222458 12.338182,81.09534 12.763635,81 13.189091,81 c 1.505454,0 2.683637,0.413138 3.534544,1.207627 C 17.574545,83.002117 18,84.146182 18,85.576267 c 0,1.430085 -0.752728,2.891955 -2.290909,4.385595 L 9.4254552,95.80932 C 9.2945448,95.936437 9.1309095,96 8.9672728,96 Z"
     class="st0"
     id="XMLID_4_"
     inkscape:connector-curvature="0"
     style="fill:#5a5a5a;fill-opacity:1;stroke-width:0.32249987" />
  <path
     style="fill:#5a5a5a;fill-opacity:1;stroke-width:0.27422348"
     inkscape:connector-curvature="0"
     d="m 11.879563,114.73626 c 0.875912,0 1.614963,0.3022 2.217153,0.9066 C 14.698905,116.24725 15,116.98901 15,117.86813 c 0,0.87912 -0.301095,1.62088 -0.903284,2.22528 C 13.494526,120.6978 12.755475,121 11.879563,121 c -0.875913,0 -1.614963,-0.3022 -2.2171534,-0.90659 -0.6021891,-0.6044 -0.9032841,-1.34616 -0.9032841,-2.22528 0,-0.0824 0,-0.19231 0.02737,-0.32967 l -3.5310213,-1.75824 c -0.6021896,0.57692 -1.3138683,0.85165 -2.135036,0.85165 -0.875913,0 -1.6149638,-0.3022 -2.21715381,-0.9066 C 0.30109503,115.12088 0,114.37912 0,113.5 c 0,-0.87912 0.30109503,-1.62088 0.90328409,-2.22527 0.60219001,-0.6044 1.34124081,-0.9066 2.21715331,-0.9066 0.8211677,0 1.5328464,0.27473 2.135036,0.85165 l 3.5310208,-1.75824 c 0,-0.13736 -0.02737,-0.24725 -0.02737,-0.32967 0,-0.87912 0.301095,-1.62088 0.9032851,-2.22528 C 10.264599,106.3022 11.00365,106 11.879563,106 c 0.875911,0 1.614963,0.3022 2.217152,0.90659 0.60219,0.6044 0.903285,1.34616 0.903285,2.22528 0,0.87912 -0.301095,1.62088 -0.903285,2.22527 -0.602189,0.6044 -1.341241,0.9066 -2.217152,0.9066 -0.821168,0 -1.532847,-0.27473 -2.1350372,-0.85165 l -3.5310209,1.75824 c 0,0.13736 0.027373,0.24725 0.027373,0.32967 0,0.0824 0,0.19231 -0.027373,0.32967 l 3.5310209,1.75824 c 0.6021902,-0.57692 1.3138692,-0.85165 2.1350372,-0.85165 z"
     class="st0"
     id="XMLID_4_-3" />
  <style
     id="style4644"
     type="text/css">
	.st0{fill:#333333;}
</style>
  <path
     style="fill:#4267b2;stroke-width:1;fill-opacity:1;stroke:none;stroke-dasharray:none"
     inkscape:connector-curvature="0"
     id="XMLID_5_"
     class="st0"
     d="m 390,29.999999 c -16.58182,0 -30,13.418182 -30,30.000001 0,16.581818 13.41818,30 30,30 16.58182,0 30,-13.418182 30,-30 0,-16.581819 -13.41818,-30.000001 -30,-30.000001 z m 7.96363,29.89091 h -5.23636 c 0,8.290909 0,18.545454 0,18.545454 h -7.74546 c 0,0 0,-10.145454 0,-18.545454 h -3.70909 v -6.545455 h 3.70909 v -4.254545 c 0,-3.054546 1.41819,-7.745455 7.74546,-7.745455 H 398.4 v 6.327273 c 0,0 -3.49091,0 -4.14546,0 -0.65454,0 -1.63636,0.327273 -1.63636,1.745454 v 3.818182 h 5.89091 z" />
  <style
     id="style4658"
     type="text/css">
	.st0{fill:#333333;}
</style>
  <path
     id="XMLID_6_-9"
     style="fill:#0a66c2;fill-opacity:1;stroke-width:1;stroke-dasharray:none;stroke:none"
     class="st0"
     d="m 450,30 c -16.58178,0 -30,13.418196 -30,29.999996 0,16.58178 13.41822,30 30,30 16.58178,0 30,-13.41822 30,-30 C 480,43.418196 466.58178,30 450,30 Z m -11.35547,15.669916 c 1.08366,0 1.94943,0.2953 2.59961,0.92578 0.65019,0.63049 0.97363,1.42701 0.98633,2.38867 v 0.0293 c 0.0127,0.94892 -0.31701,1.7225 -0.98633,2.35937 -0.66932,0.63686 -1.56177,0.95508 -2.6582,0.95508 h -0.0293 c -1.07091,0 -1.92208,-0.31822 -2.57227,-0.95508 C 435.33418,50.736176 435,49.939646 435,48.984366 c 0,-0.96165 0.3463,-1.7582 1.01562,-2.38867 0.66932,-0.63049 1.54526,-0.92578 2.62891,-0.92578 z m 18.94336,8.86719 c 2.2247,0 4.02114,0.73148 5.37891,2.20898 1.35775,1.4775 2.0332,3.6611 2.0332,6.50781 v 11.07618 h -6.42383 v -10.35938 c 0,-1.36923 -0.24826,-2.42277 -0.77734,-3.19336 -0.52908,-0.77696 -1.35855,-1.16602 -2.48047,-1.16602 -0.82231,0 -1.50792,0.20604 -2.0625,0.65821 -0.55458,0.45216 -0.97979,1.00759 -1.25391,1.66992 -0.14019,0.38848 -0.20898,0.94458 -0.20898,1.61328 v 10.77735 h -6.42578 c 0.0257,-5.19035 0.0293,-9.40007 0.0293,-12.62891 0,-3.22884 0.0127,-5.16692 0,-5.79102 l -0.0293,-0.92578 h 6.42578 v 2.77735 c 0.25383,-0.39847 0.50956,-0.74229 0.77539,-1.04493 0.2741,-0.31205 0.64651,-0.65262 1.10547,-1.01562 0.46534,-0.363 1.0338,-0.6634 1.70312,-0.86719 0.66932,-0.20377 1.38862,-0.29687 2.21094,-0.29687 z m -22.22852,0.44726 h 6.45313 v 19.34571 h -6.45313 z" />
  <style
     id="style4672"
     type="text/css">
	.st0{fill:#333333;}
</style>
  <path
     style="fill:#1da1f2;stroke-width:1;fill-opacity:1;stroke:none;stroke-dasharray:none"
     inkscape:connector-curvature="0"
     id="XMLID_5_-5"
     class="st0"
     d="m 330,30 c -16.58182,0 -30,13.418182 -30,30 0,16.581819 13.41818,30 30,30 16.58182,0 30,-13.418181 30,-30 0,-16.581818 -13.41818,-30 -30,-30 z m 15.16363,24 c 0,0.327273 0,0.654546 0,0.981818 0,10.036364 -7.63636,21.49091 -21.49091,21.49091 -4.25454,0 -8.29091,-1.2 -11.56363,-3.381819 0.54545,0.109091 1.2,0.109091 1.85454,0.109091 3.49091,0 6.76364,-1.2 9.38182,-3.272727 -3.27273,-0.109091 -6.10909,-2.290909 -7.09091,-5.236364 C 316.69091,64.8 317.23636,64.8 317.67272,64.8 c 0.65455,0 1.30909,-0.109091 1.96364,-0.218182 -3.49091,-0.654545 -6.10909,-3.709091 -6.10909,-7.418181 v -0.109091 c 0.98182,0.545454 2.18182,0.872727 3.38182,0.981818 -2.07273,-1.309091 -3.38182,-3.709091 -3.38182,-6.327273 0,-1.418182 0.32727,-2.727273 0.98182,-3.818182 3.70909,4.581818 9.27272,7.636364 15.6,7.854546 C 330,55.2 329.89091,54.654546 329.89091,54 c 0,-4.145454 3.38181,-7.527273 7.52727,-7.527273 2.18182,0 4.14545,0.872728 5.56364,2.4 1.74545,-0.327272 3.38181,-0.981818 4.8,-1.854545 -0.54546,1.745454 -1.74546,3.272727 -3.27273,4.145454 1.52727,-0.218181 2.94545,-0.545454 4.36363,-1.2 C 347.89091,51.6 346.58182,52.909091 345.16363,54 Z" />
  <path
     style="fill:#90a7d5;stroke-width:1;fill-opacity:1;stroke:none;stroke-dasharray:none"
     inkscape:connector-curvature="0"
     id="XMLID_5_-3"
     class="st0"
     d="m 390,89.999996 c -16.58182,0 -30,13.418184 -30,30.000004 0,16.58182 13.41818,30 30,30 16.58182,0 30,-13.41818 30,-30 0,-16.58182 -13.41818,-30.000004 -30,-30.000004 z m 7.96363,29.890914 h -5.23636 c 0,8.29091 0,18.54545 0,18.54545 h -7.74546 c 0,0 0,-10.14545 0,-18.54545 h -3.70909 v -6.54546 h 3.70909 v -4.25454 c 0,-3.05455 1.41819,-7.74546 7.74546,-7.74546 H 398.4 v 6.32727 c 0,0 -3.49091,0 -4.14546,0 -0.65454,0 -1.63636,0.32728 -1.63636,1.74546 v 3.81818 h 5.89091 z" />
  <path
     style="fill:#6ec3f7;stroke-width:1;fill-opacity:1;stroke:none;stroke-dasharray:none"
     inkscape:connector-curvature="0"
     id="XMLID_5_-5-6"
     class="st0"
     d="m 330,89.999997 c -16.58182,0 -30,13.418183 -30,30.000003 0,16.58182 13.41818,30 30,30 16.58182,0 30,-13.41818 30,-30 0,-16.58182 -13.41818,-30.000003 -30,-30.000003 z M 345.16363,114 c 0,0.32727 0,0.65454 0,0.98182 0,10.03636 -7.63636,21.49091 -21.49091,21.49091 -4.25454,0 -8.29091,-1.2 -11.56363,-3.38182 0.54545,0.10909 1.2,0.10909 1.85454,0.10909 3.49091,0 6.76364,-1.2 9.38182,-3.27273 -3.27273,-0.10909 -6.10909,-2.29091 -7.09091,-5.23636 0.43637,0.10909 0.98182,0.10909 1.41818,0.10909 0.65455,0 1.30909,-0.10909 1.96364,-0.21818 -3.49091,-0.65455 -6.10909,-3.7091 -6.10909,-7.41819 v -0.10909 c 0.98182,0.54546 2.18182,0.87273 3.38182,0.98182 -2.07273,-1.30909 -3.38182,-3.70909 -3.38182,-6.32727 0,-1.41818 0.32727,-2.72727 0.98182,-3.81818 3.70909,4.58181 9.27272,7.63636 15.6,7.85454 C 330,115.2 329.89091,114.65454 329.89091,114 c 0,-4.14546 3.38181,-7.52728 7.52727,-7.52728 2.18182,0 4.14545,0.87273 5.56364,2.4 1.74545,-0.32727 3.38181,-0.98181 4.8,-1.85454 -0.54546,1.74545 -1.74546,3.27273 -3.27273,4.14545 1.52727,-0.21818 2.94545,-0.54545 4.36363,-1.2 -0.98181,1.63637 -2.2909,2.94546 -3.70909,4.03637 z" />
  <path
     id="path2414"
     style="fill:#6eb2f8;fill-opacity:1;stroke:none;stroke-width:1;stroke-dasharray:none"
     d="m 450.12042,90.000661 c -14.10908,-0.09807 -27.20783,10.721909 -29.7322,25.442199 -2.51196,14.64786 7.42014,29.51884 22.44362,33.60401 19.94016,5.42214 40.27677,-13.1635 36.77142,-33.60401 -2.21086,-12.89218 -12.17656,-22.844448 -25.08357,-25.052783 -1.47061,-0.251612 -2.93971,-0.379265 -4.39927,-0.389416 z m -11.62453,15.497379 c 1.098,0 1.97326,0.29888 2.63205,0.93697 0.65879,0.6381 0.98849,1.44226 1.00136,2.41552 v 0.0297 c 0.0129,0.96038 -0.32318,1.74331 -1.00136,2.38787 -0.67819,0.64454 -1.58246,0.96661 -2.6934,0.96661 h -0.0297 c -1.08509,-1e-5 -1.94753,-0.32207 -2.60632,-0.96661 -0.6588,-0.64455 -0.9974,-1.45071 -0.9974,-2.41753 0,-0.97325 0.35287,-1.77744 1.03104,-2.41552 0.67818,-0.63811 1.56571,-0.93697 2.66371,-0.93697 z m 19.19413,8.97228 c 2.25415,0 4.07437,0.74229 5.45011,2.23763 1.37573,1.49534 2.05814,3.70332 2.05814,6.58441 v 11.20991 h -6.50887 v -10.48446 c 0,-1.38576 -0.25155,-2.45202 -0.78764,-3.23192 -0.53608,-0.78634 -1.37653,-1.17811 -2.51329,-1.17811 -0.8332,0 -1.52788,0.20654 -2.08981,0.66417 -0.56192,0.45762 -0.99276,1.02174 -1.2705,1.69207 -0.14205,0.39317 -0.21175,0.95401 -0.21175,1.63077 v 10.90748 h -6.51085 c 0.026,-5.25302 0.0316,-9.5116 0.0316,-12.77941 0,-3.26783 0.0129,-5.22931 0,-5.86094 l -0.0316,-0.93696 h 6.51085 v 2.8089 c 0.25718,-0.40328 0.5163,-0.75124 0.78565,-1.05754 0.27773,-0.31581 0.65506,-0.6605 1.1201,-1.02789 0.4715,-0.36738 1.04947,-0.66942 1.72765,-0.87567 0.67818,-0.20623 1.407,-0.30244 2.24021,-0.30244 z m -22.52476,0.45464 h 6.54053 v 19.57731 h -6.54053 z" />
  <path
     id="fa-times-4"
     d="m 688,57.75202 q 0,1.07532 -0.75087,1.83546 l -3.66164,3.66164 q -0.75087,0.75087 -1.83546,0.75087 -1.07533,0 -1.83546,-0.75087 L 672,55.33256 l -7.91657,7.91656 q -0.75086,0.75087 -1.83546,0.75087 -1.07532,0 -1.83546,-0.75087 l -3.66164,-3.66164 Q 656,58.83661 656,57.75202 q 0,-1.07532 0.75087,-1.83546 l 7.91656,-7.91657 -7.91656,-7.91656 Q 656,39.33256 656,38.24797 q 0,-1.07532 0.75087,-1.83546 l 3.66164,-3.66165 Q 661.16338,32 662.24797,32 q 1.07533,0 1.83546,0.75086 L 672,40.66743 679.91657,32.75086 Q 680.66743,32 681.75203,32 q 1.07532,0 1.83546,0.75086 l 3.66164,3.66165 Q 688,37.16338 688,38.24797 q 0,1.07532 -0.75087,1.83546 L 679.33257,48 l 7.91656,7.91656 Q 688,56.66743 688,57.75202 Z"
     inkscape:connector-curvature="0"
     style="fill:#000000;fill-opacity:1;stroke:none;stroke-width:1.06667" />
  <path
     id="fa-times"
     d="m 656,57.75203 q 0,1.07532 -0.75087,1.83546 l -3.66164,3.66164 Q 650.83662,64 649.75203,64 648.6767,64 647.91657,63.24913 L 640,55.33256 632.08344,63.24913 Q 631.33257,64 630.24797,64 q -1.07532,0 -1.83546,-0.75087 l -3.66164,-3.66164 Q 624,58.83662 624,57.75203 q 0,-1.07532 0.75087,-1.83546 L 632.66744,48 624.75087,40.08343 Q 624,39.33256 624,38.24797 q 0,-1.07531 0.75087,-1.83545 l 3.66164,-3.66165 Q 629.16338,32 630.24797,32 q 1.07533,0 1.83547,0.75087 L 640,40.66744 647.91657,32.75087 Q 648.66744,32 649.75203,32 q 1.07532,0 1.83546,0.75087 l 3.66164,3.66165 Q 656,37.16339 656,38.24797 q 0,1.07532 -0.75087,1.83546 L 647.33257,48 l 7.91656,7.91657 Q 656,56.66744 656,57.75203 Z"
     inkscape:connector-curvature="0"
     style="fill:#595959;fill-opacity:1;stroke:none;stroke-width:1.06667" />
</svg>
