<?xml version="1.0" encoding="UTF-8" standalone="no"?>
<!-- Generator: Adobe Illustrator 25.2.1, SVG Export Plug-In . SVG Version: 6.00 Build 0)  -->

<svg
   version="1.1"
   id="Layer_1"
   x="0px"
   y="0px"
   viewBox="0 0 1500 800.00001"
   xml:space="preserve"
   sodipodi:docname="wheeltheworld.svg"
   width="1500"
   height="800"
   inkscape:version="1.2.1 (9c6d41e, 2022-07-14)"
   xmlns:inkscape="http://www.inkscape.org/namespaces/inkscape"
   xmlns:sodipodi="http://sodipodi.sourceforge.net/DTD/sodipodi-0.dtd"
   xmlns="http://www.w3.org/2000/svg"
   xmlns:svg="http://www.w3.org/2000/svg"><defs
   id="defs18540" /><sodipodi:namedview
   id="namedview18538"
   pagecolor="#ffffff"
   bordercolor="#000000"
   borderopacity="0.25"
   inkscape:showpageshadow="2"
   inkscape:pageopacity="0.0"
   inkscape:pagecheckerboard="0"
   inkscape:deskcolor="#d1d1d1"
   showgrid="false"
   inkscape:zoom="0.623"
   inkscape:cx="353.93258"
   inkscape:cy="161.31621"
   inkscape:window-width="2004"
   inkscape:window-height="1387"
   inkscape:window-x="0"
   inkscape:window-y="25"
   inkscape:window-maximized="0"
   inkscape:current-layer="Layer_1" />
<style
   type="text/css"
   id="style18346">
	.st0{fill:#40A1CF;}
	.st1{fill:#5A2D83;}
	.st2{fill:#FFFFFF;}
	.st3{fill:#90BF3F;}
	.st4{fill:#1E478B;}
</style>


<g
   id="g19480"
   transform="matrix(1.1709165,0,0,1.1709165,164.71739,108.94255)"><g
     id="All_white_loop">
	<g
   id="g18522">
		<path
   class="st0"
   d="m 726.1,394.6 c -1.6,-0.3 -9,-2.2 -10.5,-2.6 -29.4,-8.1 -55.9,-25.7 -74.9,-47 -4,-4.6 -10.8,-11.3 -14.3,-16.3 l -24.4,-30 -58.9,3.1 -3.5,59.7 11.4,13.2 17.1,19.7 v 0.1 c 7.2,9.1 15,17.6 23.4,25.5 v 0 l 0.1,0.1 c 32.1,30.4 78.9,53.5 125.4,61.8 l -38.3,-52.7 z"
   id="path18348" />
		<path
   class="st0"
   d="m 529.2,349.4 -30,-35.1 -0.2,0.3 -58.3,-67.2 0.4,-0.5 -76.7,-89.4 c -0.5,-0.6 -1,-1.4 -1.5,-2 l -0.7,-0.9 -2.8,-59.1 63.9,-3 75.9,87.6 0.2,-0.2 87.1,100.5 6.2,7.9 -60.1,2.7 z"
   id="path18350" />
		<path
   class="st1"
   d="m 164.8,125.3 c 23.6,-15.9 51.9,-25.1 82.5,-25.1 40.2,0 76.6,16.1 103.3,42.1 l -2.7,-56.6 66.4,-3.1 -1,-1.1 C 370.7,39.1 312,12.9 247.3,12.9 c -53.6,0 -103.2,18 -142.8,48.3 l -4,59.8 z"
   id="path18352" />
		<g
   id="g18362">
			<path
   class="st2"
   d="m 421.2,161.8 c -2.4,1.9 -4.8,2.9 -7.1,2.9 -2.3,0.1 -4.2,-0.9 -5.6,-2.7 -1.4,-1.7 -1.9,-3.5 -1.5,-5.5 l -7.4,5.9 -2.8,-3.5 21.7,-17.2 2.6,3.2 -1.4,1.4 c 2.1,0 3.8,1 5.2,2.7 1.5,1.9 2,3.9 1.4,6.2 -0.6,2.2 -2.1,4.3 -4.7,6.3 z m -2.4,-3.8 c 1.5,-1.2 2.6,-2.5 3,-3.9 0.4,-1.4 0.2,-2.6 -0.7,-3.8 -1.1,-1.4 -2.6,-2 -4.3,-1.7 l -6.9,5.5 c -0.7,1.6 -0.5,3.1 0.6,4.6 0.9,1.1 2,1.6 3.5,1.5 1.3,0.1 2.9,-0.8 4.8,-2.2 z"
   id="path18354" />
			<path
   class="st2"
   d="m 418.9,174.6 -2.9,-3.6 22.2,-17.6 2.8,3.5 z"
   id="path18356" />
			<path
   class="st2"
   d="m 429.2,187.7 c 0.2,-0.4 0.6,-0.9 1.1,-1.5 -2,-0.2 -3.7,-1.1 -5,-2.7 -1.2,-1.6 -1.8,-3.2 -1.7,-4.9 0.1,-1.7 0.8,-3.1 2.2,-4.1 1.7,-1.3 3.5,-1.7 5.3,-1.2 1.9,0.5 3.7,1.9 5.6,4.3 l 1.7,2.2 1,-0.8 c 0.8,-0.6 1.3,-1.4 1.4,-2.3 0.2,-0.9 -0.2,-1.7 -0.9,-2.7 -0.6,-0.8 -1.4,-1.3 -2.2,-1.5 -0.8,-0.2 -1.5,-0.1 -2.1,0.4 l -2.8,-3.5 c 0.9,-0.6 1.9,-1 3.1,-1 1.2,0 2.4,0.3 3.6,1 1.2,0.6 2.3,1.5 3.2,2.7 1.4,1.9 2.2,3.6 2.1,5.5 -0.1,1.9 -0.9,3.4 -2.6,4.8 l -7.1,5.6 c -1.4,1.1 -2.4,2.2 -2.9,3.2 l -0.2,0.2 z m -0.4,-5.8 c 0.6,0.7 1.2,1.2 2.1,1.5 0.8,0.3 1.6,0.5 2.4,0.3 l 3,-2.3 -1.5,-1.9 c -1,-1.3 -2,-2.1 -3,-2.4 -1,-0.3 -1.9,-0.1 -2.7,0.6 -0.6,0.6 -1,1.2 -1,1.9 -0.2,0.8 0,1.5 0.7,2.3 z"
   id="path18358" />
			<path
   class="st2"
   d="m 452.8,185.3 -1.7,1.5 c 2.3,0.1 4.2,1 5.7,2.9 2.6,3.3 2,6.4 -1.7,9.4 l -10.4,8.2 -2.8,-3.5 10.1,-8.1 c 1,-0.8 1.5,-1.6 1.7,-2.4 0.2,-0.8 -0.2,-1.7 -1,-2.7 -1.1,-1.4 -2.6,-1.9 -4.4,-1.6 l -11.1,8.8 -2.8,-3.5 15.7,-12.4 z"
   id="path18360" />
		</g>
		<g
   id="g18372">
			<path
   class="st2"
   d="m 421.2,161.8 c -2.4,1.9 -4.8,2.9 -7.1,2.9 -2.3,0.1 -4.2,-0.9 -5.6,-2.7 -1.4,-1.7 -1.9,-3.5 -1.5,-5.5 l -7.4,5.9 -2.8,-3.5 21.7,-17.2 2.6,3.2 -1.4,1.4 c 2.1,0 3.8,1 5.2,2.7 1.5,1.9 2,3.9 1.4,6.2 -0.6,2.2 -2.1,4.3 -4.7,6.3 z m -2.4,-3.8 c 1.5,-1.2 2.6,-2.5 3,-3.9 0.4,-1.4 0.2,-2.6 -0.7,-3.8 -1.1,-1.4 -2.6,-2 -4.3,-1.7 l -6.9,5.5 c -0.7,1.6 -0.5,3.1 0.6,4.6 0.9,1.1 2,1.6 3.5,1.5 1.3,0.1 2.9,-0.8 4.8,-2.2 z"
   id="path18364" />
			<path
   class="st2"
   d="m 418.9,174.6 -2.9,-3.6 22.2,-17.6 2.8,3.5 z"
   id="path18366" />
			<path
   class="st2"
   d="m 429.2,187.7 c 0.2,-0.4 0.6,-0.9 1.1,-1.5 -2,-0.2 -3.7,-1.1 -5,-2.7 -1.2,-1.6 -1.8,-3.2 -1.7,-4.9 0.1,-1.7 0.8,-3.1 2.2,-4.1 1.7,-1.3 3.5,-1.7 5.3,-1.2 1.9,0.5 3.7,1.9 5.6,4.3 l 1.7,2.2 1,-0.8 c 0.8,-0.6 1.3,-1.4 1.4,-2.3 0.2,-0.9 -0.2,-1.7 -0.9,-2.7 -0.6,-0.8 -1.4,-1.3 -2.2,-1.5 -0.8,-0.2 -1.5,-0.1 -2.1,0.4 l -2.8,-3.5 c 0.9,-0.6 1.9,-1 3.1,-1 1.2,0 2.4,0.3 3.6,1 1.2,0.6 2.3,1.5 3.2,2.7 1.4,1.9 2.2,3.6 2.1,5.5 -0.1,1.9 -0.9,3.4 -2.6,4.8 l -7.1,5.6 c -1.4,1.1 -2.4,2.2 -2.9,3.2 l -0.2,0.2 z m -0.4,-5.8 c 0.6,0.7 1.2,1.2 2.1,1.5 0.8,0.3 1.6,0.5 2.4,0.3 l 3,-2.3 -1.5,-1.9 c -1,-1.3 -2,-2.1 -3,-2.4 -1,-0.3 -1.9,-0.1 -2.7,0.6 -0.6,0.6 -1,1.2 -1,1.9 -0.2,0.8 0,1.5 0.7,2.3 z"
   id="path18368" />
			<path
   class="st2"
   d="m 452.8,185.3 -1.7,1.5 c 2.3,0.1 4.2,1 5.7,2.9 2.6,3.3 2,6.4 -1.7,9.4 l -10.4,8.2 -2.8,-3.5 10.1,-8.1 c 1,-0.8 1.5,-1.6 1.7,-2.4 0.2,-0.8 -0.2,-1.7 -1,-2.7 -1.1,-1.4 -2.6,-1.9 -4.4,-1.6 l -11.1,8.8 -2.8,-3.5 15.7,-12.4 z"
   id="path18370" />
		</g>
		<g
   id="g18388">
			<path
   class="st2"
   d="m 573.2,319.1 -1.7,1.6 c 2.4,0 4.6,1 6.4,3.2 2,2.3 2.5,4.7 1.4,7 2.8,-0.2 5.2,0.8 7.2,3.1 1.6,1.9 2.3,3.8 2.1,5.6 -0.2,1.9 -1.4,3.6 -3.4,5.4 l -11.1,9.6 -3.4,-3.9 11,-9.5 c 1,-1 1.7,-1.9 1.8,-2.7 0.1,-0.9 -0.3,-1.9 -1.3,-3.1 -0.7,-0.9 -1.6,-1.4 -2.6,-1.5 -1,-0.2 -1.9,0 -2.8,0.4 l -11.6,10.1 -3.4,-3.9 11.2,-9.6 c 1.9,-1.8 2,-3.7 0.3,-5.7 -1.4,-1.5 -2.9,-2.1 -4.8,-1.7 l -12,10.5 -3.4,-3.9 17,-14.6 z"
   id="path18374" />
			<path
   class="st2"
   d="m 585.9,350.4 c 1.6,-1.4 3.4,-2.5 5.2,-3.1 1.9,-0.6 3.7,-0.6 5.5,0 1.8,0.6 3.4,1.6 4.8,3.1 2.1,2.3 3.1,4.8 2.9,7.5 -0.2,2.7 -1.3,5.2 -3.5,7.6 l -0.9,0.8 c -1.6,1.5 -3.4,2.5 -5.2,3.1 -1.8,0.6 -3.7,0.6 -5.5,0 -1.8,-0.6 -3.4,-1.6 -4.8,-3.1 -2.2,-2.3 -3.1,-5 -2.9,-7.8 0.2,-2.8 1.6,-5.5 4.2,-7.8 z m 3.1,4.1 c -1.7,1.5 -2.7,3.1 -3,4.8 -0.3,1.6 0.2,3.1 1.3,4.3 1.2,1.3 2.6,1.9 4.2,1.6 1.6,-0.2 3.4,-1.1 5.2,-2.9 1.7,-1.5 2.7,-3.1 3,-4.8 0.3,-1.7 -0.2,-3.1 -1.3,-4.3 -1.1,-1.2 -2.5,-1.8 -4.1,-1.6 -1.6,0.2 -3.3,1.1 -5.3,2.9 z"
   id="path18376" />
			<path
   class="st2"
   d="m 614.6,365 -1.8,1.9 c 2.6,-0.2 4.9,0.6 6.8,2.7 3.3,3.4 3.1,7 -0.6,10.8 l -10.5,10.4 -3.6,-3.6 L 615,377 c 1,-1 1.5,-1.9 1.6,-2.9 0.1,-0.9 -0.4,-1.9 -1.4,-2.9 -1.4,-1.4 -3.2,-1.9 -5.2,-1.4 l -11.4,11.2 -3.6,-3.6 15.9,-15.7 z"
   id="path18378" />
			<path
   class="st2"
   d="m 616.5,398.4 -3.7,-3.5 15.5,-16.2 3.7,3.5 z M 632,374.2 c 0.6,-0.6 1.1,-0.9 1.9,-0.9 0.8,0 1.4,0.3 2.1,1 0.6,0.6 1,1.3 1,2 0,0.7 -0.2,1.4 -0.8,1.9 -0.6,0.6 -1.1,0.8 -1.9,0.8 -0.8,0 -1.4,-0.3 -2.1,-1 -0.6,-0.6 -1,-1.3 -1,-2 0,-0.7 0.3,-1.3 0.8,-1.8 z"
   id="path18380" />
			<path
   class="st2"
   d="m 644.4,386.1 -3.6,4 3,2.7 -2.5,2.7 -3,-2.7 -8.4,9.3 c -0.6,0.6 -0.9,1.2 -0.9,1.7 0,0.5 0.3,1 1,1.7 0.4,0.4 1,0.7 1.4,1 l -2.6,2.9 c -1,-0.6 -2,-1.2 -2.8,-1.9 -2.9,-2.7 -3,-5.6 -0.1,-8.7 l 8.5,-9.4 -2.8,-2.5 2.5,-2.7 2.8,2.5 3.6,-4 z"
   id="path18382" />
			<path
   class="st2"
   d="m 638.1,402.7 c 1.4,-1.7 3,-3 4.8,-3.8 1.8,-0.8 3.6,-1 5.5,-0.8 1.9,0.2 3.5,1 5.2,2.3 2.4,1.9 3.7,4.3 4,7 0.2,2.7 -0.6,5.4 -2.4,8 l -0.7,1 c -1.4,1.7 -3,3 -4.8,3.8 -1.8,0.8 -3.5,1 -5.4,0.8 -1.9,-0.2 -3.6,-1 -5.2,-2.4 -2.5,-2 -3.9,-4.4 -4,-7.3 -0.2,-2.8 0.8,-5.6 3.1,-8.4 z m 3.7,3.7 c -1.4,1.8 -2.2,3.5 -2.3,5.2 -0.1,1.6 0.6,3 1.9,4.1 1.4,1 2.8,1.4 4.4,1 1.6,-0.4 3.1,-1.6 4.8,-3.6 1.4,-1.8 2.2,-3.5 2.3,-5.2 0.1,-1.7 -0.6,-3 -1.9,-4.1 -1.3,-1 -2.7,-1.4 -4.3,-1 -1.6,0.3 -3.2,1.5 -4.9,3.6 z"
   id="path18384" />
			<path
   class="st2"
   d="m 672.1,420.1 c -0.5,-0.5 -1,-0.9 -1.6,-1.3 -1.9,-1.3 -3.8,-1.4 -5.4,-0.4 l -8.5,12.7 -4.3,-2.8 12.4,-18.7 4.1,2.7 -1.3,2.2 c 2.1,-1 4.1,-0.8 5.9,0.4 0.6,0.4 1,0.8 1.4,1.2 z"
   id="path18386" />
		</g>
		<path
   class="st1"
   d="m 169.5,374.6 c -16.3,-10 -30.6,-23.1 -42.2,-39 -0.2,-0.3 -0.5,-0.6 -0.6,-1 -1,-1.4 -1.9,-2.7 -2.9,-4.2 0,0 0,-0.1 -0.1,-0.1 -5.5,-8.2 -10.1,-17.2 -14,-26.7 h -0.1 c -6.9,-17.1 -10.7,-35.8 -10.7,-55.3 0,-44.9 20.1,-85.2 51.8,-112.4 L 88,131.7 92,71.1 c -49.3,43.2 -80.5,106.6 -80.5,177.2 0,45.5 13,88 35.4,124.1 0.2,0.2 0.3,0.5 0.5,0.7 1.4,2.3 3,4.7 4.5,6.9 0.6,0.9 1.2,1.7 1.8,2.6 1.1,1.7 2.3,3.3 3.5,4.9 0.9,1.3 1.9,2.5 2.8,3.7 0.5,0.6 1,1.3 1.5,1.9 19.3,24.7 43.2,45 69.8,60.1 l 58.4,-20.1 z"
   id="path18390" />
		<g
   id="g18410">
			<path
   class="st3"
   d="m 247.2,484.2 c 0.5,0 1,0 1.4,0 -1,0 -2.2,0 -3.2,0 0.6,-0.1 1.2,0 1.8,0 z"
   id="path18392" />
			<path
   class="st3"
   d="m 248.3,396.7 c 1.9,0 3.9,-0.1 5.7,-0.2 -1.8,0.2 -3.8,0.2 -5.7,0.2 z"
   id="path18394" />
			<path
   class="st3"
   d="m 243.1,484.1 c -1.7,0 -3.3,-0.1 -5,-0.2 1.7,0.1 3.3,0.2 5,0.2 z"
   id="path18396" />
			<path
   class="st3"
   d="m 253.8,484 c -0.6,0 -1.2,0 -1.9,0.1 0.7,0 1.3,0 1.9,-0.1 z"
   id="path18398" />
			<path
   class="st3"
   d="m 246.4,396.8 c -1.8,0 -3.5,-0.1 -5.2,-0.2 1.8,0.1 3.5,0.1 5.2,0.2 z"
   id="path18400" />
			<path
   class="st0"
   d="m 258.2,483.8 c -1.4,0.1 -2.9,0.1 -4.3,0.2 1.3,0 2.8,-0.1 4.3,-0.2 z"
   id="path18402" />
			<path
   class="st0"
   d="m 184.7,382.8 v 0 c 17.3,8.1 36.4,13 56.5,13.9 -19.6,-1 -38.9,-5.7 -56.5,-13.9 z"
   id="path18404" />
			<path
   class="st0"
   d="m 248.3,396.7 c -0.6,0 -1.2,0 -1.9,0 0.2,0 0.6,0 0.8,0 0.4,0.1 0.7,0.1 1.1,0 z"
   id="path18406" />
			<path
   class="st3"
   d="m 574.9,95.6 -217.6,251.1 -12.2,13 c -24.4,21.5 -56,35.1 -90.5,36.8 -0.2,0 -0.3,0 -0.5,0 -1.9,0.1 -3.9,0.2 -5.7,0.2 -0.3,0 -0.7,0 -1,0 -0.2,0 -0.6,0 -0.8,0 -1.8,0 -3.5,-0.1 -5.2,-0.2 -20.1,-0.8 -39.2,-5.6 -56.5,-13.8 l 19.9,57.8 -58.9,20.3 c 28.8,13.7 60.2,21.7 92.4,23 h 0.1 c 1.7,0.1 3.3,0.1 5,0.2 0.8,0 1.6,0 2.3,0 1,0 2.2,0 3.2,0 1,0 2.2,0 3.2,0 0.6,0 1.2,0 1.9,-0.1 1.4,-0.1 2.9,-0.1 4.3,-0.2 0.2,0 0.4,0 0.6,0 25.5,-1.2 51.3,-6.6 76.3,-16.7 v 0 c 25.4,-10.2 48.5,-24.7 68.6,-42.7 l 11.1,-11.7 49.9,-57.1 34.6,-40.3 0.3,0.4 58.6,-67.2 -0.5,-0.6 74.6,-87 c 1,-1.3 1.9,-2.6 2.9,-3.9 l 0.9,-60.5 z"
   id="path18408" />
		</g>
		<path
   class="st4"
   d="M 842.5,30.1 C 813.3,18.1 782,12.2 750.9,12.5 l -1.2,0.1 0.3,0.4 C 685.4,13.7 627,40.6 584.8,83.5 l -0.8,0.9 64.7,1 -0.9,58.5 c 26.8,-27 63.9,-43.6 104.9,-43.6 20.5,0 40.1,4.2 57.9,11.8 l 46.9,-25 z"
   id="path18412" />
		<path
   class="st4"
   d="m 824.8,119 c 6.4,3.6 12.6,7.7 18.4,12.2 l 12.2,10.5 c 27.6,26.6 44.9,63.6 45.5,104.7 0,0 -0.7,29.2 -7.1,47.8 l 22.7,52.9 60.6,-27 c 7.2,-22.6 11.1,-46.7 11.1,-71.7 0,-11.6 -2.3,-34.4 -2.3,-34.4 -7,-48.6 -29.2,-95.4 -66.4,-132.7 -18.4,-18.4 -39,-33 -61,-44.1 l 13.4,56.5 z"
   id="path18414" />
		<path
   class="st4"
   d="m 971.6,335.7 c -11.4,29.2 -29,56.5 -52.5,80 -40.2,40.2 -91.3,62.7 -143.8,67.8 0,0 -28.8,2.6 -44.5,0 l -37.5,-52.2 47.2,-34.6 c 3.1,0.2 6.8,0.1 12.3,0.1 40.1,0 76.7,-15.5 103.4,-41.6 0,0 0.7,-0.8 1.2,-1.3 3.5,-3.5 6.6,-7 9.7,-10.7 v -0.4 c 8.4,-10.1 15.5,-21.4 20.9,-33.6 l 23,53.2 z"
   id="path18416" />
		<g
   id="g18426">
			<path
   class="st2"
   d="m 199.9,77.2 c 1,-0.3 1.9,-0.9 2.4,-1.7 0.5,-0.8 0.6,-1.7 0.5,-2.7 l 4,-1.2 c 0.3,1.2 0.2,2.4 -0.2,3.7 -0.4,1.2 -1.1,2.3 -2.1,3.3 -1,1 -2.2,1.6 -3.6,2 -2.7,0.8 -5.1,0.6 -7.2,-0.7 -2.1,-1.3 -3.5,-3.5 -4.5,-6.5 L 189,72.9 c -0.9,-2.9 -0.8,-5.5 0.2,-7.7 1,-2.2 2.9,-3.7 5.6,-4.5 2.3,-0.6 4.3,-0.6 6.1,0.3 1.9,0.9 3.1,2.4 3.8,4.6 l -4,1.2 c -0.4,-1 -1,-1.9 -1.9,-2.4 -0.9,-0.5 -1.9,-0.6 -3,-0.2 -1.4,0.4 -2.3,1.2 -2.7,2.5 -0.5,1.2 -0.4,2.9 0.2,4.9 l 0.2,0.7 c 0.6,2.1 1.4,3.5 2.5,4.3 1.2,0.9 2.5,1.1 3.9,0.6 z"
   id="path18418" />
			<path
   class="st2"
   d="m 208.7,67.6 c -0.3,-1.9 -0.2,-3.7 0.2,-5.4 0.5,-1.7 1.4,-3.1 2.6,-4.1 1.2,-1 2.7,-1.8 4.6,-2.1 2.7,-0.5 5,0 6.9,1.4 1.9,1.4 3.2,3.5 3.9,6.4 l 0.2,1 c 0.3,1.9 0.2,3.7 -0.2,5.4 -0.5,1.7 -1.4,3 -2.6,4.1 -1.2,1 -2.8,1.8 -4.6,2.1 -2.7,0.5 -5.2,-0.1 -7.2,-1.6 -2,-1.5 -3.2,-3.9 -3.8,-7 z m 4.6,-0.4 c 0.3,2 1,3.5 2.1,4.5 1,1 2.3,1.4 3.8,1.1 1.5,-0.2 2.6,-1 3.2,-2.3 0.6,-1.3 0.7,-3.1 0.4,-5.3 -0.3,-2 -1,-3.5 -2.1,-4.5 -1,-1 -2.3,-1.4 -3.8,-1.1 -1.4,0.2 -2.5,1 -3.1,2.3 -0.8,1.2 -0.9,3 -0.5,5.3 z"
   id="path18420" />
			<path
   class="st2"
   d="m 230.5,64.1 c -0.2,-3.1 0.5,-5.6 1.8,-7.5 1.4,-1.9 3.2,-3 5.6,-3.1 2.1,-0.1 3.9,0.6 5.2,1.9 l -0.5,-10.2 4.5,-0.2 1.4,28.3 -4,0.2 -0.3,-2.1 c -1.3,1.7 -3,2.6 -5.2,2.7 -2.3,0.1 -4.3,-0.7 -5.8,-2.6 -1.7,-1.6 -2.5,-4.2 -2.7,-7.4 z m 4.5,0.2 c 0.1,2 0.6,3.6 1.4,4.7 0.8,1.1 1.9,1.6 3.4,1.5 1.9,-0.1 3.1,-1 3.9,-2.7 l -0.4,-8.5 c -0.9,-1.5 -2.3,-2.3 -4.1,-2.2 -1.4,0.1 -2.6,0.7 -3.3,1.9 -0.7,1.2 -1.1,3 -0.9,5.3 z"
   id="path18422" />
			<path
   class="st2"
   d="m 261.1,74.4 c -2.8,-0.2 -5.1,-1.3 -6.7,-3.1 -1.6,-1.9 -2.3,-4.3 -2.2,-7.3 v -0.6 c 0.2,-2 0.6,-3.7 1.5,-5.2 0.9,-1.5 2,-2.7 3.5,-3.5 1.4,-0.8 3.1,-1.1 4.8,-1 2.7,0.2 4.8,1.2 6.1,3.1 1.4,1.9 1.9,4.3 1.7,7.5 l -0.2,1.8 -13,-0.9 c 0,1.7 0.5,3 1.4,4 0.9,1 2.1,1.6 3.5,1.7 2,0.2 3.8,-0.6 5.2,-2.2 l 2.3,2.5 c -0.9,1.1 -2,2 -3.4,2.6 -1.3,0.5 -2.8,0.8 -4.5,0.6 z m 0.6,-17.1 c -1.2,-0.1 -2.3,0.2 -3.1,1 -0.8,0.8 -1.4,1.9 -1.7,3.5 l 8.5,0.6 v -0.3 c 0,-1.5 -0.3,-2.7 -1,-3.5 -0.5,-0.7 -1.4,-1.2 -2.7,-1.3 z"
   id="path18424" />
		</g>
		<g
   id="g18438">
			<path
   class="st2"
   d="m 64.6,299.2 c 2.9,-1 5.5,-1.1 7.7,-0.4 2.2,0.7 3.6,2.3 4.4,4.5 0.7,2.3 0.6,4.2 -0.6,6 l 2.1,-0.5 1.3,3.9 -26.9,9 -1.4,-4.3 9.7,-3.3 c -1.9,-0.7 -3.1,-2.2 -3.9,-4.2 -0.8,-2.3 -0.6,-4.4 0.7,-6.3 1.3,-1.9 3.5,-3.4 6.5,-4.4 z m 1,4.3 c -2,0.7 -3.5,1.5 -4.3,2.7 -0.8,1 -1,2.3 -0.5,3.7 0.6,1.9 1.9,2.9 3.7,3.1 l 7.8,-2.7 c 1.4,-1.3 1.8,-2.9 1.1,-4.8 -0.5,-1.3 -1.3,-2.2 -2.5,-2.6 -1.2,-0.4 -2.9,-0.2 -4.9,0.4 z"
   id="path18428" />
			<path
   class="st2"
   d="m 68.8,281.7 c 1.8,1 2.9,2.7 3.4,5 0.4,2.1 0.2,3.9 -0.9,5.2 -1,1.4 -2.7,2.3 -5.1,2.7 l -12.6,2.7 -0.9,-4.4 12.6,-2.6 c 2.5,-0.5 3.5,-1.8 3.1,-3.9 -0.5,-2.1 -1.5,-3.4 -3.2,-3.9 l -14,2.9 -0.9,-4.4 19.6,-4 0.9,4.1 z"
   id="path18430" />
			<path
   class="st2"
   d="m 44.4,276 c -0.6,0.1 -1.3,-0.1 -1.8,-0.5 -0.5,-0.4 -0.8,-1 -0.9,-1.8 -0.1,-0.8 0.1,-1.4 0.5,-1.9 0.4,-0.5 1,-0.8 1.6,-0.9 0.6,-0.1 1.3,0.1 1.8,0.5 0.5,0.4 0.8,1 0.9,1.8 0.1,0.8 -0.1,1.4 -0.5,1.9 -0.4,0.5 -0.9,0.8 -1.6,0.9 z m 24.5,-7.7 0.6,4.4 -19.8,2.3 -0.6,-4.4 z"
   id="path18432" />
			<path
   class="st2"
   d="m 68.1,259 0.3,4.5 -28.3,1.8 -0.3,-4.5 z"
   id="path18434" />
			<path
   class="st2"
   d="m 57.6,255.3 c -3.1,-0.1 -5.6,-0.8 -7.3,-2.3 -1.9,-1.4 -2.7,-3.4 -2.7,-5.8 0.1,-2.1 0.8,-3.8 2.3,-5.1 l -10.2,-0.2 0.1,-4.5 28.3,0.6 -0.1,4 -2.1,0.2 c 1.6,1.4 2.3,3.2 2.3,5.4 -0.1,2.3 -1,4.2 -3,5.6 -1.8,1.5 -4.4,2.2 -7.6,2.1 z m 0.5,-4.4 c 2,0.1 3.6,-0.3 4.8,-1 1.1,-0.7 1.8,-1.9 1.8,-3.3 0.1,-1.9 -0.7,-3.2 -2.3,-4.1 l -8.5,-0.2 c -1.6,0.8 -2.4,2.1 -2.5,3.9 0,1.4 0.5,2.6 1.6,3.4 1,0.8 2.8,1.2 5.1,1.3 z"
   id="path18436" />
		</g>
		<g
   id="g18452">
			<path
   class="st2"
   d="m 912.2,143.7 c 2.6,-1.7 5,-2.5 7.3,-2.3 2.3,0.2 4.2,1.2 5.5,3.2 1.2,1.8 1.5,3.6 1,5.5 l 8.5,-5.6 2.5,3.7 -23.6,15.7 -2.3,-3.4 1.6,-1.3 c -2.1,-0.2 -3.8,-1.3 -5,-3.1 -1.3,-1.9 -1.5,-4 -0.8,-6.3 0.9,-2.3 2.6,-4.3 5.3,-6.1 z m 2.2,3.9 c -1.7,1.1 -2.8,2.3 -3.3,3.6 -0.5,1.3 -0.4,2.5 0.4,3.7 1,1.5 2.4,2.2 4.3,2 l 7.1,-4.8 c 0.9,-1.6 0.8,-3.1 -0.2,-4.7 -0.8,-1.2 -1.9,-1.9 -3.3,-1.9 -1.5,0.3 -3.1,0.9 -5,2.1 z"
   id="path18440" />
			<path
   class="st2"
   d="m 919.1,175.3 c -1.3,-2.5 -1.5,-5 -0.7,-7.4 0.8,-2.4 2.5,-4.3 5.2,-5.6 l 0.5,-0.2 c 1.8,-0.9 3.5,-1.4 5.3,-1.4 1.8,0 3.3,0.4 4.8,1.2 1.4,0.8 2.5,2 3.3,3.5 1.2,2.4 1.4,4.7 0.5,6.8 -0.9,2.1 -2.7,3.9 -5.6,5.3 l -1.6,0.8 -5.9,-11.7 c -1.4,0.9 -2.3,1.9 -2.7,3.2 -0.4,1.3 -0.3,2.6 0.3,3.9 1,1.9 2.4,3 4.5,3.4 l -1,3.2 c -1.4,-0.2 -2.7,-0.7 -3.9,-1.6 -1.4,-0.7 -2.3,-1.9 -3,-3.4 z m 15,-8.1 c -0.6,-1.1 -1.4,-1.8 -2.5,-2.1 -1.1,-0.3 -2.4,-0.2 -3.9,0.3 l 3.9,7.7 0.3,-0.2 c 1.3,-0.8 2.1,-1.6 2.5,-2.6 0.4,-1 0.3,-2.1 -0.3,-3.1 z"
   id="path18442" />
			<path
   class="st2"
   d="m 939.3,197.9 c -2.9,1 -5.5,1.3 -7.7,0.6 -2.2,-0.7 -3.7,-2.2 -4.5,-4.3 -0.7,-2.1 -0.6,-3.9 0.2,-5.7 l -8.9,3.2 -1.5,-4.2 25.9,-9.5 1.4,3.9 -1.9,0.9 c 1.9,0.7 3.3,2.1 4.1,4.2 0.8,2.3 0.6,4.4 -0.6,6.3 -1.2,1.9 -3.4,3.5 -6.4,4.5 z m -1.2,-4.3 c 1.9,-0.7 3.2,-1.6 4,-2.7 0.8,-1.1 1,-2.4 0.5,-3.8 -0.6,-1.7 -1.8,-2.7 -3.5,-2.9 l -8.3,3.1 c -1.2,1.3 -1.4,2.8 -0.8,4.5 0.5,1.4 1.4,2.2 2.7,2.6 1.4,0.2 3.2,0 5.4,-0.8 z"
   id="path18444" />
			<path
   class="st2"
   d="m 932,209.1 -1.2,-4.3 27.4,-7.4 1.2,4.3 z"
   id="path18446" />
			<path
   class="st2"
   d="m 943,210.6 c 1.9,-0.3 3.7,-0.2 5.4,0.2 1.7,0.5 3.1,1.4 4.1,2.6 1,1.2 1.8,2.7 2.1,4.5 0.5,2.7 0,5 -1.4,6.9 -1.4,1.9 -3.5,3.2 -6.3,3.9 l -1,0.2 c -1.9,0.3 -3.7,0.3 -5.4,-0.2 -1.7,-0.5 -3.1,-1.3 -4.1,-2.6 -1,-1.2 -1.8,-2.7 -2.1,-4.6 -0.5,-2.7 0,-5.2 1.6,-7.2 1.5,-2 3.9,-3.3 6.9,-3.8 z m 0.5,4.4 c -2,0.4 -3.5,1 -4.5,2.1 -1,1 -1.4,2.3 -1.1,3.8 0.2,1.5 1,2.6 2.3,3.1 1.3,0.5 3.1,0.7 5.3,0.3 2,-0.3 3.5,-1 4.5,-2.1 1,-1 1.4,-2.3 1.1,-3.8 -0.2,-1.4 -1,-2.5 -2.3,-3.1 -1.2,-0.5 -3,-0.7 -5.3,-0.3 z"
   id="path18448" />
			<path
   class="st2"
   d="m 943.4,240.1 13.8,3.1 0.3,4.8 -23.4,-6.4 c -3.5,-1 -5.2,-3 -5.4,-5.9 -0.1,-0.6 0,-1.4 0.2,-2.2 l 3.5,-0.2 v 0.9 c 0.1,1.1 0.3,1.9 0.8,2.5 0.5,0.6 1.2,1 2.2,1.2 l 1.8,0.6 19.3,-8.3 0.3,4.8 z"
   id="path18450" />
		</g>
		<g
   id="g18468">
			<path
   class="st2"
   d="m 765.6,440.8 c -0.3,-2.1 -0.2,-4.1 0.4,-6 0.6,-1.9 1.6,-3.3 3,-4.5 1.4,-1.1 3.1,-1.9 5.1,-2.2 2.9,-0.5 5.5,0.2 7.6,1.8 2.1,1.6 3.5,3.9 4.1,7.1 l 0.2,1.1 c 0.3,2.2 0.2,4.1 -0.4,6 -0.6,1.8 -1.5,3.3 -3,4.4 -1.4,1.1 -3.1,1.9 -5.1,2.2 -3.1,0.5 -5.6,-0.2 -7.8,-1.9 -2.2,-1.8 -3.5,-4.3 -4,-7.7 v -0.3 z m 4.9,-0.3 c 0.3,2.3 1,3.9 2.2,5.1 1.1,1.1 2.5,1.5 4.1,1.3 1.6,-0.2 2.8,-1 3.5,-2.5 0.7,-1.5 0.9,-3.4 0.5,-5.9 -0.3,-2.2 -1,-3.9 -2.2,-5 -1.1,-1.1 -2.5,-1.6 -4.1,-1.4 -1.6,0.2 -2.7,1 -3.5,2.5 -0.7,1.4 -0.9,3.3 -0.5,5.9 z"
   id="path18454" />
			<path
   class="st2"
   d="m 808.9,432 c 0.9,3.3 0.9,6.1 -0.1,8.5 -1,2.3 -2.7,3.9 -5.2,4.6 -2.3,0.6 -4.4,0.4 -6.2,-0.7 l 2.8,10.1 -4.8,1.3 -8.1,-29.3 4.3,-1.2 0.8,2.1 c 0.9,-2.1 2.6,-3.5 5,-4.1 2.6,-0.7 4.9,-0.3 6.8,1.2 2,1.5 3.5,3.9 4.4,7.4 z m -4.9,0.9 c -0.6,-2.1 -1.4,-3.7 -2.7,-4.7 -1.2,-1 -2.6,-1.3 -4.1,-0.9 -1.9,0.6 -3.1,1.7 -3.5,3.5 l 2.6,9.4 c 1.3,1.4 3,1.9 4.9,1.3 1.5,-0.4 2.5,-1.4 3.1,-2.8 0.6,-1.4 0.5,-3.3 -0.3,-5.8 z"
   id="path18456" />
			<path
   class="st2"
   d="m 826.5,437 c -2.9,1.2 -5.6,1.3 -8.1,0.2 -2.6,-1 -4.4,-3.1 -5.7,-6.2 l -0.2,-0.6 c -0.8,-2 -1.2,-4 -1,-5.9 0.2,-1.9 0.7,-3.6 1.8,-5.1 1,-1.4 2.4,-2.6 4.2,-3.3 2.7,-1.1 5.2,-1.1 7.5,0 2.3,1.1 4,3.3 5.3,6.5 l 0.7,1.9 -13.3,5.5 c 0.8,1.6 1.9,2.7 3.3,3.3 1.4,0.6 2.8,0.6 4.3,-0.1 2.1,-0.9 3.5,-2.4 4,-4.7 l 3.5,1.4 c -0.3,1.5 -1,2.9 -2.1,4.2 -1.1,1.3 -2.5,2.2 -4.2,2.9 z m -7.7,-17.1 c -1.3,0.5 -2.1,1.4 -2.5,2.6 -0.4,1.2 -0.4,2.6 0,4.3 l 8.7,-3.6 -0.2,-0.3 c -0.7,-1.4 -1.6,-2.5 -2.7,-3 -0.9,-0.6 -2,-0.6 -3.3,0 z"
   id="path18458" />
			<path
   class="st2"
   d="m 841.4,410.4 c -0.6,0.2 -1.3,0.4 -1.9,0.7 -2,1 -3,2.4 -3,4.3 l 6.6,13.4 -4.4,2.2 -9.7,-19.7 4.2,-2.1 1.2,2.2 c 0.2,-2.3 1.3,-3.8 3.2,-4.8 0.6,-0.3 1.2,-0.5 1.7,-0.5 z"
   id="path18460" />
			<path
   class="st2"
   d="m 863.6,418 c -0.4,-0.2 -0.9,-0.7 -1.5,-1.5 -0.6,2.2 -1.8,3.9 -3.8,5 -1.9,1.1 -3.8,1.4 -5.6,1 -1.9,-0.4 -3.2,-1.4 -4.1,-3 -1.1,-2 -1.3,-4 -0.4,-6 0.9,-1.9 2.7,-3.7 5.6,-5.3 l 2.7,-1.5 -0.7,-1.3 c -0.6,-1 -1.3,-1.6 -2.2,-1.9 -0.9,-0.2 -1.9,-0.1 -3.1,0.6 -1,0.6 -1.6,1.3 -2,2.1 -0.3,0.8 -0.3,1.6 0.2,2.4 l -4.3,2.4 c -0.6,-1 -0.8,-2.3 -0.6,-3.5 0.2,-1.3 0.7,-2.6 1.6,-3.8 0.9,-1.2 2.1,-2.3 3.5,-3.1 2.3,-1.3 4.3,-1.8 6.3,-1.4 1.9,0.3 3.5,1.5 4.8,3.5 l 4.9,8.6 c 1,1.7 2,3 3.1,3.7 l 0.2,0.3 z m -6.5,-0.4 c 0.8,-0.5 1.5,-1.1 2,-2 0.5,-0.8 0.7,-1.7 0.7,-2.7 l -2.1,-3.6 -2.3,1.3 c -1.6,0.9 -2.7,1.9 -3.1,2.9 -0.5,1 -0.4,2 0.2,3.1 0.5,0.8 1.1,1.3 1.9,1.5 0.9,0.2 1.8,0 2.7,-0.5 z"
   id="path18462" />
			<path
   class="st2"
   d="m 862.3,386.4 3,4.4 3.2,-2.2 2,3.1 -3.2,2.2 6.8,10.1 c 0.5,0.7 1,1.1 1.4,1.2 0.5,0.2 1,-0.1 1.8,-0.6 0.5,-0.3 0.9,-0.7 1.3,-1.1 l 2.2,3.1 c -0.7,0.9 -1.5,1.6 -2.4,2.2 -3.1,2.1 -5.9,1.4 -8.2,-2 l -7,-10.3 -3,2 -2,-3.1 3,-2 -3,-4.4 z"
   id="path18464" />
			<path
   class="st2"
   d="m 892.7,398.1 c -2.4,1.9 -5,2.8 -7.7,2.5 -2.7,-0.3 -5.2,-1.8 -7.2,-4.3 l -0.4,-0.5 c -1.4,-1.7 -2.3,-3.5 -2.7,-5.4 -0.4,-1.9 -0.3,-3.6 0.2,-5.4 0.6,-1.7 1.6,-3.1 3.1,-4.3 2.3,-1.9 4.8,-2.6 7.2,-2.2 2.5,0.5 4.8,2 7,4.8 l 1.3,1.5 -11.1,9 c 1.3,1.3 2.7,2 4.1,2.2 1.5,0.2 2.9,-0.2 4.1,-1.3 1.8,-1.4 2.6,-3.3 2.6,-5.6 l 3.6,0.3 c 0.2,1.6 -0.2,3.1 -0.8,4.6 -0.8,1.5 -1.8,3 -3.3,4.1 z m -12.3,-14.2 c -1,0.9 -1.6,1.9 -1.7,3.1 -0.1,1.3 0.4,2.7 1.3,4.1 l 7.3,-6 -0.2,-0.3 c -1.1,-1.2 -2.3,-1.9 -3.4,-2.1 -1.1,0 -2.3,0.3 -3.3,1.2 z"
   id="path18466" />
		</g>
		<g
   id="g18484">
			<path
   class="st2"
   d="m 691.9,60.7 c -0.6,0.1 -1.3,0.3 -1.9,0.6 -2.1,0.8 -3.3,2.1 -3.4,4 l 5.1,14.2 -4.7,1.7 -7.4,-20.7 4.4,-1.6 1,2.3 c 0.5,-2.2 1.7,-3.6 3.7,-4.3 0.6,-0.2 1.2,-0.3 1.8,-0.3 z"
   id="path18470" />
			<path
   class="st2"
   d="m 708.6,74.4 c -3,0.8 -5.7,0.6 -8.1,-0.9 -2.4,-1.4 -4,-3.7 -4.8,-6.8 l -0.2,-0.6 c -0.6,-2.1 -0.6,-4.1 -0.3,-6 0.4,-1.9 1.1,-3.5 2.4,-4.8 1.2,-1.3 2.7,-2.3 4.6,-2.7 2.9,-0.8 5.4,-0.5 7.4,1 2.1,1.4 3.5,3.8 4.5,7.2 l 0.5,1.9 -13.9,3.7 c 0.6,1.7 1.6,3 2.9,3.7 1.3,0.7 2.7,0.9 4.3,0.5 2.2,-0.6 3.7,-1.9 4.6,-4.1 l 3.2,1.8 c -0.5,1.5 -1.4,2.8 -2.6,3.9 -1.2,1 -2.7,1.8 -4.5,2.2 z m -5.5,-18 c -1.3,0.3 -2.3,1.1 -2.8,2.3 -0.6,1.1 -0.7,2.6 -0.5,4.3 l 9.1,-2.4 -0.1,-0.3 c -0.6,-1.5 -1.3,-2.7 -2.3,-3.3 -0.9,-0.8 -2.1,-1 -3.4,-0.6 z"
   id="path18472" />
			<path
   class="st2"
   d="m 724.9,70.5 -4.8,0.9 -5.8,-30.7 4.8,-0.9 z"
   id="path18474" />
			<path
   class="st2"
   d="m 738.6,69 c -3.1,0.3 -5.7,-0.4 -7.9,-2.2 -2.2,-1.8 -3.4,-4.3 -3.7,-7.5 l -0.1,-0.6 c -0.2,-2.2 0,-4.2 0.6,-6 0.6,-1.8 1.7,-3.3 3.1,-4.3 1.4,-1.1 3.1,-1.8 4.9,-1.9 3,-0.3 5.4,0.4 7.2,2.1 1.9,1.7 2.9,4.3 3.3,7.8 l 0.2,2 -14.3,1.4 c 0.3,1.8 1,3.1 2.3,4.1 1.1,1 2.6,1.3 4.2,1.1 2.3,-0.2 3.9,-1.4 5.2,-3.3 l 2.9,2.3 c -0.7,1.4 -1.8,2.5 -3.2,3.4 -1.3,0.9 -2.9,1.4 -4.7,1.6 z m -2.5,-18.7 c -1.4,0.2 -2.4,0.7 -3.1,1.8 -0.7,1 -1.1,2.4 -1.2,4.1 l 9.3,-1 v -0.4 c -0.2,-1.6 -0.8,-2.8 -1.7,-3.6 -0.9,-0.7 -2,-1 -3.3,-0.9 z"
   id="path18476" />
			<path
   class="st2"
   d="m 762.5,67.8 c -0.2,-0.4 -0.4,-1.1 -0.6,-2.1 -1.6,1.6 -3.5,2.4 -5.8,2.3 -2.2,0 -4,-0.7 -5.4,-1.9 -1.4,-1.3 -2,-2.8 -2,-4.7 0,-2.3 1,-4.1 2.7,-5.3 1.8,-1.2 4.3,-1.9 7.5,-1.8 l 3.1,0.1 V 53 c 0,-1.1 -0.3,-2 -0.9,-2.7 -0.6,-0.7 -1.6,-1 -2.9,-1 -1.1,0 -2,0.2 -2.7,0.8 -0.7,0.6 -1.1,1.3 -1.1,2.1 l -4.9,-0.1 c 0,-1.2 0.4,-2.3 1.2,-3.4 0.8,-1 1.9,-1.9 3.3,-2.4 1.4,-0.6 2.9,-0.9 4.6,-0.8 2.6,0 4.6,0.7 6.1,2 1.5,1.3 2.3,3.1 2.3,5.5 l -0.2,9.9 c 0,2 0.2,3.5 0.7,4.8 V 68 Z m -5.3,-3.6 c 1,0 1.9,-0.2 2.7,-0.6 0.9,-0.5 1.5,-1 1.9,-1.9 l 0.1,-4.1 -2.7,-0.1 c -1.9,0 -3.2,0.2 -4.1,0.9 -1,0.6 -1.4,1.5 -1.4,2.7 0,1 0.3,1.7 0.9,2.3 0.6,0.5 1.5,0.8 2.6,0.8 z"
   id="path18478" />
			<path
   class="st2"
   d="m 783.1,63.9 c 0.2,-0.9 -0.2,-1.6 -0.8,-2.2 -0.6,-0.6 -1.8,-1.1 -3.4,-1.7 -1.6,-0.6 -3,-1.2 -3.9,-1.9 -2.3,-1.5 -3.2,-3.4 -3,-5.6 0.2,-1.9 1.3,-3.3 3.1,-4.3 1.8,-1 3.9,-1.4 6.3,-1 2.6,0.3 4.6,1.3 6,2.8 1.4,1.5 2,3.3 1.7,5.3 l -4.9,-0.6 c 0.2,-1 -0.1,-1.8 -0.7,-2.5 -0.6,-0.7 -1.5,-1.1 -2.7,-1.3 -1,-0.2 -2,0 -2.7,0.4 -0.7,0.4 -1.2,1 -1.3,1.9 -0.1,0.7 0.2,1.4 0.7,1.9 0.6,0.5 1.8,1.1 3.6,1.8 1.9,0.7 3.3,1.4 4.3,2.2 1,0.7 1.7,1.5 2.2,2.4 0.4,0.9 0.6,1.9 0.4,3.1 -0.2,1.9 -1.3,3.5 -3.1,4.4 -1.8,1 -4,1.3 -6.6,1 -1.8,-0.2 -3.3,-0.8 -4.7,-1.6 -1.3,-0.8 -2.3,-1.9 -2.9,-3.1 -0.6,-1.2 -0.8,-2.5 -0.6,-3.8 l 4.8,0.6 c -0.1,1.1 0.2,2.1 1,2.8 0.7,0.7 1.8,1.2 3.1,1.4 1.3,0.2 2.3,0.1 3.1,-0.3 0.4,-0.7 0.8,-1.3 1,-2.1 z"
   id="path18480" />
			<path
   class="st2"
   d="m 798.7,74 c -3,-0.8 -5.2,-2.4 -6.5,-4.8 -1.4,-2.4 -1.6,-5.2 -0.7,-8.4 l 0.2,-0.6 c 0.6,-2.1 1.5,-3.9 2.7,-5.3 1.3,-1.4 2.7,-2.4 4.5,-3 1.7,-0.6 3.5,-0.6 5.3,-0.1 2.9,0.8 4.8,2.3 6,4.6 1,2.3 1.1,5.1 0.2,8.5 l -0.5,1.9 -13.8,-3.8 c -0.3,1.8 -0.2,3.3 0.6,4.6 0.7,1.3 1.9,2.2 3.5,2.6 2.2,0.6 4.2,0.2 6,-1.2 l 1.9,3.1 c -1.2,1 -2.6,1.7 -4.2,2 -1.7,0.5 -3.4,0.4 -5.2,-0.1 z m 4.4,-18.4 c -1.3,-0.3 -2.5,-0.2 -3.5,0.5 -1,0.7 -1.9,1.9 -2.6,3.4 l 9.1,2.5 0.1,-0.3 c 0.3,-1.6 0.2,-3 -0.3,-3.9 -0.6,-1.1 -1.5,-1.8 -2.8,-2.2 z"
   id="path18482" />
		</g>
		<g
   id="g18520">
			<path
   class="st2"
   d="m 374.9,399.3 c 0.8,-0.9 1.2,-1.9 1.2,-3 0,-1 -0.4,-2 -1.1,-2.7 l 3.1,-3.5 c 1,1 1.7,2.1 2,3.5 0.3,1.4 0.3,2.8 -0.1,4.3 -0.4,1.4 -1.1,2.8 -2.2,4 -2,2.3 -4.4,3.5 -7.1,3.5 -2.7,0 -5.3,-1.1 -8,-3.5 l -0.4,-0.3 c -2.5,-2.3 -3.9,-4.7 -4.2,-7.3 -0.3,-2.7 0.6,-5.2 2.7,-7.5 1.8,-1.9 3.7,-3.1 6,-3.2 2.3,-0.2 4.3,0.5 6.2,2.1 l -3.1,3.5 c -1,-0.8 -2,-1.1 -3.1,-1.1 -1.1,0.1 -2.1,0.6 -3,1.4 -1,1.2 -1.4,2.5 -1.1,3.9 0.3,1.4 1.3,2.9 3.1,4.5 l 0.6,0.6 c 1.8,1.6 3.4,2.4 4.8,2.6 1.4,-0.1 2.6,-0.6 3.7,-1.8 z"
   id="path18486" />
			<path
   class="st2"
   d="m 377.1,385.3 c -1.6,-1.4 -2.7,-3.1 -3.5,-4.8 -0.7,-1.8 -0.9,-3.5 -0.6,-5.3 0.3,-1.8 1.2,-3.4 2.5,-4.9 2,-2.2 4.3,-3.4 6.9,-3.5 2.7,-0.1 5.2,0.8 7.7,2.8 l 0.9,0.7 c 1.6,1.4 2.8,3.1 3.5,4.8 0.7,1.8 0.9,3.5 0.6,5.3 -0.3,1.8 -1.2,3.5 -2.5,4.9 -2.1,2.3 -4.5,3.5 -7.2,3.5 -2.8,0 -5.5,-1.1 -8.1,-3.4 z m 3.6,-3.3 c 1.7,1.5 3.3,2.3 4.9,2.5 1.6,0.2 2.9,-0.4 4,-1.6 1.1,-1.2 1.4,-2.7 1.1,-4.2 -0.3,-1.5 -1.4,-3.1 -3.3,-4.8 -1.7,-1.4 -3.3,-2.3 -4.9,-2.4 -1.6,-0.2 -3,0.4 -4,1.6 -1,1.2 -1.4,2.6 -1.1,4.1 0.2,1.5 1.4,3.1 3.3,4.8 z"
   id="path18488" />
			<path
   class="st2"
   d="m 388.5,356.4 2,1.6 c -0.4,-2.5 0.3,-4.8 2.1,-6.8 3.1,-3.4 6.5,-3.4 10.5,0 l 10.8,9.7 -3.3,3.7 -10.6,-9.5 c -1,-1 -2,-1.4 -2.9,-1.4 -0.9,0 -1.8,0.5 -2.7,1.5 -1.3,1.4 -1.6,3.2 -1,5.2 l 11.7,10.4 -3.3,3.7 -16.3,-14.7 z"
   id="path18490" />
			<path
   class="st2"
   d="m 401,334.4 3.9,3.5 2.6,-2.9 2.7,2.4 -2.6,2.9 9.2,8.1 c 0.6,0.6 1.2,0.8 1.7,0.8 0.5,0 1,-0.3 1.6,-1 0.4,-0.4 0.7,-0.9 1,-1.4 l 2.8,2.6 c -0.5,1 -1.1,1.9 -1.9,2.7 -2.5,2.8 -5.3,2.8 -8.5,0.1 l -9.3,-8.3 -2.4,2.7 -2.7,-2.4 2.4,-2.7 -3.9,-3.5 z"
   id="path18492" />
			<path
   class="st2"
   d="m 405.8,328.5 c -0.6,-0.5 -0.9,-1.1 -1,-1.8 -0.1,-0.7 0.2,-1.4 0.8,-2 0.6,-0.6 1.2,-1 1.9,-1 0.7,0 1.4,0.2 1.9,0.7 0.6,0.5 0.9,1.1 0.9,1.8 0.1,0.7 -0.2,1.4 -0.8,2 -0.6,0.6 -1.2,1 -1.9,1 -0.7,0 -1.3,-0.2 -1.8,-0.7 z m 24.1,14.5 -3.3,3.7 -16.4,-14.7 3.3,-3.7 z"
   id="path18494" />
			<path
   class="st2"
   d="m 420.1,320.9 2,1.6 c -0.4,-2.5 0.3,-4.8 2.1,-6.8 3.1,-3.4 6.5,-3.4 10.5,0 l 10.8,9.7 -3.3,3.7 -10.6,-9.5 c -1,-1 -2,-1.4 -2.9,-1.4 -0.9,0 -1.8,0.5 -2.7,1.5 -1.3,1.4 -1.6,3.2 -1,5.2 l 11.7,10.4 -3.3,3.7 -16.4,-14.6 z"
   id="path18496" />
			<path
   class="st2"
   d="m 456.1,310.4 c 0.3,2.3 -0.4,4.3 -2.2,6.3 -1.6,1.8 -3.3,2.7 -5.2,2.7 -1.9,0 -3.8,-0.9 -5.7,-2.7 l -10.6,-9.5 3.3,-3.7 10.5,9.4 c 2.1,1.9 3.9,1.9 5.4,0.2 1.6,-1.8 2,-3.5 1.3,-5.3 l -11.8,-10.5 3.3,-3.7 16.3,14.7 -3.1,3.5 z"
   id="path18498" />
			<path
   class="st2"
   d="m 455.3,297.7 c -1.6,-1.4 -2.7,-3.1 -3.5,-4.8 -0.7,-1.8 -0.9,-3.5 -0.6,-5.3 0.3,-1.8 1.2,-3.4 2.5,-4.9 2,-2.2 4.3,-3.4 6.9,-3.5 2.7,-0.1 5.2,0.8 7.7,2.8 l 0.9,0.7 c 1.6,1.4 2.8,3.1 3.5,4.8 0.7,1.8 0.9,3.5 0.6,5.3 -0.3,1.8 -1.2,3.5 -2.5,4.9 -2.1,2.3 -4.5,3.5 -7.2,3.5 -2.8,0 -5.5,-1.1 -8.1,-3.4 z m 3.6,-3.4 c 1.7,1.5 3.3,2.3 4.9,2.5 1.6,0.2 2.9,-0.4 4,-1.6 1.1,-1.2 1.4,-2.7 1.1,-4.2 -0.3,-1.5 -1.4,-3.1 -3.3,-4.8 -1.7,-1.4 -3.3,-2.3 -4.9,-2.4 -1.6,-0.2 -3,0.4 -4,1.6 -1,1.2 -1.4,2.6 -1.1,4.1 0.3,1.5 1.4,3.1 3.3,4.8 z"
   id="path18500" />
			<path
   class="st2"
   d="m 487.3,275.5 c 0.3,2.3 -0.4,4.3 -2.2,6.3 -1.6,1.8 -3.3,2.7 -5.2,2.7 -1.9,0 -3.8,-0.9 -5.7,-2.7 l -10.6,-9.5 3.3,-3.7 10.5,9.4 c 2.1,1.9 3.9,1.9 5.4,0.2 1.6,-1.8 2,-3.5 1.3,-5.3 l -11.8,-10.5 3.3,-3.7 16.3,14.7 -3.1,3.5 z"
   id="path18502" />
			<path
   class="st2"
   d="m 499.2,256.4 c -0.6,-0.6 -1.4,-0.7 -2.3,-0.6 -0.8,0.2 -1.9,0.9 -3.3,1.9 -1.4,1 -2.7,1.8 -3.8,2.3 -2.5,1 -4.7,0.8 -6.4,-0.7 -1.4,-1.3 -2.1,-2.9 -1.9,-4.9 0.1,-2 1,-3.9 2.7,-5.8 1.8,-1.9 3.6,-3.1 5.7,-3.5 2,-0.3 3.9,0.2 5.4,1.5 l -3.3,3.7 c -0.7,-0.6 -1.5,-0.9 -2.5,-0.8 -1,0.1 -1.8,0.6 -2.6,1.4 -0.7,0.8 -1.1,1.6 -1.2,2.5 -0.1,0.8 0.2,1.5 0.8,2.1 0.6,0.5 1.2,0.6 1.9,0.5 0.7,-0.2 1.9,-0.9 3.5,-2 1.6,-1.1 3,-1.9 4.2,-2.4 1.2,-0.4 2.3,-0.6 3.2,-0.4 0.9,0.2 1.9,0.6 2.7,1.4 1.4,1.3 2.1,3 1.9,5 -0.2,2 -1.1,4 -2.9,6 -1.2,1.4 -2.5,2.3 -3.9,3 -1.4,0.6 -2.8,0.8 -4.2,0.6 -1.4,-0.2 -2.6,-0.7 -3.5,-1.5 l 3.2,-3.5 c 0.9,0.7 1.9,1 2.9,0.8 1,-0.2 1.9,-0.8 2.8,-1.8 0.9,-1 1.4,-1.9 1.4,-2.7 0.3,-0.9 0.1,-1.5 -0.5,-2.1 z"
   id="path18504" />
			<path
   class="st2"
   d="m 500.4,223.1 3.9,3.5 2.6,-2.9 2.7,2.4 -2.6,2.9 9.2,8.1 c 0.6,0.6 1.2,0.8 1.7,0.8 0.5,0 1,-0.3 1.6,-1 0.4,-0.4 0.7,-0.9 1,-1.4 l 2.8,2.6 c -0.5,1 -1.1,1.9 -1.9,2.7 -2.5,2.8 -5.3,2.8 -8.5,0.1 l -9.3,-8.3 -2.4,2.7 -2.7,-2.4 2.4,-2.7 -3.9,-3.5 z"
   id="path18506" />
			<path
   class="st2"
   d="m 532.6,228.6 c -2.1,2.3 -4.5,3.5 -7.2,3.7 -2.7,0.2 -5.4,-0.9 -7.8,-3.1 l -0.5,-0.4 c -1.6,-1.4 -2.8,-3.1 -3.5,-4.8 -0.7,-1.8 -1,-3.5 -0.6,-5.3 0.3,-1.8 1,-3.4 2.3,-4.8 2,-2.3 4.3,-3.3 6.8,-3.3 2.5,0.1 5.1,1.2 7.7,3.5 l 1.4,1.3 -9.6,10.7 c 1.4,1.1 2.9,1.6 4.4,1.5 1.5,-0.1 2.8,-0.7 3.9,-1.9 1.5,-1.7 2,-3.7 1.6,-6 l 3.7,-0.3 c 0.4,1.5 0.4,3.1 -0.1,4.7 -0.5,1.7 -1.3,3.2 -2.5,4.5 z m -14.4,-12.1 c -0.9,1 -1.3,2.2 -1.1,3.4 0.2,1.3 0.8,2.5 1.9,3.9 l 6.3,-7 -0.2,-0.2 c -1.3,-1 -2.5,-1.5 -3.7,-1.5 -1.3,-0.2 -2.4,0.4 -3.2,1.4 z"
   id="path18508" />
			<path
   class="st2"
   d="m 544.4,205.8 c -0.6,-0.6 -1.4,-0.7 -2.3,-0.6 -0.8,0.2 -1.9,0.9 -3.3,1.9 -1.4,1 -2.7,1.8 -3.8,2.3 -2.5,1 -4.7,0.8 -6.4,-0.7 -1.4,-1.3 -2.1,-2.9 -1.9,-4.9 0.1,-2 1,-3.9 2.7,-5.8 1.8,-1.9 3.6,-3.1 5.7,-3.5 2,-0.3 3.9,0.2 5.4,1.5 l -3.3,3.7 c -0.7,-0.6 -1.5,-0.9 -2.5,-0.8 -1,0.1 -1.8,0.6 -2.6,1.4 -0.7,0.8 -1.1,1.6 -1.2,2.5 -0.1,0.8 0.2,1.5 0.8,2.1 0.6,0.5 1.2,0.6 1.9,0.5 0.7,-0.2 1.9,-0.9 3.5,-2 1.6,-1.1 3,-1.9 4.2,-2.4 1.2,-0.4 2.3,-0.6 3.2,-0.4 1,0.2 1.9,0.6 2.7,1.4 1.4,1.3 2.1,3 1.9,5 -0.2,2 -1.1,4 -2.9,6 -1.2,1.4 -2.5,2.3 -3.9,3 -1.4,0.6 -2.8,0.8 -4.2,0.6 -1.4,-0.2 -2.6,-0.7 -3.5,-1.5 l 3.2,-3.5 c 0.9,0.7 1.9,1 2.9,0.8 1,-0.2 1.9,-0.8 2.8,-1.8 0.9,-1 1.4,-1.9 1.4,-2.7 0.4,-0.9 0.2,-1.7 -0.5,-2.1 z"
   id="path18510" />
			<path
   class="st2"
   d="m 538.7,180.1 3.9,3.5 2.6,-2.9 2.7,2.4 -2.6,2.9 9.2,8.1 c 0.6,0.6 1.2,0.8 1.7,0.8 0.5,0 1,-0.3 1.6,-1 0.4,-0.4 0.7,-0.9 1,-1.4 l 2.8,2.6 c -0.5,1 -1.1,1.9 -1.9,2.7 -2.5,2.8 -5.3,2.8 -8.5,0.1 l -9.3,-8.3 -2.4,2.7 -2.7,-2.4 2.4,-2.7 -3.9,-3.5 z"
   id="path18512" />
			<path
   class="st2"
   d="m 543.5,174.1 c -0.6,-0.5 -0.9,-1.1 -1,-1.8 -0.1,-0.7 0.2,-1.4 0.8,-2 0.6,-0.6 1.2,-1 1.9,-1 0.7,0 1.4,0.2 1.9,0.7 0.6,0.5 0.9,1.1 0.9,1.8 0.1,0.7 -0.2,1.4 -0.8,2 -0.6,0.6 -1.2,1 -1.9,1 -0.6,0.1 -1.2,-0.1 -1.8,-0.7 z m 24.2,14.6 -3.3,3.7 -16.4,-14.7 3.3,-3.7 z"
   id="path18514" />
			<path
   class="st2"
   d="m 557.9,166.6 2,1.6 c -0.4,-2.5 0.3,-4.8 2.1,-6.8 3.1,-3.4 6.5,-3.4 10.5,0 l 10.8,9.7 -3.3,3.7 -10.6,-9.5 c -1,-1 -2,-1.4 -2.9,-1.4 -0.9,0 -1.8,0.5 -2.7,1.5 -1.3,1.4 -1.6,3.2 -1,5.2 l 11.7,10.4 -3.3,3.7 -16.3,-14.7 z"
   id="path18516" />
			<path
   class="st2"
   d="m 577.8,160.7 c -2.6,-2.3 -4,-4.7 -4.5,-7.2 -0.5,-2.6 0.2,-4.8 1.9,-6.8 1.7,-1.9 3.6,-2.7 5.9,-2.7 l -1.5,-1.6 3,-3.3 15.9,14.2 c 2.2,1.9 3.2,4.1 3.3,6.5 0.1,2.4 -1,4.8 -3,7.1 -1,1.2 -2.3,2.2 -3.9,2.8 -1.5,0.7 -3,1 -4.3,0.9 l -0.6,-3.7 c 2.3,0.1 4.3,-0.7 5.7,-2.4 1.1,-1.2 1.6,-2.5 1.6,-3.8 0,-1.3 -0.7,-2.5 -1.9,-3.6 l -1.1,-1 c 0.2,2.1 -0.4,4 -2,5.8 -1.7,1.9 -3.9,2.8 -6.5,2.7 -2.7,-0.3 -5.3,-1.5 -8,-3.9 z m 3.6,-3.4 c 1.6,1.4 3.2,2.3 4.8,2.5 1.5,0.2 2.8,-0.3 3.9,-1.5 1.3,-1.4 1.7,-3.1 1,-5 l -7.2,-6.4 c -1.9,-0.4 -3.5,0.2 -4.8,1.6 -1,1.2 -1.4,2.6 -1,4.1 0.3,1.4 1.4,3 3.3,4.7 z"
   id="path18518" />
		</g>
	</g>
</g><g
     id="g18529">
	<path
   d="m 256.1,252.5 c -0.4,5.5 -2.4,9.8 -6.1,13 -3.7,3.2 -8.5,4.7 -14.5,4.7 -6.6,0 -11.7,-2.2 -15.5,-6.6 -3.8,-4.4 -5.6,-10.5 -5.6,-18.2 v -3.1 c 0,-4.9 0.9,-9.3 2.6,-13 1.7,-3.7 4.2,-6.6 7.4,-8.6 3.2,-2 7,-3 11.2,-3 5.9,0 10.7,1.6 14.3,4.7 3.6,3.2 5.7,7.6 6.3,13.3 h -10.5 c -0.3,-3.3 -1.2,-5.7 -2.8,-7.2 -1.6,-1.5 -4,-2.2 -7.2,-2.2 -3.5,0 -6.1,1.3 -7.9,3.8 -1.7,2.5 -2.6,6.4 -2.7,11.7 v 3.9 c 0,5.5 0.8,9.6 2.5,12.1 1.7,2.6 4.3,3.8 7.9,3.8 3.3,0 5.7,-0.7 7.3,-2.2 1.6,-1.5 2.5,-3.8 2.8,-6.9 z"
   id="path18525" />
	<path
   d="m 274.2,269.5 h -10.5 v -51.2 h 10.5 z"
   id="path18527" />
</g><g
     id="g18535">
	<path
   d="m 754.1,252.5 c -0.4,5.5 -2.4,9.8 -6.1,13 -3.7,3.2 -8.5,4.7 -14.5,4.7 -6.6,0 -11.7,-2.2 -15.5,-6.6 -3.8,-4.4 -5.6,-10.5 -5.6,-18.2 v -3.1 c 0,-4.9 0.9,-9.3 2.6,-13 1.7,-3.7 4.2,-6.6 7.4,-8.6 3.2,-2 7,-3 11.2,-3 5.9,0 10.7,1.6 14.3,4.7 3.6,3.2 5.7,7.6 6.3,13.3 h -10.5 c -0.3,-3.3 -1.2,-5.7 -2.8,-7.2 -1.6,-1.5 -4,-2.2 -7.2,-2.2 -3.5,0 -6.1,1.3 -7.9,3.8 -1.7,2.5 -2.6,6.4 -2.7,11.7 v 3.9 c 0,5.5 0.8,9.6 2.5,12.1 1.7,2.6 4.3,3.8 7.9,3.8 3.3,0 5.7,-0.7 7.3,-2.2 1.6,-1.5 2.5,-3.8 2.8,-6.9 z"
   id="path18531" />
	<path
   d="m 761,269.5 v -51.2 h 15.8 c 4.5,0 8.5,1 12.1,3 3.6,2 6.3,4.9 8.3,8.6 2,3.7 3,8 3,12.7 v 2.4 c 0,4.8 -1,9 -2.9,12.7 -2,3.7 -4.7,6.6 -8.3,8.6 -3.6,2 -7.6,3.1 -12.1,3.1 H 761 Z m 10.6,-42.6 V 261 h 5.1 c 4.1,0 7.3,-1.3 9.5,-4 2.2,-2.7 3.3,-6.6 3.3,-11.6 v -2.7 c 0,-5.2 -1.1,-9.1 -3.2,-11.8 -2.2,-2.7 -5.3,-4 -9.5,-4 z"
   id="path18533" />
</g></g>
</svg>
