<?xml version="1.0" encoding="utf-8"?>
<!-- Generator: Adobe Illustrator 25.0.1, SVG Export Plug-In . SVG Version: 6.00 Build 0)  -->
<svg version="1.1" id="Layer_1" xmlns="http://www.w3.org/2000/svg" xmlns:xlink="http://www.w3.org/1999/xlink" x="0px" y="0px"
	 viewBox="0 0 1000 1000" style="enable-background:new 0 0 1000 1000;" xml:space="preserve">
<style type="text/css">
	.st0{fill:#757575;}
	.st1{fill:#DBD5C8;}
	.st2{fill:#EDE6D8;}
	.st3{fill:#FF5B40;}
	.st4{fill:#24AFFF;}
	.st5{fill:#00E62E;}
	.st6{fill:#FFED24;}
	.st7{fill:#FF73A5;}
	.st8{fill:#7D3E35;}
	.st9{fill:#BFBFBF;}
</style>
<path class="st0" d="M792.3,213.1l33.6,660.7c-0.8,5.5-3.9,7.8-7,10.2l-491.8,23.6c-5.5-0.8-7.8-3.9-10.2-7l-33.6-660.7
	c0.8-5.5,3.9-7.8,7-10.2L782.1,206C788,204.1,793.1,207.6,792.3,213.1"/>
<path class="st1" d="M784.6,208.3L818.2,869c-0.8,5.5-3.9,7.8-7,10.2l-491.8,23.6c-5.5-0.8-7.8-3.9-10.2-7l-33.2-663.5
	c0.8-5.5,3.9-7.8,7-10.2l491.8-23.6C780.3,199.3,785.4,202.8,784.6,208.3"/>
<path class="st0" d="M811,197.3l-50.1,660.2c-0.8,5.5-3.9,7.8-9.4,7.1l-491.7-37.8c-5.5-0.8-7.8-3.9-7.1-9.4l52.8-659.9
	c0.8-5.5,3.9-7.8,9.4-7.1l488.9,37.4C806.6,188.3,811.7,191.8,811,197.3"/>
<path class="st2" d="M806.4,191.8L756.3,852c-0.8,5.5-3.9,7.8-9.4,7.1l-491.7-37.8c-5.5-0.8-7.8-3.9-7.1-9.4l52.8-659.9
	c0.8-5.5,3.9-7.8,9.4-7.1l491.7,37.8C802.1,182.8,806.8,189.1,806.4,191.8"/>
<path class="st3" d="M728,118.1l2.7,662c-0.8,5.5-3.9,7.8-9.4,7.1l-494.3,1c-5.5-0.8-7.8-3.9-7.1-9.4l1.1-8.2l486-2.1
	c5.5,0.8,9-4.3,9.4-7.1l-3.9-653.8l8.2,1.1C726.5,109.5,728.8,112.7,728,118.1"/>
<path class="st2" d="M723.3,111.9l2.7,662c-0.8,5.5-3.9,7.8-9.4,7.1l-494.3,1c-5.5-0.8-7.8-3.9-7.1-9.4l1.1-8.2l486-2.1
	c5.5,0.8,9-4.3,9.4-7.1L708,101.4l8.2,1.1C719,102.9,721.4,106,723.3,111.9"/>
<path class="st4" d="M764.6,176.3l-106.4,1.9l-0.9-33.6l106.4-1.9L764.6,176.3z"/>
<path class="st4" d="M765.8,628.7l-106.4,1.9l-0.9-33.6l106.4-1.9L765.8,628.7z"/>
<path class="st5" d="M768.5,729.6l-106.4,1.9l-0.9-33.6l106.4-1.9L768.5,729.6z"/>
<path class="st6" d="M764.5,237.7l-106.4,1.9l-0.9-33.6l106.4-1.9L764.5,237.7z"/>
<path class="st6" d="M767.6,575.9l-106.4,1.9l-0.9-33.6l106.4-1.9L767.6,575.9z"/>
<path class="st5" d="M765.8,288.1L659.4,290l-0.9-33.6l106.4-1.9L765.8,288.1z"/>
<path class="st7" d="M765.1,433.2l-106.4,1.9l-0.9-33.6l106.4-1.9L765.1,433.2z"/>
<path class="st3" d="M710.8,101.8l2.7,662c-0.8,5.5-3.9,7.8-9.4,7.1l-494.3,1c-5.5-0.8-7.8-3.9-7.1-9.4l-2.7-662
	c0.8-5.5,3.9-7.8,9.4-7.1l494.3-1C709.2,93.2,711.6,96.3,710.8,101.8"/>
<path class="st8" d="M240.9,128.4c-0.8,5.5-4.6,13.3-12.9,12.2c-5.5-0.8-13.3-4.6-12.2-12.9c0.8-5.5,4.6-13.3,12.9-12.2
	C234.2,116.3,238.9,122.6,240.9,128.4"/>
<path class="st8" d="M240.6,170.3c-0.8,5.5-4.6,13.3-12.9,12.2c-5.5-0.8-13.3-4.6-12.2-12.9c0.8-5.5,4.6-13.3,12.9-12.2
	C233.9,158.2,238.6,164.4,240.6,170.3"/>
<path class="st8" d="M240.4,212.1c-0.8,5.5-4.6,13.3-12.9,12.2c-5.5-0.8-13.3-4.6-12.2-12.9c0.8-5.5,4.6-13.3,12.9-12.2
	C233.7,200,238.8,203.5,240.4,212.1"/>
<path class="st8" d="M240.5,251.2c-0.8,5.5-4.6,13.3-12.9,12.2c-5.5-0.8-13.3-4.6-12.2-12.9c0.8-5.5,4.6-13.3,12.9-12.2
	C233.8,239.1,241.3,245.8,240.5,251.2"/>
<path class="st8" d="M240.3,293.1c-0.8,5.5-4.6,13.3-12.9,12.2c-5.5-0.8-13.3-4.6-12.2-12.9c0.8-5.5,4.6-13.3,12.9-12.2
	C233.6,281,241,287.6,240.3,293.1"/>
<path class="st8" d="M240,334.9c-0.8,5.5-4.6,13.3-12.9,12.2c-5.5-0.8-13.3-4.6-12.2-12.9c0.8-5.5,4.6-13.3,12.9-12.2
	C236.1,323.2,241.2,326.7,240,334.9"/>
<path class="st8" d="M239.8,376.8c-0.8,5.5-4.6,13.3-12.9,12.2c-5.5-0.8-13.3-4.6-12.2-12.9c0.8-5.5,4.6-13.3,12.9-12.2
	S240.9,368.5,239.8,376.8"/>
<path class="st8" d="M239.9,415.9c-0.8,5.5-4.6,13.3-12.9,12.2c-5.5-0.8-13.3-4.6-12.2-12.9c0.8-5.5,4.6-13.3,12.9-12.2
	C236,404.1,240.7,410.4,239.9,415.9"/>
<path class="st8" d="M239.7,457.7c-0.8,5.5-4.6,13.3-12.9,12.2c-5.5-0.8-13.3-4.6-12.2-12.9c0.8-5.5,4.6-13.3,12.9-12.2
	S240.4,452.2,239.7,457.7"/>
<path class="st8" d="M242.2,499.9c-0.8,5.5-4.6,13.3-12.9,12.2c-5.5-0.8-13.3-4.6-12.2-12.9c0.8-5.5,4.6-13.3,12.9-12.2
	C235.5,487.8,240.6,491.3,242.2,499.9"/>
<path class="st8" d="M242.3,539c-0.8,5.5-4.6,13.3-12.9,12.2c-5.5-0.8-13.3-4.6-12.2-12.9c0.8-5.5,4.6-13.3,12.9-12.2
	C235.6,526.9,240.3,533.2,242.3,539"/>
<path class="st8" d="M242.1,580.9c-0.8,5.5-4.6,13.3-12.9,12.2c-5.5-0.8-13.3-4.6-12.2-12.9c0.8-5.5,4.6-13.3,12.9-12.2
	C235.4,568.8,240.1,575,242.1,580.9"/>
<path class="st8" d="M241.8,622.7c-0.8,5.5-4.6,13.3-12.9,12.2c-5.5-0.8-13.3-4.6-12.2-12.9c0.8-5.5,4.6-13.3,12.9-12.2
	C235.1,610.6,242.6,617.2,241.8,622.7"/>
<path class="st8" d="M241.6,664.5c-0.8,5.5-4.6,13.3-12.9,12.2c-5.5-0.8-13.3-4.6-12.2-12.9c0.8-5.5,4.6-13.3,12.9-12.2
	S242.7,656.3,241.6,664.5"/>
<path class="st8" d="M241.7,703.7c-0.8,5.5-4.6,13.3-12.9,12.2c-8.2-1.1-13.3-4.6-12.2-12.9c0.8-5.5,4.6-13.3,12.9-12.2
	C237.7,691.9,242.5,698.2,241.7,703.7"/>
<path class="st8" d="M241.5,745.5c-0.8,5.5-4.6,13.3-12.9,12.2c-5.5-0.8-13.3-4.6-12.2-12.9c0.8-5.5,4.6-13.3,12.9-12.2
	S242.2,740,241.5,745.5"/>
<path class="st9" d="M223.9,751.4c-2.7-0.4-2.7-0.4-5.1-3.5c0.4-2.7,0.8-5.5,3.5-5.1l-43.9-25.7c-2.7-0.4-2.4-3.1-2.4-3.1
	c0.4-2.7,0.4-2.7,3.1-2.4l23.1-5.2c2.7,0.4,5.5,0.8,5.1,3.5s-0.8,5.5-3.5,5.1l-11.7,4l43.9,25.7c2.7,0.4,2.4,3.1,2.4,3.1
	c-0.4,2.7-0.4,2.7-3.1,2.4L223.9,751.4C226.6,751.8,223.9,751.4,223.9,751.4"/>
<path class="st9" d="M224.1,709.6c-2.7-0.4-2.7-0.4-5.1-3.5c0.4-2.7,0.8-5.5,3.5-5.1l-43.9-25.7c-2.7-0.4-2.4-3.1-2.4-3.1
	c0.4-2.7,0.4-2.7,3.1-2.4l23.1-5.2c2.7,0.4,5.5,0.8,5.1,3.5s-0.8,5.5-3.5,5.1l-11.7,4l43.9,25.7c2.7,0.4,2.4,3.1,2.4,3.1
	c-0.4,2.7-0.4,2.7-3.1,2.4L224.1,709.6"/>
<path class="st9" d="M224,670.5c-2.7-0.4-2.7-0.4-5.1-3.5c0.4-2.7,0.8-5.5,3.5-5.1l-43.9-25.7c-2.7-0.4-2.4-3.1-2.4-3.1
	c0.4-2.7,0.4-2.7,3.1-2.4l23.1-5.2c2.7,0.4,5.5,0.8,5.1,3.5c-0.4,2.7-0.8,5.5-3.5,5.1l-11.7,4l43.9,25.7c2.7,0.4,2.4,3.1,2.4,3.1
	c-0.4,2.7-0.4,2.7-3.1,2.4L224,670.5"/>
<path class="st9" d="M224.2,628.6c-2.7-0.4-2.7-0.4-5.1-3.5c0.4-2.7,0.8-5.5,3.5-5.1l-43.9-25.7c-2.7-0.4-2.4-3.1-2.4-3.1
	c0.4-2.7,0.4-2.7,3.1-2.4l23.1-5.2c2.7,0.4,5.5,0.8,5.1,3.5c-0.4,2.7-0.8,5.5-3.5,5.1l-11.7,4l43.9,25.7c2.7,0.4,2.4,3.1,2.4,3.1
	c-0.4,2.7-0.4,2.7-3.1,2.4L224.2,628.6"/>
<path class="st9" d="M224.5,586.8c-2.7-0.4-2.7-0.4-5.1-3.5c0.4-2.7,0.8-5.5,3.5-5.1L179,552.5c-2.7-0.4-2.4-3.1-2.4-3.1
	c0.4-2.7,0.4-2.7,3.1-2.4l23.1-5.2c2.7,0.4,5.5,0.8,5.1,3.5c-0.4,2.7-0.8,5.5-3.5,5.1l-11.7,4l43.9,25.7c2.7,0.4,2.4,3.1,2.4,3.1
	c-0.4,2.7-0.4,2.7-3.1,2.4L224.5,586.8"/>
<path class="st9" d="M224.7,545c-2.7-0.4-2.7-0.4-5.1-3.5c0.4-2.7,0.8-5.5,3.5-5.1l-43.9-25.7c-2.7-0.4-2.4-3.1-2.4-3.1
	c0.4-2.7,0.4-2.7,3.1-2.4l23.1-5.2c2.7,0.4,5.5,0.8,5.1,3.5c-0.4,2.7-0.8,5.5-3.5,5.1l-11.7,4l43.9,25.7c2.7,0.4,2.4,3.1,2.4,3.1
	c-0.4,2.7-0.4,2.7-3.1,2.4L224.7,545"/>
<path class="st9" d="M222.2,502.7c-2.7-0.4-2.7-0.4-5.1-3.5c0.4-2.7,0.8-5.5,3.5-5.1l-43.9-25.7c-2.7-0.4-2.4-3.1-2.4-3.1
	c0.4-2.7,0.4-2.7,3.1-2.4l23.1-5.2c2.7,0.4,5.5,0.8,5.1,3.5c-0.4,2.7-0.8,5.5-3.5,5.1l-11.7,4l43.9,25.7c2.7,0.4,2.4,3.1,2.4,3.1
	c-0.4,2.7-0.4,2.7-3.1,2.4L222.2,502.7C225,503.1,225,503.1,222.2,502.7"/>
<path class="st9" d="M222.1,463.6c-2.7-0.4-2.7-0.4-5.1-3.5c0.4-2.7,0.8-5.5,3.5-5.1l-43.9-25.7c-2.7-0.4-2.4-3.1-2.4-3.1
	c0.4-2.7,0.4-2.7,3.1-2.4l23.1-5.2c2.7,0.4,5.5,0.8,5.1,3.5c-0.4,2.7-0.8,5.5-3.5,5.1l-11.7,4l43.9,25.7c2.7,0.4,2.4,3.1,2.4,3.1
	c-0.4,2.7-0.4,2.7-3.1,2.4L222.1,463.6C224.8,464,224.8,464,222.1,463.6"/>
<path class="st9" d="M221.9,424.5c-2.7-0.4-2.7-0.4-5.1-3.5c0.4-2.7,0.8-5.5,3.5-5.1l-43.9-25.7c-2.7-0.4-2.4-3.1-2.4-3.1
	c0.4-2.7,0.4-2.7,3.1-2.4l23.1-5.2c2.7,0.4,5.5,0.8,5.1,3.5c-0.4,2.7-0.8,5.5-3.5,5.1l-11.7,4l43.9,25.7c2.7,0.4,2.4,3.1,2.4,3.1
	c-0.4,2.7-0.4,2.7-3.1,2.4L221.9,424.5C224.7,424.9,221.9,424.5,221.9,424.5"/>
<path class="st9" d="M222.2,382.7c-2.7-0.4-2.7-0.4-5.1-3.5c0.4-2.7,0.8-5.5,3.5-5.1l-43.9-25.7c-2.7-0.4-2.4-3.1-2.4-3.1
	c0.4-2.7,0.4-2.7,3.1-2.4l23.1-5.2c2.7,0.4,5.5,0.8,5.1,3.5c-0.4,2.7-0.8,5.5-3.5,5.1l-11.7,4l43.9,25.7c2.7,0.4,2.4,3.1,2.4,3.1
	c-0.4,2.7-0.4,2.7-3.1,2.4L222.2,382.7"/>
<path class="st9" d="M222.4,340.8c-2.7-0.4-2.7-0.4-5.1-3.5c0.4-2.7,0.8-5.5,3.5-5.1L177,306.6c-2.7-0.4-2.4-3.1-2.4-3.1
	c0.4-2.7,0.4-2.7,3.1-2.4l23.1-5.2c2.7,0.4,5.5,0.8,5.1,3.5c-0.4,2.7-0.8,5.5-3.5,5.1l-11.7,4l43.9,25.7c2.7,0.4,2.4,3.1,2.4,3.1
	c-0.4,2.7-0.4,2.7-3.1,2.4L222.4,340.8"/>
<path class="st9" d="M222.7,299c-2.7-0.4-2.7-0.4-5.1-3.5c0.4-2.7,0.8-5.5,3.5-5.1l-43.9-25.7c-2.7-0.4-2.4-3.1-2.4-3.1
	c0.4-2.7,0.4-2.7,3.1-2.4l23.1-5.2c2.7,0.4,5.5,0.8,5.1,3.5c-0.4,2.7-0.8,5.5-3.5,5.1l-11.7,4l43.9,25.7c2.7,0.4,2.4,3.1,2.4,3.1
	c-0.4,2.7-0.4,2.7-3.1,2.4L222.7,299"/>
<path class="st9" d="M222.9,257.1c-2.7-0.4-2.7-0.4-5.1-3.5c0.4-2.7,0.8-5.5,3.5-5.1l-43.9-25.7c-2.7-0.4-2.4-3.1-2.4-3.1
	c0.4-2.7,0.4-2.7,3.1-2.4l23.1-5.2c2.7,0.4,5.5,0.8,5.1,3.5c-0.4,2.7-0.8,5.5-3.5,5.1l-11.7,4l43.9,25.7c2.7,0.4,2.4,3.1,2.4,3.1
	c-0.4,2.7-0.4,2.7-3.1,2.4L222.9,257.1"/>
<path class="st9" d="M222.8,218.1c-2.7-0.4-2.7-0.4-5.1-3.5c0.4-2.7,0.8-5.5,3.5-5.1l-43.9-25.7c-2.7-0.4-2.4-3.1-2.4-3.1
	c0.4-2.7,0.4-2.7,3.1-2.4l23.1-5.2c2.7,0.4,5.5,0.8,5.1,3.5c-0.4,2.7-0.8,5.5-3.5,5.1l-11.7,4l43.9,25.7c2.7,0.4,2.4,3.1,2.4,3.1
	c-0.4,2.7-0.4,2.7-3.1,2.4L222.8,218.1"/>
<path class="st9" d="M223,176.2c-2.7-0.4-2.7-0.4-5.1-3.5c0.4-2.7,0.8-5.5,3.5-5.1L177.6,142c-2.7-0.4-2.4-3.1-2.4-3.1
	c0.4-2.7,0.4-2.7,3.1-2.4l23.1-5.2c2.7,0.4,5.5,0.8,5.1,3.5s-0.8,5.5-3.5,5.1l-11.7,4l43.9,25.7c2.7,0.4,2.4,3.1,2.4,3.1
	c-0.4,2.7-0.4,2.7-3.1,2.4L223,176.2"/>
<path class="st9" d="M223.3,134.4c-2.7-0.4-2.7-0.4-5.1-3.5c0.4-2.7,0.8-5.5,3.5-5.1l-2.7-0.4c-2.7-0.4-2.4-3.1-2-5.9
	c0.4-2.7,3.1-2.4,5.9-2l10.2,7c2.7,0.4,2.4,3.1,2.4,3.1c-0.4,2.7-0.4,2.7-3.1,2.4L223.3,134.4"/>
</svg>
