<?xml version="1.0" encoding="UTF-8" standalone="no"?>
<svg
   enable-background="new 0 0 750 420"
   version="1.1"
   viewBox="0 0 750 420"
   id="svg328"
   sodipodi:docname="dockershelf-why.svg"
   inkscape:version="1.2.1 (9c6d41e, 2022-07-14)"
   xmlns:inkscape="http://www.inkscape.org/namespaces/inkscape"
   xmlns:sodipodi="http://sodipodi.sourceforge.net/DTD/sodipodi-0.dtd"
   xmlns="http://www.w3.org/2000/svg"
   xmlns:svg="http://www.w3.org/2000/svg">
  <defs
     id="defs332" />
  <sodipodi:namedview
     id="namedview330"
     pagecolor="#ffffff"
     bordercolor="#000000"
     borderopacity="0.25"
     inkscape:showpageshadow="2"
     inkscape:pageopacity="0.0"
     inkscape:pagecheckerboard="0"
     inkscape:deskcolor="#d1d1d1"
     showgrid="false"
     inkscape:zoom="1.1747401"
     inkscape:cx="446.48174"
     inkscape:cy="209.83365"
     inkscape:window-width="1434"
     inkscape:window-height="1387"
     inkscape:window-x="2005"
     inkscape:window-y="25"
     inkscape:window-maximized="0"
     inkscape:current-layer="svg328" />
  <path
     class="st5"
     d="m 689.43,377.096 c 0,0.13 -140.79,0.25 -314.41,0.25 -173.62,0 -314.449999,-0.12 -314.449999,-0.25 0,-0.12 140.759999,-0.26 314.449999,-0.26 173.69,0 314.41,0.11001 314.41,0.26 z"
     id="path134"
     style="fill:#bcccd3;fill-opacity:1" />
  <g
     id="why-monitor">
    <path
       class="st8"
       d="m 582.16164,32.004295 h -375.03 c -6.47,0 -11.71,5.2 -11.71,11.61 V 306.4043 c 0,6.41 5.24,11.61 11.71,11.61 h 143.94 l -6.98,59.03 h 104.36 l -5.81,-59.03 h 139.55 c 6.47,0 11.71,-5.2 11.71,-11.61 V 43.614295 c 0,-6.41 -5.24,-11.61 -11.71,-11.61 z"
       fill="#abb1b8"
       id="path136"
       style="fill:#b0bac4;fill-opacity:1" />
    <path
       class="st4"
       d="m 399.66164,290.3743 c 5.1,7.24 -2.91,15.16 -10.18,10.08999 -0.24,-0.17 -0.46,-0.38 -0.63,-0.62 -5.09,-7.24 2.91,-15.15 10.18,-10.08999 0.24,0.18 0.45,0.37999 0.63,0.62 z"
       id="path138"
       style="fill:#c3d0de;fill-opacity:1" />
    <path
       class="st2"
       d="m 215.31164,42.044295 h 358.73 c 5.19,0 9.4,4.18 9.4,9.33 V 269.94429 h -377.53 V 51.354295 c 0,-5.15 4.21,-9.32 9.4,-9.31 z"
       id="path140"
       style="fill:#ffffff" />
    <path
       class="st2"
       d="m 213.47164,42.044295 h 362.4 c 4.16,0 7.55,3.36 7.55,7.51 V 270.95429 h -377.51 V 49.574295 c -0.02,-4.14 3.35,-7.52 7.51,-7.53 z"
       id="path142"
       style="fill:#ffffff" />
    <path
       class="st3"
       d="m 213.05164,42.044295 h 364.54 c 3.23,0 5.85,2.61 5.85,5.82 v 13.2 h -377.53 v -11.95 c 0,-3.91 3.19,-7.08 7.12,-7.08 0,0.01 0.01,0.01 0.02,0.01 z"
       fill="#d17f6a"
       id="path144"
       style="fill:#d16a6a;fill-opacity:1" />
    <path
       class="st4"
       d="m 560.79827,52.245258 c 0,1.46 -1.19,2.64 -2.65,2.64 -1.46,0 -2.65,-1.18 -2.65,-2.64 0,-1.46 1.19,-2.64 2.65,-2.64 1.46,0 2.65,1.19 2.65,2.64 z"
       id="path146"
       style="fill:#dfd5d2;fill-opacity:1" />
    <path
       class="st4"
       d="m 568.69827,52.245258 c 0,1.46 -1.19,2.64 -2.65,2.64 -1.46,0 -2.65,-1.18 -2.65,-2.64 0,-1.46 1.19,-2.64 2.65,-2.64 1.46,0 2.65,1.19 2.65,2.64 z"
       id="path148"
       style="fill:#dfd5d2;fill-opacity:1" />
    <path
       class="st4"
       d="m 576.21827,52.245258 c 0,1.46 -1.19,2.64 -2.65,2.64 -1.46,0 -2.65,-1.18 -2.65,-2.64 0,-1.46 1.19,-2.64 2.65,-2.64 1.46,0 2.65,1.19 2.65,2.64 z"
       id="path150"
       style="fill:#dfd5d2;fill-opacity:1" />
    <path
       class="st5"
       d="m 471.06164,270.41429 c -0.11,0 -0.2,-46.87 -0.2,-104.68 0,-57.81 0.1,-104.689995 0.2,-104.689995 0.1,0 0.21,46.859995 0.21,104.689995 0,57.83 -0.1,104.68 -0.21,104.68 z"
       id="path152"
       style="fill:#263238" />
    <path
       class="st9"
       d="m 504.60164,96.809293 h 64.03 v 10.749997 h -64.03 z"
       fill="#cbd6e2"
       id="path154"
       style="fill:#cbd6e2" />
    <path
       class="st9"
       d="m 504.60164,122.22929 h 64.03 v 10.75 h -64.03 z"
       fill="#cbd6e2"
       id="path156"
       style="fill:#cbd6e2" />
    <path
       class="st9"
       d="m 496.59164,127.59929 c 0,1.95 -1.59,3.52 -3.54,3.52 -1.95,0 -3.54,-1.58 -3.54,-3.52 0,-1.94 1.59,-3.52 3.54,-3.52 1.95,0 3.54,1.58 3.54,3.52 z"
       id="path158"
       style="fill:#cbd6e2" />
    <path
       class="st9"
       d="m 504.60164,147.64929 h 64.03 v 10.75 h -64.03 z"
       fill="#cbd6e2"
       id="path160"
       style="fill:#cbd6e2" />
    <path
       class="st12"
       d="m 496.59164,153.02929 c 0,1.95 -1.59,3.52 -3.54,3.52 -1.95,0 -3.54,-1.58 -3.54,-3.52 0,-1.94 1.59,-3.52 3.54,-3.52 1.95,-0.02 3.54,1.56 3.54,3.52 z"
       id="path162"
       style="fill:#f2f5ff" />
    <path
       class="st9"
       d="m 504.60164,173.06929 h 64.03 v 10.75 h -64.03 z"
       fill="#cbd6e2"
       id="path164"
       style="fill:#cbd6e2" />
    <path
       class="st12"
       d="m 496.59164,178.43929 c 0,1.95 -1.58,3.53 -3.54,3.53 -1.96,0 -3.55,-1.57 -3.55,-3.52 0,-1.95 1.58,-3.53 3.54,-3.53 h 0.01 c 1.95,0 3.54,1.57 3.54,3.52 z"
       id="path166"
       style="fill:#f2f5ff" />
    <path
       class="st9"
       d="m 504.60164,198.48929 h 64.03 v 10.75 h -64.03 z"
       fill="#cbd6e2"
       id="path168"
       style="fill:#cbd6e2" />
    <path
       class="st12"
       d="m 496.59164,203.85929 c 0,1.95 -1.59,3.52 -3.54,3.52 -1.95,0 -3.54,-1.58 -3.54,-3.52 0,-1.95 1.59,-3.52 3.54,-3.52 1.95,-0.01 3.54,1.57 3.54,3.52 z"
       id="path170"
       style="fill:#f2f5ff" />
    <path
       class="st9"
       d="m 504.60164,223.89929 h 64.03 v 10.75 h -64.03 z"
       fill="#cbd6e2"
       id="path172"
       style="fill:#cbd6e2" />
    <path
       class="st12"
       d="m 496.59164,229.32929 c 0,1.95 -1.59,3.52 -3.54,3.52 -1.95,0 -3.54,-1.58 -3.54,-3.52 0,-1.95 1.59,-3.52 3.54,-3.52 1.95,-0.02 3.54,1.56 3.54,3.52 z"
       id="path174"
       style="fill:#f2f5ff" />
    <path
       class="st9"
       d="m 496.59164,101.46929 c 0,1.95 -1.59,3.52 -3.54,3.52 -1.95,0 -3.54,-1.58 -3.54,-3.52 0,-1.949997 1.59,-3.519997 3.54,-3.519997 1.95,0 3.54,1.58 3.54,3.519997 z"
       id="path176"
       style="fill:#cbd6e2" />
    <path
       class="st5"
       d="m 313.42442,270.41429 c 0.11,0 0.2,-46.87 0.2,-104.68 0,-57.81 -0.1,-104.689995 -0.2,-104.689995 -0.1,0 -0.21,46.859995 -0.21,104.689995 0,57.83 0.1,104.68 0.21,104.68 z"
       id="path152-5"
       style="fill:#263238" />
    <path
       class="st9"
       d="m 279.88442,96.809293 h -64.03 v 10.749997 h 64.03 z"
       fill="#cbd6e2"
       id="path154-2"
       style="fill:#cbd6e2" />
    <path
       class="st9"
       d="m 279.88442,122.22929 h -64.03 v 10.75 h 64.03 z"
       fill="#cbd6e2"
       id="path156-6"
       style="fill:#cbd6e2" />
    <path
       class="st9"
       d="m 287.89442,127.59929 c 0,1.95 1.59,3.52 3.54,3.52 1.95,0 3.54,-1.58 3.54,-3.52 0,-1.94 -1.59,-3.52 -3.54,-3.52 -1.95,0 -3.54,1.58 -3.54,3.52 z"
       id="path158-6"
       style="fill:#cbd6e2" />
    <path
       class="st9"
       d="m 279.88442,147.64929 h -64.03 v 10.75 h 64.03 z"
       fill="#cbd6e2"
       id="path160-7"
       style="fill:#cbd6e2" />
    <path
       class="st12"
       d="m 287.89442,153.02929 c 0,1.95 1.59,3.52 3.54,3.52 1.95,0 3.54,-1.58 3.54,-3.52 0,-1.94 -1.59,-3.52 -3.54,-3.52 -1.95,-0.02 -3.54,1.56 -3.54,3.52 z"
       id="path162-8"
       style="fill:#f2f5ff" />
    <path
       class="st9"
       d="m 279.88442,173.06929 h -64.03 v 10.75 h 64.03 z"
       fill="#cbd6e2"
       id="path164-4"
       style="fill:#cbd6e2" />
    <path
       class="st12"
       d="m 287.89442,178.43929 c 0,1.95 1.58,3.53 3.54,3.53 1.96,0 3.55,-1.57 3.55,-3.52 0,-1.95 -1.58,-3.53 -3.54,-3.53 h -0.01 c -1.95,0 -3.54,1.57 -3.54,3.52 z"
       id="path166-1"
       style="fill:#f2f5ff" />
    <path
       class="st9"
       d="m 279.88442,198.48929 h -64.03 v 10.75 h 64.03 z"
       fill="#cbd6e2"
       id="path168-7"
       style="fill:#cbd6e2" />
    <path
       class="st12"
       d="m 287.89442,203.85929 c 0,1.95 1.59,3.52 3.54,3.52 1.95,0 3.54,-1.58 3.54,-3.52 0,-1.95 -1.59,-3.52 -3.54,-3.52 -1.95,-0.01 -3.54,1.57 -3.54,3.52 z"
       id="path170-1"
       style="fill:#f2f5ff" />
    <path
       class="st9"
       d="m 279.88442,223.89929 h -64.03 v 10.75 h 64.03 z"
       fill="#cbd6e2"
       id="path172-8"
       style="fill:#cbd6e2" />
    <path
       class="st12"
       d="m 287.89442,229.32929 c 0,1.95 1.59,3.52 3.54,3.52 1.95,0 3.54,-1.58 3.54,-3.52 0,-1.95 -1.59,-3.52 -3.54,-3.52 -1.95,-0.02 -3.54,1.56 -3.54,3.52 z"
       id="path174-7"
       style="fill:#f2f5ff" />
    <path
       class="st9"
       d="m 287.89442,101.46929 c 0,1.95 1.59,3.52 3.54,3.52 1.95,0 3.54,-1.58 3.54,-3.52 0,-1.949997 -1.59,-3.519997 -3.54,-3.519997 -1.95,0 -3.54,1.58 -3.54,3.519997 z"
       id="path176-8"
       style="fill:#cbd6e2" />
    <path
       class="st5"
       d="m 481.32164,318.02429 c 0,0.12 -31.44,0.23001 -70.21,0.23001 -38.77,0 -70.22,-0.11001 -70.22,-0.23001 0,-0.12 31.43,-0.23 70.22,-0.23 38.79,0 70.21,0.1 70.21,0.23 z"
       id="path178"
       style="fill:#bcccd3;fill-opacity:1" />
  </g>
  <g
     id="why-whales">
    <path
       style="fill:#3a4e55;fill-rule:evenodd;stroke:none;stroke-width:1.46854"
       inkscape:connector-curvature="0"
       id="path18-6-9-7-4-8-6"
       d="m 404.50157,203.13852 5.20995,-0.0106 c 2.40608,-0.004 4.87964,-0.43824 7.15675,-1.21503 1.11838,-0.38161 2.37406,-0.9124 3.477,-1.57911 -1.45807,-1.89638 -2.20539,-4.2922 -2.42914,-6.65536 -0.30288,-3.21457 0.33672,-7.40039 2.50798,-9.92082 l 1.0803,-1.25494 1.29295,1.03468 c 3.25456,2.60413 5.99475,6.24699 6.48492,10.40471 3.91066,-1.15858 8.50481,-0.89579 11.95787,1.08771 l 1.4165,0.81367 -0.74175,1.45528 c -2.90541,5.69854 -8.99973,7.47383 -14.9619,7.17392 -8.87634,22.23702 -28.27704,32.79577 -51.82644,32.84309 -12.16632,0.0247 -23.33781,-4.50167 -29.71575,-15.28287 l -0.10402,-0.1763 -0.9302,-1.88213 c -2.1581,-4.747 -2.88208,-9.95067 -2.40851,-15.15237 l 0.14209,-1.55838 8.81096,-0.0176 c 8.92044,-6e-4 48.89962,-0.34448 53.5804,-0.10754 z"
       sodipodi:nodetypes="cscccccccscccsccccccc" />
    <path
       style="fill:#1db0d9;fill-opacity:1;fill-rule:evenodd;stroke:none;stroke-width:1.46854"
       inkscape:connector-curvature="0"
       id="path20-7-2-6-5-4-2"
       d="m 427.56721,196.456 c 0.67997,-5.3708 -3.34655,-9.5801 -5.84254,-11.57731 -2.86504,3.32602 -3.29393,12.02796 1.21902,15.68218 -2.50978,2.23856 -7.80375,4.27378 -13.22872,4.28468 l -66.03623,0.13257 c -0.51598,5.66395 0.48837,10.87627 2.76808,15.33569 l 0.75398,1.37211 c 0.47734,0.80634 0.9984,1.58458 1.56145,2.33334 h 4.3e-4 c 2.71484,0.1696 5.2183,0.22425 7.50824,0.1696 h 8.8e-4 c 4.4997,-0.10895 8.17062,-0.64718 10.95193,-1.6173 0.41408,-0.14492 0.86614,0.074 1.01021,0.48767 0.1435,0.41362 -0.0747,0.86614 -0.48813,1.0102 -0.36944,0.12905 -0.75511,0.24964 -1.1535,0.36412 -4.2e-4,4.3e-4 -6.7e-4,4.6e-4 -8.5e-4,4.3e-4 -2.19022,0.62994 -4.53897,1.05604 -7.57065,1.24919 0.18018,0.003 -0.18758,0.0282 -0.18828,0.0282 -0.10296,0.007 -0.23306,0.0211 -0.33637,0.0282 -1.19303,0.0695 -2.48083,0.086 -3.79755,0.0888 -1.4398,0.003 -2.85863,-0.0212 -4.44447,-0.0987 l -0.0402,0.0282 c 5.51455,6.17309 14.12539,9.86503 24.90885,9.84342 22.82359,-0.0458 42.16203,-10.20151 50.68866,-32.93279 6.08289,0.61157 11.92487,-0.95083 14.57324,-6.14598 -4.23976,-2.43569 -9.68468,-1.6455 -12.81738,-0.0635" />
    <path
       style="fill:#d5eef2;fill-rule:evenodd;stroke:none;stroke-width:1.46854"
       inkscape:connector-curvature="0"
       id="path46-6-2-5-2-3-6"
       d="m 371.34305,217.79857 c 1.36008,-0.003 2.4657,1.09889 2.46842,2.45897 0.003,1.36008 -1.09843,2.46524 -2.45855,2.46803 -1.36093,0.003 -2.46613,-1.09804 -2.46884,-2.45812 -0.003,-1.36009 1.098,-2.46616 2.45897,-2.46888" />
    <path
       style="fill:#3a4e55;fill-rule:evenodd;stroke:none;stroke-width:1.46854"
       inkscape:connector-curvature="0"
       id="path48-0-8-6-5-1-1"
       d="m 371.34442,218.49765 c 0.22496,-4.5e-4 0.44035,0.0416 0.63893,0.11777 -0.21472,0.12482 -0.35978,0.35816 -0.35925,0.62447 7.7e-4,0.39776 0.32368,0.71904 0.72154,0.71826 0.27255,-5.6e-4 0.50872,-0.15231 0.63089,-0.37582 0.0867,0.20803 0.13504,0.43651 0.1354,0.67651 0.001,0.97418 -0.78621,1.76596 -1.76038,1.76793 -0.97464,0.001 -1.76641,-0.78663 -1.76835,-1.76084 -10e-4,-0.97505 0.78663,-1.76641 1.76122,-1.76838" />
    <path
       style="fill:#c0dbe1;fill-rule:evenodd;stroke:none;stroke-width:1.46854"
       inkscape:connector-curvature="0"
       id="path52-2-9-9-4-4-8"
       d="m 377.92726,235.53925 c -6.10712,-2.88314 -9.46379,-6.81213 -11.33583,-11.10548 -2.26504,0.65197 -4.98831,1.07053 -8.15363,1.25469 -1.19218,0.0695 -2.4462,0.10613 -3.76292,0.1086 -1.51734,0.003 -3.11665,-0.0384 -4.79537,-0.12447 5.60619,5.58067 12.49804,9.87226 25.24314,9.92508 0.94088,-0.001 1.87518,-0.0211 2.80461,-0.0585" />
    <path
       style="fill:#d5eef2;fill-rule:evenodd;stroke:none;stroke-width:1.46854"
       inkscape:connector-curvature="0"
       id="path54-6-7-3-7-9-7"
       d="m 368.86578,228.39389 c -0.84639,-1.14423 -1.66839,-2.58238 -2.27305,-3.96055 -2.26504,0.65152 -4.98919,1.07096 -8.15493,1.2547 2.17718,1.17656 5.28943,2.26367 10.42798,2.70585" />
    <path
       style="fill:#3a4e55;fill-rule:evenodd;stroke:none;stroke-width:1.04924"
       inkscape:connector-curvature="0"
       id="path18-6-9-7-4-8-6-0"
       d="m 403.71859,169.33289 3.49143,1.29091 c 1.61208,0.59708 3.37678,0.92223 5.09515,0.96937 0.84398,0.0231 1.81708,-0.0195 2.72175,-0.19119 -0.50393,-1.63315 -0.40747,-3.42367 0.0314,-5.06188 0.59805,-2.22806 2.06919,-4.87171 4.15108,-6.01854 l 1.03606,-0.57122 0.60804,1.01498 c 1.53059,2.55466 2.45797,5.67674 1.75037,8.58303 2.90737,0.19846 5.91833,1.519 7.73648,3.70751 l 0.74583,0.89777 -0.85927,0.78972 c -3.3653,3.09213 -7.88858,2.76262 -11.80637,1.07639 -11.48399,12.67938 -27.10604,14.91652 -42.88744,9.0812 -8.1532,-3.01454 -14.5064,-8.82878 -16.09134,-17.63728 l -0.0257,-0.14397 -0.15399,-1.49209 c -0.2625,-3.71645 0.54912,-7.3814 2.16217,-10.74669 l 0.4834,-1.00815 5.90456,2.18332 c 5.97363,2.22201 32.83095,11.95199 35.90636,13.2768 z"
       sodipodi:nodetypes="cscccccccscccsccccccc" />
    <path
       style="fill:#1db0d9;fill-opacity:1;fill-rule:evenodd;stroke:none;stroke-width:1.04924"
       inkscape:connector-curvature="0"
       id="path20-7-2-6-5-4-2-3"
       d="m 420.82912,170.6045 c 1.79339,-3.4271 0.14577,-7.24896 -1.02807,-9.20822 -2.74718,1.51345 -5.20235,7.23377 -3.0907,10.80511 -2.23835,0.87376 -6.29045,0.91771 -9.92594,-0.42655 L 362.5309,155.4116 c -1.75662,3.66426 -2.38264,7.40485 -1.96706,10.95902 l 0.16306,1.10666 c 0.11875,0.65888 0.27379,1.30983 0.46428,1.95151 l 2.9e-4,1.1e-4 c 1.77571,0.78993 3.43852,1.45023 4.98556,1.98414 l 5.9e-4,2.2e-4 c 3.04032,1.04808 5.63261,1.60222 7.73678,1.64551 0.31339,0.006 0.56155,0.26537 0.55498,0.57824 -0.007,0.31274 -0.26584,0.56138 -0.57855,0.55487 -0.27955,-0.006 -0.56784,-0.021 -0.86315,-0.0436 -3.9e-4,1.8e-4 -5.6e-4,1.4e-4 -6.7e-4,7e-5 -1.6236,-0.12383 -3.30257,-0.42365 -5.38083,-1.04961 0.11992,0.0468 -0.13264,-0.0278 -0.13311,-0.028 -0.0707,-0.0209 -0.16134,-0.0439 -0.23227,-0.0649 -0.81621,-0.25072 -1.6827,-0.56046 -2.56513,-0.88661 -0.96488,-0.35672 -1.90898,-0.72635 -2.9516,-1.17339 l -0.0339,0.009 c 2.15482,5.50762 7.00118,10.12516 14.2276,12.79723 15.295,5.65549 30.77494,3.67275 42.14789,-9.42473 3.92099,1.925 8.22225,2.3342 11.29001,-0.48486 -2.23229,-2.68732 -6.07529,-3.5147 -8.56722,-3.23578" />
    <path
       style="fill:#d5eef2;fill-rule:evenodd;stroke:none;stroke-width:1.04924"
       inkscape:connector-curvature="0"
       id="path46-6-2-5-2-3-6-2"
       d="m 377.86198,170.88886 c 0.9115,0.33689 1.37736,1.35016 1.04033,2.2616 -0.33686,0.9115 -1.34973,1.37717 -2.26121,1.04018 -0.91206,-0.3371 -1.37786,-1.34969 -1.04083,-2.26114 0.33686,-0.9115 1.34968,-1.37788 2.26171,-1.04064" />
    <path
       style="fill:#3a4e55;fill-rule:evenodd;stroke:none;stroke-width:1.04924"
       inkscape:connector-curvature="0"
       id="path48-0-8-6-5-1-1-6"
       d="m 377.68873,171.35734 c 0.15076,0.0557 0.28452,0.13757 0.39852,0.23804 -0.17489,0.0301 -0.33016,0.1502 -0.39615,0.32867 -0.0986,0.26655 0.0376,0.56213 0.30423,0.66074 0.18265,0.0675 0.3786,0.0247 0.5161,-0.0945 0.006,0.16091 -0.0183,0.32594 -0.0779,0.48675 -0.24171,0.65271 -0.96644,0.98668 -1.61928,0.7453 -0.65302,-0.24182 -0.98688,-0.96684 -0.74546,-1.61969 0.24193,-0.6533 0.96683,-0.98688 1.61995,-0.74539" />
    <path
       style="fill:#c0dbe1;fill-rule:evenodd;stroke:none;stroke-width:1.04924"
       inkscape:connector-curvature="0"
       id="path52-2-9-9-4-4-8-9"
       d="m 377.85119,184.40909 c -3.37128,-3.45217 -4.64018,-6.91944 -4.82415,-10.26084 -1.67919,-0.12771 -3.60708,-0.52589 -5.77258,-1.19117 -0.81564,-0.2505 -1.66452,-0.53837 -2.54686,-0.86475 -1.01681,-0.37604 -2.07746,-0.80221 -3.18016,-1.27805 2.36378,5.13374 5.90964,9.72457 14.43111,12.9352 0.63043,0.23342 1.26097,0.45301 1.89266,0.65954" />
    <path
       style="fill:#d5eef2;fill-rule:evenodd;stroke:none;stroke-width:1.04924"
       inkscape:connector-curvature="0"
       id="path54-6-7-3-7-9-7-4"
       d="m 373.56343,177.36673 c -0.28171,-0.97709 -0.47386,-2.14491 -0.53541,-3.21844 -1.67908,-0.12802 -3.60778,-0.52583 -5.77346,-1.19149 1.16481,1.33029 2.97805,2.83363 6.30887,4.40993" />
    <path
       style="fill:#3a4e55;fill-rule:evenodd;stroke:none;stroke-width:0.772965"
       inkscape:connector-curvature="0"
       id="path18-6-9-7-4-8-6-0-3"
       d="m 412.74196,141.1097 2.02551,1.84862 c 0.93494,0.85426 2.0494,1.56519 3.20928,2.07352 0.5697,0.24962 1.24572,0.49018 1.91081,0.62368 0.10857,-1.25441 0.67055,-2.44987 1.42409,-3.44647 1.0256,-1.35514 2.76232,-2.75201 4.50118,-2.95795 l 0.86548,-0.10282 0.1338,0.8613 c 0.33688,2.1679 0.10478,4.55597 -1.18353,6.3437 1.92954,0.94108 3.61887,2.67679 4.2535,4.67444 l 0.26032,0.81947 -0.80535,0.30095 c -3.15392,1.17815 -6.15016,-0.30015 -8.35715,-2.53675 -11.35223,5.47265 -22.63556,2.67091 -31.79082,-5.68515 -4.72997,-4.3169 -7.45549,-10.04607 -6.09656,-16.49783 l 0.0223,-0.1054 0.30834,-1.06116 c 0.85062,-2.60953 2.42016,-4.88629 4.45371,-6.73643 l 0.60932,-0.55421 3.4254,3.12644 c 3.46183,3.17197 19.09819,17.25556 20.83033,19.01204 z"
       sodipodi:nodetypes="cscccccccscccsccccccc" />
    <path
       style="fill:#1db0d9;fill-opacity:1;fill-rule:evenodd;stroke:none;stroke-width:0.772965"
       inkscape:connector-curvature="0"
       id="path20-7-2-6-5-4-2-3-7"
       d="m 424.06905,146.71892 c 2.17378,-1.84235 2.10815,-4.90766 1.8498,-6.57029 -2.29456,0.27183 -5.5555,3.49614 -5.10371,6.51903 -1.76998,-0.0238 -4.54808,-1.11664 -6.65713,-3.04159 l -25.67277,-23.43176 c -2.21439,2.01443 -3.6782,4.39425 -4.37937,6.93543 l -0.19536,0.80058 c -0.10151,0.48265 -0.17606,0.96994 -0.22383,1.46073 l 1.6e-4,1.5e-4 c 0.9932,1.03124 1.94524,1.94271 2.8533,2.73583 l 3.4e-4,3.1e-4 c 1.78487,1.55786 3.40079,2.65442 4.82507,3.26703 0.21222,0.091 0.30978,0.33674 0.21859,0.54848 -0.0914,0.21154 -0.33701,0.30953 -0.54866,0.21843 -0.18925,-0.0813 -0.38179,-0.17165 -0.5771,-0.2689 -3.2e-4,2e-5 -4.3e-4,-6e-5 -4.8e-4,-1.3e-4 -1.07394,-0.53442 -2.13691,-1.20431 -3.38205,-2.20746 0.0689,0.0652 -0.0828,-0.0558 -0.0831,-0.056 -0.0425,-0.0339 -0.098,-0.0747 -0.14056,-0.10867 -0.48766,-0.3973 -0.99329,-0.84882 -1.50525,-1.31597 -0.55977,-0.51086 -1.10178,-1.02477 -1.68959,-1.61881 l -0.0256,-0.003 c -0.0553,4.35653 1.97329,8.85131 6.16555,12.67764 8.87308,8.09853 19.98891,11.03454 31.38119,5.24574 2.14302,2.40046 4.96562,3.87164 7.84079,2.79743 -0.7791,-2.45288 -3.17302,-4.08252 -4.95127,-4.58262" />
    <path
       style="fill:#d5eef2;fill-rule:evenodd;stroke:none;stroke-width:0.772965"
       inkscape:connector-curvature="0"
       id="path46-6-2-5-2-3-6-2-8"
       d="m 394.66139,135.00706 c 0.52883,0.48253 0.56605,1.30326 0.0835,1.83201 -0.48252,0.52884 -1.30292,0.56604 -1.83171,0.0834 -0.52916,-0.48283 -0.56652,-1.30308 -0.0839,-1.83183 0.48251,-0.52884 1.30308,-0.56655 1.83217,-0.0836" />
    <path
       style="fill:#3a4e55;fill-rule:evenodd;stroke:none;stroke-width:0.772965"
       inkscape:connector-curvature="0"
       id="path48-0-8-6-5-1-1-6-8"
       d="m 394.41332,135.27884 c 0.0875,0.0798 0.15609,0.17273 0.20607,0.27291 -0.12772,-0.0279 -0.26699,0.011 -0.36148,0.11457 -0.14115,0.15463 -0.1301,0.39413 0.0246,0.53531 0.10597,0.0967 0.25158,0.1218 0.37847,0.0785 -0.0403,0.11157 -0.10282,0.21741 -0.18804,0.31068 -0.34585,0.37855 -0.93308,0.4057 -1.31181,0.06 -0.37874,-0.34602 -0.40573,-0.93341 -0.06,-1.31215 0.34617,-0.3789 0.93341,-0.40573 1.31231,-0.0599" />
    <path
       style="fill:#c0dbe1;fill-rule:evenodd;stroke:none;stroke-width:0.772965"
       inkscape:connector-curvature="0"
       id="path52-2-9-9-4-4-8-9-3"
       d="m 390.90764,144.23282 c -1.34462,-3.29057 -1.24999,-6.0089 -0.44968,-8.34067 -1.11081,-0.55247 -2.31643,-1.35847 -3.61023,-2.41263 -0.48733,-0.397 -0.987,-0.82871 -1.49884,-1.29599 -0.58986,-0.53844 -1.19576,-1.12323 -1.8166,-1.75359 0.19096,4.15922 1.33923,8.27541 6.26624,12.8282 0.36564,0.33402 0.73519,0.65863 1.10915,0.97464" />
    <path
       style="fill:#d5eef2;fill-rule:evenodd;stroke:none;stroke-width:0.772965"
       inkscape:connector-curvature="0"
       id="path54-6-7-3-7-9-7-4-8"
       d="m 389.93227,138.23768 c 0.0784,-0.74501 0.27089,-1.5954 0.52635,-2.34523 -1.11065,-0.55265 -2.31693,-1.35862 -3.61074,-2.41309 0.42646,1.23079 1.2476,2.7594 3.08439,4.75832" />
    <path
       d="m 415.09746,121.93565 2.05505,-2.22802 1.68015,1.54972 -2.05506,2.22801 z m 5.35662,-5.80745 1.04437,-1.13227 q 1.31389,-1.42447 3.61111,-2.00953 2.33092,-0.6216 5.08912,-0.24067 1.51953,0.18478 3.07809,-0.40561 1.52203,-0.6241 2.73485,-1.93899 1.71816,-1.86277 1.47282,-4.45503 -0.21165,-2.62878 -2.22051,-4.4817 -2.00887,-1.852918 -4.71354,-1.778864 -2.70466,0.07406 -4.52389,2.046404 l -0.74117,0.80354 -1.38794,-1.2802 0.74117,-0.80354 q 2.2235,-2.410638 5.59662,-2.476528 3.37312,-0.06588 5.89333,2.258688 2.62979,2.42564 3.08043,5.74805 0.38044,3.32527 -1.67462,5.55328 -1.71816,1.86277 -3.90014,2.68932 -2.21851,0.79288 -4.2774,0.31339 -1.84542,-0.41778 -3.75505,0.1868 -1.8731,0.63827 -3.25437,2.13579 l -0.50534,0.54787 z"
       style="font-style:normal;font-weight:normal;font-size:40px;font-family:'Shree Devanagari 714';-inkscape-font-specification:'Shree Devanagari 714, '"
       id="path11577" />
  </g>
  <g
     id="why-person">
    <path
       class="st4"
       d="m 568.00078,80.061975 c -1.49,-1.68 -1.32999,-4.23 0.36001,-5.71 0.96,-0.84 2.26,-1.18 3.52,-0.93 0.21,-2.65 2.54,-4.63 5.2,-4.42 0.85,0.06 1.65999,0.35 2.35999,0.83 2.04,-1.5 4.84001,-1.42 6.78,0.2 2.11001,-0.33 4.10001,1.1 4.43001,3.2 0.21,1.32 -0.29,2.66 -1.32001,3.53 l -20.06,10.94 c -2.13999,0.35 -4.15999,-1.09 -4.52,-3.21 -0.35999,-2.12 1.10001,-4.13 3.24,-4.48 v 0.05 z"
       id="path180"
       style="fill:#253342" />
    <path
       class="st14"
       d="m 586.87079,73.911975 h -0.86001 c -8.66999,-0.42 -16.21,5.83 -17.33999,14.36 -1.05,7.93 -2.10001,16.719995 -2.27,21.000005 -0.33001,8.86 8.53,10.68 8.53,10.68 l -0.33001,11.12999 20.74,-0.12 3.88,-38.449995 c 1.24,-9.25 -3.08,-17.61 -12.34999,-18.6 z"
       id="path182"
       style="fill:#ffbe9d" />
    <path
       class="st14"
       d="m 574.87079,119.89198 c 4.13999,0.2 8.26,-0.78 11.85999,-2.83 0,0 -3.06999,6.24 -11.94,5 z"
       id="path184"
       style="fill:#ffbe9d" />
    <path
       class="st5"
       d="m 570.84079,96.391975 c -0.04,0.69 0.47,1.28 1.15999,1.34 0.67001,0.09 1.28,-0.38 1.37001,-1.04 v -0.04 c 0.04,-0.68 -0.48,-1.28 -1.16001,-1.34 -0.66999,-0.08 -1.28999,0.39 -1.36999,1.06 z"
       id="path186"
       style="fill:#263238" />
    <path
       class="st5"
       d="m 570.33079,92.651975 c 0.14999,0.17 1.13999,-0.49 2.52,-0.41 1.37999,0.08 2.34999,0.8 2.5,0.63 0.15999,-0.16 -0.07,-0.37 -0.49,-0.71 -0.57001,-0.44 -1.27,-0.69 -1.99,-0.72 -0.72,-0.03 -1.42001,0.16 -2.03,0.54 -0.38001,0.3 -0.51,0.59 -0.51,0.67 z"
       id="path188"
       style="fill:#263238" />
    <path
       class="st5"
       d="m 583.54078,96.731975 c -0.04,0.68 0.48,1.28 1.16,1.34 0.67,0.08 1.28,-0.39 1.36,-1.05 v -0.03 c 0.04,-0.7 -0.49,-1.3 -1.2,-1.35 -0.66,-0.06 -1.25,0.43 -1.32,1.09 z"
       id="path190"
       style="fill:#263238" />
    <path
       class="st5"
       d="m 583.85079,93.571975 c 0.14999,0.17 1.14999,-0.49 2.52,-0.42 1.36999,0.07 2.34999,0.81 2.5,0.64 0.15999,-0.16 -0.07,-0.37 -0.49,-0.71 -0.57001,-0.44 -1.27,-0.69 -1.99,-0.72 -0.71,-0.04 -1.42001,0.15 -2.02,0.54 -0.47,0.29 -0.60001,0.59 -0.52,0.67 z"
       id="path192"
       style="fill:#263238" />
    <path
       class="st5"
       d="m 578.37079,103.41197 c -0.71,-0.25999 -1.45,-0.43 -2.21,-0.50999 -0.35001,-0.06 -0.68001,-0.13 -0.73,-0.37 -0.01,-0.36001 0.09,-0.72 0.28999,-1.02001 l 1.16,-2.599995 c 1.63,-3.7 2.83,-6.73 2.67,-6.81 -0.16,-0.08 -1.59,2.88 -3.22,6.58 -0.4,0.960005 -0.77,1.780005 -1.12,2.610005 -0.25,0.41 -0.34,0.89 -0.25,1.36 0.09,0.25 0.29,0.45 0.55,0.53 0.19,0.07 0.39,0.11 0.59,0.12 0.75,0.13 1.51,0.17 2.27001,0.10999 z"
       id="path194"
       style="fill:#263238" />
    <path
       class="st5"
       d="m 589.65079,89.461975 c -0.05,-0.38 -1.28,-0.44 -2.66001,-0.89 -1.37999,-0.45 -2.44,-1.1 -2.67999,-0.81 -0.12001,0.13 0,0.52 0.40999,0.96 0.52,0.54 1.16001,0.95 1.88001,1.17 0.71,0.23 1.46,0.27 2.19,0.12 0.56,-0.13 0.88,-0.37 0.86,-0.55 z"
       id="path196"
       style="fill:#263238" />
    <path
       class="st5"
       d="m 576.00078,85.371975 c -0.33999,-0.25 -1.39999,0.29 -2.72,0.57 -1.32,0.28 -2.51,0.28 -2.71,0.64 -0.08,0.18 0.16,0.45 0.71,0.63 1.53,0.44 3.18,0.08 4.38001,-0.96 0.39999,-0.42 0.49,-0.76 0.33999,-0.88 z"
       id="path198"
       style="fill:#263238" />
    <path
       class="st5"
       d="m 569.74078,84.201975 c 0,0 2.63001,-5.42 5.39001,-6.59 3.33999,-1.4 4.55999,2.21 7.75,1.51 3.19,-0.7 6.33999,-2.06 9.39999,0.48 3.35001,2.78 1.63001,4.53 1.65001,8.47 0.07,15.980005 2.77999,20.619995 3.99,13.160005 0.12999,-0.82 2.46,-1.36 2.98,-4.810005 0.66999,-4.48 1.10999,-9.94 0.26,-13.18 -0.72001,-2.74 -2.17001,-4.68 -4.85001,-6.86 -4.23,-3.46 -10.23,-3.85 -14.35,-3.61 -4.12,0.23 -12.25,4.47 -12.22,11.43 z"
       id="path200"
       style="fill:#263238" />
    <path
       class="st14"
       d="m 597.33079,100.96198 c 0.10999,-1.32 1.28,-2.310005 2.61999,-2.190005 0.04,0 0.08,0.01 0.12001,0.01 1.65999,0.24 3.46,1.270005 3.17999,4.669995 -0.49,6.05001 -6.51,4.30001 -6.5,4.12 0.01,-0.18 0.35001,-4.08 0.58001,-6.60999 z"
       id="path202"
       style="fill:#ffbe9d" />
    <path
       class="st19"
       d="m 598.25078,105.41197 c 0,0 0.10001,0.09 0.27,0.18001 0.25,0.12 0.53,0.15 0.79,0.08 0.84001,-0.44 1.38,-1.3 1.41,-2.24 0.06,-0.52001 0,-1.04 -0.17,-1.53 -0.08,-0.39 -0.35,-0.72 -0.73,-0.87 -0.25,-0.09 -0.52,0.01 -0.64999,0.24 -0.10001,0.16 -0.07,0.28 -0.11001,0.29 -0.04,0.01 -0.12,-0.11001 -0.05,-0.36001 0.04,-0.15 0.14001,-0.27 0.27,-0.36 0.18,-0.11 0.39001,-0.15 0.60001,-0.11 0.5,0.14 0.88999,0.52 1.03,1.02 0.22,0.55 0.29999,1.14 0.23,1.72 -0.03,1.1 -0.73,2.08 -1.76,2.48 -0.34001,0.07 -0.7,-0.01 -0.97,-0.24 -0.16001,-0.15 -0.18001,-0.29 -0.16001,-0.3 z"
       id="path204"
       style="fill:#6f4439" />
    <path
       class="st4"
       d="m 597.80078,89.221975 c -0.78,0.57 -1.67999,0.93 -2.63999,1.06 -0.99,0.1 -1.90001,-0.53 -2.14001,-1.49 0,-0.43 0.08,-0.96 -0.17999,-1.25 -0.26,-0.29 -0.97,-0.32 -1.45,-0.29 -1.78,0.1 -3.76,-1.92 -4.13001,-3.68 -0.51,0.66 -1.45,0.8 -2.13999,0.34 -0.55,-0.37 -1.02,-0.84 -1.41001,-1.37 -0.45,-0.69 -1.22,-1.12 -2.03999,-1.14 -0.44001,0.13 -0.89,0.21 -1.35,0.23 -0.79,-0.12 -1.14,-1.07 -1.22,-1.86 -0.08,-0.79 -0.14001,-1.72 -0.78,-2.18 -0.67,-0.31 -1.44,-0.39 -2.16,-0.2 -0.75,0.08 -1.69001,-0.14 -1.84,-0.87 -0.05,-0.39 0.07,-0.78 0.33,-1.08 1.09,-1.46 3.05999,-1.98 4.74,-1.26 0.98,-2.77 4.03,-4.23 6.83,-3.26 1.35,0.47 2.45,1.45 3.07,2.73 1.38,-1.11 3.21,-1.49 4.92,-1.03 1.7,0.5 3.07,1.77 3.67,3.42 2.13,-0.45 4.22,0.91 4.67,3.02 0.21,0.99 0.03,2.02 -0.52,2.88 1.13,0.62 1.87,1.77 1.94,3.06 -0.02,1.17 -1,2.11 -2.18,2.08 -0.12,0 -0.24,-0.01 -0.36,-0.04 0.53,1.07 0.09,2.37 -0.99,2.9 -1.05,0.51 -2.33,0.11 -2.88,-0.92"
       id="path206"
       style="fill:#253342" />
    <path
       class="st17"
       d="m 578.81078,75.961975 v 0.12 0.33 c 0.06,0.41 0.19,0.81 0.38,1.18 0.31,0.59 0.75,1.1 1.29,1.5 0.71,0.54 1.57,0.83 2.46,0.83 l -0.1,-0.13 c -0.22,0.54 -0.22,1.14 0,1.67 0.25,0.56 0.57001,1.08 0.97,1.55 0.19,0.26 0.41,0.5 0.65,0.72 0.28,0.21 0.62,0.35 0.97001,0.4 0.72,0.14 1.47,-0.08 2,-0.6 l -0.22001,-0.08 c 0.11,1.28 0.76,2.46 1.78,3.24 0.55,0.44 1.23,0.71 1.94001,0.75 0.67999,0 1.35999,-0.11 2,-0.34 l -0.16001,-0.08 c 0.29,0.74 0.75,1.4 1.36001,1.92 0.55999,0.53 1.32999,0.78 2.08999,0.67 1.33001,-0.21 2.40001,-1.19 2.72,-2.48 l -0.14999,0.06 c 0.63,0.37 1.36,0.52 2.08,0.41 0.54,-0.07 1.05,-0.27 1.49,-0.58 0.28,-0.19 0.52,-0.43 0.72,-0.71 0.08,-0.09 0.15,-0.18 0.2,-0.29 -0.26,0.38 -0.59,0.7 -0.97,0.96 -0.44,0.28 -0.93,0.46 -1.45,0.51 -0.67,0.09 -1.36,-0.06 -1.94,-0.41 l -0.11,-0.08 v 0.13 c -0.33001,1.2 -1.33001,2.1 -2.57001,2.3 -0.71,0.09 -1.42999,-0.15 -1.94,-0.64 -0.57,-0.5 -1.01,-1.13 -1.27,-1.84 v -0.12 h -0.11999 c -0.62001,0.21 -1.28,0.32 -1.94001,0.32 -0.67,-0.03 -1.30999,-0.28 -1.82,-0.7 -0.97,-0.74 -1.58,-1.84 -1.69,-3.05 v -0.29 l -0.19,0.21 c -0.47,0.45 -1.13,0.65 -1.77,0.53 -0.3,-0.05 -0.59,-0.17 -0.83,-0.36 -0.23,-0.2 -0.44,-0.43 -0.62,-0.68 -0.39,-0.45 -0.71,-0.94 -0.97,-1.47 -0.23,-0.48 -0.24,-1.03 -0.05,-1.52 l 0.05,-0.14 h -0.16 c -0.85,0.01 -1.68,-0.26 -2.36,-0.76 -0.53,-0.37 -0.97,-0.85 -1.28,-1.41 -0.25,-0.47 -0.41,-1.01 -0.47,-1.55 z"
       id="path208"
       style="fill:#455a64" />
    <path
       class="st32"
       d="m 581.70078,106.67198 c -0.5,-0.46 -1.17999,-0.7 -1.86999,-0.63 -0.69,0.08 -1.26,0.58 -1.42,1.25 -0.05,0.39 -0.01,0.78 0.12,1.15 0.05,0.21 0.15,0.41 0.29,0.58 0.35,0.27 0.8,0.38 1.23,0.29 0.84,-0.07 1.66999,-0.19 2.49,-0.37 0.24,-0.06 0.38,-0.3 0.32,-0.54 -0.01,-0.03 -0.02,-0.05 -0.03,-0.08 -0.28,-0.61 -0.66,-1.17 -1.13001,-1.65 z"
       id="path210"
       style="fill:#ffad8d" />
    <path
       class="st5"
       d="m 579.05078,109.23197 c 0.52,-0.12 1.05,-0.19999 1.58001,-0.24 0.56999,-0.09 1.12999,-0.2 1.69,-0.36 0.14999,-0.03 0.29,-0.08 0.42999,-0.13 0.06,0 0.08,-0.11 0,-0.24 -0.14999,-0.32 -0.32999,-0.61 -0.55,-0.88 -0.39999,-0.54 -0.96,-0.93 -1.60999,-1.12 -0.52,-0.15 -1.08001,-0.09 -1.55,0.17 -0.3,0.21 -0.51,0.53 -0.60001,0.88 -0.07,0.25 -0.08,0.4 -0.10999,0.4 -0.03,0 -0.07,-0.15 0,-0.43 0.04,-0.42 0.25,-0.81 0.58,-1.07 0.52,-0.36 1.18,-0.47 1.78999,-0.3 0.74,0.19 1.40001,0.64 1.84001,1.26 0.24,0.29 0.45,0.62 0.61,0.96 0.03,0.12 0.03,0.24 0,0.36 -0.02,0.14 -0.1,0.26 -0.22,0.33 -0.17,0.08 -0.35,0.13 -0.53,0.16 -0.57,0.14 -1.15,0.23 -1.73,0.28 -0.54,0.09 -1.09,0.07 -1.62001,-0.03 z"
       id="path212"
       style="fill:#263238" />
    <path
       class="st14"
       d="m 558.19078,108.83198 c 0,0 -26.4,7.35 -35.86,12.17 -8.38,4.28999 -8.46,13.58999 -4.03,17.94999 3.64,3.59 18.61001,7.69 28.91,10.52 2.65,0.85 5.51,0.85 8.16,0 l -4.38,-20.64 h -9.26 l 22.06,-12.02999 z"
       id="path214"
       style="fill:#ffbe9d" />
    <path
       class="st3"
       d="m 563.77078,126.35197 -7.65999,1.58 -7.06,0.52001 c 0,0 2.37,2.47999 1.28,12.5 -0.28,3.65 -2.16,6.99 -5.16,9.12 0,0 3.36,1.04 6.77999,2.00999 2.43001,0.23 4.29,2.25 4.31,4.67 0.31,5.3 9.21,-6.13 9.21,-6.49 0,-0.36 -1.7,-23.91 -1.7,-23.91 z"
       fill="#d17f6a"
       id="path216"
       style="fill:#d16a6a;fill-opacity:1" />
    <path
       class="st3"
       d="m 605.15079,125.19197 c 0,0 4.09999,1.63 6.26,11.02 1.25,6.21001 1.95,12.53 2.08999,18.86001 5.05,-2.37 10.25,-4.38 15.58001,-6.04 0,0 2.90999,0.36 4.14999,-8.23 0.71,-5.33 0.38001,-10.75 -0.97,-15.96 0,0 -12.59999,0.72 -15.11999,1.09 -2.57001,-1.3 -3.8,-0.55 -3.8,-0.55 z"
       fill="#d17f6a"
       id="path218"
       style="fill:#d16a6a;fill-opacity:1" />
    <path
       class="st14"
       d="m 607.43079,106.61198 c 0.31999,0.24 30.03999,3.38 39.92999,7.69 9.89,4.31 7.29,15.56999 3.41,18.49 -2.26,1.66999 -9.16,5.47 -14.64,8.47999 -5.14,2.82 -10.27,4.62001 -10.76,4.15001 -1.97,-4.52001 -2.4,-9.56 -1.24,-14.34001 0.69,-3.02 2.8,-5.51999 5.68,-6.72999 l -26.89,-9.03 z"
       id="path220"
       style="fill:#ffbe9d" />
    <path
       class="st32"
       d="m 543.40079,127.94197 c 0,0.06 -0.91001,0.5 -2.3,1.42 -1.39001,0.92 -3.26,2.28 -5.44,3.63 -1.88001,1.18 -4.04,1.86 -6.26,1.97 -0.67001,0.02 -1.35001,-0.03 -2.01,-0.16 -0.24,-0.03 -0.48,-0.1 -0.70001,-0.22 0.89,0.09 1.79,0.11 2.68,0.08 2.15,-0.2 4.23,-0.9 6.06,-2.04 2.15,-1.34 4.04,-2.66999 5.49,-3.52 0.77,-0.51 1.6,-0.91 2.48001,-1.16 z"
       id="path222"
       style="fill:#ffad8d" />
    <path
       class="st14"
       d="m 607.16079,106.54197 c 0,0 -0.37001,-6.72999 -0.71001,-8.759995 -0.34,-2.03 -0.46,-2.64 -0.46,-2.64 0,0 -3.88,-6.95 -4.67,-7.74 -0.79,-0.79 -8.07,-4.81 -8.07,-4.81 l -0.41,-0.06 -2.22,-1.25 c 0,0 -1.83,0.43 -0.97,2.04 0,0 -2.31,0.37 0,3.11 0,0 4.67,3.74 4.85,3.85 0.91,0.94 1.75,1.93 2.53,2.98 -0.19,-0.1 -5.52,-5.01 -6.73,-4.7 -1.2,0.31 -1.72,0.96 -0.41,2.65 0.67,0.87 5.92,5.4 6.38,6.56 0.46,1.15 2.22,4.700005 1.94,6.139995 -0.27999,1.44 -0.27999,8.32 0.84,9.61001 1.12001,1.3 6.42,2.69 6.42,2.69 l 4.66,-8.59 z"
       id="path224"
       style="fill:#ffbe9d" />
    <path
       class="st32"
       d="m 589.71078,82.941975 c 0.47001,0.54 1.05,0.97 1.70001,1.27 1.15,0.61 2.66,1.53 4.39,2.51 0.81,0.41 1.59,0.89 2.34,1.42 0.28,0.29 0.51,0.61 0.71,0.96 l 0.59,0.87 c 0.35,0.6 0.77,1.16 1.24,1.68 -0.25,-0.65 -0.58,-1.27 -0.97,-1.85 l -0.55,-0.96 c -0.19,-0.37 -0.44,-0.71 -0.73,-1.02 -0.75,-0.57 -1.55,-1.08 -2.39,-1.51 -1.72,-0.96 -3.29,-1.87 -4.47,-2.41 -1.18,-0.54 -1.86,-1.01 -1.86001,-0.96 z"
       id="path226"
       style="fill:#ffad8d" />
    <path
       class="st32"
       d="m 634.13079,123.68198 c -1.03,0.38999 -2.09001,0.66 -3.18001,0.81 -1.04999,0.28 -2.11999,0.51 -3.2,0.68 0.94,-0.58 2,-0.96 3.10001,-1.11 1.07,-0.29 2.16999,-0.42 3.28,-0.38 z"
       id="path228"
       style="fill:#ffad8d" />
    <path
       class="st32"
       d="m 634.95078,125.54197 c -0.07,0.1 -0.97,-0.56999 -1.32999,-1.8 -0.32001,-0.71 -0.32001,-1.52 0,-2.23 0.12999,0 0,0.96001 0.38999,2.1 0.39001,1.14 1.04,1.84 0.94,1.93 z"
       id="path230"
       style="fill:#ffad8d" />
    <path
       class="st4"
       d="m 576.15079,349.50198 0.61999,17.25 c 0,0 -17.44,6.44 -17.60999,9.61 l 33.68999,-0.08 0.08,-26.84 z"
       id="path232"
       style="fill:#d16a6a;fill-opacity:1" />
    <path
       class="st16"
       d="m 587.17079,365.25198 c 0.67999,0.2 1.09999,0.87 0.97,1.56 -0.18001,0.68 -0.86001,1.1 -1.55,0.95999 -0.7,-0.23 -1.11001,-0.94 -0.97,-1.64999 0.26,-0.68 1.02,-1.04001 1.72,-0.82"
       id="path234"
       style="fill:#e0e0e0" />
    <path
       class="st17"
       d="m 592.85079,376.29197 -0.11001,-2.7 -32.26,1.08 c 0,0 -1.5,0.65 -1.32999,1.7 z"
       id="path236"
       style="opacity:0.6;fill:#ffffff;fill-opacity:1" />
    <path
       class="st2"
       d="m 576.21078,366.55197 c 0,0.16 0.83001,0.24 1.65001,0.76 0.82,0.52 1.24,1.21 1.38999,1.14 0.15001,-0.07 -0.09,-0.96 -1.08999,-1.62 -1,-0.66 -2.01,-0.43 -1.95001,-0.28 z"
       id="path238"
       style="fill:#ffffff" />
    <path
       class="st2"
       d="m 572.69078,368.01198 c 0,0.14999 0.68,0.43 1.24001,1.12 0.55999,0.69 0.72,1.41 0.87999,1.41 0.16,0 0.27,-0.96 -0.45,-1.78 -0.71,-0.81 -1.67,-0.91 -1.67,-0.75 z"
       id="path240"
       style="fill:#ffffff" />
    <path
       class="st2"
       d="m 570.69078,372.21197 c 0.15,0 0.38,-0.79 -0.05,-1.67 -0.43001,-0.88 -1.19001,-1.25 -1.26,-1.12 -0.07,0.13 0.40999,0.62 0.74,1.36 0.32999,0.74 0.40999,1.41001 0.56999,1.43 z"
       id="path242"
       style="fill:#ffffff" />
    <path
       class="st2"
       d="m 576.51078,362.61197 c 0.07,0.15 0.82001,-0.08 1.75,0 0.93,0.08 1.66001,0.35 1.74,0.21 0.09,-0.13 -0.61999,-0.72 -1.72,-0.78 -1.09,-0.06 -1.84999,0.44 -1.77,0.57 z"
       id="path244"
       style="fill:#ffffff" />
    <path
       class="st4"
       d="m 616.09079,347.35197 1.82,20.77 -3.33,16.83 c -0.22,1.16 0.55,2.29 1.72,2.51 0.04,0.01 0.09,0.02 0.13,0.02 0.69,0.09 1.38,-0.16 1.85,-0.66 2.99,-3.25 13.98,-15.26 13.76,-16.77 -0.25,-1.75 -0.46,-22.02 -0.46,-22.02 z"
       id="path246"
       style="fill:#d16a6a;fill-opacity:1" />
    <path
       class="st17"
       d="m 616.43079,387.48197 15.51999,-18.8 0.06,0.88 c 0.04,0.75 -0.18,1.49 -0.63,2.1 -1.23,1.63 -4.73,6.09 -13.04,15.15 -0.49,0.54 -1.22,0.79 -1.94,0.67 z"
       id="path248"
       style="opacity:0.6;fill:#ffffff;fill-opacity:1" />
    <path
       class="st2"
       d="m 627.22078,362.21197 c -0.51,0.42001 -0.60999,1.16001 -0.24,1.7 0.41001,0.52 1.16001,0.64 1.71,0.26 0.53,-0.45 0.64001,-1.23 0.25,-1.81 -0.48,-0.5 -1.27999,-0.54 -1.79999,-0.08"
       opacity="0.6"
       id="path250"
       style="fill:#ffffff" />
    <path
       class="st2"
       d="m 620.63079,378.08197 c -0.54,-0.62 -1.2,-1.12999 -1.94001,-1.5 -0.78999,-0.25 -1.62,-0.35 -2.44,-0.3 0,-0.06 0.23,-0.23 0.72,-0.33999 0.65,-0.12 1.33,-0.04 1.94001,0.20999 0.60999,0.24001 1.12999,0.66001 1.49,1.19 0.23,0.42001 0.31999,0.72001 0.23,0.74 z"
       id="path252"
       style="fill:#ffffff" />
    <path
       class="st2"
       d="m 619.32079,380.97197 c -0.63001,-0.3 -1.28,-0.56 -1.94,-0.77999 -1.10001,-0.26 -2.02,0 -2.06,-0.13 0.62999,-0.44 1.44,-0.56 2.16999,-0.31 1.3,0.27999 1.94001,1.14999 1.83001,1.21999 z"
       id="path254"
       style="fill:#ffffff" />
    <path
       class="st2"
       d="m 623.18079,374.34197 c -0.93001,-0.54 -1.90001,-1.01 -2.91001,-1.39999 -1.04,-0.25 -2.08999,-0.42001 -3.15999,-0.52 2.22,-0.58 4.57,0.17 6.03,1.92 z"
       id="path256"
       style="fill:#ffffff" />
    <path
       class="st2"
       d="m 623.16079,367.98197 c -0.05,0.13 -1.24,-0.27999 -2.74,-0.23 -1.5,0.05 -2.68001,0.47 -2.74,0.35 1.65999,-1.04 3.76999,-1.08 5.48,-0.12 z"
       id="path258"
       style="fill:#ffffff" />
    <path
       class="st2"
       d="m 622.78078,361.87197 c -0.95,-0.24 -1.92999,-0.35 -2.90999,-0.33 -0.95,0.16001 -1.87001,0.46 -2.73,0.87 0,0 0.16999,-0.32 0.63999,-0.62 0.62001,-0.39 1.32001,-0.63 2.05,-0.7 0.73,-0.08 1.46,0.02 2.14,0.29001 0.58,0.22 0.84,0.44999 0.81,0.48999 z"
       id="path260"
       style="fill:#ffffff" />
    <path
       class="st2"
       d="m 619.88079,360.38198 c -0.08,-0.25 -0.11001,-0.52 -0.08,-0.78 0.03,-0.73 0.2,-1.44 0.5,-2.11 0.17,-0.51 0.51,-0.94 0.97,-1.22001 0.32001,-0.16 0.7,-0.11 0.97,0.12001 0.25,0.25999 0.39001,0.6 0.39001,0.95999 0,1.45 -1.05,2.69 -2.48,2.95 -1.41001,0.24 -2.82001,-0.4 -3.58001,-1.61 -0.16999,-0.29 -0.22,-0.64 -0.13,-0.96 0.15,-0.33999 0.49001,-0.54 0.86,-0.51 0.52,0.08 1.01,0.3 1.42,0.62 0.6,0.41001 1.12,0.93 1.53,1.53 0.29,0.42 0.4,0.68 0.37,0.7 -0.59,-0.74 -1.3,-1.39 -2.08,-1.92 -0.37,-0.27 -0.8,-0.45 -1.25,-0.51 -0.2,-0.03 -0.39,0.08 -0.47,0.27 -0.05,0.23 -0.01,0.46 0.13,0.65 0.68,1.02 1.9,1.55 3.11,1.36 1.21,-0.22 2.1,-1.25 2.14,-2.47 0,-0.24 -0.08,-0.47 -0.24,-0.65 -0.14,-0.14 -0.36,-0.17 -0.54,-0.08 -0.38,0.24 -0.68,0.6 -0.84,1.02 -0.38,0.85 -0.61,1.74 -0.69999,2.64001 z"
       id="path262"
       style="fill:#ffffff" />
    <path
       class="st4"
       d="m 560.41079,209.18197 c -1.62001,7.14 -2.17001,14.47 -1.63001,21.77001 0.36001,4.62 16.10001,132.58999 16.10001,132.58999 h 21.24 l -5.97,-120.27 1.73,0.37001 c 0,0 11.62999,51.29 12.55,59.6 0.83999,7.47 10.65999,61.69 10.65999,61.69 l 19.38,0.23 -6.2,-71.74 -8.8,-68.55 -1.94,-16.81 z"
       fill="#8fa7c0"
       id="path264"
       style="fill:#7994b3;fill-opacity:1" />
    <path
       class="st17"
       d="m 590.93079,235.11197 c 0,0 0,0.06 -0.15001,0.14 -0.14999,0.12 -0.33,0.2 -0.51,0.24 -0.71,0.15 -1.45,-0.02 -2.02,-0.47 -0.81,-0.69 -1.3,-1.67 -1.37999,-2.72 -0.16001,-1.14 -0.17001,-2.37 -0.26,-3.68 -0.15001,-2.61 -0.25,-4.96 -0.3,-6.66 -0.07,-0.92 -0.07,-1.85 0,-2.77 0.16999,0.91 0.27,1.83 0.3,2.75 0.12999,1.7 0.28,4.06 0.42999,6.66 0.09,1.3 0.10001,2.55 0.22,3.64 0.04,0.97 0.46,1.88 1.17001,2.55 0.5,0.42 1.14999,0.62 1.79999,0.55 0.24,-0.05 0.47,-0.13 0.70001,-0.23 z"
       id="path266"
       style="fill:#455a64" />
    <path
       class="st3"
       d="m 563.77078,126.35197 11.03,-0.46 c 0.04,2.79 2.29,5.06 5.11001,5.13 8.34999,0.61 16.72,-7.38 16.72,-7.38 0,0 14.09999,1.44 16.61999,3.85 l 0.40001,68.35 2.65999,6.73 c 1.26,1.5 2.11001,3.29 2.47,5.21 0.35001,2.81 0.71,4.66 0.71,4.66 -21.40999,8.43 -42.74,16.05 -63.7,12.61 0,0 -0.7,-9.61 0.14001,-12.31 0.82999,-2.7 0.59999,-2.93 0.59999,-2.93 l -0.26,-28.64 -0.3,-27.88 z"
       fill="#d17f6a"
       id="path268"
       style="fill:#d16a6a;fill-opacity:1" />
    <path
       class="st5"
       d="m 613.74078,133.59197 c -0.1,0.42 -0.14999,0.84 -0.15999,1.27001 -0.08,0.83 -0.14001,2.02 -0.19,3.49 -0.12001,2.94999 -0.17001,7.03 -0.15001,11.54 0.03,4.50999 0.11001,8.58 0.21,11.53999 0,1.47 0.10001,2.66 0.15001,3.49001 -0.01,0.43 0.04,0.86 0.13999,1.28 0.06,-0.42 0.08,-0.85 0.07,-1.28 v -3.5 c 0,-3.05001 0,-7.08001 -0.07,-11.54 -0.07,-4.46 0,-8.57 0,-11.54 v -3.49 c 0.04,-0.42 0.04,-0.84 0,-1.26001 z"
       id="path270"
       style="fill:#263238" />
    <path
       class="st5"
       d="m 555.80078,134.33197 c -0.08,0.48 -0.12999,0.96001 -0.13999,1.44 0,0.96001 -0.09,2.29 -0.08,3.95 0,3.34 0.24,7.93 0.36,13.01 0.07,2.54 0,4.94 -0.06,7.14 -0.06,2.2 0,4.2 0.08,5.86 0.08,1.66 0.10001,3.01 0.11001,3.94 -0.05,0.48 -0.05,0.96 0,1.44 0.1,-0.47 0.14999,-0.96 0.14999,-1.44 0.06,-0.96 0.08,-2.29 0.06,-3.95 -0.02,-1.66 -0.08,-3.64 0,-5.84 0.08,-2.2 0.17,-4.63 0.11001,-7.17 -0.12001,-5.09 -0.42001,-9.68 -0.5,-13.00999 -0.06,-1.65001 -0.07,-3 -0.09,-3.93001 0.04,-0.47 0.04,-0.96 0,-1.44 z"
       id="path272"
       style="fill:#263238" />
    <path
       class="st14"
       d="m 571.30078,89.881975 c 0.36001,1.04 0.09,2.19 -0.69,2.97 -1.05,1.35 -1.95,2.81 -2.67,4.36 l -1.28999,7.580005 c 0,0 0.10999,8.86 -0.56,10.1 -0.67,1.24 -2.91,2.21 -2.91,2.21 l -6.20001,-7.69 2.12001,-1.13 c 0,0 0.82,-10.340005 1.35999,-11.620005 0.53,-1.28 0.81,-5.77 1.43001,-6.73 0.61999,-0.96 5.47,-4.73 5.47,-4.73 l 2.8,-1.68 c 0,0 2.08999,1.04 0.55999,2.62 0.74,0.72 0.78,1.88 0.1,2.64 -1.15999,1.37 -2.38,2.68 -3.66999,3.92 l -1.05,1.74 c 0,0 3.87999,-4.42 4.53,-4.61 0.63999,-0.19 0.66999,0.05 0.66999,0.05 z"
       id="path274"
       style="fill:#ffbe9d" />
    <path
       class="st32"
       d="m 563.11079,117.11198 c 0,0 0.09,0 0.25,-0.08 0.23,-0.09 0.45,-0.2 0.66999,-0.32 0.36001,-0.18 0.7,-0.39 1.03,-0.62 0.47,-0.31 0.85001,-0.73 1.13,-1.21001 0.36,-1.43 0.53,-2.90999 0.53,-4.37999 0.08,-1.69 0.11,-3.61001 0.1,-5.7 0.41,-2.3 0.85001,-4.85 1.33001,-7.580005 v 0.07 c 0.56999,-1.21 1.24,-2.38 2,-3.48 0.2,-0.28 0.40999,-0.55 0.62999,-0.81 0.26,-0.29 0.47,-0.61 0.64001,-0.96 0.34999,-0.73 0.37999,-1.56 0.10999,-2.32 v 0.06 c -0.09,-0.23 -0.15999,-0.19 -0.22,-0.24 h -0.13999 -0.21001 l -0.37,0.08 c -0.3,0.11 -0.58,0.29 -0.8,0.52 l -0.61999,0.59 c -0.40001,0.39 -0.78,0.8 -1.15001,1.2 -0.76,0.81 -1.47,1.62 -2.16999,2.41 l 0.39999,0.28 c 0.36001,-0.59 0.71,-1.17 1.05,-1.74 1.08001,-1.06 2.09001,-2.1 3.01,-3.14 0.22,-0.26 0.45,-0.53 0.66,-0.8 0.22,-0.28 0.39,-0.61 0.47,-0.96 0.15,-0.71 -0.07,-1.45 -0.59,-1.97 v 0.3 c 0.49,-0.43 0.69,-1.09 0.53,-1.72 -0.22,-0.53 -0.64,-0.96 -1.16,-1.21 l -0.09,-0.06 -0.1,0.06 -2.78,1.7 c -3.57,2.88 -5.49,4.76 -5.37,4.86 0.12,-0.11 0.24,-0.22 0.35,-0.35 0.23,-0.22 0.59,-0.54 1.07,-0.96 0.97,-0.8 2.35001,-1.92 4.16,-3.34 l 2.81,-1.65 h -0.18 c 0.43,0.21 0.78,0.57 0.97,1.01 0.10001,0.49 -0.07,0.99 -0.46,1.31 l -0.15,0.13 0.15,0.15 c 0.4,0.42 0.57001,1.01 0.46,1.58 -0.23,0.6 -0.59,1.14 -1.06,1.58 -0.90999,1.03 -1.94,2.06 -3,3.1 -0.33999,0.58 -0.69,1.15 -1.05,1.74 l 0.40001,0.29 c 0.7,-0.79 1.40999,-1.6 2.15999,-2.39 0.37001,-0.39 0.76,-0.8 1.14001,-1.18 0.19,-0.2 0.39999,-0.38 0.59999,-0.57 0.16001,-0.18 0.37001,-0.32 0.59001,-0.41 l 0.29,-0.06 h 0.11999 v 0 -0.09 l -0.22,0.07 v 0.07 c 0.22,0.63 0.19,1.32 -0.10999,1.92 -0.15001,0.3 -0.34001,0.57 -0.55,0.83 -0.24,0.27 -0.46,0.55 -0.67001,0.85 -0.76999,1.13 -1.45,2.33 -2.02999,3.57 -0.46001,2.720005 -0.88,5.280005 -1.27,7.580005 v 5.69 c 0.02,1.44 -0.12,2.88 -0.42,4.29 -0.25,0.46 -0.6,0.86 -1.03,1.16 -0.31,0.25 -0.63,0.47 -0.97,0.67 -0.57,0.42 -0.88,0.56 -0.87,0.58 z"
       id="path276"
       style="fill:#ffad8d" />
    <path
       class="st33"
       d="m 570.49078,86.161975 c -3.49,1.7 -6.33999,4.45 -8.15999,7.86"
       id="path278"
       style="fill:#ae7461" />
    <path
       class="st32"
       d="m 562.33079,94.021975 c 1.12999,-1.53 2.34,-3 3.62999,-4.39 1.41001,-1.28 2.93001,-2.44 4.53,-3.47 -1.84999,0.62 -3.52,1.69 -4.84999,3.11 -1.46,1.31 -2.60001,2.93 -3.31,4.75 z"
       id="path280"
       style="fill:#ffad8d" />
    <path
       class="st32"
       d="m 605.48078,116.22198 c -0.23,-0.1 -0.47,-0.19 -0.71,-0.25 -0.47,-0.15001 -1.14999,-0.37001 -2.03,-0.69 -1.05999,-0.36001 -2.07999,-0.83001 -3.04,-1.40001 -0.26999,-0.16999 -0.5,-0.38999 -0.66999,-0.65999 -0.15,-0.31001 -0.27,-0.63 -0.34001,-0.96001 -0.16999,-0.75999 -0.27999,-1.53 -0.33999,-2.31 -0.15001,-1.79 -0.15001,-3.58 0,-5.36 0.02,-0.24 0.06,-0.48 0.10999,-0.71 0.04,-0.27 0.04,-0.54 0,-0.81 -0.08,-0.52 -0.2,-1.03 -0.35999,-1.53 -0.33001,-0.96 -0.75,-1.99 -1.18,-2.999995 l -0.32,-0.75 c -0.12001,-0.27 -0.29,-0.53 -0.48,-0.76 -0.36001,-0.45 -0.77,-0.86 -1.16001,-1.28 -0.80999,-0.82 -1.66999,-1.62 -2.52999,-2.45 l -1.31,-1.24 c -0.45,-0.4 -0.85,-0.84 -1.19,-1.33 -0.32,-0.46 -0.63,-1.09 -0.38,-1.43 0.16999,-0.19 0.39999,-0.33 0.65999,-0.39 l 0.21001,-0.07 h 0.15 c 0.12999,0.02 0.26,0.06 0.37999,0.12 1.39001,0.75 2.69001,1.65 3.88001,2.68 l 1.67999,1.47 0.22,0.18 0.12001,0.1 0.09,0.07 c 0.06,0.02 0.13001,0.02 0.19001,0 0.06,-0.03 0.12,-0.08 0.15,-0.14 v -0.06 c 0.01,-0.05 0.01,-0.1 0,-0.15 -0.11,-0.17 -0.24,-0.34 -0.37,-0.5 l -0.72001,-0.87 -0.73,-0.85 c -0.25,-0.3 -0.52,-0.58 -0.79999,-0.84 -0.54,-0.39 -1.12,-0.87 -1.67,-1.29 l -3.19,-2.53 c -0.44,-0.46 -0.78,-1.02 -0.97,-1.63 -0.10001,-0.52 0.24,-1.03 0.77,-1.13 0.02,0 0.03,-0.01 0.05,-0.01 l 0.28,-0.06 -0.14001,-0.24 c -0.23,-0.33 -0.27,-0.75 -0.10999,-1.12 0.23,-0.33 0.56999,-0.56 0.97,-0.64 h -0.14001 l 2.22,1.23 0.40001,0.06 h -0.06 c 2.59,1.4 4.63999,2.56 6.04,3.36 0.7,0.4 1.23,0.73 1.58999,0.96 0.17001,0.13 0.35001,0.24 0.53,0.35 -0.60999,-0.57 -1.29,-1.05 -2.03,-1.45 -1.37999,-0.86 -3.39999,-2.06 -5.97,-3.51 h -0.06 l -0.41,-0.06 h 0.07 l -2.21,-1.27 h -0.14 c -0.49,0.11 -0.92,0.4 -1.19,0.82 -0.23,0.48 -0.2,1.05 0.1,1.5 l 0.32,-0.24 c -0.38,0.06 -0.72,0.25 -0.97,0.53 -0.24,0.31 -0.33,0.71 -0.23,1.09 0.19,0.68 0.53,1.31 1.02,1.84 0.97,0.83 2.08,1.67 3.17999,2.55 l 0.82001,0.66 0.42999,0.34 0.22001,0.16 0.11,0.09 0.07,0.05 h 0.05 c 0.17,-0.35 0,-0.07 0.08,-0.13 v 0.08 0.05 0.05 l 0.09,0.09 0.54,0.6 0.72,0.84 0.71,0.87 c 0.14,0.12 0.2,0.34 0.36,0.38 0.16,0.05 0.09,-0.08 0.16,-0.08 0.07,0 0,0 0,0 l 0.06,-0.12 v -0.07 l -0.11,-0.09 -0.21,-0.18 -1.76,-1.5 c -1.21,-1.07 -2.53,-2 -3.95,-2.78 -0.17,-0.07 -0.35001,-0.12 -0.53,-0.14 -0.11001,-0.01 -0.21,-0.01 -0.32001,0 l -0.24,0.07 c -0.35999,0.1 -0.67999,0.31 -0.90999,0.6 -0.2,0.34 -0.24,0.75 -0.09,1.12 0.12001,0.31 0.27,0.6 0.47,0.87 0.37001,0.51 0.79,0.98 1.26,1.4 l 1.31,1.24 c 0.87001,0.82 1.72,1.62 2.53,2.43 0.4,0.41 0.79,0.82 1.14,1.23 0.17,0.19 0.31,0.41 0.42,0.64 l 0.33,0.77 c 0.45001,0.959995 0.86,1.969995 1.18,2.939995 0.16,0.47 0.28,0.96 0.35,1.45 0.04,0.23 0.04,0.46 0,0.68 0,0.22 -0.09,0.5 -0.1,0.74 -0.13,1.81 -0.1,3.63 0.09,5.44 0.06,0.79 0.19001,1.57 0.37,2.35 0.09,0.37 0.22,0.72 0.4,1.06 0.19,0.31 0.46,0.57 0.78,0.75 0.99,0.57 2.04,1.02 3.13,1.36 0.89,0.29 1.59,0.48 2.06,0.61 0.21,0.06 0.48,0.11 0.75,0.14001 z"
       id="path282"
       style="fill:#ffad8d" />
  </g>
</svg>
