<?xml version="1.0" encoding="UTF-8" standalone="no"?>
<!-- Generator: Adobe Illustrator 25.0.0, SVG Export Plug-In . SVG Version: 6.00 Build 0)  -->

<svg
   version="1.1"
   id="Layer_1"
   x="0px"
   y="0px"
   viewBox="0 0 750 420"
   style="enable-background:new 0 0 750 420;"
   xml:space="preserve"
   sodipodi:docname="expedia-why.svg"
   inkscape:version="1.2.1 (9c6d41e, 2022-07-14)"
   xmlns:inkscape="http://www.inkscape.org/namespaces/inkscape"
   xmlns:sodipodi="http://sodipodi.sourceforge.net/DTD/sodipodi-0.dtd"
   xmlns="http://www.w3.org/2000/svg"
   xmlns:svg="http://www.w3.org/2000/svg"><defs
   id="defs548" /><sodipodi:namedview
   id="namedview546"
   pagecolor="#ffffff"
   bordercolor="#000000"
   borderopacity="0.25"
   inkscape:showpageshadow="2"
   inkscape:pageopacity="0.0"
   inkscape:pagecheckerboard="0"
   inkscape:deskcolor="#d1d1d1"
   showgrid="false"
   inkscape:zoom="1.1747401"
   inkscape:cx="632.0547"
   inkscape:cy="231.11495"
   inkscape:window-width="2004"
   inkscape:window-height="1387"
   inkscape:window-x="0"
   inkscape:window-y="25"
   inkscape:window-maximized="0"
   inkscape:current-layer="Layer_1" />
<path
   class="st8"
   d="m 687.735,372.08036 c 0,0.12 -140.03,0.23 -312.72,0.23 -172.69,0 -312.75,-0.11 -312.75,-0.23 0,-0.12 139.99,-0.23 312.75,-0.23 172.76,0 312.72,0.1 312.72,0.23 z"
   id="path137"
   style="fill:#bcccd3;fill-opacity:1" /><g
   id="why-whiteboard"><rect
     x="179.25484"
     y="51.879635"
     class="st2"
     width="276.94"
     height="229.25"
     id="rect140"
     style="fill:#ffffff" /><path
     class="st8"
     d="m 456.18485,281.11964 c 0,-1.60001 -0.08,-91.09 -0.19,-229.250005 l 0.19,0.19 h -276.91 v 0 l 0.23,-0.23 c 0,82.980005 0,161.310005 0,229.249995 l -0.2,-0.20999 276.94,0.20999 -276.94,0.2 h -0.2 v -0.2 c 0,-67.94 0,-146.26 0,-229.249995 v -0.23 h 0.25 276.91 0.19 v 0.19 c -0.19,138.240005 -0.27,227.729995 -0.27,229.330005 z"
     id="path142"
     style="fill:#263238" /><path
     class="st12"
     d="m 424.35485,113.76963 c 0,0.12 -49.65,0.23 -110.88,0.23 -61.23,0 -110.88,-0.11 -110.88,-0.23 0,-0.12 49.64,-0.23 110.88,-0.23 61.24,0 110.88,0.11 110.88,0.23 z"
     id="path144"
     style="fill:#e0e0e0" /><path
     class="st12"
     d="m 424.35485,138.24963 c 0,0.13 -49.65,0.23 -110.88,0.23 -61.23,0 -110.88,-0.1 -110.88,-0.23 0,-0.12999 49.64,-0.22999 110.88,-0.22999 61.24,0 110.88,0.12 110.88,0.22999 z"
     id="path146"
     style="fill:#e0e0e0" /><path
     class="st12"
     d="m 424.35485,162.73964 c 0,0.13 -49.65,0.22999 -110.88,0.22999 -61.23,0 -110.88,-0.1 -110.88,-0.22999 0,-0.13 49.64,-0.23 110.88,-0.23 61.24,0 110.88,0.11 110.88,0.23 z"
     id="path148"
     style="fill:#e0e0e0" /><path
     class="st12"
     d="m 424.35485,187.22963 c 0,0.12 -49.65,0.23 -110.88,0.23 -61.23,0 -110.88,-0.11 -110.88,-0.23 0,-0.12 49.64,-0.23 110.88,-0.23 61.24,0 110.88,0.1 110.88,0.23 z"
     id="path150"
     style="fill:#e0e0e0" /><path
     class="st12"
     d="m 424.35485,211.71963 c 0,0.12001 -49.65,0.23 -110.88,0.23 -61.23,0 -110.88,-0.11 -110.88,-0.23 0,-0.12 49.64,-0.22999 110.88,-0.22999 61.24,0 110.88,0.1 110.88,0.22999 z"
     id="path152"
     style="fill:#e0e0e0" /><path
     class="st12"
     d="m 424.35485,236.19963 c 0,0.12 -49.65,0.23 -110.88,0.23 -61.23,0 -110.88,-0.11 -110.88,-0.23 0,-0.12 49.64,-0.23 110.88,-0.23 61.24,0 110.88,0.11001 110.88,0.23 z"
     id="path154"
     style="fill:#e0e0e0" /><rect
     x="338.76483"
     y="189.32962"
     class="st13"
     width="22.09"
     height="71.129997"
     id="rect156"
     style="fill:#33475b" /><rect
     x="380.48486"
     y="165.81963"
     class="st13"
     width="22.09"
     height="94.639999"
     id="rect158"
     style="fill:#33475b" /><rect
     x="222.46484"
     y="227.15962"
     class="st13"
     width="22.09"
     height="33.299999"
     id="rect160"
     style="fill:#33475b" /><rect
     x="259.01483"
     y="217.22963"
     class="st13"
     width="22.09"
     height="43.23"
     id="rect162"
     style="fill:#33475b" /><rect
     x="296.89484"
     y="204.64963"
     class="st13"
     width="22.09"
     height="55.810001"
     id="rect164"
     style="fill:#33475b" /><path
     class="st4"
     d="m 178.41485,47.689635 h 278.72 c 4.22,0 7.64,3.42 7.64,7.64 v 1.62 c 0,4.22 -3.42,7.64 -7.64,7.64 h -278.72 c -4.22,0 -7.64,-3.42 -7.64,-7.64 v -1.62 c 0,-4.23 3.42,-7.64 7.64,-7.64 z"
     id="path166"
     style="fill:#77899c;fill-opacity:1" /><path
     class="st8"
     d="m 426.37485,260.45963 h -1.02 -2.99 l -11.47,0.04 -42.17,0.07 -139.14,0.11001 h -27.72 v -0.23001 c 0,-47.9 0.05,-90.23 0.07,-120.57999 0,-15.17 0.05,-27.35 0.07,-35.74001 0,-4.189995 0,-7.429995 0,-9.639995 0,-1.1 0,-1.93 0,-2.5 0,-0.57 0,-0.88 0,-0.88 0,0 0,0.29 0,0.88 0,0.59 0,1.4 0,2.5 0,2.2 0,5.44 0.04,9.639995 0,8.39 0,20.57 0.07,35.74001 0,30.34999 0.04,72.67 0.07,120.57999 l -0.22,-0.23 h 27.61 l 139.14,0.07 42.17,0.07 11.47,0.04 h 2.99 z"
     id="path168"
     style="fill:#263238" /><path
     class="st14"
     d="m 381.17485,161.17964 -26.62,-10.62 c -8.54,0.75 -11.15,9.93999 -9.49,15.78 -5.14,-1.39 -10.44,1.65 -11.83,6.78999 -0.82,3.03 -0.12,6.26 1.89,8.67 -4.74,1.54 -7.34,6.62 -5.8,11.36 0.02,0.07 0.04,0.13 0.07,0.2 1.81,4.5 7.89,6.69 12.12,4.38 2.82,-1.52 4.72,-4.55 7.74,-5.59 2.84,-0.97 5.92,0 8.91,0.31 7.43,0.68 14.81,-3.57 18.91,-9.79 4.08,-6.22 5.19,-14.12 4.1,-21.48999 z"
     id="path170"
     style="fill:#cbd6e2" /><path
     class="st3"
     d="m 364.13485,154.58964 c -2.53,1.34999 -4.77,3.18 -6.59,5.4 -0.68,0.83 -0.55,2.06 0.28,2.74 0.48,0.39 1.12,0.53 1.72,0.37 v 0 c -2.38,2.58 -4.58,5.32 -6.6,8.19 -0.76,1.08 -0.5,2.58 0.58,3.35 0.58,0.41 1.31,0.54 1.99,0.36 8.6,-2.28 16.08,-7.6 21.04,-14.98 z"
     id="path172"
     style="fill:#d16a6a;fill-opacity:1" /><path
     d="m 363.52485,158.07963 c -0.45,0.21 -0.85,0.51 -1.18,0.88 -0.34,0.37 -0.41,0.91 -0.2,1.37 0.35,0.63 1.35,0.7 1.67,1.36 0.32,0.66 -0.3,1.46001 -0.88,1.96001 l -1.85,1.59999 c -0.46,0.39 -0.96,0.94 -0.78,1.52001 0.18,0.58 1.05,0.75 1.75,0.68 3.13,-0.38 5.86,-2.28 7.32,-5.07 z"
     id="path174"
     style="opacity:0.3" /><path
     class="st3"
     d="m 405.79485,147.37963 c 0,0 0,0.09 0,0.18001 1.99,10.75999 -1.02,21.84999 -8.17,30.12999 l -4.48,5.2 -4.15,-16.07 z"
     id="path178"
     style="fill:#d16a6a;fill-opacity:1" /><path
     class="st8"
     d="m 405.79485,147.37963 -0.08,0.11001 -0.25,0.28 -0.88,1.08 -3.45,4.04 c -2.95,3.44 -7.12,8.3 -12,14.03 v -0.09 c 1.16,4.51 2.44,9.46 3.78,14.65 0.12,0.49 0.25,0.97 0.37,1.42 h -0.18 l 2.63,-3.07 c 0.88,-1.01 1.75,-1.98 2.54,-2.99 1.55,-1.91 2.9,-3.96001 4.04,-6.14 1.02,-1.96 1.86,-4.02 2.49,-6.14 0.33,-0.99 0.53,-1.98 0.76,-2.92 0.23,-0.94 0.38,-1.86 0.46,-2.74 0.38,-2.77 0.43,-5.58 0.15,-8.36 -0.07,-0.99 -0.22,-1.75 -0.29,-2.25 -0.07,-0.5 -0.09,-0.68 -0.11,-0.79 -0.02,-0.11 0,0.06 0.04,0.19 0.04,0.13 0.06,0.33 0.11,0.59 0.08,0.52 0.24,1.26 0.32,2.25 0.31,2.79 0.28,5.61 -0.09,8.39 -0.09,0.88 -0.28,1.8 -0.45,2.75 -0.17,0.95 -0.43,1.94 -0.75,2.94 -0.63,2.13999 -1.47,4.22 -2.5,6.21 -1.13,2.2 -2.49,4.28 -4.05,6.2 -0.8,1.02 -1.67,1.97999 -2.53,3 l -2.63,3.07 -0.12,0.15 -0.05,-0.19 c -0.11,-0.45 -0.24,-0.94 -0.37,-1.42 l -3.76,-14.66 v -0.04 0 l 12.13,-14.03 3.51,-3.99 0.88,-1.05 0.24,-0.26 z"
     id="path180"
     style="fill:#263238" /><path
     class="st3"
     d="m 376.33485,121.95963 h -0.19 c -10.78,-0.37 -21.16,4.17 -28.2,12.34 l -4.38,5.13 16.29,1.71 z"
     id="path182"
     style="fill:#d16a6a;fill-opacity:1" /><path
     class="st8"
     d="m 376.33485,121.95963 -0.08,0.09 -0.22,0.27 -0.88,1.04 -3.38,3.96 -11.89,13.88 v 0 h -0.04 l -14.85,-1.54 -1.44,-0.15 h -0.19 l 0.12,-0.15 2.63,-3.02 c 0.88,-0.99 1.68,-1.99 2.55,-2.92 1.65,-1.8 3.48,-3.42 5.46,-4.85 1.79,-1.28999 3.69,-2.41 5.7,-3.33 0.93,-0.45999 1.87,-0.81 2.75,-1.17 0.88,-0.36 1.75,-0.63 2.63,-0.88 2.66,-0.76 5.4,-1.19 8.17,-1.3 0.97,-0.06 1.75,0 2.24,0 h 0.59 0.2 -0.79 c -0.51,0 -1.27,0 -2.24,0.05 -2.76,0.13 -5.49,0.59001 -8.14,1.36 -0.88,0.21 -1.75,0.54001 -2.63,0.88 -0.88,0.33 -1.81,0.7 -2.74,1.17 -1.99,0.93001 -3.88,2.04 -5.65,3.33001 -1.97,1.43 -3.79,3.05 -5.43,4.84 -0.88,0.91999 -1.68,1.91999 -2.55,2.91 l -2.63,3.02 -0.07,-0.18 1.45,0.16 14.84,1.56 h -0.08 l 11.84,-13.67 3.44,-3.95 c 0.4,-0.46 0.71,-0.82 0.92,-1.06 l 0.25,-0.27 c 0.1,-0.05 0.13,-0.08 0.14,-0.08 z"
     id="path184"
     style="fill:#263238;fill-opacity:1" /><path
     class="st14"
     d="m 434.95485,83.789635 c -2.33,-2.02 -11.83,0.32 -24.55,6.96 -7.48,3.91 -14.28,8.98 -20.16,15.029995 l -37.41,43.39 11.4,9.85 6.63,5.72 11.4,9.85 34.06,-39.39 c 3.31,-3.84 6.25,-7.99 8.77,-12.4 2.55,-4.41 4.75,-9.01 6.56,-13.77 4.99,-13.349995 5.62,-23.249995 3.28,-25.259995"
     id="path186"
     style="fill:#cbd6e2" /><line
     class="st35"
     x1="358.81485"
     y1="142.26962"
     x2="388.16486"
     y2="167.25963"
     id="line188"
     style="fill:none" /><path
     class="st8"
     d="m 388.16485,167.25963 c -0.04,0.04 -6.64,-5.52 -14.74,-12.41999 -8.1,-6.90001 -14.64,-12.53 -14.61,-12.57 0.04,-0.04 6.65,5.51 14.74,12.41 8.08,6.9 14.64,12.53999 14.61,12.57999 z"
     id="path190"
     style="fill:#263238" /><line
     class="st35"
     x1="357.55487"
     y1="143.46962"
     x2="386.88486"
     y2="168.45963"
     id="line192"
     style="fill:none" /><path
     class="st8"
     d="m 386.88485,168.45964 c 0,0 -6.63,-5.51 -14.73,-12.42 -8.1,-6.91 -14.64,-12.53 -14.61,-12.57 0.04,-0.04 6.64,5.51 14.74,12.42 8.1,6.91 14.65,12.53 14.6,12.57 z"
     id="path194"
     style="fill:#263238" /><line
     class="st35"
     x1="356.38486"
     y1="144.86963"
     x2="385.72485"
     y2="169.86963"
     id="line196"
     style="fill:none" /><path
     class="st8"
     d="m 385.72485,169.86964 c -0.04,0 -6.64,-5.52001 -14.74,-12.42 -8.1,-6.9 -14.64,-12.54 -14.61,-12.58 0.04,-0.04 6.64,5.52 14.74,12.41999 8.1,6.9 14.64,12.54 14.61,12.58001 z"
     id="path198"
     style="fill:#263238" /><line
     class="st35"
     x1="355.20486"
     y1="146.27963"
     x2="384.54486"
     y2="171.27963"
     id="line200"
     style="fill:none" /><path
     class="st8"
     d="m 384.54485,171.27964 c 0,0 -6.64,-5.51 -14.74,-12.42 -8.1,-6.91 -14.64,-12.53 -14.61,-12.57 0.03,-0.04 6.64,5.51 14.74,12.42 8.11,6.9 14.65,12.52 14.61,12.57 z"
     id="path202"
     style="fill:#263238" /><line
     class="st35"
     x1="354.04486"
     y1="147.68962"
     x2="383.37485"
     y2="172.68962"
     id="line204"
     style="fill:none" /><path
     class="st8"
     d="m 383.37485,172.68963 c 0,0.04 -6.64,-5.52 -14.74,-12.41999 -8.1,-6.9 -14.64,-12.54 -14.6,-12.58001 0.04,-0.04 6.63,5.52001 14.73,12.42 8.1,6.9 14.64,12.53 14.61,12.58 z"
     id="path206"
     style="fill:#263238" /><path
     class="st8"
     d="m 391.10485,134.75963 -0.14,0.23 c -0.1,0.15 -0.27,0.35 -0.47,0.61 -0.42,0.53 -1.05,1.28 -1.83,2.2 -1.55,1.83 -3.73,4.38 -6.14,7.11 -2.4,2.73 -4.65,5.26 -6.26,7.01 l -1.91,2.12 -0.53,0.56 c -0.06,0.07 -0.12,0.13 -0.19,0.19 0.05,-0.08 0.11,-0.15 0.17,-0.22 l 0.5,-0.59 1.87,-2.16999 6.21,-7.07 6.22,-7.07 1.88,-2.15 c 0.21,-0.26 0.39,-0.46 0.5,-0.6 0.08,-0.13 0.11,-0.17 0.12,-0.16001 z"
     id="path208"
     style="fill:#263238" /><path
     class="st8"
     d="m 405.79485,147.37963 c 0,0.04 -6.62,-5.56 -14.69,-12.50999 -8.07,-6.95 -14.6,-12.63 -14.56,-12.68001 0.04,-0.04 6.61,5.57 14.69,12.52001 8.09,6.94999 14.62,12.63 14.56,12.66999 z"
     id="path210"
     style="fill:#263238" /><path
     class="st8"
     d="m 381.12485,151.09963 c 0.09,-0.03 0.19,-0.03 0.29,0 0.26,0.08 0.49,0.25 0.65,0.47 0.25,0.34 0.3,0.79 0.12,1.17 -0.26,0.64 -1,0.94 -1.64,0.68 -0.35,-0.13999 -0.61,-0.43 -0.72,-0.79 -0.14,-0.4 -0.05,-0.84 0.24,-1.16 0.18,-0.21 0.42,-0.34999 0.68,-0.40999 0.09,-0.03 0.19,-0.03 0.29,0 -0.09,0.03 -0.18,0.06 -0.27,0.08 -0.24,0.08 -0.45,0.23 -0.6,0.43 -0.23,0.28 -0.29,0.66 -0.17,1 0.18,0.56 0.77,0.88 1.34,0.7 0.3,-0.09 0.55,-0.32 0.67,-0.61001 0.16,-0.33 0.13,-0.71 -0.07,-1.02 -0.13,-0.21 -0.32,-0.38 -0.55,-0.48 -0.13,-0.04 -0.26,-0.05 -0.26,-0.06 z"
     id="path212"
     style="fill:#263238" /><path
     class="st8"
     d="m 388.51485,142.84963 c 0.09,-0.03 0.19,-0.03 0.29,0 0.26,0.08 0.48,0.25 0.64,0.47 0.25,0.34 0.3,0.79 0.12,1.17 -0.26,0.64 -1,0.94 -1.64,0.68 -0.35,-0.13999 -0.61,-0.43 -0.72,-0.79 -0.14,-0.4 -0.05,-0.84 0.24,-1.16 0.18,-0.21 0.42,-0.34999 0.68,-0.40999 0.19,0 0.3,0 0.29,0 -0.01,0 -0.1,0 -0.27,0.08 -0.23,0.08 -0.44,0.22 -0.59,0.42 -0.23,0.28 -0.3,0.65999 -0.18,1.00999 0.18,0.57 0.79,0.88 1.36,0.7 0.3,-0.1 0.54,-0.31 0.66,-0.6 0.15,-0.33 0.12,-0.72 -0.08,-1.02 -0.13,-0.21 -0.32,-0.38 -0.54,-0.48 -0.16,-0.05 -0.26,-0.06 -0.26,-0.07 z"
     id="path214"
     style="fill:#263238" /><path
     d="m 360.21485,140.62963 c 0,0 11.14,-12.33 16.1,-18.67 -3.76,1.9 -8.02,4.09 -11.03,7.01 -3.08,3.12001 -4.89,7.28 -5.07,11.66 z"
     id="path216"
     style="opacity:0.3" /><path
     class="st3"
     d="m 353.19485,180.27964 c -1.21,0.04 -2.16,1.06 -2.12,2.25999 0.04,1.21 1.06,2.16 2.26,2.12 1.21,-0.04 2.16,-1.06 2.12,-2.25999 -0.04,-1.15001 -0.96,-2.08001 -2.12,-2.12"
     id="path220"
     style="fill:#d16a6a;fill-opacity:1" /><circle
     transform="rotate(-38.760917)"
     class="st2"
     cx="248.50522"
     cy="344.74548"
     id="ellipse222"
     style="fill:#ffffff;stroke-width:1.00004"
     r="10.510469" /><path
     class="st8"
     d="m 420.03485,114.58964 c 0.02,-0.86 -0.01,-1.72 -0.1,-2.58 -0.31,-2.34 -1.4,-4.5 -3.09,-6.14 -1.15,-1.12001 -2.55,-1.96 -4.09,-2.45 -1.76,-0.55 -3.63,-0.62001 -5.43,-0.21 -0.97,0.21 -1.9,0.57 -2.76,1.07 -0.9,0.5 -1.72,1.14 -2.43,1.9 -3.09,3.26 -3.7,8.14 -1.52,12.06 0.99,1.78 2.48,3.23 4.3,4.16 3.12,1.59999 6.83,1.52 9.87,-0.22 2.04,-1.17 3.63,-2.99 4.51,-5.16 0.3,-0.81 0.54,-1.63 0.73,-2.47 0,0.22 -0.02,0.45 -0.07,0.67 -0.03,0.27 -0.09,0.54 -0.17,0.81 -0.08,0.36 -0.19,0.72 -0.32,1.07 -1.46,3.89 -5.07,6.56 -9.21,6.82 -1.91,0.13 -3.82,-0.26 -5.53,-1.13 -0.92,-0.46 -1.77,-1.05 -2.52,-1.75 -0.79,-0.74 -1.46,-1.59 -1.97,-2.54 -2.3,-4.09 -1.66,-9.2 1.58,-12.59 0.73,-0.79 1.59,-1.46 2.54,-1.97 0.9,-0.51 1.87,-0.88 2.88,-1.1 1.87,-0.42 3.81,-0.32 5.64,0.26 1.58,0.52 3.02,1.39 4.2,2.57 1.71,1.7 2.79,3.93 3.04,6.33 0.05,0.37 0.07,0.74 0.06,1.11 0.02,0.27 0.02,0.54 0,0.82 -0.02,0.22 -0.07,0.45 -0.14,0.66 z"
     id="path224"
     style="fill:#263238" /><path
     class="st3"
     d="m 434.95485,83.789635 c -2.33,-2.02 -11.83,0.32 -24.55,6.96 l 21.22,18.299995 c 4.99,-13.349995 5.62,-23.249995 3.28,-25.259995"
     id="path226"
     style="fill:#d16a6a;fill-opacity:1" /><path
     class="st8"
     d="m 434.95485,83.789635 c 0,0 0.13,0.12 0.38,0.39 0.29,0.45 0.51,0.94 0.64,1.46 0.4,2.02 0.47,4.09 0.2,6.14 -0.53,5.36 -2.41,13.039995 -6.28,21.989995 -2.16,4.88 -4.73,9.57 -7.68,14.03 -1.68,2.48 -3.49,4.86 -5.43,7.14 l -6.22,7.23 -28.05,32.55 -0.15,0.17 -0.17,-0.15 -14.72,-12.7 -14.75,-12.72 -0.17,-0.14 0.15,-0.18 28.05,-32.52 6.23,-7.21 2.97,-3.45 c 1.02,-1.12 2.08,-2.13 3.15,-3.1 3.95,-3.589995 8.23,-6.799995 12.78,-9.589995 3.76,-2.23 7.66,-4.22 11.67,-5.96 3,-1.33 6.09,-2.44 9.26,-3.31 1.99,-0.6 4.06,-0.87 6.14,-0.8 0.3,0.04 0.59,0.09 0.88,0.17 0.22,0.06 0.43,0.14 0.63,0.23 0.31,0.2 0.45,0.32 0.45,0.32 l -0.46,-0.27 c -0.2,-0.09 -0.42,-0.16 -0.63,-0.22 -0.25,-0.07 -0.56,-0.08 -0.88,-0.14 -2.06,-0.03 -4.1,0.27 -6.07,0.88 -3.15,0.9 -6.22,2.02 -9.2,3.37 -3.99,1.76 -7.86,3.77 -11.6,6.01 -4.53,2.79 -8.78,6 -12.7,9.589995 -1.05,0.97 -2.12,1.99 -3.1,3.09 l -2.97,3.45 -6.22,7.22 -28.05,32.56 v -0.32 l 14.75,12.71001 14.75,12.71 h -0.32 l 28.05,-32.54 6.22,-7.21 c 1.94,-2.26 3.75,-4.63 5.42,-7.09 2.95,-4.42 5.53,-9.09 7.7,-13.94 3.9,-8.91 5.81,-16.550005 6.4,-21.920005 0.28,-2.04 0.24,-4.11 -0.12,-6.14 -0.12,-0.52 -0.32,-1.01 -0.6,-1.46 -0.21,-0.2 -0.33,-0.33 -0.33,-0.33 z"
     id="path228"
     style="fill:#263238" /><path
     class="st8"
     d="m 410.45485,121.09963 c -0.18,-0.69 -0.27,-1.39 -0.28,-2.1 -0.11,-1.29999 -0.18,-3.09999 -0.23,-5.09 -0.04,-1.98999 -0.06,-3.62999 -0.09,-5.09999 -0.07,-0.70001 -0.07,-1.41 0,-2.11 0.17,0.68999 0.26,1.39 0.28,2.09999 0.11,1.31 0.18,3.11 0.22,5.1 0.04,1.99 0.07,3.63 0.1,5.1 0.07,0.69 0.07,1.39 0,2.1 z"
     id="path230"
     style="fill:#263238" /><path
     class="st8"
     d="m 408.10485,119.08964 c -0.31,-1.52 -0.47,-3.06 -0.48,-4.61 -0.15,-1.54001 -0.15,-3.1 0,-4.64 0.31,1.51999 0.48,3.06 0.49,4.61 0.15,1.54 0.15,3.09999 -0.01,4.64 z"
     id="path232"
     style="fill:#263238" /><path
     class="st14"
     d="m 360.21485,202.45964 c -1.98,-0.65 -4.15,-0.11001 -5.59,1.38999 -1.19,1.38 -1.33,3.38 -0.34,4.92 -1.71,0.78 -2.79,2.5 -2.74,4.38 0.09,1.85 1.07,3.53 2.63,4.52 1.58,0.95 3.46,1.27 5.26,0.88 4.49,-0.9 7.39,-5.27 6.49,-9.76 -0.6,-2.99 -2.8,-5.41 -5.72,-6.3 z"
     id="path234"
     style="fill:#cbd6e2" /><path
     class="st14"
     d="m 321.84485,195.83964 c 0,2.61 -2.12,4.72999 -4.73,4.72999 -2.61,0 -4.73,-2.12 -4.73,-4.72999 0,-2.61001 2.12,-4.73 4.73,-4.73 0,0 0.01,0 0.01,0 2.6,0 4.72,2.11 4.72,4.73 0,-0.01 0,0 0,0 z"
     id="path236"
     style="fill:#cbd6e2" /><path
     class="st8"
     d="m 213.06485,104.02964 c -1.82,0.23999 -3.66,0.31999 -5.49,0.23999 -1.83,0.08 -3.67,0 -5.49,-0.23999 1.82,-0.23001 3.66,-0.3 5.49,-0.23001 1.84,-0.07 3.67,0 5.49,0.23001 z"
     id="path238"
     style="fill:#263238" /><path
     class="st8"
     d="m 213.06485,127.32963 c -1.82,0.23 -3.66,0.3 -5.49,0.23 -1.83,0.07 -3.67,0 -5.49,-0.23 1.82,-0.23 3.66,-0.31 5.49,-0.23 1.84,-0.08 3.67,0 5.49,0.23 z"
     id="path240"
     style="fill:#263238" /><path
     class="st8"
     d="m 213.06485,150.61964 c -1.82,0.22999 -3.66,0.3 -5.49,0.22999 -1.83,0.07 -3.67,0 -5.49,-0.22999 1.82,-0.23 3.66,-0.30001 5.49,-0.23 1.84,-0.07 3.67,0.01 5.49,0.23 z"
     id="path242"
     style="fill:#263238" /><path
     class="st8"
     d="m 213.06485,173.91963 c -1.82,0.23 -3.66,0.31 -5.49,0.23 -1.83,0.08 -3.67,0 -5.49,-0.23 1.82,-0.23 3.66,-0.3 5.49,-0.23 1.84,-0.08 3.67,0 5.49,0.23 z"
     id="path244"
     style="fill:#263238" /><path
     class="st8"
     d="m 213.06485,197.21963 c -1.82,0.23 -3.66,0.30001 -5.49,0.23 -1.83,0.07 -3.67,0 -5.49,-0.23 1.82,-0.22999 3.66,-0.31 5.49,-0.22999 1.84,-0.08 3.67,0 5.49,0.22999 z"
     id="path246"
     style="fill:#263238" /><path
     class="st8"
     d="m 213.06485,220.53963 c -1.82,0.23 -3.66,0.30001 -5.49,0.23 -1.83,0.07 -3.67,0 -5.49,-0.23 1.82,-0.22999 3.66,-0.3 5.49,-0.22999 1.84,-0.07 3.67,0.01 5.49,0.22999 z"
     id="path248"
     style="fill:#263238" /></g><g
   id="why-man"><path
     class="st7"
     d="m 403.70885,230.73197 -3.92,-2.38999 c 0,0 -5.13,-4.58001 -6.52,-5.57 -1.39,-0.99 -6.79,-3.42 -7.55,-3.36001 -0.76,0.06 -8.16,-0.40999 -9.92,-1.22999 -1.76,-0.82 -3.66,-1.89 -3.66,-1.89 -0.75,0.9 -0.82,2.19 -0.18,3.17 1.05,1.82 6.47,5.26 6.47,5.26 l -2.06,13.25 c 0,0 5.04,3.97 8.18,4.22999 3.14,0.26 6.14,-0.36 7.06,-0.08 0.92,0.28 3.09,1.05 3.09,1.05 z"
     id="path330"
     style="fill:#ffbe9d" /><polygon
     class="st13"
     points="416.98,212.15 418.94,215.03 384.86,237.73 382.59,234.96 "
     id="polygon332"
     style="fill:#33475b"
     transform="matrix(-1,0,0,1,772.27885,-3.3680226)" /><path
     class="st16"
     d="m 370.36885,224.89197 c 0,0 -2.63,1.07 -1.24,3.51 1.39,2.44 3.19,1.65 3.19,1.65 0,0 -0.65,2.63 2.32,4 -0.15,1.55 0.51,3.06 1.75,4 l 1.67,0.88 1.06,-2.05 c 0,0 6.29,-0.58 7.24,-3.09 v -1.3 c 0.69,-0.35 1.09,-1.08 1.03,-1.84 -0.2,-1.23 -0.12,-1.25 -2.49,-2.06 -2.37,-0.81 -7.39,-0.27 -7.39,-0.27 0,0 2.7,-1.03 2.63,-2.42 -0.07,-1.39 -1.11,-2.28 -4.01,-2.08 -1.94,0.15 -3.88,0.51 -5.76,1.07 z"
     id="path334"
     style="fill:#ffbf9d" /><path
     class="st11"
     d="m 370.36885,224.89197 c 0.35,-0.06 0.7,-0.13 1.04,-0.23 0.68,-0.15999 1.67,-0.38999 2.95,-0.56999 0.7,-0.11001 1.41,-0.18001 2.12,-0.21001 0.82,-0.06 1.65,0.05 2.43,0.32 0.4,0.16 0.73,0.45 0.93,0.83001 0.21,0.4 0.23,0.86 0.07,1.28 -0.25,0.41999 -0.6,0.77 -1.02,1.03 -0.44,0.28999 -0.92,0.53 -1.41,0.72999 l -1.2,0.49001 1.3,-0.11001 c 2.05,-0.22999 4.13,-0.22999 6.18,0 0.54,0.09 1.07,0.23 1.59,0.43 0.52,0.15001 1.02,0.37001 1.49,0.66 0.18,0.17 0.29,0.39 0.31,0.64 l 0.07,0.43 c 0.01,0.13 0.01,0.25 0,0.38 -0.1,0.51 -0.42,0.96 -0.88,1.21 l -0.12,0.07 v 0.13 c 0,0.41 0,0.88 -0.04,1.3 v -0.07 l -0.16,0.29 c -0.36,0.52001 -0.85,0.93 -1.42,1.2 -0.56,0.29 -1.15,0.53 -1.75,0.72 -1.21,0.35 -2.44,0.6 -3.69,0.73 h -0.12 l -0.05,0.11 c -0.36,0.7 -0.72,1.39 -1.06,2.06 l 0.29,-0.09 -1.67,-0.88 v 0 c -1.19,-0.88 -1.82,-2.32 -1.67,-3.8 v -0.14 l -0.12,-0.06 c -0.78,-0.33 -1.43,-0.89 -1.87,-1.61 -0.38,-0.65 -0.52,-1.42 -0.39,-2.17 l 0.05,-0.28 -0.26,0.1 c -0.54,0.17 -1.13,0.12 -1.63,-0.15 -0.45,-0.25 -0.84,-0.6 -1.14,-1.03 -0.27,-0.36 -0.47,-0.77 -0.6,-1.2 -0.11,-0.36 -0.11,-0.74 0,-1.1 0.19,-0.49 0.53,-0.91 0.97,-1.2 0.3,-0.21 0.47,-0.28999 0.46,-0.31 -0.18,0.05 -0.35,0.13 -0.51,0.24001 -0.49,0.27 -0.87,0.69999 -1.1,1.21 -0.14,0.38999 -0.17,0.81 -0.09,1.21 0.13,0.46 0.34,0.9 0.61,1.29 0.31,0.47 0.72,0.86 1.21,1.13 0.57,0.32 1.26,0.38999 1.88,0.19 l -0.22,-0.18001 c -0.16,0.82 -0.02,1.68001 0.39,2.41 0.47,0.78 1.18,1.39 2.02,1.75 l -0.11,-0.19 c -0.07,0.77001 0.04,1.55001 0.32,2.27001 0.3,0.77 0.82,1.44 1.49,1.91999 v 0 l 1.67,0.88 0.19,0.1 0.1,-0.18 c 0.35,-0.68 0.71,-1.36 1.07,-2.06 l -0.18,0.12 c 1.28,-0.14 2.55,-0.38 3.79,-0.75 0.64,-0.19 1.27,-0.44 1.87,-0.75 0.64,-0.31 1.19,-0.78 1.6,-1.37 0.06,-0.13 0.13,-0.25 0.19,-0.37 v -0.06 c 0,-0.45 0,-0.88 0.04,-1.3 l -0.12,0.19 c 0.63,-0.27 1.09,-0.83 1.24,-1.5 0.02,-0.17 0.02,-0.33 0,-0.5 l -0.08,-0.45 c -0.04,-0.34 -0.2,-0.65 -0.46,-0.88 -0.51,-0.33 -1.06,-0.58 -1.64,-0.74 -0.54,-0.21 -1.1,-0.35 -1.67,-0.44 -2.09,-0.24 -4.2,-0.24 -6.29,0 l 0.09,0.38 c 0.52,-0.21 1.02,-0.47 1.48,-0.78 0.47,-0.29 0.86,-0.7 1.13,-1.18 0.38,-1.04 -0.15,-2.18 -1.19,-2.56 0,0 -0.01,0 -0.01,0 -0.82,-0.28 -1.7,-0.38 -2.56,-0.3 -0.72,0.04 -1.44,0.13 -2.15,0.25 -0.99,0.17 -1.97,0.39 -2.94,0.68 -0.34,0.1 -0.6,0.18 -0.76,0.25 z"
     id="path336"
     style="fill:#ff9a6c" /><path
     class="st11"
     d="m 375.36885,234.03198 c 1.75,-0.71001 3.57,-1.24001 5.43,-1.6 1.88,-0.21 3.77,-0.23 5.65,-0.09 -0.52,-0.23 -1.07,-0.37 -1.64,-0.4 -2.73,-0.36001 -5.5,0.05 -8,1.21 -0.52,0.21 -1.01,0.50999 -1.44,0.88 z"
     id="path338"
     style="fill:#ff9a6c" /><path
     class="st11"
     d="m 372.41885,230.15198 c 0.07,0.11 1.24,-0.67 2.88,-1.1 1.65,-0.44 3.03,-0.57 3.03,-0.71 -1.06,-0.19 -2.15,-0.1 -3.16,0.27 -1.05,0.2 -2.02,0.74 -2.75,1.54 z"
     id="path340"
     style="fill:#ff9a6c" /><path
     class="st4"
     d="m 522.42885,96.981977 c -1.16,-2.22 -3.59,-3.48 -6.08,-3.13 -2.92,-2.29 -7.02,-2.29 -9.94,0 -3.37,-2.09 -7.79,-1.06 -9.89,2.3 -0.63,1.01 -0.99,2.159998 -1.07,3.339998 -3.26,-0.59 -6.38,1.569995 -6.97,4.829995 -0.34,1.87001 0.23,3.79001 1.53,5.17 -3.05,0.92 -4.77,4.14 -3.85,7.19 0.79,2.62001 3.32,4.32001 6.05,4.07001 l 29,-17.05 c 1.8,-1.74 2.29,-4.440005 1.22,-6.720003 z"
     id="path342"
     style="fill:#576069;fill-opacity:1" /><path
     class="st7"
     d="m 491.34885,121.55198 c 1.27,-12.70001 12.09,-22.290005 24.85,-22.020005 h 1.27 c 13.64,1.080005 20.35,13.260005 18.89,26.879995 l -2.92,45.45001 -1.99,5.68 -23.5,29.46 -5.93,-26.54 -0.11,-12.27 c 0,0 -13.09,-2.31 -12.98,-15.45 0.06,-6.34 1.23,-19.39 2.42,-31.19 z"
     id="path344"
     style="fill:#ffbe9d" /><path
     class="st11"
     d="m 501.93885,168.21197 c 6.06,0.09 12.02,-1.55 17.18,-4.73 0,0 -4.22,9.4 -17.17,7.98 z"
     id="path346"
     style="fill:#ff9a6c" /><path
     class="st8"
     d="m 494.90885,133.79197 c -0.04,1.01 0.74,1.87 1.75,1.93001 0.96,0.12 1.84,-0.56001 1.96,-1.52001 0.01,-0.04 0.01,-0.09 0.01,-0.13 0.03,-1.00999 -0.74,-1.87 -1.75,-1.94 -0.96,-0.12 -1.84,0.56001 -1.96,1.52001 0,0.04 0,0.09 -0.01,0.13999 z"
     id="path348"
     style="fill:#263238" /><path
     class="st8"
     d="m 493.88885,128.69198 c 0.23,0.25 1.67,-0.77001 3.68,-0.73 2.02,0.04 3.51,1.09 3.7,0.88 0.11,-0.11001 -0.11,-0.55001 -0.75,-1.03 -0.86,-0.63 -1.89,-0.97 -2.95,-0.97 -1.05,-0.02 -2.07,0.28 -2.94,0.88 -0.64,0.41999 -0.86,0.86 -0.74,0.97 z"
     id="path350"
     style="fill:#263238" /><path
     class="st8"
     d="m 512.17885,135.00198 c -0.03,1.00999 0.74,1.86 1.75,1.93 0.96,0.12 1.84,-0.57 1.95,-1.53 0,-0.04 0.01,-0.08 0.01,-0.12 0.04,-1.01 -0.74,-1.87001 -1.75,-1.93001 -0.96,-0.12 -1.84,0.57 -1.95,1.53 0,0.04 0,0.08 -0.01,0.12001 z"
     id="path352"
     style="fill:#263238" /><path
     class="st8"
     d="m 513.18885,128.81198 c 0.23,0.25 1.67,-0.77001 3.69,-0.72 2.02,0.05 3.51,1.09 3.7,0.88 0.11,-0.11001 -0.11,-0.55001 -0.75,-1.03 -0.86,-0.63 -1.89,-0.97 -2.95,-0.98 -1.05,-0.03 -2.08,0.28 -2.95,0.88 -0.62,0.41999 -0.82,0.86 -0.74,0.97 z"
     id="path354"
     style="fill:#263238" /><path
     class="st8"
     d="m 506.23885,143.63197 c -1.06,-0.36 -2.15,-0.58 -3.26,-0.66999 -0.52,-0.06 -1,-0.18 -1.08,-0.53 -0.04,-0.53 0.09,-1.06 0.37,-1.52001 0.52,-1.24 1.04,-2.53 1.6,-3.88999 2.24,-5.55 3.86,-10.11 3.64,-10.2 -0.22,-0.09 -2.22,4.33 -4.44,9.88 -0.54,1.36 -1.05,2.63 -1.54,3.91 -0.34,0.62 -0.44,1.33 -0.31,2.02 0.14,0.37 0.45,0.66 0.83,0.77 0.28,0.09 0.58,0.14 0.88,0.14 1.09,0.18 2.21,0.21 3.31,0.09 z"
     id="path356"
     style="fill:#263238" /><path
     class="st8"
     d="m 512.14885,145.11197 c -0.32,0 -0.38,2.17 -2.28,3.68 -1.9,1.52001 -4.23,1.23 -4.26,1.53 0,0.14 0.51,0.44 1.5,0.49001 1.27,0.03 2.51,-0.38 3.51,-1.16 0.97,-0.76 1.6,-1.87 1.75,-3.09 0.17,-0.88 -0.07,-1.45 -0.22,-1.45001 z"
     id="path358"
     style="fill:#263238" /><path
     class="st8"
     d="m 513.28885,123.05198 c 0.23,0.53 1.97,0.1 4.09,0.18 2.11,0.08 3.87,0.55 4.09,0 0.1,-0.25 -0.25,-0.74 -0.98,-1.19 -0.94,-0.56 -2.02,-0.86 -3.11,-0.88 -1.08,-0.04 -2.16,0.21 -3.11,0.73 -0.74,0.43 -1.09,0.9 -0.98,1.16 z"
     id="path360"
     style="fill:#263238" /><path
     class="st8"
     d="m 494.45885,123.20197 c 0.31,0.49 1.75,0.16 3.4,0.31 1.65,0.15 3.04,0.62 3.41,0.18001 0.17,-0.22 0,-0.70001 -0.58,-1.19 -0.77,-0.61 -1.7,-0.97 -2.68,-1.03 -0.98,-0.09 -1.96,0.14 -2.81,0.64 -0.64,0.37 -0.87,0.81999 -0.74,1.08999 z"
     id="path362"
     style="fill:#263238" /><path
     class="st4"
     d="m 492.73885,115.55198 c 0,0 3.64,-8.15001 7.64,-9.99 4.86,-2.22 6.81,3.09 11.4,1.9 4.58,-1.19 9.22,-3.31 13.82,0.32 5.04,3.98 2.63,6.65 2.79,12.47 0.79,23.67 4.97,30.42 6.43,19.28999 0.16,-1.22 3.56,-2.12 4.16,-7.25999 0.79,-6.66 1.22,-14.77 -0.18,-19.54 -1.17,-4.02 -3.4,-6.83 -7.42,-9.95 -6.35,-4.940005 -15.2,-5.260005 -21.23,-4.740005 -6.03,0.52 -17.74,7.190005 -17.41,17.500005 z"
     id="path364"
     style="fill:#576069;fill-opacity:1" /><path
     class="st7"
     d="m 533.99885,139.19198 c 0.1,-1.96001 1.77,-3.47 3.74,-3.37001 0.06,0 0.12,0.01 0.18,0.01 2.45,0.28 5.15,1.75 4.87,6.79 -0.47,8.98 -9.38,6.65 -9.38,6.39 0,-0.25 0.36,-6.06 0.59,-9.81999 z"
     id="path366"
     style="fill:#ffbe9d" /><path
     class="st11"
     d="m 535.53885,145.74197 c 0,0 0.15,0.11 0.4,0.25 0.36,0.17 0.78,0.2 1.17,0.08 0.97,-0.3 1.85,-1.75 1.97,-3.37999 0.07,-0.77001 -0.04,-1.54 -0.32,-2.26 -0.13,-0.58001 -0.55,-1.05001 -1.11,-1.25 -0.37,-0.12 -0.76,0.04 -0.95,0.38 -0.13,0.25 -0.09,0.43 -0.13,0.44 -0.04,0.01 -0.18,-0.16 -0.1,-0.53 0.07,-0.22 0.2,-0.41 0.39,-0.54 0.26,-0.17 0.57,-0.24 0.88,-0.18 0.74,0.19 1.33,0.74 1.56,1.47 0.34,0.8 0.48,1.66999 0.41,2.53 -0.16,1.81 -1.17,3.44999 -2.49,3.75 -0.49,0.12 -1.01,0 -1.41,-0.31 -0.27,-0.2 -0.31,-0.44 -0.27,-0.45001 z"
     id="path368"
     style="fill:#ff9a6c" /><path
     class="st4"
     d="m 534.14885,121.79197 c -1.12,0.87 -2.44,1.45 -3.84,1.68001 -1.4,0.11 -3,-0.74 -3.21,-2.13 -0.09,-0.62 0.08,-1.35 -0.32,-1.84 -0.4,-0.49 -1.39,-0.42 -2.14,-0.36 -2.71,0.16 -5.16,-1.61 -5.86,-4.23001 -0.68,0.98001 -2.24,0.88 -3.23,0.24 -0.91,-0.77 -1.71,-1.65 -2.38,-2.63 -0.69,-1 -1.82,-1.59 -3.02,-1.59999 -0.64,0.20999 -1.3,0.34 -1.96,0.39 -1.17,-0.13 -1.75,-1.53 -1.88,-2.69 -0.12,-1.17 -0.26,-2.54 -1.25,-3.2 -0.99,-0.66 -2.11,-0.3 -3.21,-0.16 -1.1,0.14 -2.48,-0.15 -2.74,-1.21 -0.09,-0.58 0.07,-1.16 0.43,-1.62 1.55,-2.2 4.41,-3.050005 6.91,-2.06 1.33,-4.150003 5.77,-6.440003 9.92,-5.110003 1.98,0.64 3.64,2.03 4.6,3.879998 3.33,-2.899998 8.38,-2.549998 11.28,0.78 0.62,0.709995 1.1,1.520005 1.44,2.400005 3.12,-0.75 6.25,1.17 7,4.29 0.35,1.46 0.12,2.99 -0.63,4.29 1.6,0.96 2.95,2.63 2.94,4.44 -0.01,1.81 -1.85,3.67 -3.64,3.15 0.78,1.59 0.13,3.51 -1.46,4.3 -1.49,0.74 -3.3,0.21 -4.16,-1.21"
     id="path370"
     style="fill:#576069;fill-opacity:1" /><path
     class="st9"
     d="m 539.98885,118.44198 c 0.08,0.64 -0.13,1.29 -0.59,1.75 -0.46,0.56 -1.11,0.93 -1.82,1.03 -0.92,0.12 -1.86,-0.17 -2.54,-0.8 l 0.38,-0.05 c -0.49,0.83 -1.11,1.57 -1.84,2.2 -0.49,0.43 -1.05,0.77 -1.66,0.99 -1.61,0.51 -3.37,-0.06 -4.38,-1.41 -0.35,-0.58 -0.58,-1.22 -0.69,-1.88 -0.06,-0.24 -0.08,-0.48 -0.05,-0.73 0,0 0.11,0.25 0.25,0.68 0.17,0.62 0.43,1.22 0.79,1.75 1.3,1.55 3.6,1.75 5.15,0.46 0.08,-0.07 0.16,-0.14 0.24,-0.22 0.69,-0.59 1.28,-1.29 1.75,-2.06 l 0.17,-0.26 0.22,0.22 c 0.58,0.54 1.36,0.81 2.15,0.73 0.63,-0.07 1.21,-0.36 1.64,-0.82 0.38,-0.47 0.67,-1 0.83,-1.58 z"
     id="path372"
     style="fill:#2a2e33;fill-opacity:1" /><path
     class="st9"
     d="m 523.45885,97.581975 c 0,0 -0.24,0.06 -0.64,0.22 -0.58,0.23 -1.07,0.64 -1.42,1.16 l -0.11,0.18 -0.12,-0.18 c -1.1,-1.54 -2.56,-2.779998 -4.26,-3.599998 -1.1,-0.53 -2.29,-0.83 -3.51,-0.88 -1.34,-0.02 -2.66,0.33 -3.82,1.01 -0.91,0.53 -1.69,1.25 -2.31,2.099998 -0.56,0.79 -0.92,1.72 -1.04,2.680005 v 0.29 l -0.27,-0.09 c -1.25,-0.36 -2.59,-0.22 -3.74,0.38 -0.9,0.48 -1.63,1.23 -2.09,2.15 -0.38,0.83 -0.58,1.72 -0.61,2.63 -0.08,-0.24 -0.11,-0.49 -0.09,-0.74 0,-0.7 0.15,-1.4 0.45,-2.03 0.44,-1 1.2,-1.84 2.16,-2.38 1.24,-0.690005 2.7,-0.860005 4.06,-0.48 l -0.3,0.2 c 0.12,-1.050005 0.5,-2.050005 1.1,-2.920003 0.65,-0.92 1.49,-1.69 2.46,-2.26 1.24,-0.73 2.66,-1.09 4.1,-1.06 1.29,0.05 2.55,0.37 3.7,0.95 1.75,0.88 3.24,2.2 4.3,3.849998 h -0.24 c 0.4,-0.54 0.96,-0.94 1.6,-1.14 0.21,-0.07 0.42,-0.08 0.64,-0.04 z"
     id="path374"
     style="fill:#2a2e33;fill-opacity:1" /><polygon
     class="st8"
     points="263.16,375.13 219.88,375.13 220.2,327.93 226.84,310.71 226.85,306.06 301.88,304.81 301.88,310.22 310.49,331.62 310.94,375.13 267.61,375.13 263.99,355.49 "
     id="polygon376"
     style="fill:#7994b3;fill-opacity:1"
     transform="matrix(-1,0,0,1,772.27885,-3.3680226)" /><path
     class="st14"
     d="m 533.63885,168.25198 -15.66,12.27 -9.91,12.59 -3.63,-13.05 -2.63,-10.24001 -4.27,4.23 -10.81,23.01 -12.16,111.26 c 0,0 21.21,6.22001 32.19,6.96 10.98,0.75 28.49,-2.25 28.49,-2.25 v -58.54 l 6.23,-57.97 -7.52,-22.21 z"
     id="path378"
     style="fill:#cbd6e2" /><path
     class="st8"
     d="m 502.00885,314.54198 c 0.01,-0.11 0.01,-0.21 0,-0.32 0,-0.23 0,-0.53 0,-0.88 0,-0.88 0.08,-2.02 0.13,-3.51 0.11,-3.09 0.25,-7.5 0.44,-12.96 0.38,-10.95 0.98,-26.07 1.84,-42.75 0.86,-16.68 1.83,-31.8 2.58,-42.73 0.39,-5.44 0.69,-9.85 0.88,-12.94 0.11,-1.51 0.18,-2.68 0.24,-3.51 0,-0.39 0,-0.68 0.05,-0.92 0.01,-0.1 0.01,-0.2 0,-0.31 -0.03,0.1 -0.04,0.2 -0.04,0.31 l -0.1,0.88 c -0.08,0.88 -0.18,2.01 -0.32,3.51 -0.27,3.05 -0.63,7.47 -1.04,12.93 -0.88,10.92 -1.85,26.02 -2.72,42.72 -0.87,16.7 -1.34,31.79 -1.61,42.71 -0.15,5.48 -0.25,9.92 -0.29,12.97 0,1.51 0,2.69 -0.04,3.51 v 0.88 c -0.04,0.14 -0.03,0.27 0,0.41 z"
     id="path380"
     style="fill:#263238" /><path
     class="st3"
     d="m 536.07885,174.04197 3.62,4.99001 29.66,15.59999 -16.51,50.33 -4.44,28.23001 16.66,67.06 c 0,0 -20.22,6.95999 -22,4.73 -0.75,-0.93 -2.88,-5.76 -5.08,-11.04 -4.4,-10.51 -7.26,-21.61001 -8.49,-32.94 -1.24,-11.4 -2.38,-25.97 -1.54,-35.82 1.55,-18.45 4,-48.9 4.22,-56.9 0.22,-8 1.64,-38.21001 1.64,-38.21001 z"
     id="path382"
     style="fill:#d16a6a;fill-opacity:1" /><path
     class="st3"
     d="m 499.74885,171.06198 -9.82,5.72999 -31.77,10.44 2.54,22.47 1.46,58.14 -10,69.79 c 0,0 10.67,3.78 14.9,2.23001 4.23,-1.55 10,-11.12 10.23,-16.89 0.23,-5.78 8.44,-61.8 8.44,-61.8 l 8,-75.35 z"
     id="path384"
     style="fill:#d16a6a;fill-opacity:1" /><path
     class="st8"
     d="m 489.32885,176.76197 c -0.14,0.14 -0.27,0.29 -0.39,0.45 l -1.1,1.35 c -0.96,1.22 -2.34,2.94 -4.08,5.11 l -0.09,0.11001 0.11,0.09 3.45,2.63 0.05,-0.29 -4.06,1.29 h -0.12 v 0.12999 c 0.08,7.22 0.18,16.33 0.28,26.19 0.18,12.05001 0.33,22.94 0.45,30.88 0.08,3.92 0.14,7.11001 0.19,9.35001 0,1.07999 0.05,1.93 0.07,2.54 0,0.27 0,0.48 0,0.66 -0.01,0.08 -0.01,0.15 0,0.23 0.01,-0.08 0.01,-0.15 0,-0.23 0,-0.18 0,-0.39 0,-0.66 0,-0.62 0,-1.47 0,-2.54 0,-2.25 0,-5.44 0,-9.36 -0.08,-7.93001 -0.19,-18.83 -0.32,-30.88 -0.14,-9.86001 -0.27,-18.96001 -0.38,-26.19 l -0.12,0.18 4.04,-1.31 0.31,-0.1 -0.25,-0.19 -3.51,-2.58 v 0.19 l 3.98,-5.19 1.04,-1.39 c 0.17,-0.14 0.32,-0.3 0.45,-0.47001 z"
     id="path386"
     style="fill:#263238" /><path
     class="st8"
     d="m 528.88885,255.62198 c 0.03,-0.07 0.06,-0.14 0.08,-0.22001 l 0.21,-0.64999 c 0.2,-0.60001 0.47,-1.43001 0.82,-2.49001 0.71,-2.16 1.75,-5.25999 3.11,-9.11 0.68,-1.92 1.44,-4.02 2.24,-6.27 0.89,-2.39 1.65,-4.83 2.28,-7.3 1.37,-5.68 2.44,-11.43 3.19,-17.23 1.1,-8.01 1.81,-15.57 2.24,-22.07 v -0.09 l -0.06,-0.07 -3.51,-3.37 v 0.27 l 3.28,-2.48 0.13,-0.1 -0.1,-0.13 -5.98,-8.11001 -1.65,-2.19 c -0.18,-0.24 -0.32,-0.41999 -0.44,-0.56999 -0.04,-0.07 -0.1,-0.12001 -0.16,-0.18001 0.03,0.07 0.07,0.14 0.12,0.21001 0.11,0.15 0.24,0.34 0.39,0.59 l 1.58,2.24 5.86,8.2 v -0.23 l -3.34,2.49 -0.17,0.13 0.15,0.15 c 1.1,1.07 2.25,2.2 3.51,3.39 l -0.05,-0.16 c -0.47,6.49 -1.21,14.03 -2.31,22.03 -0.76,5.78 -1.8,11.51 -3.14,17.18 -0.67,2.6 -1.41,5.03 -2.23,7.29 -0.79,2.25 -1.52,4.38 -2.19,6.28 -1.31,3.86 -2.32,7.01 -2.98,9.17 -0.32,1.09 -0.57,1.94 -0.73,2.52 l -0.17,0.67 c 0.02,0.08 0.02,0.15 0.02,0.21 z"
     id="path388"
     style="fill:#263238" /><polygon
     class="st17"
     points="236.36,303.44 242.21,308.8 243.26,299.48 237.85,289.4 219.22,295.44 217.95,300.51 235.2,307.28 "
     id="polygon390"
     style="opacity:0.3;enable-background:new"
     transform="matrix(-1,0,0,1,772.27885,-3.3680226)" /><path
     class="st7"
     d="m 495.71885,297.01197 7.01,-4.25 6.14,-5.56999 c -1.42,1.14999 -3.04,2.04 -4.78,2.62999 -1.71,0.52 -3.56,-0.17 -4.51,-1.68 0,0 2.52,-1.58999 3.39,-2.07 0.87,-0.48 9.59,-7.00999 11.8,-7.48 2.21,-0.46 16.81,-3.45 16.81,-3.45 l 0.24,0.75 7.21,15.38 -6.41,1.75 c -1.22,1.71 -2.31,3.51 -3.27,5.38 -1.44,2.88 -8.43,5.72001 -11.12,7.14 -2.69,1.42 -5.74,-1.06 -5.74,-1.06 -3.09,0.7 -3.86,-2.63 -3.86,-2.63 -3.56,-0.48 -3.86,-4.38 -3.86,-4.38 0,0 -6.46,2.5 -8.44,2.85 -0.62,0.17001 -1.26,-0.17 -1.47,-0.76999 -0.4,-0.94 -0.03,-2.03 0.86,-2.54001 z"
     id="path392"
     style="fill:#ffbe9d" /><path
     class="st11"
     d="m 504.75885,297.45197 c 1.43,-0.44 2.8,-1.06 4.08,-1.83999 1.36,-0.65 2.59,-1.54001 3.64,-2.63 -0.08,-0.11 -1.7,1.02999 -3.86,2.21 -1.35,0.64999 -2.64,1.41 -3.86,2.25999 z"
     id="path394"
     style="fill:#ff9a6c" /><path
     class="st11"
     d="m 516.09885,296.88197 c -1.44,0.62001 -2.79,1.42001 -4.02,2.38 -1.32,0.85001 -2.58,1.77 -3.79,2.77 1.45,-0.6 2.81,-1.39 4.05,-2.35 1.32,-0.85 2.57,-1.78 3.76,-2.8 z"
     id="path396"
     style="fill:#ff9a6c" /><path
     class="st11"
     d="m 518.87885,299.84197 c -0.08,-0.08 -1.43,1.04 -3.24,2.26 -1.14,0.68 -2.2,1.48 -3.16,2.39 1.22,-0.53 2.37,-1.21 3.43,-2.02 1.82,-1.22 3.08,-2.52999 2.97,-2.63 z"
     id="path398"
     style="fill:#ff9a6c" /><path
     class="st11"
     d="m 517.08885,281.06198 c -0.54,0.01 -1.07,0.12 -1.56,0.32999 -1.22,0.44 -2.35,1.08 -3.37,1.88 -1.01,0.79001 -1.92,1.71 -2.7,2.74 -0.37,0.39 -0.66,0.85001 -0.88,1.34 0.12,0.1 1.53,-1.89 3.83,-3.72 1.45,-1.05 3.02,-1.91 4.68,-2.56999 z"
     id="path400"
     style="fill:#ff9a6c" /><path
     class="st3"
     d="m 584.62885,278.98198 c 1.85,-1.16001 3.01,-3.16001 3.09,-5.35001 0.06,-3.05 -0.12,-6.08999 -0.53,-9.11 -1.24,-10.26999 -18.04,-69.87 -18.04,-69.87 l -16.89,46.46 5.8,20.22 -29.57,14.16001 8.23,23.24 c 0,0.01 39.29,-14.39 47.91,-19.75 z"
     id="path402"
     style="fill:#d16a6a;fill-opacity:1" /><path
     class="st3"
     d="m 458.15885,187.24197 -27.13,51.59 -0.74,1.06 -29.6,-15.1 -9.74,19.72 39.82,24.22 c 4.54,2.7 10.4,1.39 13.34,-3 l 17.59,-26.3 4.73,-21.59 z"
     id="path404"
     style="fill:#d16a6a;fill-opacity:1" /><path
     class="st8"
     d="m 461.54885,201.95197 c -0.04,0.21 -0.06,0.43 -0.05,0.65 0,0.47 -0.04,1.09001 -0.07,1.87001 0,1.66999 -0.07,4 -0.12,6.86 -0.07,5.79 -0.11,13.8 0,22.64 0.11,8.84 0.27,16.85 0.46,22.64 0.11,2.86 0.19,5.18 0.25,6.86 0.04,0.77 0.08,1.39 0.1,1.86 0,0.22 0.03,0.43 0.07,0.65 0.02,-0.22001 0.02,-0.43 0,-0.65 0,-0.47 0,-1.1 0,-1.87 0,-1.67 -0.07,-4 -0.11,-6.86 -0.11,-5.79 -0.24,-13.8 -0.32,-22.64 -0.09,-8.84 -0.11,-16.84 -0.11,-22.64 0,-2.86 0,-5.19 0,-6.86 0,-0.78 0,-1.39 0,-1.87 -0.03,-0.2 -0.06,-0.42 -0.1,-0.64001 z"
     id="path406"
     style="fill:#263238" /><path
     class="st8"
     d="m 562.59885,207.56198 c -0.08,0.16 -0.14,0.34 -0.18,0.52 -0.12,0.39 -0.27,0.88 -0.46,1.52 -0.39,1.38 -0.93,3.28 -1.59,5.6 -1.31,4.73 -3.13,11.27 -4.97,18.55 -1.84,7.28 -3.29,13.91 -4.21,18.74 -0.46,2.41 -0.81,4.38 -1.01,5.73 l -0.24,1.56 c -0.04,0.18 -0.06,0.37 -0.05,0.55 0.07,-0.17 0.11,-0.35 0.14,-0.53 0.09,-0.4 0.19,-0.92 0.32,-1.55 0.28,-1.4 0.68,-3.33 1.15,-5.7 1,-4.81 2.51,-11.4 4.34,-18.7 1.83,-7.3 3.59,-13.82 4.84,-18.58 0.6,-2.33 1.09,-4.24 1.45,-5.64 l 0.37,-1.53 c 0.06,-0.18 0.09,-0.36 0.1,-0.54 z"
     id="path408"
     style="fill:#263238" /><path
     class="st8"
     d="m 574.83885,283.75198 c 0,0 -0.07,0 -0.19,0.05 l -0.55,0.2 -2.13,0.8 -7.95,3.05 -27.37,10.68 0.28,0.13 -5.51,-15.59 c -0.93,-2.63 -1.83,-5.16 -2.72,-7.64 l -0.11,0.28 29.24,-14.13 v 0 c 3.93,-1.3 8.2,-1.12 12.01,0.51 1.03,0.45 2.02,0.97 2.96,1.56 l 0.73,0.48 c 0.08,0.06 0.17,0.11 0.26,0.15 l -0.24,-0.19 -0.7,-0.52 c -0.94,-0.63 -1.92,-1.18 -2.95,-1.65 -3.84,-1.72 -8.18,-1.95 -12.19,-0.65 v 0 l -29.28,14.03 -0.18,0.09 0.07,0.19 c 0.88,2.48 1.75,5.05 2.7,7.64 1.94,5.46 3.81,10.72 5.53,15.59 l 0.08,0.20999 0.21,-0.08 27.32,-10.82 7.89,-3.17001 2.1,-0.88 0.53,-0.24 z"
     id="path410"
     style="fill:#263238" /><path
     class="st8"
     d="m 430.08885,239.36197 c -0.12,0.67 -0.15,1.36001 -0.07,2.03 0.1,1.63 0.33,3.25 0.68,4.84 0.39,1.88 0.79,3.51 1.05,4.76 0.11,0.67 0.27,1.33 0.5,1.96 0.03,-0.68 -0.03,-1.36 -0.18,-2.03 -0.19,-1.24 -0.54,-2.93 -0.93,-4.79 -0.39,-1.86 -0.68,-3.55 -0.82,-4.78999 -0.01,-0.65 -0.09,-1.32 -0.23,-1.98001 z"
     id="path412"
     style="fill:#263238" /><path
     class="st8"
     d="m 430.08885,240.61197 c 0.29,1.61001 0.77,3.19 1.43,4.69 0.51,1.55 1.14,3.06 1.86,4.52 -0.29,-1.61 -0.77,-3.19 -1.43,-4.69 -0.51,-1.55 -1.14,-3.06 -1.86,-4.52 z"
     id="path414"
     style="fill:#263238" /><path
     class="st8"
     d="m 508.43885,192.64197 c 0.31,-0.23 0.6,-0.48 0.88,-0.75 0.56,-0.57 1.31,-1.3 2.2,-2.19 l 7.44,-7.61 h -0.32 c 1.47,1.83 2.22,4.13 2.1,6.47 v 0.52 l 0.39,-0.32 c 3.77,-3.05 6.82,-6.03999 9.1,-8.08 1.13,-1.03 2.05,-1.86 2.69,-2.41 0.34,-0.27 0.66,-0.56 0.96,-0.88 -0.38,0.22 -0.74,0.48 -1.07,0.76 -0.68,0.53 -1.62,1.31 -2.79,2.31 -2.33,1.98 -5.44,4.94 -9.18,7.96 l 0.37,0.19 c 0.05,-0.84 -0.01,-1.69 -0.18,-2.52 -0.31,-1.57 -1.01,-3.04 -2.03,-4.28 l -0.17,-0.18 -0.16,0.17 -7.34,7.72 -2.11,2.28 c -0.27,0.25 -0.54,0.53 -0.78,0.84 z"
     id="path416"
     style="fill:#263238" /><path
     class="st8"
     d="m 498.47885,176.00198 c -0.05,0.22999 -0.06,0.47 -0.04,0.69999 0,0.46 0,1.12 0.1,1.95 0.18,2.27 0.55,4.51 1.1,6.72 l 0.13,0.55 0.26,-0.51 c 0.76,-1.46 1.73,-2.8 2.88,-3.97999 0.33,-0.34 0.68,-0.66 1.01,-0.94 l -0.38,-0.12 c 0.68,3.03 1.58,6 2.7,8.88999 0.42,1.1 0.8,1.96001 1.07,2.55001 0.12,0.31 0.28,0.59999 0.47,0.88 -0.07,-0.33001 -0.18,-0.65001 -0.32,-0.96001 l -0.95,-2.63 c -1.02,-2.90999 -1.86,-5.87999 -2.53,-8.89 l -0.08,-0.37 -0.29,0.25 c -0.34,0.3 -0.69,0.62 -1.03,0.96 -1.19,1.21 -2.18,2.6 -2.94,4.11 l 0.39,0.04 c -0.56,-2.18 -0.98,-4.4 -1.25,-6.63999 -0.18,-1.58001 -0.25,-2.56 -0.3,-2.56 z"
     id="path418"
     style="fill:#263238" /><polygon
     class="st3"
     points="303.45,304.57 318.45,303.19 313.77,295.31 300.8,296.34 "
     id="polygon420"
     style="fill:#d16a6a;fill-opacity:1"
     transform="matrix(-1,0,0,1,772.27885,-3.3680226)" /><path
     class="st8"
     d="m 471.47885,292.97197 c -0.29,-0.06 -0.58,-0.1 -0.88,-0.11 l -2.63,-0.26 c -2.27,-0.22 -5.54,-0.53 -9.43,-0.88 h -0.13 l -0.06,0.11 -4.7,7.89 -0.18,0.31 h 0.36 l 0.77,0.07 14.24,1.26 h 0.14 l 0.04,-0.14 c 0.81,-2.57 1.43,-4.66 1.86,-6.14 0.19,-0.67 0.35,-1.20999 0.48,-1.63999 0.06,-0.18001 0.1,-0.36001 0.14,-0.54001 -0.09,0.2 -0.17,0.4 -0.24,0.60001 l -0.58,1.66 c -0.5,1.46 -1.17,3.51 -2.01,5.92 l 0.18,-0.12 -14.22,-1.37 -0.77,-0.07 0.18,0.34 4.66,-7.89 -0.19,0.11 c 3.8,0.28 7.01,0.48 9.3,0.62 l 2.69,0.16 c 0.61,0.11 0.96,0.12 0.98,0.10999 z"
     id="path422"
     style="fill:#263238" /><rect
     x="-480.80884"
     y="227.67197"
     class="st3"
     width="16.110001"
     height="5.1999998"
     id="rect424"
     style="fill:#d16a6a;fill-opacity:1"
     transform="scale(-1,1)" /><path
     class="st8"
     d="m 464.69885,232.87198 c 0.01,-0.13 0.01,-0.26 0,-0.39 0,-0.28 0,-0.62 0.04,-1.03 0,-0.95 0,-2.22 0.08,-3.78 l -0.15,0.15 c 3.84,0.04 9.64,0.08 16.11,0.08 -0.1,-0.11 0.23,0.23 -0.23,-0.23 v 0 2.63 c 0,0.88 0,1.75 0,2.54 l 0.22,-0.22 c -4.58,0 -8.58,0.05 -11.46,0.1 l -3.39,0.06 c -0.8,0 -1.24,0.04 -1.26,0.06 0.39,0.04 0.78,0.06 1.17,0.05 l 3.34,0.07 c 2.86,0 6.93,0.09 11.61,0.1 h 0.22 v -5.4 0 c -0.46,-0.46 -0.12,-0.13 -0.23,-0.23 -6.47,0 -12.27,0 -16.11,0.08 h -0.15 v 0.15 c 0,1.6 0.06,2.89 0.08,3.87 0,0.44 0.04,0.89 0.11,1.34 z"
     id="path426"
     style="fill:#263238" /><path
     class="st17"
     d="m 483.30885,187.66197 -2.48,3.41 c 0,0 0.69,51.72 3.32,64.59001 z"
     id="path428"
     style="opacity:0.3;enable-background:new" /></g><g
   id="why-table"><path
     class="st7"
     d="m 590.11995,218.27689 c -0.1,-12.55001 9.46,-23.08001 21.97,-24.18 l 1.24,-0.11001 c 13.47,-0.38999 21.33,10.82 21.36,24.29 l 2.97,47.34 1.34,9.64 -30.99,7.99 -2.63,-20.45 c 0,0 -13.06,-0.88 -14.36,-13.73 -0.54,-6.22 -0.82,-19.12 -0.9,-30.78999 z"
     id="path431"
     style="fill:#ffbe9d" /><path
     class="st11"
     d="m 605.31995,262.78688 c 5.98,-0.52 11.69,-2.75 16.45,-6.43 0,0 -2.94,9.91 -15.89,9.88 z"
     id="path433"
     style="fill:#ff9a6c" /><path
     class="st8"
     d="m 595.13995,230.21689 c 0.07,1 0.94,1.75999 1.94,1.69999 0.97,0 1.75,-0.78 1.75,-1.75 0,-0.02 0,-0.05 0,-0.07 -0.08,-1 -0.94,-1.75 -1.94,-1.7 -0.97,0 -1.75,0.78 -1.75,1.75 0,0.02 0,0.04 0,0.07 z"
     id="path435"
     style="fill:#263238" /><path
     class="st8"
     d="m 593.43995,224.33688 c 0.25,0.22 1.55,-0.94 3.51,-1.1 1.95,-0.16999 3.51,0.69 3.71,0.43 0.1,-0.11 -0.18,-0.53 -0.88,-0.94 -0.91,-0.52 -1.96,-0.74 -3,-0.63999 -1.03,0.09 -2,0.5 -2.78,1.18 -0.52,0.51 -0.68,0.95 -0.56,1.06999 z"
     id="path437"
     style="fill:#263238" /><path
     class="st8"
     d="m 613.41995,229.31689 c 0.07,1 0.93,1.75999 1.94,1.69999 0.97,0 1.75,-0.78 1.75,-1.75 0,-0.02 0,-0.05 0,-0.07 -0.08,-1 -0.94,-1.75 -1.94,-1.69999 -0.97,0 -1.75,0.78 -1.75,1.75 0,0.03 0,0.05 0,0.07 z"
     id="path439"
     style="fill:#263238" /><path
     class="st8"
     d="m 612.92995,222.98688 c 0.25,0.22 1.55,-0.94 3.51,-1.1 1.95,-0.16999 3.51,0.69 3.72,0.43001 0.1,-0.11001 -0.18,-0.53001 -0.88,-0.93001 -0.91,-0.52 -1.96,-0.75 -3,-0.65 -1.03,0.09 -2,0.51 -2.78,1.18 -0.53,0.55001 -0.7,0.97 -0.57,1.07 z"
     id="path441"
     style="fill:#263238" /><path
     class="st8"
     d="m 607.03995,238.28688 c -1.07,-0.22999 -2.17,-0.31999 -3.26,-0.28999 -0.51,0 -1,-0.07 -1.11,-0.4 -0.09,-0.52001 -0.02,-1.06001 0.2,-1.53 l 1.16,-3.95 c 1.59,-5.66 2.69,-10.29 2.46,-10.36001 -0.23,-0.07 -1.7,4.48 -3.3,10.14 -0.38,1.39 -0.75,2.73 -1.09,4 -0.26,0.64 -0.29,1.35 -0.09,2.01 0.18,0.34 0.5,0.59 0.88,0.67 0.29,0.05 0.58,0.07 0.88,0.04 1.1,0.02 2.19,-0.08 3.27,-0.33 z"
     id="path443"
     style="fill:#263238" /><path
     class="st8"
     d="m 612.97995,239.11688 c -0.32,0 -0.13,2.16 -1.84,3.85 -1.71,1.69 -4.01,1.67 -4.01,1.98 0,0.13 0.54,0.37 1.52,0.31 1.26,-0.09 2.44,-0.63 3.35,-1.51 0.87,-0.85 1.37,-2 1.4,-3.21 0.02,-0.91 -0.27,-1.42 -0.42,-1.42 z"
     id="path445"
     style="fill:#263238" /><path
     class="st8"
     d="m 611.72995,215.26688 c 0.25,0.53 2.2,0.1 4.54,0.17 2.34,0.07 4.29,0.54 4.55,0 0.11,-0.25 -0.25,-0.72 -1.06,-1.17 -2.16,-1.11 -4.71,-1.16999 -6.92,-0.15 -0.82,0.46 -1.22,0.91 -1.11,1.15 z"
     id="path447"
     style="fill:#263238" /><path
     class="st8"
     d="m 593.65995,218.53688 c 0.39,0.42 1.75,-0.16999 3.35,-0.33 1.6,-0.16 3.05,0 3.33,-0.46 0.12,-0.24 -0.14,-0.68 -0.78,-1.04 -1.76,-0.9 -3.88,-0.65 -5.38,0.64 -0.54,0.51 -0.7,0.99 -0.52,1.19 z"
     id="path449"
     style="fill:#263238" /><path
     class="st7"
     d="m 633.71995,230.98688 c -0.11,-1.93 1.37,-3.59 3.31,-3.69 0.07,0 0.13,-0.01 0.2,-0.01 2.42,0 5.26,1.15001 5.5,6.14 0.49,8.84 -8.47,7.51 -8.5,7.26 -0.04,-0.26 -0.33,-6 -0.51,-9.7 z"
     id="path451"
     style="fill:#ffbe9d" /><path
     class="st11"
     d="m 635.92995,237.23688 c 0,0 0.16,0.1 0.43,0.2 0.37,0.13 0.79,0.12 1.15,-0.04 0.88,-0.39 1.61,-1.92 1.57,-3.51 -0.02,-0.75999 -0.21,-1.5 -0.55,-2.16999 -0.2,-0.55001 -0.66,-0.97 -1.23,-1.11001 -0.37,-0.07 -0.74,0.13 -0.88,0.47 -0.11,0.25 0,0.42 -0.08,0.44 -0.08,0.02 -0.2,-0.13 -0.15,-0.5 0.03,-0.22 0.15,-0.43 0.32,-0.58 0.24,-0.21 0.56,-0.3 0.88,-0.27 0.74,0.11 1.38,0.59 1.68,1.28 0.42,0.74 0.64,1.58 0.67,2.43 0,1.75 -0.77,3.51 -2.03,3.94 -0.47,0.16 -0.99,0.11 -1.42,-0.16 -0.33,-0.21 -0.39,-0.4 -0.36,-0.42 z"
     id="path453"
     style="fill:#ff9a6c" /><path
     class="st4"
     d="m 639.23995,221.00688 c -0.32,2.63 0.62,6.7 -1.7,6.5 -4.59,-0.38999 -2.07,8.49001 -4.33,7.94 -2.26,-0.55 -4.5,-2.81 -5.53,-8.36 -1.31,-7.01 0.7,-12.61 -3.39,-20.25 -2.34,-2.99 -6.07,-4.55 -9.84,-4.09 -3.79,0.53 -7.04,2.98 -8.57,6.49 -0.8,-2.4 -2.63,-5.93 -4.99,-6.76 -2.45,-0.86 -5.19,-0.16999 -6.93,1.75 -1.67,2.02001 -1.59,4.96001 0.18,6.90001 -0.99,0.47999 -2.18,0.25999 -2.94,-0.54 0.1,1.18 0.69,2.27 1.62,3 -0.95,-0.08 -1.84,-0.51 -2.5,-1.2 l 1.16,2.95 c -3.71,0.71 -7.89,-2.31 -9.49,-5.35 -2.36,-4.61 -1.95,-9.7 0.07,-14.47 2.02,-4.77 6.38,-8.6 11.5,-9.39 5.12,-0.79 9.78,0.94999 12.52,5.34 2.94,-2.88 9.52,-4.79 13.49,-3.7 4.04,1.14 7.19,4.3 8.32,8.35 2.16,-1.35 5.06,-1.04 7.26,0.23 l 0.54,0.33 c 3.05,2.09 4.81,5.6 4.67,9.29 0,1.46 -0.3,3.00999 -0.39,4.19 -0.31,3.47 -0.73,10.84999 -0.73,10.84999 z"
     id="path455"
     style="fill:#576069;fill-opacity:1" /><path
     class="st9"
     d="m 590.57995,210.40689 c -0.12,-0.05 -0.24,-0.11001 -0.34,-0.19 -0.31,-0.2 -0.61,-0.43001 -0.88,-0.68001 -0.99,-0.94999 -1.7,-2.13999 -2.06,-3.46 -0.58,-1.97999 -0.27,-4.11 0.83,-5.85 1.36,-2.15 3.69,-3.49 6.23,-3.59 1.29,-0.01 2.58,0.27001 3.75,0.81 1.08,0.5 2.08,1.16 2.97,1.95 1.51,1.34 2.7,2.99 3.51,4.84 0.55,1.23 0.91,2.54 1.07,3.88 0.05,0.36 0.07,0.73 0.07,1.1 0.02,0.13 0.02,0.26 0,0.39 -0.16,-1.82 -0.63,-3.6 -1.38,-5.26 -0.82,-1.79 -2.02,-3.39 -3.51,-4.68 -1.77,-1.64 -4.07,-2.57 -6.48,-2.63 -2.41,0.09 -4.63,1.36 -5.93,3.39 -1.08,1.65 -1.4,3.68 -0.88,5.58 0.33,1.29 0.98,2.47 1.89,3.43 0.7,0.67 1.16,0.94 1.14,0.97001 z"
     id="path457"
     style="fill:#2a2e33;fill-opacity:1" /><path
     class="st9"
     d="m 589.49995,214.57688 c -0.12,-0.12 -0.23,-0.25 -0.33,-0.38999 -0.2,-0.25 -0.51,-0.64 -0.88,-1.14 -1.08,-1.41 -2.03,-2.93 -2.83,-4.51 -0.53,-1.11 -0.92,-2.29 -1.16,-3.51 -0.27,-1.41 -0.24,-2.86 0.09,-4.26 0.39,-1.55 1.23,-2.95 2.41,-4.03 1.26,-1.15 2.8,-1.96 4.47,-2.33 1.66,-0.35 3.38,-0.35 5.04,0 1.53,0.33 3.01,0.88 4.38,1.64 2.39,1.24 4.3,3.23 5.44,5.66 0.73,1.65 0.94,3.49 0.59,5.26 -0.1,0.47999 -0.25,0.94 -0.44,1.38999 -0.06,0.16 -0.15,0.31 -0.25,0.45 0.23,-0.6 0.41,-1.23 0.53,-1.86 0.28,-1.74 0.04,-3.52 -0.69,-5.13 -1.14,-2.36 -3.02,-4.27 -5.36,-5.46 -2.77,-1.6 -6.02,-2.16 -9.17,-1.57 -1.6,0.36 -3.08,1.13 -4.3,2.23 -1.13,1.03 -1.93,2.36 -2.31,3.84 -0.32,1.35 -0.36,2.75 -0.11,4.11 0.21,1.19 0.58,2.35 1.09,3.45 0.77,1.59 1.67,3.11 2.7,4.55 0.34,0.48 0.61,0.88 0.82,1.18 0.11,0.13 0.2,0.28 0.27,0.43 z"
     id="path459"
     style="fill:#2a2e33;fill-opacity:1" /><path
     class="st9"
     d="m 635.25995,215.87689 c -0.05,-0.04 0.69,-0.78 1.55,-2.21001 2.27,-3.77 2.48,-8.43 0.54,-12.39 -0.73,-1.5 -1.41,-2.29 -1.35,-2.33 0.06,-0.04 0.2,0.17 0.5,0.53 0.42,0.52 0.78,1.08 1.1,1.67 2.14,4 1.93,8.86 -0.56,12.66 -0.36,0.56 -0.77,1.09 -1.23,1.58 -0.15,0.2 -0.34,0.36 -0.55,0.49001 z"
     id="path461"
     style="fill:#2a2e33;fill-opacity:1" /><path
     class="st9"
     d="m 627.29995,216.91688 c 0,0 0.4,-0.25999 1.02,-0.88 0.85,-0.81999 1.46,-1.86 1.75,-3 l 0.23,-0.87999 0.07,0.91999 c 0.09,1.24001 0.19,2.67 0.3,4.23 l -0.31,-0.12 c 0.98,-0.93 1.79,-2.03 2.38,-3.24 0.76,-1.52 1.18,-3.19 1.2,-4.89 0.02,-1.39 -0.21,-2.78 -0.68,-4.09 -0.46,-1.2 -1.07,-2.35 -1.81,-3.4 0,0 0.08,0.06 0.2,0.19 0.17,0.19 0.34,0.39 0.49,0.6 0.58,0.79 1.05,1.66 1.39,2.58 1.18,3 1.03,6.37 -0.42,9.25 -0.62,1.25 -1.46,2.38 -2.48,3.34 l -0.29,0.26 v -0.39 c -0.09,-1.55 -0.17,-2.99 -0.23,-4.23 h 0.29 c -0.33,1.18001 -1,2.24001 -1.94,3.04 -0.25,0.22 -0.53,0.41 -0.82,0.58 -0.22,0.09 -0.34,0.15001 -0.34,0.13 z"
     id="path463"
     style="fill:#2a2e33;fill-opacity:1" /><path
     class="st9"
     d="m 621.91995,198.99689 c -0.66,-0.88 -1.48,-1.62 -2.42,-2.18 -1.03,-0.58001 -2.19,-0.90001 -3.37,-0.95 -1.44,-0.03 -2.87,0.34 -4.12,1.06 -1.26,0.71 -2.34,1.72 -3.13,2.94 -0.64,1 -1.12,2.09 -1.41,3.24 -0.23,1.07 -0.38,2.16 -0.44,3.26 -0.07,-0.29 -0.1,-0.58001 -0.08,-0.88 -0.01,-0.82 0.08,-1.64 0.25,-2.44 0.26,-1.2 0.73,-2.34 1.38,-3.38 0.81,-1.27 1.92,-2.33 3.23,-3.08 1.31,-0.76 2.81,-1.14 4.33,-1.08001 1.24,0.06 2.44,0.43001 3.51,1.07 0.71,0.43 1.32,0.98 1.82,1.64 0.14,0.18 0.26,0.37 0.36,0.57 0.07,0.13 0.1,0.2 0.09,0.21001 z"
     id="path465"
     style="fill:#2a2e33;fill-opacity:1" /><path
     class="st9"
     d="m 618.80995,192.65689 c -0.83,-0.27001 -1.68,-0.46001 -2.55,-0.54 -2.1,-0.11001 -4.16,0.54 -5.83,1.81 -1.63,1.32 -2.85,3.09 -3.51,5.08 -0.53,1.53 -0.61,2.54 -0.68,2.53 -0.04,-0.24 -0.04,-0.48 0,-0.72 0.07,-0.65 0.2,-1.28 0.39,-1.9 0.6,-2.09 1.82,-3.94 3.51,-5.3 1.75,-1.33001 3.94,-1.96 6.14,-1.75 0.65,0.06 1.29,0.22 1.89,0.47 0.23,0.07 0.45,0.16999 0.64,0.32 z"
     id="path467"
     style="fill:#2a2e33;fill-opacity:1" /><path
     class="st13"
     d="m 640.34995,265.90688 c 0,0 8.57,7.89 11.48,19.57 3.71,14.86 -9.88,86.61 -9.88,86.61 l -71.7,-0.11 15.38,-56.76 c 0,0 17.79,-34.7 18.01,-35.47 0.22,-0.77 0.88,-8.19 0.88,-8.19 l 32.81,-13.5 z"
     id="path469"
     style="fill:#33475b" /><path
     class="st7"
     d="m 485.85995,342.56689 c 0.68,-1.51 5.61,-4.38 5.61,-4.38 0.41,-1.51 2.88,-2.94 2.88,-2.94 0.91,-0.85001 1.98,-1.5 3.15,-1.92001 1.93,-0.68 19.15,1.37 19.15,1.37 l 12.86,0.88 -0.73,16.94 c 0,0.41001 -12.07,-4.38 -12.07,-4.38 0,0 -5.08,1.23001 -9.6,2.05001 -4.52,0.81999 -13.27,-2.35001 -13.27,-2.35001 l -3.35,3.24 c -0.69,1.42001 -1.05,2.99001 -1.03,4.57 0,1.37 -1.75,2.63 -2.83,1.66001 -1.08,-0.97001 -0.32,-5.72001 -0.32,-5.72001 -0.63,0.25 -1.35,0.15 -1.89,-0.25 -0.9,-0.64999 0.76,-7.23 1.44,-8.76999 z"
     id="path471"
     style="fill:#ffbe9d" /><path
     class="st11"
     d="m 493.61995,343.17689 c -0.65,-0.17001 -1.33,-0.12 -1.95,0.13 -1.52,0.52999 -2.8,1.57 -3.65,2.94 -0.81,1.35 -1.37,2.83999 -1.67,4.38 -0.17,0.62999 -0.27,1.26999 -0.28,1.92 0.26,-0.59 0.46,-1.21 0.59,-1.84 0.38,-1.48 0.97,-2.9 1.75,-4.22 0.8,-1.29001 1.98,-2.3 3.38,-2.88 0.6,-0.2 1.21,-0.34 1.83,-0.43 z"
     id="path473"
     style="fill:#ff9a6c" /><path
     class="st17"
     d="m 638.99995,311.46688 c 0,0 -33.18,35.49 -45.94,42.38 -13.75,7.48 -19.79,7.25 -19.79,7.25 l 2.13,-9.76 z"
     id="path475"
     style="opacity:0.3;enable-background:new" /><path
     class="st13"
     d="m 515.37995,333.36689 55.23,-6.61001 c 0,0 33.49,-41.19999 42.08,-47.56999 8.59,-6.36001 22.97,-4.25 27.47,0 2.25,2.3 3.81,5.18 4.51,8.31999 1.42,5.61001 1.03,11.52 -1.12,16.89 l -1.8,4.62 c -0.98,0.74 -53.11,47.67001 -66.63,48.65 -13.52,0.98 -60.8,-2.83 -60.8,-2.83 z"
     id="path477"
     style="fill:#33475b" /><path
     class="st8"
     d="m 603.62995,279.73689 c 0.51,-0.09 1.01,-0.22001 1.5,-0.39 0.96,-0.27 2.32,-0.7 4.01,-1.28 3.37,-1.14 7.94,-2.9 12.97,-4.93 5.02,-2.03 9.58,-3.87 12.9,-5.15 l 3.92,-1.5 c 0.49,-0.16 0.97,-0.36 1.43,-0.59 -0.51,0.09 -1.01,0.23 -1.49,0.42 -0.95,0.3 -2.31,0.76 -3.97,1.37 -3.34,1.2 -7.89,3.01 -12.92,5.03 -5.03,2.03 -9.57,3.82 -12.9,5.04 -1.67,0.62 -3.02,1.1 -3.95,1.42 -0.53,0.15 -1.03,0.33 -1.5,0.56 z"
     id="path479"
     style="fill:#263238" /><path
     class="st8"
     d="m 618.19995,275.83688 c 0.57,-0.1 1.14,-0.23 1.7,-0.39 1.53,-0.37 3.1,-0.6 4.67,-0.68 2.33,-0.13999 4.68,0.07 6.95,0.61001 1.33,0.32999 2.63,0.79 3.88,1.37 1.33,0.63999 2.59,1.42 3.75,2.32999 2.3,1.71 4.11,3.99001 5.26,6.61001 0.91,2.14999 1.48,4.43 1.7,6.75999 0.16,1.57 0.24,3.15 0.23,4.73001 v 1.3 c -0.02,0.15 -0.02,0.3 0,0.46 0.04,-0.15 0.06,-0.30001 0.06,-0.46 0,-0.34 0.05,-0.77 0.1,-1.29 0.07,-1.59 0.04,-3.18001 -0.09,-4.77 -0.17,-2.37 -0.7,-4.7 -1.6,-6.9 -1.15,-2.7 -3,-5.05 -5.35,-6.8 -1.19,-0.93 -2.48,-1.73 -3.84,-2.38 -1.28,-0.59 -2.61,-1.05 -3.98,-1.37 -3.89,-0.89 -7.94,-0.79 -11.77,0.3 -0.54,0.14 -0.96,0.3 -1.24,0.39 -0.13,0.05 -0.28,0.11 -0.43,0.17999 z"
     id="path481"
     style="fill:#263238" /><path
     class="st8"
     d="m 612.72995,279.18689 c 0,0 -0.32,0.24 -0.88,0.72 -0.29,0.24 -0.67,0.53 -1.09,0.88 l -1.42,1.34 c -2.14,2.04 -5.15,5.17 -8.85,9.29 -7.43,8.22 -17.76,20.31 -29.96,35.19 l 0.12,-0.06 -55.29,6.86 h -0.18 v 0.18 c -0.33,6.8 -0.68,13.94 -1.04,21.21 v 0.23 h 0.22 l 1.7,0.13 c 9.79,0.75 19.37,1.4 28.61,1.93 4.63,0.25 9.17,0.49 13.62,0.65 4.45,0.16 8.81,0.3 13.08,0.23 1.06,0 2.12,-0.07 3.17,-0.11 0.26,0 0.53,0 0.79,-0.04 l 0.79,-0.13 c 0.52,-0.09 1.03,-0.22001 1.53,-0.39 1.95,-0.66001 3.83,-1.51 5.63,-2.52 3.42,-1.9 6.74,-3.98 9.95,-6.23 6.19,-4.22001 11.76,-8.60001 16.81,-12.56 10.06,-8.03 17.96,-14.82 23.4,-19.55 2.7,-2.37 4.79,-4.22001 6.22,-5.47001 0.69,-0.63 1.23,-1.1 1.6,-1.44 l 0.54,-0.5 c 0,0 -0.21,0.15 -0.58,0.46 l -1.63,1.4 -6.29,5.38 c -5.47,4.68 -13.39,11.44 -23.48,19.43 -5.05,3.98 -10.63,8.28 -16.86,12.57 -3.2,2.24 -6.51,4.31 -9.93,6.2 -1.77,0.99 -3.63,1.82 -5.55,2.47 -1.94,0.66 -4.07,0.57 -6.18,0.64 -4.25,0.06 -8.61,-0.08 -13.05,-0.24 -4.44,-0.16 -8.99,-0.41 -13.61,-0.67 -9.24,-0.53 -18.8,-1.18 -28.6,-1.94 l -1.7,-0.13 0.21,0.24 c 0.35,-7.27 0.7,-14.4 1.03,-21.21 l -0.2,0.21 55.28,-6.93 h 0.08 l 0.04,-0.06 c 12.16,-14.9 22.44,-27.03 29.81,-35.29 3.68,-4.14 6.66,-7.29 8.77,-9.35 l 1.39,-1.37 1.07,-0.92 z"
     id="path483"
     style="fill:#263238" /><path
     class="st8"
     d="m 573.27995,335.77688 c -0.01,-1.57 -0.27,-3.12 -0.79,-4.6 -0.38,-1.52 -1.02,-2.96 -1.88,-4.27 -0.12,0.06 0.72,1.96 1.45,4.38 0.73,2.42 1.08,4.5 1.22,4.49 z"
     id="path485"
     style="fill:#263238" /><path
     class="st4"
     d="m 658.52995,285.43689 v 0 c 3.35,0 6.07,2.72 6.07,6.06999 0,0 0,0.01 0,0.01 v 80.65001 h -12.13 v -80.65 c -0.01,-3.36 2.7,-6.08 6.06,-6.08 -0.01,0 0,0 0,0 z"
     id="path487"
     style="fill:#77899c;fill-opacity:1" /><path
     class="st14"
     d="m 443.73043,302.56288 0.42,-0.09 c 0.89,-0.19 1.76,0.37 1.95,1.25 l 11.49,52.28 h 57.05 c 0.91,0 1.65,0.74 1.65,1.65 v 0 0 c 0,0.91 -0.74,1.64999 -1.65,1.64999 0,0 0,0 0,0 h -59.83 l -12.37,-54.76 c -0.2,-0.88999 0.36,-1.76999 1.25,-1.97 0.02,-0.01 0.03,-0.01 0.04,-0.01 z"
     id="path490"
     style="fill:#cbd6e2" /><path
     class="st8"
     d="m 443.73043,302.56288 c -0.37,0.05 -0.7,0.24 -0.93,0.53 -0.3,0.34 -0.45,0.8 -0.41,1.25 0.09,0.53 0.24,1.1 0.38,1.75 0.6,2.71 1.47,6.65 2.58,11.65 2.24,10.05 5.45,24.38 9.31,41.57 v 0.15 h 0.16 59.94 c 1.03,-0.08 1.81,-0.98 1.73,-2.01 -0.05,-0.63 -0.4,-1.19 -0.95,-1.5 -0.35,-0.18 -0.75,-0.26 -1.14,-0.23 h -27.6 -29.22 l 0.18,0.16 c -3.68,-16.6 -6.74,-30.38 -8.88,-40.05 -1.09,-4.81 -1.94,-8.59 -2.52,-11.19 -0.07,-0.58 -0.26,-1.15 -0.54,-1.67 -0.26,-0.35 -0.65,-0.58 -1.09,-0.64 -0.26,-0.04 -0.52,-0.02 -0.77,0.06 l -0.25,0.07 0.26,-0.04 c 0.25,-0.04 0.5,-0.04 0.75,0 0.41,0.08 0.78,0.31 1.03,0.64 0.27,0.51 0.44,1.07 0.5,1.64 0.55,2.63 1.37,6.38 2.4,11.2 2.11,9.64 5.12,23.48 8.77,40.08 v 0.16 h 0.16 29.22 27.62 c 0.32,-0.03 0.64,0.03 0.92,0.18 0.67,0.4 0.89,1.28 0.49,1.95 -0.23,0.38 -0.63,0.64 -1.07,0.68 h -59.91 l 0.19,0.15 c -3.91,-17.18 -7.18,-31.5 -9.46,-41.54 -1.16,-5 -2.06,-8.92 -2.68,-11.62 -0.15,-0.67 -0.32,-1.26 -0.4,-1.75 -0.05,-0.43 0.08,-0.86 0.36,-1.2 0.23,-0.22 0.54,-0.37 0.87,-0.43 z"
     id="path492"
     style="fill:#263238" /><rect
     x="-564.33044"
     y="359.3829"
     class="st14"
     width="407.26001"
     height="12.33"
     id="rect494"
     style="fill:#cbd6e2"
     transform="scale(-1,1)" /><path
     class="st8"
     d="m 157.07043,371.69288 c 0,-0.36 0,-3.97 0.05,-12.32 l -0.05,0.05 407.24,0.18001 v 0 l -0.23,-0.23001 v 12.32 l 0.23,-0.23 -407.26,0.23 407.26,0.23 h 0.23 v -12.77999 h -0.25 l -407.24,0.18 h -0.08 v 0.06 c 0.08,8.33 0.1,11.95 0.1,12.30999 z"
     id="path496"
     style="fill:#263238" /><rect
     x="-287.85043"
     y="351.68289"
     class="st24"
     width="84.309998"
     height="7.5700002"
     id="rect498"
     style="fill:#fafafa"
     transform="scale(-1,1)" /><path
     class="st8"
     d="m 203.54043,359.24288 c 0,0 0,-0.18 0,-0.51 v -1.45999 c 0,-1.3 0,-3.17 0.05,-5.59 l -0.09,0.09 c 14.03,0.08 46.52,0.14 84.31,0.14 v 0 l -0.23,-0.23001 v 7.57 l 0.23,-0.23 -59.81,0.1 -17.93,0.07 h -4.87 -1.27 -0.44 0.41 1.24 4.81 l 17.88,0.07 59.97,0.1 h 0.23 v -7.8 l -0.23,-0.23 v 0 c -37.79,0 -70.26,0.05 -84.31,0.13 h -0.07 v 0.1 c 0,2.44 0,4.38 0.05,5.65 0,0.61 0,1.1 0,1.44 0,0.34 0.07,0.59 0.07,0.59 z"
     id="path500"
     style="fill:#263238" /><rect
     x="-295.59042"
     y="347.46286"
     class="st24"
     width="83.339996"
     height="4.2199998"
     id="rect502"
     style="fill:#fafafa"
     transform="scale(-1,1)" /><path
     class="st8"
     d="m 212.20043,351.68288 c 0.01,-0.09 0.01,-0.18 0,-0.26999 0,-0.18001 0,-0.44 0,-0.78 0,-0.71 0,-1.75 0,-3.16 l -0.07,0.06 c 10.58,0.1 43.92,0.17 83.34,0.17 v 0 l -0.23,-0.23 v 0 4.20999 l 0.23,-0.23 -59.01,0.09 -17.79,0.07 h -4.84 -1.26 c -0.29,0 -0.45,0 -0.45,0 h 0.41 1.24 4.79 l 17.73,0.07 59.17,0.1 h 0.23 v -4.44 0 l -0.23,-0.23 v 0 c -39.45,0 -72.76,0.07 -83.34,0.16 h 0.07 v 0.07 c 0,1.43 0,2.49 0,3.21 0,0.32 0,0.58 0,0.76 0,0.18 0.01,0.37 0.01,0.37 z"
     id="path504"
     style="fill:#263238" /><path
     class="st8"
     d="m 205.89043,356.47289 c 0,0.12 18.26,0.23 40.77,0.23 22.51,0 40.77,-0.11 40.77,-0.23 0,-0.12 -18.25,-0.23001 -40.77,-0.23001 -22.52,0 -40.77,0.08 -40.77,0.23001 z"
     id="path506"
     style="fill:#263238" /><path
     class="st8"
     d="m 203.88043,354.46289 c 0,0.12 18.26,0.23 40.77,0.23 22.51,0 40.77,-0.11 40.77,-0.23 0,-0.12 -18.25,-0.23001 -40.77,-0.23001 -22.51,0 -40.77,0.10001 -40.77,0.23001 z"
     id="path508"
     style="fill:#263238" /><rect
     x="-425.29514"
     y="279.16959"
     transform="matrix(-0.99741895,-0.07180136,-0.07180136,0.99741895,0,0)"
     class="st14"
     width="2.9599438"
     height="42.769188"
     id="rect510"
     style="fill:#cbd6e2;stroke-width:0.999981" /><path
     class="st9"
     d="m 402.58043,338.69288 -4.21,-0.31 -0.99,13.78 c -0.09,1.16 0.78,2.17 1.94,2.25 0,0 0,0 0,0 v 0 c 1.15,0.07 2.15,-0.8 2.24,-1.95 z"
     id="path512"
     style="fill:#455a64" /><rect
     x="-426.76947"
     y="302.48898"
     transform="matrix(-0.99740461,-0.07200033,-0.07200033,0.99740461,0,0)"
     class="st9"
     width="0.81999618"
     height="17.919918"
     id="rect514"
     style="fill:#455a64;stroke-width:0.999995" /><path
     class="st8"
     d="m 398.37043,338.38288 c 1.39,0.32 2.81,0.53 4.23,0.61 l -0.17,-0.20999 c -0.08,0.95999 -0.16,2 -0.25,3.1 -0.15,2.03 -0.25,3.87 -0.31,5.26 -0.07,0.72 -0.07,1.45 0,2.17 0.19,-0.7 0.3,-1.42 0.32,-2.14 0.13,-1.33 0.29,-3.17 0.44,-5.22 0.07,-1.1 0.14,-2.14 0.2,-3.1 v -0.2 h -0.2 c -1.4,-0.19 -2.83,-0.28 -4.26,-0.27001 z"
     id="path516"
     style="fill:#263238" /><rect
     x="-398.05042"
     y="309.99289"
     class="st14"
     width="2.96"
     height="33.389999"
     id="rect518"
     style="fill:#cbd6e2"
     transform="scale(-1,1)" /><path
     class="st13"
     d="m 394.55043,323.00288 h 4.22 v -13.79 c 0,-1.16 -0.94,-2.1 -2.1,-2.1 v 0 c -1.16,0 -2.11,0.94 -2.11,2.1 v 13.79 z"
     id="path520"
     style="fill:#33475b" /><rect
     x="-394.52042"
     y="311.48291"
     class="st13"
     width="0.81999999"
     height="17.92"
     id="rect522"
     style="fill:#33475b"
     transform="scale(-1,1)" /><path
     class="st8"
     d="m 398.74043,323.00288 c -1.41,-0.22 -2.84,-0.32 -4.27,-0.31 l 0.2,0.21 c 0,-0.96 0,-2.01 0,-3.11 0,-2.04 0,-3.89 -0.07,-5.26 0.02,-0.73 -0.03,-1.45 -0.16,-2.17 -0.13,0.71 -0.19,1.44 -0.17,2.17 0,1.33 -0.06,3.18 -0.06,5.26 0,1.1 0,2.15 0,3.11 v 0.2 h 0.2 c 1.45,0.08 2.89,0.05 4.33,-0.1 z"
     id="path524"
     style="fill:#263238" /><rect
     x="-392.09042"
     y="317.82291"
     class="st12"
     width="2.96"
     height="33.389999"
     id="rect526"
     style="fill:#e0e0e0"
     transform="scale(-1,1)" /><path
     class="st13"
     d="m 388.56043,330.89289 h 4.23 v -13.84 c 0,-1.16 -0.93,-2.1 -2.09,-2.1 -0.01,0 -0.01,0 -0.02,0 v 0 c -1.16,0 -2.11,0.93 -2.11,2.1 0,0 0,0.01 0,0.01 z"
     id="path528"
     style="fill:#33475b" /><rect
     x="-388.56042"
     y="319.3129"
     class="st13"
     width="0.81999999"
     height="17.92"
     id="rect530"
     style="fill:#33475b"
     transform="scale(-1,1)" /><path
     class="st13"
     d="m 392.79043,330.89289 c -1.41,-0.22001 -2.84,-0.32 -4.27,-0.31 l 0.2,0.20999 c 0,-0.95999 0,-2.01999 0,-3.11 0,-2.04 0,-3.89 -0.07,-5.26 0.02,-0.73 -0.03,-1.44999 -0.16,-2.17 -0.14,0.71 -0.19,1.44 -0.17,2.17 -0.04,1.33 -0.06,3.18001 -0.06,5.26 0,1.10001 0,2.15 0,3.11 v 0.2 h 0.2 c 1.45,0.09 2.9,0.05 4.33,-0.1 z"
     id="path532"
     style="fill:#33475b" /><rect
     x="-386.47043"
     y="308.76291"
     class="st14"
     width="2.96"
     height="33.389999"
     id="rect534"
     style="fill:#cbd6e2"
     transform="scale(-1,1)" /><path
     class="st13"
     d="m 382.94043,321.80288 h 4.22 v -13.81 c 0,-1.17 -0.95,-2.11 -2.11,-2.11 v 0 0 c -1.16,0 -2.1,0.95 -2.1,2.11 v 13.81 z"
     id="path536"
     style="fill:#33475b" /><rect
     x="-382.94043"
     y="310.2529"
     class="st13"
     width="0.81999999"
     height="17.92"
     id="rect538"
     style="fill:#33475b"
     transform="scale(-1,1)" /><path
     class="st13"
     d="m 387.16043,321.80288 c -1.41,-0.20999 -2.84,-0.31 -4.27,-0.3 l 0.2,0.2 c 0,-0.96 0,-2.01 0,-3.11 0,-2.04 0,-3.88 -0.06,-5.26 0.03,-0.73 -0.03,-1.45 -0.17,-2.17 -0.12,0.71 -0.18,1.44 -0.16,2.17 -0.04,1.34 -0.07,3.18 -0.07,5.26 0,1.1 0,2.15 0,3.11 v 0.21 h 0.2 c 1.45,0.08 2.89,0.05 4.33,-0.11 z"
     id="path540"
     style="fill:#33475b" /><polygon
     class="st3"
     points="350.44,362.75 347.95,335.04 372.12,335.04 369.41,362.75 "
     id="polygon542"
     style="fill:#d16a6a;fill-opacity:1"
     transform="matrix(-1,0,0,1,751.90043,-3.437115)" /></g></svg>
