<?xml version="1.0" encoding="utf-8"?>
<!-- Generator: Adobe Illustrator 25.0.1, SVG Export Plug-In . SVG Version: 6.00 Build 0)  -->
<svg version="1.1" id="Layer_1" xmlns="http://www.w3.org/2000/svg" xmlns:xlink="http://www.w3.org/1999/xlink" x="0px" y="0px"
	 viewBox="0 0 1000 1000" style="enable-background:new 0 0 1000 1000;" xml:space="preserve">
<style type="text/css">
	.st0{fill:#FFFFFF;stroke:#808184;stroke-width:2;stroke-linejoin:round;stroke-miterlimit:10;}
	.st1{fill:none;stroke:#808184;stroke-width:1.3529;stroke-miterlimit:10;}
	.st2{font-family:'Roboto-Thin';}
	.st3{font-size:26.667px;}
	.st4{fill:#231F20;}
	.st5{fill:#3E3734;}
	.st6{fill:#3D3E40;}
	.st7{fill:#FFFFFF;}
</style>
<path class="st0" d="M968.1,292.2c0,0-12.8-19-9-28.9c3.8-9.9,9.4-7.4,9.4-7.4l1.7-151.8l-207.7,8.2l-294.3-0.1l-438.6-7l5.7,201.5
	l6.9,25.9h-6.2l5.2,181.9L42,806.3l-3.7,89.7l773.6-7.5l158.4,1.8l-3.3-51.3l-4.2-72.5L968.1,292.2L968.1,292.2z"/>
<path class="st1" d="M64.2,862.1l1.9-70.1l-6-282.2v-375l464.7,0.8l415.3-3.1L933,764.2l5.5,96.7l-157.2,3L64.2,862.1z"/>
<path class="st1" d="M66.2,755.8c293.6,2,573.2,0.6,866.8,0.6"/>
<path class="st1" d="M316.7,863.3L311.9,756"/>
<path d="M349.7,792.8v11.8h-1.1v-28.1h6.7c3.2,0,5.6,0.7,7.2,2c1.7,1.4,2.5,3.4,2.5,6.1c0,1.2-0.2,2.3-0.7,3.3c-0.5,1-1.1,1.9-2,2.6
	c-0.9,0.7-1.9,1.3-3.1,1.7c-1.2,0.4-2.5,0.6-4,0.6L349.7,792.8z M349.7,791.9h5.6c1.3,0,2.5-0.2,3.6-0.6c1.1-0.4,2-0.9,2.7-1.5
	c0.7-0.7,1.3-1.4,1.7-2.3s0.6-1.9,0.6-2.9c0-2.4-0.7-4.2-2.1-5.4c-1.4-1.2-3.6-1.9-6.4-1.9h-5.6V791.9z"/>
<path d="M369.9,804.5v-19.7h0.5c0.3,0,0.4,0.1,0.4,0.4l0.1,4.9c0.6-1.8,1.4-3.2,2.4-4.1c1-1,2.4-1.5,4.1-1.5c0.4,0,0.8,0,1.2,0.1
	c0.4,0.1,0.8,0.2,1.1,0.4l-0.1,0.6c-0.1,0.1-0.1,0.2-0.3,0.2c-0.1,0-0.4,0-0.7-0.1c-0.3-0.1-0.7-0.2-1.3-0.2c-0.8,0-1.6,0.1-2.2,0.4
	c-0.6,0.3-1.2,0.6-1.7,1.2c-0.5,0.5-1,1.1-1.3,1.9c-0.4,0.8-0.7,1.6-1,2.7v12.9L369.9,804.5z"/>
<path d="M390.1,784.5c1.4,0,2.6,0.2,3.7,0.7c1.1,0.5,2,1.2,2.8,2.1c0.7,0.9,1.3,1.9,1.7,3.2c0.4,1.3,0.6,2.6,0.6,4.2
	s-0.2,2.9-0.6,4.2c-0.4,1.2-1,2.3-1.7,3.2c-0.7,0.9-1.7,1.6-2.8,2c-1.1,0.5-2.3,0.7-3.7,0.7s-2.6-0.2-3.7-0.7c-1.1-0.5-2-1.2-2.7-2
	c-0.7-0.9-1.3-1.9-1.7-3.2c-0.4-1.3-0.6-2.6-0.6-4.2s0.2-2.9,0.6-4.2s1-2.3,1.7-3.2c0.7-0.9,1.7-1.6,2.7-2.1
	C387.4,784.8,388.7,784.5,390.1,784.5z M390.1,804c1.3,0,2.4-0.2,3.4-0.7s1.8-1.1,2.4-1.9c0.7-0.8,1.1-1.8,1.5-2.9
	c0.3-1.1,0.5-2.4,0.5-3.8c0-1.4-0.2-2.7-0.5-3.8c-0.3-1.1-0.8-2.1-1.5-2.9c-0.6-0.8-1.4-1.5-2.4-1.9c-1-0.5-2.1-0.7-3.4-0.7
	c-1.3,0-2.4,0.2-3.4,0.7c-1,0.4-1.8,1.1-2.4,1.9c-0.6,0.8-1.1,1.8-1.4,2.9c-0.3,1.1-0.5,2.4-0.5,3.8c0,1.4,0.2,2.7,0.5,3.8
	c0.3,1.1,0.8,2.1,1.4,2.9c0.7,0.8,1.5,1.4,2.4,1.9C387.7,803.7,388.8,804,390.1,804z"/>
<path d="M405.9,784.8v22.8c0,0.6-0.1,1.2-0.3,1.7s-0.5,1-0.8,1.4c-0.4,0.4-0.8,0.7-1.3,0.9c-0.5,0.2-1.1,0.3-1.8,0.3
	c-0.4,0-0.7,0-1-0.1c-0.3-0.1-0.6-0.2-0.8-0.3l0.1-0.5c0-0.1,0.1-0.2,0.2-0.2c0.1,0,0.2,0,0.3,0.1s0.3,0.1,0.5,0.1
	c0.2,0.1,0.4,0.1,0.7,0.1c1.1,0,1.9-0.3,2.5-1s0.8-1.5,0.8-2.6v-22.8L405.9,784.8z M406.8,777.7c0,0.2,0,0.4-0.1,0.5
	c-0.1,0.2-0.2,0.3-0.3,0.4c-0.1,0.1-0.3,0.2-0.4,0.3c-0.2,0.1-0.3,0.1-0.5,0.1c-0.4,0-0.7-0.1-1-0.4c-0.3-0.3-0.4-0.6-0.4-1
	c0-0.4,0.1-0.7,0.4-1c0.3-0.3,0.6-0.4,1-0.4c0.2,0,0.3,0,0.5,0.1c0.2,0.1,0.3,0.2,0.4,0.3c0.1,0.1,0.2,0.3,0.3,0.4
	C406.7,777.3,406.8,777.5,406.8,777.7L406.8,777.7z"/>
<path d="M420.7,784.5c1.1,0,2.1,0.2,3,0.6c0.9,0.4,1.7,0.9,2.4,1.7c0.7,0.7,1.2,1.6,1.6,2.7c0.4,1.1,0.6,2.3,0.6,3.7
	c0,0.3-0.1,0.4-0.4,0.4h-14.9c0,0.1,0,0.3,0,0.4c0,0.1,0,0.3,0,0.4c0,1.6,0.2,3,0.6,4.2c0.4,1.2,0.9,2.2,1.6,3s1.5,1.4,2.5,1.9
	c1,0.4,2.1,0.6,3.2,0.6c1.1,0,2-0.1,2.7-0.3c0.8-0.2,1.4-0.5,1.9-0.8c0.5-0.3,0.9-0.5,1.2-0.8c0.3-0.2,0.5-0.4,0.6-0.4
	c0.1,0,0.2,0,0.3,0.1l0.3,0.3c-0.3,0.3-0.6,0.7-1.1,1c-0.5,0.3-1,0.6-1.7,0.9c-0.6,0.2-1.3,0.4-2,0.6c-0.7,0.2-1.5,0.2-2.2,0.2
	c-1.3,0-2.6-0.2-3.7-0.7c-1.1-0.5-2-1.2-2.8-2.1c-0.8-0.9-1.3-2-1.8-3.3c-0.4-1.3-0.6-2.8-0.6-4.5c0-1.4,0.2-2.8,0.6-3.9
	c0.4-1.2,1-2.2,1.7-3.1c0.7-0.9,1.7-1.5,2.7-2C418.1,784.7,419.4,784.5,420.7,784.5L420.7,784.5z M420.8,785.3c-1.1,0-2.1,0.2-3,0.5
	c-0.9,0.4-1.6,0.9-2.3,1.5c-0.6,0.7-1.2,1.4-1.6,2.4c-0.4,0.9-0.6,1.9-0.8,3.1h14.3c0-1.2-0.2-2.2-0.5-3.2c-0.3-0.9-0.8-1.7-1.4-2.4
	c-0.6-0.6-1.3-1.1-2.1-1.5C422.6,785.5,421.7,785.3,420.8,785.3z"/>
<path d="M447,787c0,0-0.1,0.1-0.1,0.1c0,0-0.1,0-0.2,0c-0.1,0-0.3-0.1-0.5-0.3c-0.2-0.2-0.5-0.4-0.9-0.6c-0.4-0.2-0.9-0.4-1.5-0.6
	c-0.6-0.2-1.4-0.3-2.2-0.3c-1.2,0-2.3,0.2-3.3,0.7c-0.9,0.4-1.8,1-2.4,1.9c-0.7,0.8-1.2,1.8-1.5,2.9c-0.3,1.1-0.5,2.4-0.5,3.9
	c0,1.5,0.2,2.8,0.5,4c0.4,1.1,0.9,2.1,1.5,2.9c0.7,0.8,1.4,1.4,2.3,1.8c0.9,0.4,1.9,0.6,3.1,0.6c1,0,1.9-0.1,2.5-0.3
	c0.7-0.2,1.3-0.5,1.7-0.8c0.5-0.3,0.8-0.6,1-0.8c0.2-0.2,0.4-0.4,0.5-0.4c0.1,0,0.2,0,0.3,0.1l0.2,0.3c-0.2,0.3-0.6,0.7-1,1
	c-0.4,0.3-0.9,0.6-1.5,0.9c-0.5,0.2-1.2,0.4-1.8,0.6c-0.7,0.2-1.4,0.2-2.1,0.2c-1.3,0-2.4-0.2-3.4-0.7c-1-0.5-1.9-1.1-2.6-2
	c-0.7-0.9-1.3-1.9-1.7-3.2c-0.4-1.3-0.6-2.7-0.6-4.3c0-1.5,0.2-2.9,0.6-4.2c0.4-1.3,1-2.3,1.7-3.2c0.7-0.9,1.7-1.6,2.7-2.1
	c1.1-0.5,2.3-0.7,3.7-0.7c1.2,0,2.3,0.2,3.3,0.6c1,0.4,1.8,0.9,2.5,1.5L447,787z"/>
<path d="M457.7,804.9c-1.2,0-2.2-0.3-2.9-1c-0.7-0.7-1-1.8-1-3.3v-14.2h-3.1c-0.3,0-0.4-0.1-0.4-0.3v-0.4l3.5-0.1l0.3-7.6
	c0-0.1,0-0.2,0.1-0.2c0.1-0.1,0.1-0.1,0.2-0.1h0.4v7.9h6.5v0.8h-6.5v14.2c0,0.6,0.1,1.1,0.2,1.6c0.2,0.4,0.4,0.8,0.6,1.1
	s0.6,0.5,0.9,0.6c0.4,0.1,0.8,0.2,1.2,0.2c0.5,0,1-0.1,1.4-0.2c0.4-0.2,0.7-0.3,1-0.5c0.3-0.2,0.5-0.4,0.7-0.5
	c0.2-0.2,0.3-0.2,0.4-0.2c0.1,0,0.1,0,0.2,0.1l0.3,0.4c-0.2,0.3-0.5,0.5-0.8,0.8c-0.3,0.2-0.6,0.4-1,0.6c-0.4,0.2-0.7,0.3-1.1,0.4
	C458.5,804.8,458.1,804.9,457.7,804.9L457.7,804.9z"/>
<path d="M477.2,804.5v-19.7h0.5c0.3,0,0.4,0.1,0.4,0.4l0.1,3.4c0.9-1.3,2-2.3,3.3-3c1.3-0.7,2.7-1.1,4.2-1.1c1.1,0,2,0.2,2.9,0.5
	c0.8,0.3,1.5,0.8,2,1.5c0.5,0.6,1,1.4,1.2,2.3c0.3,0.9,0.4,2,0.4,3.1v12.6h-1.1v-12.6c0-1-0.1-1.9-0.3-2.8c-0.2-0.8-0.6-1.5-1.1-2.1
	c-0.5-0.6-1.1-1-1.8-1.3c-0.7-0.3-1.5-0.5-2.5-0.5c-1.4,0-2.8,0.4-4,1.1c-1.2,0.7-2.3,1.8-3.2,3.1v14.9L477.2,804.5z"/>
<path d="M511,804.5c-0.3,0-0.4-0.1-0.5-0.4l-0.2-2.9c-0.5,0.6-1.1,1.1-1.7,1.5c-0.5,0.4-1.1,0.8-1.7,1.1c-0.6,0.3-1.3,0.5-2,0.7
	s-1.5,0.3-2.3,0.3c-0.6,0-1.2-0.1-1.9-0.3c-0.6-0.2-1.2-0.5-1.7-0.9s-0.9-0.9-1.2-1.5c-0.3-0.6-0.4-1.4-0.4-2.3
	c0-0.9,0.2-1.7,0.7-2.4c0.5-0.7,1.3-1.3,2.3-1.8c1.1-0.5,2.4-0.9,4-1.2c1.6-0.3,3.5-0.5,5.8-0.5v-2.3c0-2-0.4-3.5-1.3-4.6
	c-0.9-1.1-2.1-1.6-3.8-1.6c-1,0-1.9,0.1-2.6,0.4c-0.7,0.3-1.3,0.6-1.8,1c-0.5,0.3-0.9,0.7-1.2,1c-0.3,0.3-0.5,0.4-0.6,0.4
	c-0.1,0-0.3-0.1-0.4-0.2l-0.2-0.3c1-1,2-1.8,3.1-2.3c1.1-0.5,2.3-0.8,3.7-0.8c1,0,1.9,0.2,2.7,0.5c0.8,0.3,1.4,0.8,1.9,1.4
	c0.5,0.6,0.9,1.4,1.1,2.2c0.2,0.9,0.4,1.8,0.4,2.9v13L511,804.5z M502.8,804.1c0.9,0,1.6-0.1,2.3-0.3c0.7-0.2,1.4-0.5,2-0.8
	c0.6-0.3,1.2-0.7,1.7-1.2c0.5-0.5,1-0.9,1.5-1.4v-5.7c-4,0.1-7,0.6-8.9,1.5c-1.9,0.9-2.9,2.1-2.9,3.6c0,0.7,0.1,1.4,0.4,1.9
	c0.3,0.5,0.6,1,1,1.3c0.4,0.3,0.9,0.6,1.4,0.8C501.8,804,502.3,804.1,502.8,804.1L502.8,804.1z"/>
<path d="M518.2,804.5v-19.7h0.5c0.3,0,0.4,0.1,0.4,0.4l0.1,3.3c0.8-1.2,1.7-2.2,2.7-2.9c1.1-0.7,2.2-1.1,3.5-1.1
	c1.5,0,2.7,0.5,3.6,1.4c0.9,0.9,1.5,2.2,1.7,3.8c0.2-0.9,0.5-1.6,0.9-2.3c0.4-0.7,0.9-1.2,1.5-1.6c0.6-0.4,1.2-0.8,1.8-1
	c0.7-0.2,1.4-0.3,2.1-0.3c0.9,0,1.8,0.2,2.6,0.5c0.8,0.3,1.4,0.8,2,1.4c0.5,0.6,0.9,1.4,1.2,2.3c0.3,0.9,0.4,2,0.4,3.2v12.6h-1.1
	v-12.6c0-2.1-0.5-3.8-1.4-4.9c-0.9-1.1-2.2-1.7-3.9-1.7c-0.7,0-1.5,0.1-2.2,0.4c-0.7,0.3-1.3,0.7-1.8,1.2c-0.5,0.5-0.9,1.2-1.3,2.1
	c-0.3,0.8-0.5,1.8-0.5,2.9v12.6H530v-12.6c0-2.1-0.4-3.7-1.2-4.9c-0.8-1.1-2-1.7-3.6-1.7c-1.2,0-2.3,0.4-3.3,1.1s-1.9,1.8-2.6,3.1
	v15H518.2z"/>
<path d="M557.5,784.5c1.1,0,2.1,0.2,3,0.6c0.9,0.4,1.7,0.9,2.4,1.7c0.7,0.7,1.2,1.6,1.6,2.7c0.4,1.1,0.6,2.3,0.6,3.7
	c0,0.3-0.1,0.4-0.4,0.4h-14.9c0,0.1,0,0.3,0,0.4c0,0.1,0,0.3,0,0.4c0,1.6,0.2,3,0.6,4.2s0.9,2.2,1.6,3c0.7,0.8,1.5,1.4,2.5,1.9
	c1,0.4,2.1,0.6,3.2,0.6c1.1,0,2-0.1,2.7-0.3c0.8-0.2,1.4-0.5,1.9-0.8s0.9-0.5,1.2-0.8c0.3-0.2,0.5-0.4,0.6-0.4c0.1,0,0.2,0,0.3,0.1
	l0.3,0.3c-0.3,0.3-0.6,0.7-1.1,1s-1,0.6-1.7,0.9c-0.6,0.2-1.3,0.4-2,0.6c-0.7,0.2-1.5,0.2-2.2,0.2c-1.3,0-2.6-0.2-3.7-0.7
	c-1.1-0.5-2-1.2-2.8-2.1c-0.8-0.9-1.3-2-1.8-3.3c-0.4-1.3-0.6-2.8-0.6-4.5c0-1.4,0.2-2.8,0.6-3.9c0.4-1.2,1-2.2,1.7-3.1
	c0.7-0.9,1.7-1.5,2.7-2C554.9,784.7,556.1,784.5,557.5,784.5L557.5,784.5z M557.5,785.3c-1.1,0-2.1,0.2-3,0.5
	c-0.9,0.4-1.6,0.9-2.3,1.5s-1.2,1.4-1.6,2.4c-0.4,0.9-0.6,1.9-0.8,3.1h14.3c0-1.2-0.2-2.2-0.5-3.2c-0.3-0.9-0.8-1.7-1.4-2.4
	c-0.6-0.6-1.3-1.1-2.1-1.5C559.3,785.5,558.4,785.3,557.5,785.3L557.5,785.3z"/>
<path d="M570.3,803.4c0-0.4,0.1-0.8,0.4-1.1c0.3-0.3,0.7-0.5,1.1-0.5c0.4,0,0.8,0.2,1.1,0.5c0.3,0.3,0.5,0.7,0.5,1.1
	c0,0.4-0.2,0.8-0.5,1.1c-0.3,0.3-0.7,0.4-1.1,0.4c-0.4,0-0.8-0.1-1.1-0.4C570.5,804.2,570.3,803.8,570.3,803.4z M570.3,786.9
	c0-0.4,0.1-0.8,0.4-1.1c0.3-0.3,0.7-0.5,1.1-0.5c0.4,0,0.8,0.2,1.1,0.5c0.3,0.3,0.5,0.7,0.5,1.1c0,0.4-0.2,0.8-0.5,1.1
	c-0.3,0.3-0.7,0.4-1.1,0.4c-0.4,0-0.8-0.1-1.1-0.4C570.5,787.7,570.3,787.4,570.3,786.9z"/>
<path d="M593.3,792.8v11.8h-1.1v-28.1h6.7c3.2,0,5.6,0.7,7.2,2c1.7,1.4,2.5,3.4,2.5,6.1c0,1.2-0.2,2.3-0.7,3.3c-0.5,1-1.1,1.9-2,2.6
	c-0.9,0.7-1.9,1.3-3.1,1.7c-1.2,0.4-2.5,0.6-4,0.6L593.3,792.8z M593.3,791.9h5.6c1.3,0,2.5-0.2,3.6-0.6c1.1-0.4,2-0.9,2.7-1.5
	c0.7-0.7,1.3-1.4,1.7-2.3c0.4-0.9,0.6-1.9,0.6-2.9c0-2.4-0.7-4.2-2.1-5.4c-1.4-1.2-3.6-1.9-6.4-1.9h-5.6L593.3,791.9z"/>
<path d="M620.2,784.5c1.4,0,2.6,0.2,3.7,0.7c1.1,0.5,2,1.2,2.8,2.1c0.7,0.9,1.3,1.9,1.7,3.2c0.4,1.3,0.6,2.6,0.6,4.2
	s-0.2,2.9-0.6,4.2c-0.4,1.2-1,2.3-1.7,3.2s-1.7,1.6-2.8,2c-1.1,0.5-2.3,0.7-3.7,0.7s-2.6-0.2-3.7-0.7c-1.1-0.5-2-1.2-2.7-2
	s-1.3-1.9-1.7-3.2c-0.4-1.3-0.6-2.6-0.6-4.2s0.2-2.9,0.6-4.2c0.4-1.3,1-2.3,1.7-3.2c0.7-0.9,1.7-1.6,2.7-2.1
	C617.6,784.8,618.8,784.5,620.2,784.5z M620.2,804c1.3,0,2.4-0.2,3.4-0.7s1.8-1.1,2.4-1.9c0.7-0.8,1.1-1.8,1.5-2.9
	c0.3-1.1,0.5-2.4,0.5-3.8c0-1.4-0.2-2.7-0.5-3.8c-0.3-1.1-0.8-2.1-1.5-2.9c-0.6-0.8-1.4-1.5-2.4-1.9c-1-0.5-2.1-0.7-3.4-0.7
	s-2.4,0.2-3.4,0.7c-1,0.4-1.8,1.1-2.4,1.9c-0.6,0.8-1.1,1.8-1.4,2.9c-0.3,1.1-0.5,2.4-0.5,3.8c0,1.4,0.2,2.7,0.5,3.8
	c0.3,1.1,0.8,2.1,1.4,2.9c0.7,0.8,1.5,1.4,2.4,1.9S619,804,620.2,804z"/>
<path d="M634.8,804.5v-19.7h0.5c0.3,0,0.4,0.1,0.4,0.4l0.1,4.9c0.6-1.8,1.4-3.2,2.4-4.1c1-1,2.4-1.5,4.1-1.5c0.4,0,0.8,0,1.2,0.1
	c0.4,0.1,0.8,0.2,1.1,0.4l-0.1,0.6c-0.1,0.1-0.1,0.2-0.3,0.2c-0.1,0-0.4,0-0.7-0.1c-0.3-0.1-0.7-0.2-1.3-0.2c-0.8,0-1.6,0.1-2.2,0.4
	c-0.6,0.3-1.2,0.6-1.7,1.2c-0.5,0.5-1,1.1-1.3,1.9c-0.4,0.8-0.7,1.6-1,2.7v12.9L634.8,804.5z"/>
<path d="M653.7,804.9c-1.2,0-2.2-0.3-2.9-1c-0.7-0.7-1-1.8-1-3.3v-14.2h-3.1c-0.3,0-0.4-0.1-0.4-0.3v-0.4l3.5-0.1l0.3-7.6
	c0-0.1,0-0.2,0.1-0.2c0.1-0.1,0.1-0.1,0.2-0.1h0.4v7.9h6.5v0.8h-6.5v14.2c0,0.6,0.1,1.1,0.2,1.6c0.2,0.4,0.4,0.8,0.6,1.1
	c0.3,0.3,0.6,0.5,0.9,0.6c0.4,0.1,0.8,0.2,1.2,0.2c0.5,0,1-0.1,1.4-0.2c0.4-0.2,0.7-0.3,1-0.5c0.3-0.2,0.5-0.4,0.7-0.5
	c0.2-0.2,0.3-0.2,0.4-0.2c0.1,0,0.1,0,0.2,0.1l0.3,0.4c-0.2,0.3-0.5,0.5-0.8,0.8c-0.3,0.2-0.6,0.4-1,0.6c-0.4,0.2-0.7,0.3-1.1,0.4
	C654.5,804.8,654.1,804.9,653.7,804.9L653.7,804.9z"/>
<path d="M663.1,804.5v-18.1l-3.1-0.1c-0.3,0-0.4-0.1-0.4-0.3v-0.4h3.5v-2.8c0-1.1,0.1-2.1,0.4-2.9c0.3-0.8,0.7-1.5,1.2-2.1
	c0.5-0.6,1.1-1,1.8-1.2c0.7-0.3,1.5-0.4,2.3-0.4c0.4,0,0.8,0,1.2,0.1s0.8,0.2,1.1,0.3L671,777c0,0.1-0.1,0.2-0.1,0.2
	c-0.1,0-0.2,0-0.4,0c-0.2,0-0.4-0.1-0.7-0.1c-0.3-0.1-0.6-0.1-0.9-0.1c-0.7,0-1.3,0.1-1.9,0.3c-0.6,0.2-1.1,0.5-1.5,1
	c-0.4,0.5-0.7,1.1-1,1.8c-0.2,0.7-0.4,1.6-0.4,2.7v2.8h6.8v0.8h-6.7v18.2L663.1,804.5z"/>
<path d="M682.1,784.5c1.4,0,2.6,0.2,3.7,0.7c1.1,0.5,2,1.2,2.8,2.1c0.7,0.9,1.3,1.9,1.7,3.2s0.6,2.6,0.6,4.2s-0.2,2.9-0.6,4.2
	c-0.4,1.2-1,2.3-1.7,3.2c-0.7,0.9-1.7,1.6-2.8,2c-1.1,0.5-2.3,0.7-3.7,0.7c-1.4,0-2.6-0.2-3.7-0.7c-1.1-0.5-2-1.2-2.7-2
	c-0.7-0.9-1.3-1.9-1.7-3.2c-0.4-1.3-0.6-2.6-0.6-4.2s0.2-2.9,0.6-4.2s1-2.3,1.7-3.2c0.7-0.9,1.7-1.6,2.7-2.1
	C679.4,784.8,680.7,784.5,682.1,784.5z M682.1,804c1.3,0,2.4-0.2,3.4-0.7c1-0.4,1.8-1.1,2.4-1.9c0.7-0.8,1.1-1.8,1.5-2.9
	c0.3-1.1,0.5-2.4,0.5-3.8c0-1.4-0.2-2.7-0.5-3.8c-0.3-1.1-0.8-2.1-1.5-2.9c-0.6-0.8-1.4-1.5-2.4-1.9c-1-0.5-2.1-0.7-3.4-0.7
	c-1.3,0-2.4,0.2-3.4,0.7c-1,0.4-1.8,1.1-2.4,1.9c-0.6,0.8-1.1,1.8-1.4,2.9c-0.3,1.1-0.5,2.4-0.5,3.8c0,1.4,0.2,2.7,0.5,3.8
	c0.3,1.1,0.8,2.1,1.4,2.9c0.7,0.8,1.5,1.4,2.4,1.9C679.7,803.7,680.8,804,682.1,804z"/>
<path d="M697.9,775.6v28.9h-1v-28.9H697.9z"/>
<path d="M706.5,784.8v19.7h-1v-19.7H706.5z M707.3,777.7c0,0.2,0,0.4-0.1,0.5c-0.1,0.2-0.2,0.3-0.3,0.4c-0.1,0.1-0.3,0.2-0.4,0.3
	c-0.2,0.1-0.3,0.1-0.5,0.1c-0.4,0-0.7-0.1-1-0.4c-0.3-0.3-0.4-0.6-0.4-1c0-0.4,0.1-0.7,0.4-1c0.3-0.3,0.6-0.4,1-0.4
	c0.2,0,0.3,0,0.5,0.1c0.2,0.1,0.3,0.2,0.4,0.3c0.1,0.1,0.2,0.3,0.3,0.4C707.3,777.3,707.3,777.5,707.3,777.7L707.3,777.7z"/>
<path d="M721.3,784.5c1.4,0,2.6,0.2,3.7,0.7c1.1,0.5,2,1.2,2.8,2.1c0.7,0.9,1.3,1.9,1.7,3.2s0.6,2.6,0.6,4.2s-0.2,2.9-0.6,4.2
	c-0.4,1.2-1,2.3-1.7,3.2c-0.7,0.9-1.7,1.6-2.8,2c-1.1,0.5-2.3,0.7-3.7,0.7c-1.4,0-2.6-0.2-3.7-0.7c-1.1-0.5-2-1.2-2.7-2
	c-0.7-0.9-1.3-1.9-1.7-3.2c-0.4-1.3-0.6-2.6-0.6-4.2s0.2-2.9,0.6-4.2s1-2.3,1.7-3.2c0.7-0.9,1.7-1.6,2.7-2.1
	C718.7,784.8,719.9,784.5,721.3,784.5z M721.3,804c1.3,0,2.4-0.2,3.4-0.7c1-0.4,1.8-1.1,2.4-1.9c0.7-0.8,1.1-1.8,1.5-2.9
	c0.3-1.1,0.5-2.4,0.5-3.8c0-1.4-0.2-2.7-0.5-3.8c-0.3-1.1-0.8-2.1-1.5-2.9c-0.6-0.8-1.4-1.5-2.4-1.9c-1-0.5-2.1-0.7-3.4-0.7
	c-1.3,0-2.4,0.2-3.4,0.7c-1,0.4-1.8,1.1-2.4,1.9c-0.6,0.8-1.1,1.8-1.4,2.9c-0.3,1.1-0.5,2.4-0.5,3.8c0,1.4,0.2,2.7,0.5,3.8
	c0.3,1.1,0.8,2.1,1.4,2.9c0.7,0.8,1.5,1.4,2.4,1.9C718.9,803.7,720,804,721.3,804z"/>
<text transform="matrix(1 0 0 1 345.6557 839.0549)" class="st2 st3">--</text>
<path class="st4" d="M87.3,775.7c2.2,0,21.7-1.8,28.4,1.2c6.7,2.9,5.7,3.2,9.8,6.5c-0.6-1.9-0.1-0.3-1.4-2.1
	c4.7,2.2,11.4,5.3,12.9,13.2c3.9,3.2,5.3,5,7.8,11.4l-1.6,26l-3.5-18.1c0,0-4.4-3.9-5.3-7.6c-3.8,0.3-13.9-3.9-17.1-2.3
	c-3.1,1.7-4.8,3-9.3,1.1s-5.5-1.5-10.4,1c-3.5,1-11.8,5.2-11.8,5.2L81,831.5l-1.2-26.6l-6.1-6.4c0,0,0.8-2.1,4.2-4.3
	c3.3-2.2,5.4-2.6,5.4-2.6c-3.5-1.8-3.8-2.9-7.2-4.6c5.5-6.1,11.3-6.9,14.1-6.8C88.2,779.1,88,777.8,87.3,775.7L87.3,775.7z"/>
<path class="st5" d="M102.3,824.7c3.8,1.1,3.9,0.6,5,0.7c0,0.9-0.1,2-1.6,2.3s-19.2-2.6-21.7-1.1C86.9,820.5,98.5,823.6,102.3,824.7
	L102.3,824.7z"/>
<path class="st5" d="M122.2,823.7c-3.6,1.6-4.4,1.3-5.5,1.4c0,0.7,0.5,1.8,2,2c1.5,0.2,13-6.8,21.3-1.1c-1.5-2.5-4.6-5.9-8.3-5.7
	C127.9,820.4,124.3,822.7,122.2,823.7L122.2,823.7z"/>
<path class="st6" d="M130.8,825.6c-5.2,0-10.3,1.6-15.4,2.3c-2.1,0.3-4.4,0.3-6.5,0.1c-2.9-0.3-5.6-1.2-8.5-1.6
	c-2.6-0.4-5.1-0.7-7.7-0.7c-4.5,0-8.8,1.3-13.2,2.1c0,1.3-0.3,2.9,0.4,3.8c0.7,0.9,1.8,1.7,2.1,3c0.7,2.9,1.7,5.8,3,8.5
	c0.6,1.3,1.8,2.3,3.1,2.9c3.2,1.5,6.9,1.8,10.3,1.3c4.9-0.7,7.6-4.3,9.6-8.4c0.8-1.7,0.8-3.6,1.9-5.1c0.6-0.9,2-0.5,3-0.5
	c1,0,1.8,1.6,2.1,2.7c1.1,3.8,2.9,7.8,6.5,9.8c5.4,3,13.9,2.4,17.4-2.9c1.4-2.1,1.7-4.6,2.4-7c0.4-1.4,0.8-3.2,2.3-4
	c0.6-0.3,0.2-1.6,0.3-2.3c0.1-0.8,0.3-1.5-0.9-1.7c-2.1-0.3-4.1-1.1-6.2-1.4C134.8,826,132.9,825.6,130.8,825.6L130.8,825.6z
	 M96.2,826.9c1.5,0,3,0.1,4.4,0.4c8.6,1.8,8.8,5.2,5.2,12.4c-2.9,5.8-8.9,7.3-14.9,5.9c-2.8-0.6-4.7-2.5-5.6-5.1
	c-0.9-2.7-1.7-5.6-1.5-8.5c0.2-3.9,4.7-4.4,7.9-4.7C93.2,827.1,94.7,826.9,96.2,826.9L96.2,826.9z M127.7,826.9c1.5,0,3,0.1,4.4,0.3
	c3.2,0.4,7.7,0.9,7.9,4.7c0.2,2.9-0.6,5.8-1.5,8.5c-0.9,2.6-2.8,4.5-5.6,5.1c-6,1.4-12-0.1-14.9-5.9c-3.5-7.2-3.4-10.6,5.2-12.4
	C124.7,827,126.2,826.9,127.7,826.9L127.7,826.9z"/>
<path d="M289.3,776.6c-2,0-3.7,0.3-5.3,0.9c-1.5,0.6-2.8,1.4-3.8,2.5c-1,1-1.8,2.2-2.4,3.5s-0.8,2.7-0.8,4.2c0,1.8,0.3,3.4,1,4.6
	c0.7,1.2,1.5,2.2,2.5,3.1c1.1,0.8,2.3,1.5,3.7,2c1.4,0.5,2.8,1,4.2,1.5c1.4,0.4,2.8,0.9,4.2,1.4c1.4,0.5,2.6,1.1,3.6,1.8
	c1.1,0.7,1.9,1.6,2.6,2.7s1,2.5,1,4.2c0,1.6-0.3,3.1-0.8,4.4c-0.5,1.4-1.3,2.6-2.4,3.7c-1,1-2.3,1.8-3.8,2.5
	c-1.5,0.6-3.2,0.9-5.1,0.9c-1.3,0-2.6-0.1-3.6-0.4c-1-0.3-2-0.6-2.8-1c-0.8-0.4-1.5-0.8-2.1-1.3c-0.6-0.5-1.1-0.9-1.5-1.3
	c-0.4-0.4-0.8-0.7-1-1c-0.3-0.3-0.5-0.4-0.6-0.4s-0.3,0-0.3,0.1c-0.1,0-0.1,0.1-0.3,0.2l-0.4,0.6c0.8,0.9,1.6,1.7,2.4,2.4
	c0.9,0.7,1.8,1.3,2.8,1.8c1,0.5,2.1,0.8,3.3,1.1c1.2,0.3,2.6,0.4,4.1,0.4c2.2,0,4.1-0.3,5.8-1c1.7-0.7,3.2-1.6,4.3-2.8
	c1.2-1.2,2.1-2.6,2.7-4.2c0.6-1.6,0.9-3.3,0.9-5.2c0-1.8-0.3-3.3-1-4.5c-0.7-1.2-1.5-2.2-2.6-3.1s-2.3-1.5-3.7-2
	c-1.3-0.5-2.7-1-4.2-1.5c-1.4-0.5-2.8-1-4.2-1.5c-1.3-0.5-2.5-1.1-3.6-1.9s-1.9-1.6-2.6-2.7c-0.7-1.1-1-2.4-1-4.1
	c0-1.3,0.2-2.5,0.7-3.6c0.5-1.2,1.1-2.2,2-3.1c0.9-0.9,2-1.6,3.3-2.1c1.3-0.5,2.9-0.8,4.6-0.8c1.7,0,3.1,0.2,4.3,0.6
	c1.2,0.4,2.1,0.8,2.8,1.4s1.3,1,1.7,1.4c0.4,0.4,0.7,0.6,1,0.6s0.4-0.1,0.5-0.3l0.4-0.7c-1.5-1.5-3.1-2.6-4.8-3.3
	C293.5,776.9,291.6,776.6,289.3,776.6L289.3,776.6z M196.7,777.1v27.6c0,2.4,0.4,4.6,1.1,6.7c0.8,2.1,1.8,3.9,3.2,5.4
	c1.4,1.6,3.1,2.8,5.1,3.7c2,0.9,4.3,1.3,6.8,1.3c2.5,0,4.8-0.4,6.8-1.3c2-0.9,3.7-2.1,5.1-3.7c1.4-1.6,2.5-3.4,3.3-5.4
	c0.8-2.1,1.1-4.3,1.1-6.7v-27.6h-1.8v27.6c0,2.2-0.3,4.2-1,6.1c-0.7,1.9-1.6,3.5-2.9,4.9c-1.2,1.4-2.8,2.5-4.6,3.3
	c-1.8,0.8-3.8,1.2-6.1,1.2s-4.3-0.4-6.1-1.2c-1.8-0.8-3.3-1.9-4.6-3.3c-1.2-1.4-2.2-3.1-2.9-5c-0.7-1.9-1-4-1-6.1v-27.6L196.7,777.1
	L196.7,777.1z M252.9,777.1v44.3h1.7v-44.3H252.9z M157.7,777.1v44.3h23.7v-1.5h-21.9v-42.8L157.7,777.1L157.7,777.1z"/>
<path d="M292.5,827.8c-2.8,0-5,0.7-6.5,2.2c-1.5,1.4-2.3,3.5-2.3,6.3s0.8,4.9,2.3,6.3c1.5,1.4,3.7,2.1,6.5,2.1s5-0.7,6.5-2.2
	s2.3-3.5,2.3-6.3s-0.8-4.9-2.3-6.3S295.4,827.8,292.5,827.8z M211.7,828v10.7c0,0.7-0.1,1.3-0.4,1.6c-0.3,0.3-0.7,0.5-1.3,0.5
	s-1-0.2-1.3-0.5c-0.3-0.3-0.4-0.8-0.4-1.6v-0.2h-4.9v0.2c0,0.6,0.1,1.2,0.2,1.8h-8.8V838h7.6v-3.8h-7.6V832h8.9v-3.9h-14.2v16.4
	h14.3v-3.1c0.3,0.8,0.7,1.4,1.3,1.9c1.2,1,2.9,1.5,5,1.5s3.9-0.5,5-1.5c1.2-1,1.8-2.5,1.8-4.5V828L211.7,828L211.7,828z M163.7,828
	l-6,16.4h5.4l0.7-2.3h5.7l0.7,2.3h19.1v-4.2h-8.4v-12.2h-5.3v16l-5.9-16.1L163.7,828L163.7,828z M222.2,828l-6,16.4h5.4l0.7-2.3h5.7
	l0.7,2.3H239v-7.9l6.9,7.9h4.6V828h-4.8v8.1l-6.9-8.1h-4.6v16.1l-5.9-16.1H222.2L222.2,828z M252,828v16.4h7.1
	c5.7,0,8.6-2.7,8.6-8.2c0-5.5-2.9-8.2-8.6-8.2L252,828L252,828z M268.4,828v16.4h5.3v-6h2l2.9,6h5.9l-3.6-6.9c1-0.4,1.8-1,2.4-1.8
	c0.5-0.8,0.8-1.7,0.8-2.7c0-0.9-0.2-1.7-0.6-2.5c-0.4-0.8-1-1.4-1.9-1.8c-0.8-0.5-1.8-0.7-3-0.7L268.4,828L268.4,828z M292.5,831.7
	c1.1,0,2,0.3,2.6,1c0.6,0.7,0.9,1.6,0.9,2.8v1.5c0,1.2-0.3,2.1-0.9,2.8c-0.6,0.7-1.4,1-2.6,1s-2-0.3-2.6-1c-0.6-0.7-0.9-1.6-0.9-2.8
	v-1.5c0-1.2,0.3-2.1,0.9-2.8C290.5,832,291.4,831.7,292.5,831.7z M273.7,831.8h3.5c0.4,0,0.8,0.1,1,0.4c0.3,0.3,0.4,0.6,0.4,1.1
	c0,0.4-0.1,0.8-0.4,1.1c-0.3,0.3-0.6,0.4-1,0.4h-3.5V831.8z M257.2,832h1.7c2.2,0,3.3,1.2,3.3,3.5v1.4c0,2.4-1.1,3.5-3.3,3.5h-1.7
	V832L257.2,832z M166.6,832.6L166.6,832.6l1.8,5.8h-3.5L166.6,832.6z M225.2,832.6L225.2,832.6l1.8,5.8h-3.5L225.2,832.6
	L225.2,832.6z"/>
<path d="M601.2,553.3c-1.6,0-3.7,0.7-4.6,1.7c-3.3,3.5-5.4,18.8-7,51.7l-1.5,31l-7.8,6.1c-13.6,10.8-18.9,12.9-18.7,7.5
	c0-1.6-0.8-4.1-1.9-5.5c-1.1-1.4-1.9-3-1.9-3.4c0-1.6-4.3-5.6-6.2-5.7c-3.4-0.1-7.8,3.1-10.3,7.5c-2.3,4-2.3,4.5-1,7.1
	c0.8,1.6,3.9,4.2,7.2,6c6.4,3.5,6.3,4.4-0.8,7c-3.8,1.4-3.9,1.4-7.3-1.8c-3.2-3-3.4-3.6-3.2-9c0.1-4.2,0.9-7.2,2.9-10.7
	c1.5-2.7,2.7-5.7,2.7-6.6c0-0.9,0.5-2,1.1-2.3c1.3-0.7,1.5-4.5,0.2-4.5c-0.5,0-3.1,3-5.7,6.7c-5.4,7.5-15.1,18-16.6,18
	c-0.6,0-0.7-2.1-0.3-5.3c0.8-6.1,0.7-5.7,4.6-17c3.4-9.9,6.1-25.7,6.8-40.2c0.5-10.8-0.6-30.3-2.1-34.5c-2.1-6-5.7-3.7-8,5
	c-2,7.8-5.1,31.8-6.7,51.7c-1.3,16.7-1.7,19.3-3.5,21.1c-2.3,2.4-5.1,13.5-4.4,17.5c0.6,3.3-2.7,7.1-8.2,9.6c-2.5,1.1-5,1.4-7.4,1
	v5.1c5.1,0.7,9.2-0.9,13.7-5.1c3.4-3.2,4.9-4,5.8-3.2c0.9,0.8,1.3,7.2,1.5,21c0.3,21.1,0.2,22.8-1,34.4c-0.4,4.1-0.4,8.5,0.1,9.9
	l0,0c1,2.9,3.5,3.3,4.4,0.8c0.3-1,0.9-4,1.4-6.8c0.4-2.8,1.6-8.8,2.5-13.5c2-10.2,2.4-19.3,1.3-33.7l-0.8-10.8l10.2-10.1l0.6,5.4
	c0.9,7.9,6.4,13.2,13.8,13.5c2.7,0.1,4.6-0.9,9-4.8c3.3-2.9,7.5-5.5,10.3-6.3c2.9-0.9,8.3-4.2,13.9-8.7c5.1-4,9.5-7.3,9.8-7.3
	s0.6,0.6,0.6,1.3c0,0.7,0.4,8.7,0.8,17.7c0.7,14.2,1.1,16.5,2.5,16.5c3.1,0.1,4-6.1,2.5-17.6c-1-7.9-1.2-21.7-0.4-24.5
	c0.4-1.2,1.7-3.3,3-4.7c3.4-3.7,7.3-11.3,9.6-18.6c1.5-5,2.1-10.6,2.6-25.1C610.4,561.6,608.5,553.5,601.2,553.3z"/>
<path class="st7" d="M518.2,682.7c-0.6-4.6-0.7-4.8-0.9-1.3c-0.2,3.5,0.5,7.4,1.3,6.7C518.7,687.9,518.6,685.5,518.2,682.7
	L518.2,682.7z"/>
<path class="st7" d="M557.3,652.3c0.4-2-1.6-6.3-4.3-9.3c-2.1-2.4-6.5-0.3-8,3.8c-1.4,3.6-1.4,3.6,2.3,5.3
	C554.3,655.4,556.8,655.5,557.3,652.3L557.3,652.3z"/>
<path class="st7" d="M513.2,644.9c0.1-2.8-0.2-3.4-0.9-2.2c-1.4,2-1.5,7.3-0.2,6.6C512.7,648.8,513.2,646.9,513.2,644.9L513.2,644.9
	z"/>
<path class="st7" d="M521.7,633c4.2-13.3,5-19.1,5.7-41.6c0.4-13,0.3-24.1-0.3-25.8l-0.9-3.1l-0.7,3.5c-1.4,6.9-6.3,52.1-6.6,61.3
	C518.5,637.2,519.6,639.4,521.7,633L521.7,633z"/>
<path class="st7" d="M598.4,625.5c4.2-6.6,5.7-12.2,7.4-27.1c1.2-10.1,1.3-15.7,0.6-22.4c-1.7-17.1-3.6-21.1-7-14.9
	c-1.7,3.1-4.2,20.9-5,35.5c-1,17.6-0.9,34.5,0.2,33.9C595.2,630.1,596.9,627.9,598.4,625.5L598.4,625.5z"/>
<path d="M481.2,691.2c-1-0.6-1.2-6.8-0.9-25c0.2-13.3,0.3-24.5,0.3-25c0-0.4-1.5,0.8-3.3,2.7s-5.1,4.4-7.2,5.4
	c-4.7,2.2-13,2.2-17.1-0.1c-1.6-0.9-3.1-1.3-3.3-0.9c-0.6,1-4.1,18.4-5,25.6c-0.8,5.8-2.7,8.6-4.8,7.2c-1.3-0.9-0.8-5.3,2-18.6
	c1-4.7,2.2-12.3,2.7-17l0.9-8.5l-3.2,0.5c-5.3,0.9-11.1,5.9-11.9,10.2c-2.1,11.3-8.9,25-14.7,29.3c-5.3,4-10.4,4.8-13.6,2.2
	c-3.5-2.9-5.6-11.8-4.7-19.9c0.7-5.9,0.5-6.5-2.1-9.5c-5.2-5.8-2.5-15.4,6.5-22.9c5.8-4.8,7.3-5.3,13.4-4.3c4.6,0.7,6.3,1.6,9.8,5.1
	c3.1,3.1,4.4,5.3,4.8,8.1l0.5,3.8l4.6-3.3c5-3.6,11.6-5.8,14.1-4.7c1.1,0.5,1.5,2,1.4,5.2c-0.2,6.1,1.9,8.2,9.2,9.4
	c5,0.8,6.2,0.6,10.2-1.6c5.2-2.9,9.6-7.5,10.7-11.2c0.4-1.4,0.4-9.5,0-17.9c-0.4-8.4-0.5-20.4-0.3-26.7c0.2-6.3,0.3-11.6,0.1-11.8
	c-0.2-0.2-4.2-0.1-8.9,0.2c-9.1,0.5-13.1-0.4-13.1-2.9c0.1-1.9,1.1-2.3,7.7-2.7c14.9-1,15.5-1.1,16.2-4.4c1-6.7,5.2-25.4,10.8-25.7
	c2.3,0.1,2.6,2.4,2.2,15.4l-0.4,12.1l3.8-0.4c2.1-0.2,10.9-0.8,19.5-1.1c18.1-0.8,15.8-0.7,20.2-0.4c3.1,0.2,3.3,0.4,1.7,1.5
	c-1.8,1.3-11.5,2.8-33.6,5.3l-11.9,1.3l-0.2,6.7c-0.6,16.9-3.4,35.3-7.2,45.8c-1.4,4-1.8,9.7-2.2,34.2c-0.3,19.1-0.9,29.5-1.5,29.7
	C483,691.9,481.9,691.7,481.2,691.2L481.2,691.2z"/>
<path class="st7" d="M420.1,665c1.3-2.4,3-6.6,3.8-9.3c1.4-4.8,1.4-4.9-0.7-4.3c-1.2,0.3-3.5,1.2-5,2c-1.6,0.7-5.7,1.4-9.1,1.5
	l-6.3,0.1l-0.3,9c-0.2,6.6,0.1,9.5,1.2,10.8C409.3,680.6,417.5,669.6,420.1,665L420.1,665z"/>
<path class="st7" d="M416.2,649c7.5-2.9,9.6-4.9,9.8-9.2c0.2-5.6-3.8-10.1-9.4-10.9c-3.9-0.5-4.2-0.3-4.9,2.2
	c-0.4,1.5-1.9,5.5-3.4,8.9c-3.7,8.7-3.6,10.3,0.6,10.5C410.7,650.4,414,649.8,416.2,649L416.2,649z"/>
<path class="st7" d="M400.8,645.3c0.3-1,1.6-4.1,2.8-6.9c1.8-4.3,1.9-5.3,0.7-5.8c-2.8,0.8-7.5,10.2-7.2,11.9
	C397.7,647.4,399.9,647.9,400.8,645.3L400.8,645.3z"/>
<path class="st7" d="M488.5,608.8c0.8-5,1.5-14.4,1.7-20.9c0.3-10.9,0.2-11.9-1.5-11.9c-1.3,0-2.1,0.9-2.6,3.1
	c-1.6,6.9-1.4,41.2,0.2,39.6C486.8,618.2,487.7,613.8,488.5,608.8L488.5,608.8z"/>
<path class="st7" d="M491,561.1l0.2-8.8l-2.1,5c-1.2,2.7-2.2,6.7-2.2,8.8c-0.1,3.1,0.2,3.8,1.9,3.9
	C490.7,569.9,490.8,569.3,491,561.1L491,561.1z"/>
<path d="M336.1,678.2c-0.4-0.7-0.6-11.5-0.4-23.9l0.3-22.6l-3.4-1.5c-2.3-1-3.4-2.2-3.3-3.6c0.1-1.8,0.5-2,3.5-1.3l3.4,0.7l2-39.7
	c1.9-38.6,1.9-40.2,0.1-53.7c-1.4-10.6-1.6-14.3-0.7-15.1c0.9-0.9,1.6-0.7,3,0.6c1,1,2.5,1.8,3.4,1.8c0.8,0,6.9,2.9,13.4,6.3
	c6.5,3.5,13,6.7,14.4,7.1c4,1.4,13.1,8,17.5,12.9c5.4,6,8.1,13.8,8.4,24.8c-0.2,20.9-0.6,40.9-23,58.3c-4.3,2-9.7,4.9-21,4.3
	l-12.5-0.7l-0.1,19.5c-0.1,12.7,0.3,20.4,1.1,21.9c1,2,0.9,2.6-0.7,3.7C338.8,679.9,337,679.9,336.1,678.2L336.1,678.2z"/>
<path class="st7" d="M392.2,584.4c2.1-17.2-1-30.1-8.8-37c-1.9-1.6-8.1-5.4-13.9-8.4c-5.8-3-14.5-7.6-19.2-10.3
	c-5.4-3-8.7-4.3-8.7-3.5c4.9,32.5,1.8,57.8,0.8,87.8l-0.4,14.7l5.5,1.3C379.4,631.2,389.7,604.9,392.2,584.4L392.2,584.4z"/>
<path d="M618,670.4c-4.4-2.4-5.6-6.1-4.5-14.3c0.5-3.7,1.2-8.1,1.5-9.7c0.5-2.4,0.4-2.8-1-2.3c-2.3,0.8-2-1.6,0.4-4.4
	c2.2-2.5,5-3.2,5.5-1.4c0.2,0.6-0.2,6.6-0.8,13.3c-1.1,10.8-1,12.2,0.5,13.4c2.6,2.1,5.7,1.7,9.7-1.2c4.4-3.2,9.1-9.6,9.2-12.6
	c0.1-2.2,2.8-6.5,4-6.5c2.9,0.2,3.1,1.9,0.9,7.9c-3.1,8.2-2.7,11,1.8,13.8c3.2,2,3.9,2.1,7,0.9c4.4-1.7,10-6.2,11.9-9.8
	c3-5.4,2-13.5-2.4-18.9c-3.8-4.7-10.6-2.5-20.1,6.3c-4.1,3.8-7.5,6.7-7.7,6.5c-0.6-0.7,3.7-8.3,6.1-10.8c7.4-7.7,16.6-11,22.1-8
	c3.5,2,8.4,11.7,8.7,17.4c0.5,11.1-15.5,25.6-25.2,22.9c-2.7-0.8-8.6-6.4-8.5-8.2c0-0.7-1.7,0.4-3.9,2.4c-3.7,3.4-8.2,5.7-10.9,5.4
	C621.7,672.2,619.7,671.3,618,670.4L618,670.4z"/>
<path d="M619,628c-2.6-1-3.9-3.7-3.8-7.6c0.1-2.1-0.4-4-1.1-4.2c-2.9-1.1,6.4-11.2,11.1-12.2c4.2-0.9,5.5-0.5,8.1,2.3
	c5.2,5.5,5.5,8.9,1.2,14.7C629.8,627.6,624.3,630.1,619,628L619,628z"/>
<path class="st7" d="M628,621.8c1.2-0.7,3.1-2.8,4.1-4.6c1.9-3.2,1.9-3.2-1-6.4c-1.6-1.7-3.2-3.2-3.7-3.2c-0.5,0-1.6,1.5-2.6,3.5
	s-2.1,3.5-2.5,3.5c-1.2,0-3.4,5.8-2.8,7.5C620.1,623.9,624.6,623.8,628,621.8L628,621.8z"/>
</svg>
