<?xml version="1.0" encoding="UTF-8" standalone="no"?>
<svg
   id="Layer_1"
   data-name="Layer 1"
   viewBox="0 0 750 420"
   version="1.1"
   sodipodi:docname="wheeltheworld-why.svg"
   inkscape:version="1.2.1 (9c6d41e, 2022-07-14)"
   xmlns:inkscape="http://www.inkscape.org/namespaces/inkscape"
   xmlns:sodipodi="http://sodipodi.sourceforge.net/DTD/sodipodi-0.dtd"
   xmlns="http://www.w3.org/2000/svg"
   xmlns:svg="http://www.w3.org/2000/svg">
  <sodipodi:namedview
     id="namedview4683"
     pagecolor="#ffffff"
     bordercolor="#000000"
     borderopacity="0.25"
     inkscape:showpageshadow="2"
     inkscape:pageopacity="0.0"
     inkscape:pagecheckerboard="0"
     inkscape:deskcolor="#d1d1d1"
     showgrid="false"
     inkscape:zoom="1.6613333"
     inkscape:cx="399.37802"
     inkscape:cy="150.18058"
     inkscape:window-width="2004"
     inkscape:window-height="1387"
     inkscape:window-x="0"
     inkscape:window-y="25"
     inkscape:window-maximized="0"
     inkscape:current-layer="Layer_1" />
  <defs
     id="defs4318" />
  <g
     id="why-rocket"
     transform="translate(10.834662,-5.2226857)">
    <path
       class="cls-2"
       d="m 643.38391,89.47421 c -2.13145,-22.723248 -2.01833,-25.21846 5.26468,-43.796789 l -19.82412,5.009378 c 16.65573,36.419936 10.36392,85.283141 8.07662,125.231171 -2.35209,40.90761 1.39272,109.63265 -23.26936,141.09834 27.48761,-9.33097 35.52371,5.52744 64.5095,6.09664 -27.88544,-60.14737 -29.50937,-177.0572 -34.75732,-233.63874 z"
       id="path4324"
       style="fill:#cbd6e2" />
    <path
       class="cls-2"
       d="m 674.95502,399.05037 c -9.05636,21.28712 -30.15083,17.77852 -44.82744,12.69964 -16.19912,-5.60575 -33.57554,-27.93261 -30.23109,-41.60053 -9.09787,-2.27266 -26.63813,-18.52284 -11.43478,-37.44901 -5.79992,-5.70364 -5.53978,-20.21947 -3.40925,-24.88645 8.23067,-18.02952 36.08478,-11.552 44.17734,-3.9982 l 0.5167,0.52726 c 6.26529,-7.09878 18.75382,-7.30242 25.23505,-0.40063 6.24289,-14.17336 26.28247,-14.36901 32.80089,-0.32024 11.70682,1.01608 21.55539,9.18745 24.71456,20.50566 3.15915,11.31822 -1.03385,23.40888 -10.52217,30.34099 4.96874,17.79614 -11.87551,48.27267 -26.3872,44.09716"
       id="path4326"
       sodipodi:nodetypes="caccsccccscc"
       style="fill:#cbd6e2" />
    <path
       class="st14"
       d="m 653.15149,100.18951 -27.00317,9.60404 c -5.91777,6.20275 -1.80894,14.82746 3.29419,18.11675 -4.77776,2.35049 -6.75021,8.13331 -4.39973,12.91106 1.38514,2.81685 4.04382,4.78009 7.14468,5.26255 -2.54249,4.2866 -1.14027,9.81834 3.14634,12.36083 0.0612,0.0393 0.11589,0.0712 0.18464,0.10397 4.33086,2.18396 10.34279,-0.18656 11.99382,-4.71455 1.11388,-3.00368 0.53976,-6.53373 2.12081,-9.30903 1.49212,-2.60386 4.44557,-3.90938 6.89561,-5.65109 6.02853,-4.39592 8.76391,-12.46093 7.73527,-19.8393 -1.04365,-7.36516 -5.42703,-14.0306 -11.11246,-18.84523 z"
       id="path170"
       style="fill:#cbd6e2" />
    <path
       class="st3"
       d="m 636.00361,106.49349 c -1.00839,2.68451 -1.48201,5.53797 -1.3827,8.40693 0.0371,1.07234 0.94735,1.91014 2.01967,1.87267 0.618,-0.0242 1.19106,-0.34162 1.53596,-0.85798 v 0 c -0.0835,3.5091 0.0738,7.01949 0.45221,10.50864 0.14248,1.31289 1.32828,2.26761 2.64779,2.13264 0.7063,-0.0751 1.34033,-0.45957 1.7321,-1.0438 4.95245,-7.39132 7.05632,-16.32589 5.90747,-25.14327 z"
       id="path172"
       style="fill:#d16a6a;fill-opacity:1" />
    <path
       d="m 637.85022,109.5171 c -0.19924,0.45486 -0.30151,0.94429 -0.30498,1.44006 -0.011,0.50238 0.29305,0.95411 0.75451,1.16087 0.67887,0.24196 1.47603,-0.36584 2.15218,-0.0815 0.67615,0.2843 0.73887,1.29449 0.6335,2.05298 l -0.33265,2.42318 c -0.0879,0.59664 -0.10016,1.33983 0.41802,1.65652 0.51819,0.31669 1.28378,-0.13012 1.76321,-0.64501 2.09951,-2.35231 2.89487,-5.58189 2.14881,-8.64117 z"
       id="path174"
       style="opacity:0.3" />
    <path
       class="st3"
       d="m 662.52655,73.568226 c 0,0 0.0594,0.06761 0.11884,0.135205 8.59994,6.765982 13.6631,17.081625 13.76172,28.021059 l 0.0697,6.86334 -13.72854,-9.32708 z"
       id="path178"
       style="fill:#d16a6a;fill-opacity:1" />
    <path
       class="st8"
       d="m 662.52655,73.568226 0.0125,0.135435 -0.003,0.375357 0.0524,1.392142 0.0771,5.312073 c 0.0564,4.531328 0.13436,10.934637 0.2537,18.460135 l -0.0594,-0.06761 c 3.84936,2.620722 8.0794,5.492602 12.51297,8.505092 0.41369,0.28871 0.8283,0.56332 1.21557,0.822 l -0.13532,0.11868 -0.0523,-4.04216 c -0.006,-1.33958 0.007,-2.6425 -0.0671,-3.92265 -0.0973,-2.457871 -0.43733,-4.888804 -1.02086,-7.278665 -0.52837,-2.145423 -1.25793,-4.247074 -2.18482,-6.2551 -0.40596,-0.961356 -0.90954,-1.836858 -1.35757,-2.694632 -0.44803,-0.857768 -0.94293,-1.647685 -1.46398,-2.361343 -1.54386,-2.331047 -3.36195,-4.474214 -5.40805,-6.376926 -0.70632,-0.697203 -1.32085,-1.168865 -1.70359,-1.498105 -0.38275,-0.329247 -0.51664,-0.45121 -0.6043,-0.520604 -0.0876,-0.06939 0.0397,0.04505 0.1555,0.116257 0.11589,0.0712 0.26299,0.208192 0.47223,0.370421 0.40347,0.337657 1.0123,0.787698 1.72613,1.478294 2.07522,1.890412 3.91493,4.027875 5.47292,6.359829 0.51354,0.720261 0.9784,1.536602 1.47809,2.362259 0.49969,0.825657 0.95821,1.740779 1.37828,2.703042 0.94009,2.02304 1.68287,4.139713 2.22354,6.314263 0.60425,2.398286 0.95653,4.858349 1.05298,7.33033 0.0728,1.29426 0.0534,2.58967 0.0812,3.92356 l 0.0523,4.04216 0.009,0.19188 -0.16301,-0.10966 c -0.37978,-0.26528 -0.80098,-0.54739 -1.21557,-0.822 l -12.50456,-8.525798 -0.0264,-0.03004 v 0 l -0.15607,-18.54598 9.2e-4,-5.314149 -0.0328,-1.369604 0.009,-0.353739 z"
       id="path180"
       style="fill:#263238" />
    <path
       class="st3"
       d="m 623.61724,73.933779 -0.14296,0.125147 c -8.33948,6.840935 -13.13617,17.104834 -13.02757,27.889024 l 0.0985,6.74475 13.36206,-9.473311 z"
       id="path182"
       style="fill:#d16a6a;fill-opacity:1" />
    <path
       class="st8"
       d="m 623.61724,73.933779 -8.5e-4,0.120396 0.0131,0.348033 0.0256,1.362117 0.0769,5.205772 0.23724,18.274852 v 0 l -0.03,0.02641 -12.16844,8.650031 -1.18041,0.8383 -0.14295,0.12514 -0.009,-0.19188 -0.0193,-4.00462 c 0.007,-1.32455 -0.0525,-2.60379 -0.0134,-3.87669 0.0504,-2.441303 0.35482,-4.866301 0.89735,-7.247678 0.49231,-2.15077 1.17948,-4.246529 2.08133,-6.264743 0.39461,-0.959569 0.86936,-1.843148 1.29246,-2.694616 0.4231,-0.851461 0.89811,-1.628737 1.39385,-2.397596 1.49562,-2.327301 3.26924,-4.459618 5.27671,-6.371442 0.68878,-0.685633 1.31417,-1.155612 1.68209,-1.479244 l 0.44308,-0.389591 0.14993,-0.132375 -0.59327,0.521661 c -0.3831,0.336642 -0.95369,0.838675 -1.64907,1.516798 -1.98675,1.920241 -3.73304,4.068493 -5.21455,6.396687 -0.52216,0.738824 -0.95754,1.561164 -1.39385,2.397596 -0.44292,0.828936 -0.89694,1.720932 -1.28494,2.68802 -0.88023,2.012519 -1.56651,4.094147 -2.04379,6.231725 -0.53503,2.374775 -0.83194,4.793168 -0.88143,7.220358 -0.0532,1.27199 0.006,2.55122 0.007,3.86919 l 0.0193,4.0046 -0.17143,-0.0889 1.19453,-0.83737 12.17414,-8.628415 -0.0603,0.0525 -0.13611,-18.084143 -0.0252,-5.237881 c -0.003,-0.609586 -0.008,-1.084638 -0.009,-1.403536 l 0.009,-0.367852 c 0.0421,-0.103587 0.0448,-0.1459 0.0523,-0.152519 z"
       id="path184"
       style="fill:#263238;fill-opacity:1" />
    <path
       class="st14"
       d="m 642.43111,6.5595247 c -3.08364,0.021751 -8.67232,8.0524683 -13.83944,21.4386073 -3.03499,7.875745 -4.79331,16.173526 -5.21362,24.599692 l 0.56073,57.287746 15.06536,-0.13144 8.75605,-0.0829 15.06537,-0.13144 -0.4349,-52.071751 c -0.0502,-5.069436 -0.58297,-10.127326 -1.60282,-15.10311 -0.99733,-4.995583 -2.38297,-9.902721 -4.16712,-14.672478 C 651.55199,14.372186 645.48743,6.5218313 642.40288,6.5577121"
       id="path186"
       style="fill:#cbd6e2" />
    <path
       id="line188"
       style="fill:none"
       class="st35"
       d="m 623.87285,100.75506 38.54276,-0.61581" />
    <path
       class="st8"
       d="m 662.4156,100.13924 c -0.004,0.0564 -8.63148,0.23966 -19.27064,0.40717 -10.63919,0.16748 -19.26821,0.25852 -19.27211,0.20866 0.004,-0.0564 8.63241,-0.25377 19.26407,-0.41466 10.62415,-0.15429 19.27479,-0.25102 19.27868,-0.20116 z"
       id="path190"
       style="fill:#263238" />
    <path
       id="line192"
       style="fill:none"
       class="st35"
       d="m 623.71912,102.48824 38.52773,-0.6026" />
    <path
       class="st8"
       d="m 662.24685,101.88565 c 0,0 -8.61738,0.24057 -19.26316,0.40055 -10.64576,0.15999 -19.2682,0.25851 -19.27208,0.20867 0.004,-0.0564 8.62487,-0.24717 19.27065,-0.40716 10.64578,-0.15999 19.27572,-0.26512 19.26459,-0.20206 z"
       id="path194"
       style="fill:#263238" />
    <path
       id="line196"
       style="fill:none"
       class="st35"
       d="m 623.76505,104.31219 38.54182,-0.60169" />
    <path
       class="st8"
       d="m 662.30687,103.71051 c -0.03,0.0264 -8.63149,0.23964 -19.27065,0.40715 -10.63918,0.1675 -19.27481,0.25101 -19.27869,0.20116 0.004,-0.0564 8.63148,-0.23966 19.27065,-0.40716 10.63917,-0.1675 19.2748,-0.25101 19.27869,-0.20115 z"
       id="path198"
       style="fill:#263238" />
    <path
       id="line200"
       style="fill:none"
       class="st35"
       d="m 623.81005,106.15028 38.54184,-0.60172" />
    <path
       class="st8"
       d="m 662.35189,105.54857 c 0,0 -8.62489,0.24715 -19.27066,0.40716 -10.64577,0.15999 -19.2682,0.25851 -19.2721,0.20866 -0.004,-0.0498 8.6249,-0.24716 19.27066,-0.40715 10.64668,-0.1741 19.26912,-0.27263 19.2721,-0.20867 z"
       id="path202"
       style="fill:#263238" />
    <path
       id="line204"
       style="fill:none"
       class="st35"
       d="m 623.87007,107.97511 38.53433,-0.5951" />
    <path
       class="st8"
       d="m 662.4044,107.38002 c 0.0264,0.03 -8.63149,0.23962 -19.27065,0.40713 -10.63917,0.1675 -19.27481,0.251 -19.27119,0.19454 0.004,-0.0564 8.62399,-0.23262 19.26314,-0.40055 10.63917,-0.16751 19.26821,-0.25851 19.27869,-0.20116 z"
       id="path206"
       style="fill:#263238" />
    <path
       class="st8"
       d="m 643.16136,73.792169 0.0468,0.265171 c 0.024,0.178679 0.0283,0.441131 0.0499,0.768445 0.0346,0.675358 0.0568,1.654592 0.0788,2.86054 0.0445,2.397792 0.0914,5.752304 0.0845,9.393856 5.6e-4,3.634956 -0.0183,7.020671 -0.0717,9.398014 l -0.0343,2.853297 -0.0282,0.770518 c 10e-4,0.0922 -0.004,0.17688 -0.0172,0.26815 -0.0152,-0.0931 -0.0164,-0.18528 -0.0177,-0.27747 l -0.0142,-0.773235 -0.0287,-2.864422 -0.005,-9.410044 0.002,-9.41665 -0.008,-2.856019 c -0.0137,-0.333935 -0.0108,-0.602984 -0.0208,-0.780753 -0.0257,-0.150449 -0.0296,-0.200297 -0.0155,-0.199405 z"
       id="path208"
       style="fill:#263238" />
    <path
       class="st8"
       d="m 662.52655,73.568226 c 0.0264,0.03004 -8.64288,0.196406 -19.29253,0.30656 -10.64967,0.110136 -19.30421,0.157002 -19.30719,0.09303 0.004,-0.05644 8.64197,-0.182298 19.29915,-0.299035 10.66467,-0.123357 19.31921,-0.170216 19.30057,-0.100559 z"
       id="path210"
       style="fill:#263238" />
    <path
       class="st8"
       d="m 646.45741,92.653037 c 0.0478,-0.08195 0.12288,-0.147983 0.21792,-0.191334 0.24808,-0.111621 0.53305,-0.13585 0.79848,-0.0763 0.41226,0.09023 0.74698,0.395138 0.86275,0.799359 0.22739,0.652296 -0.1302,1.366252 -0.7825,1.593645 -0.35527,0.126003 -0.74202,0.07992 -1.06236,-0.117776 -0.36928,-0.207923 -0.59226,-0.597772 -0.58581,-1.029581 -0.003,-0.276571 0.0843,-0.540175 0.2399,-0.756929 0.0478,-0.08195 0.12288,-0.147984 0.21792,-0.191334 -0.0478,0.08195 -0.0956,0.163896 -0.1499,0.238411 -0.1274,0.218553 -0.18603,0.469879 -0.16661,0.719121 0.0125,0.362141 0.21808,0.687128 0.53272,0.86321 0.50497,0.301658 1.15934,0.152339 1.46852,-0.359237 0.16585,-0.265701 0.2017,-0.603503 0.1003,-0.900531 -0.0978,-0.353469 -0.37125,-0.619017 -0.72614,-0.719735 -0.23631,-0.07185 -0.49125,-0.07404 -0.73,0.0028 -0.124,0.05585 -0.22826,0.134154 -0.23487,0.126643 z"
       id="path212"
       style="fill:#263238" />
    <path
       class="st8"
       d="m 646.55882,81.577644 c 0.0478,-0.08195 0.12288,-0.147983 0.21792,-0.191333 0.24808,-0.111621 0.52554,-0.12924 0.79098,-0.06969 0.41225,0.09022 0.74697,0.395131 0.86274,0.799352 0.22739,0.652297 -0.13019,1.36626 -0.7825,1.593644 -0.35527,0.126012 -0.74202,0.07992 -1.06236,-0.117775 -0.36929,-0.207923 -0.59226,-0.597772 -0.58581,-1.029581 -0.003,-0.276571 0.0843,-0.540176 0.2399,-0.756929 0.14295,-0.125147 0.22554,-0.197799 0.21792,-0.191334 -0.008,0.0066 -0.075,0.06618 -0.1499,0.23841 -0.11991,0.211935 -0.18513,0.455766 -0.1657,0.705016 0.0125,0.36214 0.21056,0.693724 0.5318,0.877309 0.51158,0.309168 1.17437,0.139131 1.48353,-0.372445 0.15925,-0.273204 0.2008,-0.589396 0.0994,-0.886409 -0.10531,-0.346865 -0.38536,-0.619925 -0.73366,-0.713131 -0.2363,-0.07185 -0.49123,-0.07404 -0.72247,-0.0039 -0.15317,0.06812 -0.23487,0.126642 -0.24148,0.119131 z"
       id="path214"
       style="fill:#263238" />
    <path
       d="m 623.84116,98.599001 c 0,0 0.22314,-16.615614 -0.23894,-24.652015 -1.56883,3.909779 -3.32164,8.36751 -3.65369,12.547975 -0.25254,4.376879 1.13539,8.696054 3.89263,12.10404 z"
       id="path216"
       style="opacity:0.3" />
    <path
       class="st3"
       d="m 644.75321,133.00961 c -0.88223,0.82908 -0.92204,2.22241 -0.0996,3.09711 0.82908,0.88223 2.2224,0.92204 3.09711,0.0996 0.88223,-0.82909 0.92204,-2.2224 0.0996,-3.0971 -0.78947,-0.83718 -2.09448,-0.92802 -2.99198,-0.19202"
       id="path220"
       style="fill:#d16a6a;fill-opacity:1" />
    <path
       id="ellipse222"
       style="fill:#ffffff;stroke-width:1.00004"
       class="st2"
       d="m 644.65564,35.056298 a 10.510469,10.510469 0 0 1 8.54457,12.162664 10.510469,10.510469 0 0 1 -12.16266,8.544563 10.510469,10.510469 0 0 1 -8.54457,-12.162664 10.510469,10.510469 0 0 1 12.16266,-8.544563 z" />
    <path
       class="st8"
       d="m 651.56644,39.541217 c -0.55289,-0.659019 -1.14334,-1.285016 -1.77884,-1.871391 -1.77806,-1.552487 -4.02298,-2.454716 -6.37508,-2.570235 -1.60319,-0.08164 -3.20922,0.212094 -4.68925,0.861103 -1.68486,0.749228 -3.13536,1.931547 -4.21629,3.428105 -0.58973,0.798255 -1.05038,1.68274 -1.366,2.626128 -0.34566,0.969801 -0.53879,1.991909 -0.57009,3.031482 -0.1676,4.48861 2.59693,8.556032 6.82262,10.06011 1.9189,0.682913 3.99534,0.78783 5.97619,0.284332 3.39952,-0.858855 6.13268,-3.368897 7.2665,-6.683054 0.75929,-2.225752 0.75142,-4.642456 -0.0208,-6.853122 -0.30962,-0.80637 -0.6709,-1.580635 -1.08292,-2.336889 0.1453,0.165182 0.28214,0.351122 0.38988,0.549353 0.15576,0.222569 0.28901,0.464937 0.40723,0.720523 0.17766,0.323168 0.33279,0.666149 0.4663,1.014829 1.47246,3.885296 0.52475,8.274243 -2.41246,11.203413 -1.34844,1.358929 -3.04029,2.327366 -4.89891,2.803281 -0.99463,0.262109 -2.02255,0.38037 -3.04802,0.349986 -1.08192,-0.03401 -2.14636,-0.229862 -3.1567,-0.606466 -4.42806,-1.552494 -7.32195,-5.812441 -7.12756,-10.497727 0.0265,-1.075311 0.22986,-2.146365 0.60646,-3.156695 0.33907,-0.977311 0.82315,-1.895715 1.43631,-2.727894 1.12691,-1.550286 2.64977,-2.756311 4.40701,-3.529241 1.52987,-0.652898 3.18575,-0.950504 4.85109,-0.843636 2.40674,0.147369 4.69038,1.108768 6.46301,2.745939 0.28188,0.244832 0.54124,0.509471 0.77807,0.793923 0.1933,0.189545 0.37162,0.3923 0.54149,0.615767 0.13027,0.178418 0.2446,0.384153 0.33071,0.588076 z"
       id="path224"
       style="fill:#263238" />
    <path
       class="st3"
       d="m 642.43111,6.5595247 c -3.08364,0.021751 -8.67232,8.0524683 -13.83944,21.4386073 L 656.6114,27.727315 C 651.54267,14.407015 645.47811,6.5566665 642.39356,6.5925411"
       id="path226"
       style="fill:#d16a6a;fill-opacity:1" />
    <path
       class="st8"
       d="m 642.43111,6.5595247 c 0,0 0.17686,0.00426 0.5429,0.04192 0.51494,0.1464197 1.00373,0.3691016 1.44474,0.6737427 1.63433,1.2527497 3.05385,2.7609716 4.20486,4.4786956 3.14157,4.375047 6.80144,11.383762 9.80561,20.660317 1.60056,5.090985 2.76777,10.310043 3.49775,15.607338 0.37613,2.971752 0.58861,5.954262 0.63742,8.947516 l 0.10362,9.536804 0.43112,42.966492 -7e-5,0.22671 -0.22671,-7e-5 -19.44054,0.18368 -19.47628,0.18847 -0.22012,0.007 -0.006,-0.23422 -0.41132,-42.943965 -0.0829,-9.528386 -0.048,-4.552039 c 0.0263,-1.514634 0.15537,-2.973074 0.31831,-4.408083 0.5955,-5.30433 1.68974,-10.541233 3.26409,-15.641043 1.35091,-4.157584 2.96545,-8.227399 4.82768,-12.182117 1.37453,-2.979859 2.96193,-5.853944 4.76789,-8.600638 1.09815,-1.764696 2.4743,-3.3344106 4.08249,-4.6554132 0.2517,-0.1680608 0.50245,-0.3220673 0.77309,-0.4534638 0.20481,-0.1002398 0.41535,-0.1788296 0.62497,-0.2433189 0.36487,-0.054529 0.54925,-0.056866 0.54925,-0.056866 l -0.52374,0.1010101 c -0.20963,0.064474 -0.42105,0.1572096 -0.61837,0.250836 -0.23398,0.1125123 -0.47336,0.3097253 -0.75328,0.4759887 -1.56684,1.3377236 -2.90057,2.9102691 -3.97709,4.6692661 -1.77113,2.756018 -3.33691,5.624405 -4.68322,8.60607 -1.834,3.956533 -3.4128,8.021551 -4.74209,12.173438 -1.55933,5.086604 -2.63105,10.303688 -3.20401,15.588217 -0.14792,1.4218 -0.27786,2.894354 -0.28738,4.367547 l 0.048,4.552046 0.097,9.529293 0.43773,42.974001 -0.21134,-0.24029 19.46967,-0.19598 19.46967,-0.19598 -0.24015,0.21149 -0.42452,-42.958983 -0.0904,-9.521774 c -0.0356,-2.97825 -0.24148,-5.953248 -0.61191,-8.903379 -0.70356,-5.267246 -1.85006,-10.477895 -3.4233,-15.552959 -2.95524,-9.266325 -6.56615,-16.264826 -9.66929,-20.686991 -1.13688,-1.716832 -2.53388,-3.2448601 -4.14477,-4.5315388 -0.43351,-0.3112392 -0.90728,-0.5471301 -1.41471,-0.7001543 -0.28977,-0.011503 -0.46573,-0.029879 -0.46573,-0.029879 z"
       id="path228"
       style="fill:#263238" />
    <path
       class="st8"
       d="m 648.67143,50.756175 c -0.59082,-0.399288 -1.12067,-0.865511 -1.59703,-1.392072 -0.94109,-0.903578 -2.18232,-2.209049 -3.53401,-3.670406 -1.34416,-1.467957 -2.44219,-2.686288 -3.43546,-3.770359 -0.51483,-0.479444 -0.98368,-1.012605 -1.39337,-1.584491 0.58331,0.405883 1.11316,0.872115 1.59703,1.392064 0.94768,0.911096 2.18892,2.21656 3.53309,3.684521 1.34416,1.467957 2.44971,2.679692 3.44297,3.763764 0.50823,0.471916 0.97048,0.997583 1.38678,1.576979 z"
       id="path230"
       style="fill:#263238" />
    <path
       class="st8"
       d="m 645.57938,50.798654 c -1.23655,-0.936713 -2.37367,-1.987506 -3.40475,-3.144854 -1.12962,-1.057405 -2.15979,-2.228868 -3.06411,-3.48437 1.23654,0.936705 2.38118,1.980903 3.41226,3.138259 1.12961,1.057389 2.15978,2.228852 3.0566,3.490965 z"
       id="path232"
       style="fill:#263238" />
    <path
       class="st14"
       d="m 664.6718,145.0297 c -1.9161,0.81941 -3.18905,2.6579 -3.27985,4.73526 0.0177,1.82214 1.2333,3.41647 2.9937,3.91915 -0.76902,1.71496 -0.4442,3.71978 0.83484,5.09853 1.28926,1.32981 3.13461,1.94423 4.95984,1.65748 1.81384,-0.32998 3.43693,-1.33117 4.53108,-2.81271 2.77739,-3.6409 2.0693,-8.83758 -1.5716,-11.61498 -2.42507,-1.84909 -5.67523,-2.21355 -8.45571,-0.95361 z"
       id="path234"
       style="fill:#cbd6e2" />
    <path
       class="st14"
       d="m 631.48656,165.39684 c 1.72356,1.95995 1.53153,4.95192 -0.42842,6.67549 -1.95999,1.72353 -4.95193,1.53155 -6.67549,-0.4284 -1.72357,-1.95996 -1.53155,-4.95193 0.42841,-6.6755 0,0 0.008,-0.006 0.008,-0.006 1.95242,-1.71699 4.93781,-1.53246 6.66799,0.43501 -0.006,-0.008 0,0 0,0 z"
       id="path236"
       style="fill:#cbd6e2" />
  </g>
  <g
     id="why-chart"
     transform="translate(-5.4173378,3.8209438)">
    <path
       class="cls-6"
       d="m 752.38278,405.94219 c 0,0.13 -128,0.22 -285.87,0.22 -157.87,0 -285.91,-0.09 -285.91,-0.22 0,-0.13 128,-0.22 285.91,-0.22 157.91,0 285.87,0.1 285.87,0.22 z"
       id="path4427"
       style="fill:#bcccd3;fill-opacity:1" />
    <path
       id="rect4500"
       style="fill:#d1a76a"
       class="cls-7"
       d="m 429.97779,285.0122 h 55.96 v 120.5 h -55.96 z" />
    <path
       d="m 441.80936,350.91454 h -1.40625 v -8.96094 q -0.50781,0.48438 -1.33594,0.96875 -0.82031,0.48438 -1.47656,0.72657 v -1.35938 q 1.17969,-0.55469 2.0625,-1.34375 0.88281,-0.78906 1.25,-1.53125 h 0.90625 z"
       style="font-size:16px;font-family:Arial;-inkscape-font-specification:Arial;fill:#fcfdfd;stroke-width:0.471275"
       id="path75930" />
    <path
       d="m 452.7078,342.2661 -1.39844,0.10938 q -0.1875,-0.82813 -0.53125,-1.20313 -0.57031,-0.60156 -1.40625,-0.60156 -0.67188,0 -1.17969,0.375 -0.66406,0.48438 -1.04687,1.41406 -0.38282,0.92969 -0.39844,2.64844 0.50781,-0.77344 1.24219,-1.14844 0.73437,-0.375 1.53906,-0.375 1.40625,0 2.39062,1.03907 0.99219,1.03125 0.99219,2.67187 0,1.07813 -0.46875,2.00781 -0.46094,0.92188 -1.27344,1.41407 -0.8125,0.49218 -1.84375,0.49218 -1.75781,0 -2.86718,-1.28906 -1.10938,-1.29687 -1.10938,-4.26562 0,-3.32032 1.22656,-4.82813 1.07032,-1.3125 2.88282,-1.3125 1.35156,0 2.21093,0.75781 0.86719,0.75782 1.03907,2.09375 z m -5.74219,4.9375 q 0,0.72657 0.30469,1.39063 0.3125,0.66406 0.86718,1.01562 0.55469,0.34375 1.16407,0.34375 0.89062,0 1.53125,-0.71875 0.64062,-0.71875 0.64062,-1.95312 0,-1.1875 -0.63281,-1.86719 -0.63281,-0.6875 -1.59375,-0.6875 -0.95313,0 -1.61719,0.6875 -0.66406,0.67969 -0.66406,1.78906 z"
       style="font-size:16px;font-family:Arial;-inkscape-font-specification:Arial;fill:#fcfdfd;stroke-width:0.471275"
       id="path75932" />
    <path
       d="m 454.69998,350.91454 v -8.29687 h 1.25782 v 1.16406 q 0.39062,-0.60938 1.03906,-0.97656 0.64844,-0.375 1.47656,-0.375 0.92188,0 1.50781,0.38281 0.59375,0.38281 0.83594,1.07031 0.98438,-1.45312 2.5625,-1.45312 1.23438,0 1.89844,0.6875 0.66406,0.67968 0.66406,2.10156 v 5.69531 h -1.39844 v -5.22656 q 0,-0.84375 -0.14062,-1.21094 -0.13281,-0.375 -0.49219,-0.60156 -0.35937,-0.22656 -0.84375,-0.22656 -0.875,0 -1.45312,0.58593 -0.57813,0.57813 -0.57813,1.85938 v 4.82031 h -1.40625 v -5.39062 q 0,-0.9375 -0.34375,-1.40625 -0.34375,-0.46875 -1.125,-0.46875 -0.59375,0 -1.10156,0.3125 -0.5,0.3125 -0.72656,0.91406 -0.22657,0.60156 -0.22657,1.73437 v 4.30469 z"
       style="font-size:16px;font-family:Arial;-inkscape-font-specification:Arial;fill:#fcfdfd;stroke-width:0.471275"
       id="path75934" />
    <path
       d="m 468.03592,341.0786 v -1.61718 h 1.40625 v 1.61718 z m 0,9.83594 v -8.29687 h 1.40625 v 8.29687 z"
       style="font-size:16px;font-family:Arial;-inkscape-font-specification:Arial;fill:#fcfdfd;stroke-width:0.471275"
       id="path75936" />
    <path
       d="m 471.5828,350.91454 v -8.29687 h 1.26562 v 1.17968 q 0.91406,-1.36718 2.64063,-1.36718 0.75,0 1.375,0.27343 0.63281,0.26563 0.94531,0.70313 0.3125,0.4375 0.4375,1.03906 0.0781,0.39063 0.0781,1.36719 v 5.10156 h -1.40625 v -5.04687 q 0,-0.85938 -0.16406,-1.28125 -0.16406,-0.42969 -0.58594,-0.67969 -0.41406,-0.25781 -0.97656,-0.25781 -0.89844,0 -1.55469,0.57031 -0.64843,0.57031 -0.64843,2.16406 v 4.53125 z"
       style="font-size:16px;font-family:Arial;-inkscape-font-specification:Arial;fill:#fcfdfd;stroke-width:0.471275"
       id="path75938" />
    <path
       id="rect4506"
       style="fill:#d1946a"
       class="cls-7"
       d="m 361.67945,242.53219 h 55.96 v 162.97999 h -55.96 z" />
    <path
       id="rect4512"
       style="fill:#d1b76a"
       class="cls-7"
       d="m 498.2761,320.10219 h 55.95999 v 85.42 H 498.2761 Z" />
    <path
       id="rect4518"
       style="fill:#bed16a"
       class="cls-7"
       d="m 566.57444,358.90218 h 55.95999 v 46.61 h -55.95999 z" />
    <path
       id="rect4524"
       style="fill:#a2d16a"
       class="cls-7"
       d="m 634.87278,375.03219 h 55.95999 v 30.48 h -55.95999 z" />
    <path
       id="rect4530"
       style="fill:#d17a6a"
       class="cls-7"
       d="m 293.38111,188.95219 h 55.96 v 216.52999 h -55.96 z" />
    <path
       id="rect4536"
       style="fill:#d16a6a"
       class="cls-7"
       d="m 225.08278,145.00219 h 55.96 v 261.35998 h -55.96 z" />
    <path
       d="m 578.40598,387.95718 h -1.40625 v -8.96094 q -0.50781,0.48437 -1.33594,0.96875 -0.82031,0.48437 -1.47656,0.72656 v -1.35937 q 1.17969,-0.55469 2.0625,-1.34375 0.88281,-0.78907 1.25,-1.53125 h 0.90625 z"
       style="font-size:16px;font-family:Arial;-inkscape-font-specification:Arial;fill:#fcfdfd;stroke-width:0.471275"
       id="path75953" />
    <path
       d="m 589.39817,386.60561 v 1.35157 h -7.57032 q -0.0156,-0.50782 0.16407,-0.97657 0.28906,-0.77343 0.92187,-1.52343 0.64063,-0.75 1.84375,-1.73438 1.86719,-1.53125 2.52344,-2.42187 0.65625,-0.89844 0.65625,-1.69532 0,-0.83593 -0.60156,-1.40625 -0.59375,-0.57812 -1.55469,-0.57812 -1.01563,0 -1.625,0.60937 -0.60938,0.60938 -0.61719,1.6875 l -1.44531,-0.14843 q 0.14844,-1.61719 1.11719,-2.46094 0.96875,-0.85156 2.60156,-0.85156 1.64844,0 2.60937,0.91406 0.96094,0.91406 0.96094,2.26562 0,0.6875 -0.28125,1.35157 -0.28125,0.66406 -0.9375,1.39843 -0.64844,0.73438 -2.16406,2.01563 -1.26563,1.0625 -1.625,1.44531 -0.35938,0.375 -0.59375,0.75781 z"
       style="font-size:16px;font-family:Arial;-inkscape-font-specification:Arial;fill:#fcfdfd;stroke-width:0.471275"
       id="path75955" />
    <path
       d="m 591.2966,387.95718 v -8.29688 h 1.25782 v 1.16406 q 0.39062,-0.60937 1.03906,-0.97656 0.64844,-0.375 1.47656,-0.375 0.92188,0 1.50781,0.38281 0.59375,0.38282 0.83594,1.07032 0.98438,-1.45313 2.5625,-1.45313 1.23438,0 1.89844,0.6875 0.66406,0.67969 0.66406,2.10156 v 5.69532 h -1.39844 v -5.22657 q 0,-0.84375 -0.14062,-1.21093 -0.13281,-0.375 -0.49219,-0.60157 -0.35937,-0.22656 -0.84375,-0.22656 -0.875,0 -1.45312,0.58594 -0.57813,0.57812 -0.57813,1.85937 v 4.82032 h -1.40625 v -5.39063 q 0,-0.9375 -0.34375,-1.40625 -0.34375,-0.46875 -1.125,-0.46875 -0.59375,0 -1.10156,0.3125 -0.5,0.3125 -0.72656,0.91406 -0.22657,0.60157 -0.22657,1.73438 v 4.30469 z"
       style="font-size:16px;font-family:Arial;-inkscape-font-specification:Arial;fill:#fcfdfd;stroke-width:0.471275"
       id="path75957" />
    <path
       d="m 604.63254,378.12124 v -1.61719 h 1.40625 v 1.61719 z m 0,9.83594 v -8.29688 h 1.40625 v 8.29688 z"
       style="font-size:16px;font-family:Arial;-inkscape-font-specification:Arial;fill:#fcfdfd;stroke-width:0.471275"
       id="path75959" />
    <path
       d="m 608.17942,387.95718 v -8.29688 h 1.26562 v 1.17969 q 0.91406,-1.36719 2.64063,-1.36719 0.75,0 1.375,0.27344 0.63281,0.26562 0.94531,0.70312 0.3125,0.4375 0.4375,1.03907 0.0781,0.39062 0.0781,1.36718 v 5.10157 h -1.40625 v -5.04688 q 0,-0.85937 -0.16406,-1.28125 -0.16406,-0.42969 -0.58594,-0.67969 -0.41406,-0.25781 -0.97656,-0.25781 -0.89844,0 -1.55469,0.57031 -0.64843,0.57032 -0.64843,2.16407 v 4.53125 z"
       style="font-size:16px;font-family:Arial;-inkscape-font-specification:Arial;fill:#fcfdfd;stroke-width:0.471275"
       id="path75961" />
    <path
       d="m 510.10767,368.56219 h -1.40625 v -8.96094 q -0.50781,0.48437 -1.33594,0.96875 -0.82031,0.48437 -1.47656,0.72656 v -1.35937 q 1.17969,-0.55469 2.0625,-1.34375 0.88281,-0.78907 1.25,-1.53125 h 0.90625 z"
       style="font-size:16px;font-family:Arial;-inkscape-font-specification:Arial;fill:#fcfdfd;stroke-width:0.471275"
       id="path75964" />
    <path
       d="M 518.21704,368.56219 V 365.82 h -4.96875 v -1.28906 l 5.22657,-7.42188 h 1.14843 v 7.42188 h 1.54688 V 365.82 h -1.54688 v 2.74219 z m 0,-4.03125 v -5.16407 l -3.58593,5.16407 z"
       style="font-size:16px;font-family:Arial;-inkscape-font-specification:Arial;fill:#fcfdfd;stroke-width:0.471275"
       id="path75966" />
    <path
       d="m 522.99829,368.56219 v -8.29688 h 1.25782 v 1.16406 q 0.39062,-0.60937 1.03906,-0.97656 0.64844,-0.375 1.47656,-0.375 0.92188,0 1.50781,0.38281 0.59375,0.38282 0.83594,1.07032 0.98438,-1.45313 2.5625,-1.45313 1.23438,0 1.89844,0.6875 0.66406,0.67969 0.66406,2.10156 v 5.69532 h -1.39844 v -5.22657 q 0,-0.84375 -0.14062,-1.21093 -0.13281,-0.375 -0.49219,-0.60157 -0.35937,-0.22656 -0.84375,-0.22656 -0.875,0 -1.45312,0.58594 -0.57813,0.57812 -0.57813,1.85937 v 4.82032 h -1.40625 v -5.39063 q 0,-0.9375 -0.34375,-1.40625 -0.34375,-0.46875 -1.125,-0.46875 -0.59375,0 -1.10156,0.3125 -0.5,0.3125 -0.72656,0.91406 -0.22657,0.60157 -0.22657,1.73438 v 4.30469 z"
       style="font-size:16px;font-family:Arial;-inkscape-font-specification:Arial;fill:#fcfdfd;stroke-width:0.471275"
       id="path75968" />
    <path
       d="m 536.33423,358.72625 v -1.61719 h 1.40625 v 1.61719 z m 0,9.83594 v -8.29688 h 1.40625 v 8.29688 z"
       style="font-size:16px;font-family:Arial;-inkscape-font-specification:Arial;fill:#fcfdfd;stroke-width:0.471275"
       id="path75970" />
    <path
       d="m 539.88111,368.56219 v -8.29688 h 1.26562 v 1.17969 q 0.91406,-1.36719 2.64063,-1.36719 0.75,0 1.375,0.27344 0.63281,0.26562 0.94531,0.70312 0.3125,0.4375 0.4375,1.03907 0.0781,0.39062 0.0781,1.36718 v 5.10157 h -1.40625 v -5.04688 q 0,-0.85937 -0.16406,-1.28125 -0.16406,-0.42969 -0.58594,-0.67969 -0.41406,-0.25781 -0.97656,-0.25781 -0.89844,0 -1.55469,0.57031 -0.64843,0.57032 -0.64843,2.16407 v 4.53125 z"
       style="font-size:16px;font-family:Arial;-inkscape-font-specification:Arial;fill:#fcfdfd;stroke-width:0.471275"
       id="path75972" />
    <path
       d="m 646.70432,395.92452 h -1.40625 v -8.96094 q -0.50781,0.48438 -1.33594,0.96875 -0.82031,0.48438 -1.47656,0.72657 v -1.35938 q 1.17969,-0.55469 2.0625,-1.34375 0.88281,-0.78906 1.25,-1.53125 h 0.90625 z"
       style="font-size:16px;font-family:Arial;-inkscape-font-specification:Arial;fill:#fcfdfd;stroke-width:0.471275"
       id="path75975" />
    <path
       d="m 650.30588,390.27608 q 0,-2.03125 0.41406,-3.26562 0.42188,-1.24219 1.24219,-1.91406 0.82813,-0.67188 2.07813,-0.67188 0.92187,0 1.61718,0.375 0.69532,0.36719 1.14844,1.07031 0.45313,0.69532 0.71094,1.70313 0.25781,1 0.25781,2.70312 0,2.01563 -0.41406,3.25782 -0.41406,1.23437 -1.24219,1.91406 -0.82031,0.67187 -2.07812,0.67187 -1.65625,0 -2.60157,-1.1875 -1.13281,-1.42968 -1.13281,-4.65625 z m 1.44531,0 q 0,2.82032 0.65625,3.75782 0.66407,0.92968 1.63282,0.92968 0.96875,0 1.625,-0.9375 0.66406,-0.9375 0.66406,-3.75 0,-2.82812 -0.66406,-3.75781 -0.65625,-0.92969 -1.64063,-0.92969 -0.96875,0 -1.54687,0.82032 -0.72657,1.04687 -0.72657,3.86718 z"
       style="font-size:16px;font-family:Arial;-inkscape-font-specification:Arial;fill:#fcfdfd;stroke-width:0.471275"
       id="path75977" />
    <path
       d="m 659.59494,395.92452 v -8.29687 h 1.25782 v 1.16406 q 0.39062,-0.60938 1.03906,-0.97656 0.64844,-0.375 1.47656,-0.375 0.92188,0 1.50781,0.38281 0.59375,0.38281 0.83594,1.07031 0.98438,-1.45312 2.5625,-1.45312 1.23438,0 1.89844,0.6875 0.66406,0.67968 0.66406,2.10156 v 5.69531 h -1.39844 v -5.22656 q 0,-0.84375 -0.14062,-1.21094 -0.13281,-0.375 -0.49219,-0.60156 -0.35937,-0.22656 -0.84375,-0.22656 -0.875,0 -1.45312,0.58593 -0.57813,0.57813 -0.57813,1.85938 v 4.82031 h -1.40625 v -5.39062 q 0,-0.9375 -0.34375,-1.40625 -0.34375,-0.46875 -1.125,-0.46875 -0.59375,0 -1.10156,0.3125 -0.5,0.3125 -0.72656,0.91406 -0.22657,0.60156 -0.22657,1.73437 v 4.30469 z"
       style="font-size:16px;font-family:Arial;-inkscape-font-specification:Arial;fill:#fcfdfd;stroke-width:0.471275"
       id="path75979" />
    <path
       d="m 672.93088,386.08858 v -1.61718 h 1.40625 v 1.61718 z m 0,9.83594 v -8.29687 h 1.40625 v 8.29687 z"
       style="font-size:16px;font-family:Arial;-inkscape-font-specification:Arial;fill:#fcfdfd;stroke-width:0.471275"
       id="path75981" />
    <path
       d="m 676.47776,395.92452 v -8.29687 h 1.26562 v 1.17968 q 0.91406,-1.36718 2.64063,-1.36718 0.75,0 1.375,0.27343 0.63281,0.26563 0.94531,0.70313 0.3125,0.4375 0.4375,1.03906 0.0781,0.39063 0.0781,1.36719 v 5.10156 h -1.40625 v -5.04687 q 0,-0.85938 -0.16406,-1.28125 -0.16406,-0.42969 -0.58594,-0.67969 -0.41406,-0.25781 -0.97656,-0.25781 -0.89844,0 -1.55469,0.57031 -0.64843,0.57031 -0.64843,2.16406 v 4.53125 z"
       style="font-size:16px;font-family:Arial;-inkscape-font-specification:Arial;fill:#fcfdfd;stroke-width:0.471275"
       id="path75983" />
    <path
       d="m 373.51102,329.67452 h -1.40625 v -8.96094 q -0.50781,0.48438 -1.33594,0.96875 -0.82031,0.48438 -1.47656,0.72657 v -1.35938 q 1.17969,-0.55469 2.0625,-1.34375 0.88281,-0.78906 1.25,-1.53125 h 0.90625 z"
       style="font-size:16px;font-family:Arial;-inkscape-font-specification:Arial;fill:#fcfdfd;stroke-width:0.471275"
       id="path75986" />
    <path
       d="m 379.27664,323.46358 q -0.875,-0.32031 -1.29687,-0.91406 -0.42188,-0.59375 -0.42188,-1.42187 0,-1.25 0.89844,-2.10157 0.89844,-0.85156 2.39063,-0.85156 1.5,0 2.41406,0.875 0.91406,0.86719 0.91406,2.11719 0,0.79687 -0.42187,1.39062 -0.41407,0.58594 -1.26563,0.90625 1.05469,0.34375 1.60156,1.10938 0.55469,0.76562 0.55469,1.82812 0,1.46875 -1.03906,2.46875 -1.03906,1 -2.73438,1 -1.69531,0 -2.73437,-1 -1.03906,-1.00781 -1.03906,-2.50781 0,-1.11719 0.5625,-1.86719 0.57031,-0.75781 1.61718,-1.03125 z m -0.28125,-2.38281 q 0,0.8125 0.52344,1.32813 0.52344,0.51562 1.35938,0.51562 0.8125,0 1.32812,-0.50781 0.52344,-0.51563 0.52344,-1.25781 0,-0.77344 -0.53906,-1.29688 -0.53125,-0.53125 -1.32813,-0.53125 -0.80469,0 -1.33594,0.51563 -0.53125,0.51562 -0.53125,1.23437 z m -0.45312,5.28906 q 0,0.60157 0.28125,1.16407 0.28906,0.5625 0.85156,0.875 0.5625,0.30468 1.21094,0.30468 1.00781,0 1.66406,-0.64843 0.65625,-0.64844 0.65625,-1.64844 0,-1.01563 -0.67969,-1.67969 -0.67187,-0.66406 -1.6875,-0.66406 -0.99218,0 -1.64843,0.65625 -0.64844,0.65625 -0.64844,1.64062 z"
       style="font-size:16px;font-family:Arial;-inkscape-font-specification:Arial;fill:#fcfdfd;stroke-width:0.471275"
       id="path75988" />
    <path
       d="m 386.40164,329.67452 v -8.29687 h 1.25782 v 1.16406 q 0.39062,-0.60938 1.03906,-0.97656 0.64844,-0.375 1.47656,-0.375 0.92188,0 1.50781,0.38281 0.59375,0.38281 0.83594,1.07031 0.98438,-1.45312 2.5625,-1.45312 1.23438,0 1.89844,0.6875 0.66406,0.67968 0.66406,2.10156 v 5.69531 h -1.39844 v -5.22656 q 0,-0.84375 -0.14062,-1.21094 -0.13281,-0.375 -0.49219,-0.60156 -0.35937,-0.22656 -0.84375,-0.22656 -0.875,0 -1.45312,0.58593 -0.57813,0.57813 -0.57813,1.85938 v 4.82031 h -1.40625 v -5.39062 q 0,-0.9375 -0.34375,-1.40625 -0.34375,-0.46875 -1.125,-0.46875 -0.59375,0 -1.10156,0.3125 -0.5,0.3125 -0.72656,0.91406 -0.22657,0.60156 -0.22657,1.73437 v 4.30469 z"
       style="font-size:16px;font-family:Arial;-inkscape-font-specification:Arial;fill:#fcfdfd;stroke-width:0.471275"
       id="path75990" />
    <path
       d="m 399.73758,319.83858 v -1.61718 h 1.40625 v 1.61718 z m 0,9.83594 v -8.29687 h 1.40625 v 8.29687 z"
       style="font-size:16px;font-family:Arial;-inkscape-font-specification:Arial;fill:#fcfdfd;stroke-width:0.471275"
       id="path75992" />
    <path
       d="m 403.28446,329.67452 v -8.29687 h 1.26562 v 1.17968 q 0.91406,-1.36718 2.64063,-1.36718 0.75,0 1.375,0.27343 0.63281,0.26563 0.94531,0.70313 0.3125,0.4375 0.4375,1.03906 0.0781,0.39063 0.0781,1.36719 v 5.10156 h -1.40625 v -5.04687 q 0,-0.85938 -0.16406,-1.28125 -0.16406,-0.42969 -0.58594,-0.67969 -0.41406,-0.25781 -0.97656,-0.25781 -0.89844,0 -1.55469,0.57031 -0.64843,0.57031 -0.64843,2.16406 v 4.53125 z"
       style="font-size:16px;font-family:Arial;-inkscape-font-specification:Arial;fill:#fcfdfd;stroke-width:0.471275"
       id="path75994" />
    <path
       d="m 307.93595,301.51797 v 1.35156 h -7.57032 q -0.0156,-0.50781 0.16407,-0.97656 0.28906,-0.77344 0.92187,-1.52344 0.64063,-0.75 1.84375,-1.73438 1.86719,-1.53125 2.52344,-2.42187 0.65625,-0.89844 0.65625,-1.69531 0,-0.83594 -0.60156,-1.40625 -0.59375,-0.57813 -1.55469,-0.57813 -1.01563,0 -1.625,0.60938 -0.60938,0.60937 -0.61719,1.6875 l -1.44531,-0.14844 q 0.14844,-1.61719 1.11719,-2.46094 0.96875,-0.85156 2.60156,-0.85156 1.64844,0 2.60937,0.91406 0.96094,0.91406 0.96094,2.26563 0,0.6875 -0.28125,1.35156 -0.28125,0.66406 -0.9375,1.39844 -0.64844,0.73437 -2.16406,2.01562 -1.26563,1.0625 -1.625,1.44531 -0.35938,0.375 -0.59375,0.75782 z"
       style="font-size:16px;font-family:Arial;-inkscape-font-specification:Arial;fill:#fcfdfd;stroke-width:0.471275"
       id="path75997" />
    <path
       d="m 309.44376,297.22109 q 0,-2.03125 0.41406,-3.26562 0.42188,-1.24219 1.24219,-1.91407 0.82812,-0.67187 2.07812,-0.67187 0.92188,0 1.61719,0.375 0.69531,0.36719 1.14844,1.07031 0.45312,0.69531 0.71094,1.70313 0.25781,1 0.25781,2.70312 0,2.01563 -0.41406,3.25781 -0.41407,1.23438 -1.24219,1.91407 -0.82031,0.67187 -2.07813,0.67187 -1.65625,0 -2.60156,-1.1875 -1.13281,-1.42969 -1.13281,-4.65625 z m 1.44531,0 q 0,2.82031 0.65625,3.75781 0.66406,0.92969 1.63281,0.92969 0.96875,0 1.625,-0.9375 0.66407,-0.9375 0.66407,-3.75 0,-2.82812 -0.66407,-3.75781 -0.65625,-0.92969 -1.64062,-0.92969 -0.96875,0 -1.54688,0.82031 -0.72656,1.04688 -0.72656,3.86719 z"
       style="font-size:16px;font-family:Arial;-inkscape-font-specification:Arial;fill:#fcfdfd;stroke-width:0.471275"
       id="path75999" />
    <path
       d="m 318.73282,302.86953 v -8.29688 h 1.25781 v 1.16407 q 0.39063,-0.60938 1.03907,-0.97657 0.64843,-0.375 1.47656,-0.375 0.92187,0 1.50781,0.38282 0.59375,0.38281 0.83594,1.07031 0.98437,-1.45313 2.5625,-1.45313 1.23437,0 1.89844,0.6875 0.66406,0.67969 0.66406,2.10157 v 5.69531 h -1.39844 v -5.22656 q 0,-0.84375 -0.14062,-1.21094 -0.13282,-0.375 -0.49219,-0.60156 -0.35938,-0.22657 -0.84375,-0.22657 -0.875,0 -1.45313,0.58594 -0.57812,0.57813 -0.57812,1.85938 v 4.82031 h -1.40625 v -5.39063 q 0,-0.9375 -0.34375,-1.40625 -0.34375,-0.46875 -1.125,-0.46875 -0.59375,0 -1.10156,0.3125 -0.5,0.3125 -0.72657,0.91407 -0.22656,0.60156 -0.22656,1.73437 v 4.30469 z"
       style="font-size:16px;font-family:Arial;-inkscape-font-specification:Arial;fill:#fcfdfd;stroke-width:0.471275"
       id="path76001" />
    <path
       d="m 332.06876,293.03359 v -1.61719 h 1.40625 v 1.61719 z m 0,9.83594 v -8.29688 h 1.40625 v 8.29688 z"
       style="font-size:16px;font-family:Arial;-inkscape-font-specification:Arial;fill:#fcfdfd;stroke-width:0.471275"
       id="path76003" />
    <path
       d="m 335.61563,302.86953 v -8.29688 h 1.26563 v 1.17969 q 0.91406,-1.36719 2.64062,-1.36719 0.75,0 1.375,0.27344 0.63282,0.26563 0.94532,0.70313 0.3125,0.4375 0.4375,1.03906 0.0781,0.39062 0.0781,1.36719 v 5.10156 h -1.40625 v -5.04688 q 0,-0.85937 -0.16406,-1.28125 -0.16406,-0.42968 -0.58594,-0.67968 -0.41406,-0.25782 -0.97656,-0.25782 -0.89844,0 -1.55469,0.57032 -0.64844,0.57031 -0.64844,2.16406 v 4.53125 z"
       style="font-size:16px;font-family:Arial;-inkscape-font-specification:Arial;fill:#fcfdfd;stroke-width:0.471275"
       id="path76005" />
    <path
       d="m 239.63762,280.08062 v 1.35156 h -7.57031 q -0.0156,-0.50781 0.16406,-0.97656 0.28906,-0.77344 0.92188,-1.52344 0.64062,-0.75 1.84375,-1.73437 1.86718,-1.53125 2.52343,-2.42188 0.65625,-0.89844 0.65625,-1.69531 0,-0.83594 -0.60156,-1.40625 -0.59375,-0.57813 -1.55469,-0.57813 -1.01562,0 -1.625,0.60938 -0.60937,0.60937 -0.61718,1.6875 l -1.44532,-0.14844 q 0.14844,-1.61719 1.11719,-2.46094 0.96875,-0.85156 2.60156,-0.85156 1.64844,0 2.60938,0.91406 0.96094,0.91407 0.96094,2.26563 0,0.6875 -0.28125,1.35156 -0.28125,0.66406 -0.9375,1.39844 -0.64844,0.73437 -2.16407,2.01562 -1.26562,1.0625 -1.625,1.44532 -0.35937,0.375 -0.59375,0.75781 z"
       style="font-size:16px;font-family:Arial;-inkscape-font-specification:Arial;fill:#fcfdfd;stroke-width:0.471275"
       id="path76008" />
    <path
       d="m 248.53606,280.08062 v 1.35156 h -7.57031 q -0.0156,-0.50781 0.16406,-0.97656 0.28906,-0.77344 0.92187,-1.52344 0.64063,-0.75 1.84375,-1.73437 1.86719,-1.53125 2.52344,-2.42188 0.65625,-0.89844 0.65625,-1.69531 0,-0.83594 -0.60156,-1.40625 -0.59375,-0.57813 -1.55469,-0.57813 -1.01562,0 -1.625,0.60938 -0.60937,0.60937 -0.61719,1.6875 l -1.44531,-0.14844 q 0.14844,-1.61719 1.11719,-2.46094 0.96875,-0.85156 2.60156,-0.85156 1.64844,0 2.60938,0.91406 0.96093,0.91407 0.96093,2.26563 0,0.6875 -0.28125,1.35156 -0.28125,0.66406 -0.9375,1.39844 -0.64843,0.73437 -2.16406,2.01562 -1.26562,1.0625 -1.625,1.44532 -0.35937,0.375 -0.59375,0.75781 z"
       style="font-size:16px;font-family:Arial;-inkscape-font-specification:Arial;fill:#fcfdfd;stroke-width:0.471275"
       id="path76010" />
    <path
       d="m 250.4345,281.43218 v -8.29687 h 1.25781 v 1.16406 q 0.39062,-0.60938 1.03906,-0.97656 0.64844,-0.375 1.47656,-0.375 0.92188,0 1.50782,0.38281 0.59375,0.38281 0.83593,1.07031 0.98438,-1.45312 2.5625,-1.45312 1.23438,0 1.89844,0.6875 0.66406,0.67968 0.66406,2.10156 v 5.69531 h -1.39843 v -5.22656 q 0,-0.84375 -0.14063,-1.21094 -0.13281,-0.375 -0.49219,-0.60156 -0.35937,-0.22656 -0.84375,-0.22656 -0.875,0 -1.45312,0.58593 -0.57813,0.57813 -0.57813,1.85938 v 4.82031 h -1.40625 v -5.39062 q 0,-0.9375 -0.34375,-1.40625 -0.34375,-0.46875 -1.125,-0.46875 -0.59375,0 -1.10156,0.3125 -0.5,0.3125 -0.72656,0.91406 -0.22656,0.60156 -0.22656,1.73437 v 4.30469 z"
       style="font-size:16px;font-family:Arial;-inkscape-font-specification:Arial;fill:#fcfdfd;stroke-width:0.471275"
       id="path76012" />
    <path
       d="m 263.77043,271.59624 v -1.61718 h 1.40625 v 1.61718 z m 0,9.83594 v -8.29687 h 1.40625 v 8.29687 z"
       style="font-size:16px;font-family:Arial;-inkscape-font-specification:Arial;fill:#fcfdfd;stroke-width:0.471275"
       id="path76014" />
    <path
       d="m 267.31731,281.43218 v -8.29687 h 1.26562 v 1.17968 q 0.91407,-1.36718 2.64063,-1.36718 0.75,0 1.375,0.27343 0.63281,0.26563 0.94531,0.70313 0.3125,0.4375 0.4375,1.03906 0.0781,0.39063 0.0781,1.36719 v 5.10156 h -1.40625 v -5.04687 q 0,-0.85938 -0.16407,-1.28125 -0.16406,-0.42969 -0.58593,-0.67969 -0.41407,-0.25781 -0.97657,-0.25781 -0.89843,0 -1.55468,0.57031 -0.64844,0.57031 -0.64844,2.16406 v 4.53125 z"
       style="font-size:16px;font-family:Arial;-inkscape-font-specification:Arial;fill:#fcfdfd;stroke-width:0.471275"
       id="path76016" />
  </g>
  <g
     id="why-man"
     transform="translate(-5.4173378,3.8209438)">
    <path
       class="cls-14"
       d="m 584.50412,99.846602 a 26.45,26.45 0 0 1 5.0141,-2.254514 9.57,9.57 0 0 1 2.65016,-0.171841 c 0,0 13.09387,0.421872 15.70539,0.981472 2.61153,0.5596 1.70721,2.561471 -0.76372,2.223541 a 54.28,54.28 0 0 0 -8.12894,0.14598 1.44,1.44 0 0 1 0.71935,1.59507 1.23,1.23 0 0 1 -1.13801,1.1021 3.47,3.47 0 0 1 0.22667,1.63056 3.58,3.58 0 0 1 -1.02145,1.23254 c 0,0 0.64666,0.98612 0.12061,1.70234 a 7,7 0 0 1 -2.08292,1.44743 c 0,0 -6.16535,1.64573 -7.31534,1.40383 -1.15,-0.24191 -2.53909,-0.42193 -2.53909,-0.42193 l -2.22573,0.65965 -2.49825,-9.15253 a 24.23,24.23 0 0 1 3.27717,-2.123698 z"
       id="path4573"
       style="fill:#ffbf9d" />
    <path
       class="cls-15"
       d="m 599.01373,100.66619 a 5.11,5.11 0 0 1 -1.13948,-0.0397 5.21,5.21 0 0 1 -1.11411,-0.18887 4.21,4.21 0 0 1 1.12994,0.0367 4.33,4.33 0 0 1 1.12365,0.19184 z"
       id="path4575"
       style="fill:#ff9a6c" />
    <path
       class="cls-15"
       d="m 598.69057,103.39302 a 5.72,5.72 0 0 1 -1.11611,0.0199 6.93,6.93 0 0 1 -1.12038,-0.0338 3.17,3.17 0 0 1 1.08253,-0.11412 3.91,3.91 0 0 1 1.15396,0.12796 z"
       id="path4577"
       style="fill:#ff9a6c" />
    <path
       class="cls-15"
       d="m 598.24361,105.94527 a 9.54,9.54 0 0 1 -1.23402,0.1299 9.65,9.65 0 0 1 -1.24424,0.0953 4.11,4.11 0 0 1 1.21593,-0.24023 4.23,4.23 0 0 1 1.26233,0.015 z"
       id="path4579"
       style="fill:#ff9a6c" />
    <path
       class="cls-14"
       d="m 479.30601,155.13785 0.86324,3.96431 3.63017,6.99095 -0.41822,8.52965 a 3.63,3.63 0 0 1 -1.05093,2.40661 1.33,1.33 0 0 1 -0.70912,0.42901 c -0.66921,0.0645 -2.08612,-1.30744 -2.08612,-1.30744 0,0 -1.69097,1.12936 -2.71104,-0.17166 0,0 -2.20659,0.36194 -2.92236,-0.90742 0,0 -1.49032,0.58434 -2.19167,-0.29311 -0.70134,-0.87744 -2.08749,-5.34966 -2.08749,-5.34966 l 0.38634,-13.28291 z"
       id="path4593"
       style="fill:#ffbf9d" />
    <path
       class="cls-7"
       d="m 487.63923,84.428465 a 9.05,9.05 0 0 0 -5.60937,5.587927 c -1.17523,3.278986 -10.67811,25.081668 -12.3606,31.208318 -1.6825,6.12664 -0.30972,38.09153 -0.30972,38.09153 l 12.48301,0.0961 0.12649,-35.17466 7.22098,-19.88302 z"
       id="path4595"
       style="fill:#d16a6a;fill-opacity:1" />
    <path
       class="cls-6"
       d="m 523.08623,40.985963 a 3.31,3.31 0 0 1 3.73671,-0.70355 4.5,4.5 0 0 1 5.30499,1.563482 4.12,4.12 0 0 1 3.82801,0.958276 4.06,4.06 0 0 1 1.14683,3.759174 3.48,3.48 0 0 1 2.91947,2.602825 3.41,3.41 0 0 1 -1.57442,3.55293 3.19,3.19 0 0 1 -2.9296,5.624228 L 522.66709,44.730081 a 3.25,3.25 0 0 1 0.41914,-3.744118 z"
       id="path4597"
       style="fill:#576069;fill-opacity:1" />
    <path
       class="cls-14"
       d="m 532.27068,75.816231 c 0.9615,-3.366291 2.36421,-10.48032 3.57844,-16.919904 a 13.59,13.59 0 0 0 -9.82658,-15.564086 l -0.67807,-0.210546 c -7.45618,-1.582249 -12.94301,3.813366 -14.2944,11.267932 l -5.00046,23.253082 10.09345,16.997712 5.82874,-7.980494 0.92449,-4.69713 c 0,0 7.3486,0.815876 9.37439,-6.146566 z"
       id="path4599"
       style="fill:#ffbf9d" />
    <path
       class="cls-15"
       d="m 522.98159,81.95787 a 18,18 0 0 1 -8.51806,-5.210335 c 0,0 0.81129,5.581648 8.0159,6.928716 z"
       id="path4601"
       style="fill:#ff9a6c" />
    <path
       class="cls-6"
       d="m 532.16339,64.359068 a 1,1 0 0 1 -1.27232,0.725328 1,1 0 0 1 -0.79911,-1.16958 v 0 a 1,1 0 0 1 1.27232,-0.725328 1,1 0 0 1 0.79911,1.16958 z"
       id="path4603"
       style="fill:#263238" />
    <path
       class="cls-6"
       d="m 533.40633,61.907375 c -0.16566,0.09515 -0.77613,-0.670308 -1.85761,-0.964236 -1.08149,-0.293928 -2.03001,0.02933 -2.11265,-0.142919 -0.0826,-0.172254 0.14626,-0.268714 0.56355,-0.432329 a 3,3 0 0 1 1.7323,-0.04848 2.76,2.76 0 0 1 1.43641,0.938155 c 0.26967,0.345511 0.30355,0.607335 0.238,0.649809 z"
       id="path4605"
       style="fill:#263238" />
    <path
       class="cls-6"
       d="m 522.32891,61.870796 a 1.06,1.06 0 0 1 -1.27528,0.734878 1,1 0 0 1 -0.79846,-1.137964 1,1 0 0 1 1.27825,-0.744428 1,1 0 0 1 0.79549,1.147514 z"
       id="path4607"
       style="fill:#263238" />
    <path
       class="cls-6"
       d="m 522.68796,59.197 c -0.16567,0.09515 -0.77614,-0.670308 -1.85762,-0.964236 -1.08148,-0.293927 -2.02704,0.01978 -2.11561,-0.133369 -0.0886,-0.153153 0.14923,-0.278263 0.56355,-0.432329 a 3,3 0 0 1 1.73526,-0.05803 2.76,2.76 0 0 1 1.43641,0.938155 c 0.26967,0.345511 0.3131,0.610301 0.23801,0.649809 z"
       id="path4609"
       style="fill:#263238" />
    <path
       class="cls-6"
       d="m 524.44391,68.244686 a 8.09,8.09 0 0 1 1.85379,0.167251 c 0.26741,0.08303 0.56447,0.07056 0.65901,-0.09903 a 1.41,1.41 0 0 0 0.042,-0.877006 l -0.2506,-2.329077 a 38.11,38.11 0 0 1 -0.35445,-5.973815 35.33,35.33 0 0 1 0.82507,5.94194 c 0.0862,0.801608 0.14961,1.57522 0.22195,2.320181 a 1.7,1.7 0 0 1 -0.15726,1.113449 0.75,0.75 0 0 1 -0.56682,0.274249 1.56,1.56 0 0 1 -0.48214,-0.06594 6.74,6.74 0 0 1 -1.79051,-0.472204 z"
       id="path4611"
       style="fill:#263238" />
    <path
       class="cls-6"
       d="m 521.04753,68.121992 c 0.18145,0.05634 -0.1362,1.214228 0.65799,2.298511 0.79418,1.084282 2.0736,1.314019 2.03274,1.479338 -0.0409,0.165319 -0.33857,0.146173 -0.8948,0.01534 a 3.17,3.17 0 0 1 -1.72914,-1.175648 2.71,2.71 0 0 1 -0.4509,-1.920077 c 0.10414,-0.470271 0.3077,-0.721191 0.38411,-0.697468 z"
       id="path4613"
       style="fill:#263238" />
    <path
       class="cls-6"
       d="m 524.11097,55.052566 c -0.18743,0.266401 -1.2274,-0.161229 -2.55688,-0.364627 -1.32949,-0.203399 -2.43177,-0.126831 -2.53316,-0.441029 -0.10139,-0.314199 0.21708,-0.361904 0.70354,-0.545927 a 4.56,4.56 0 0 1 3.88109,0.618742 c 0.42413,0.320175 0.59171,0.623515 0.50541,0.732841 z"
       id="path4615"
       style="fill:#263238" />
    <path
       class="cls-6"
       d="m 533.85208,58.684595 c -0.26152,0.201512 -0.95502,-0.296543 -1.81454,-0.563432 -0.85952,-0.266889 -1.69174,-0.284469 -1.82409,-0.566398 -0.13235,-0.281928 0.11269,-0.362907 0.54315,-0.501491 a 2.79,2.79 0 0 1 2.92236,0.907422 c 0.2476,0.34913 0.28807,0.62347 0.17312,0.723899 z"
       id="path4617"
       style="fill:#263238" />
    <path
       class="cls-6"
       d="m 536.06138,55.548695 c 0,0 -0.66747,-4.898263 -2.51314,-6.507989 -2.24477,-1.94307 -4.11279,0.565832 -6.39585,-0.781811 -2.28306,-1.347643 -4.40302,-3.220547 -7.43668,-2.015977 -3.31921,1.314854 -2.42172,3.111827 -3.43389,6.169197 -4.12413,12.405003 -7.42909,15.326343 -6.42601,9.229562 0.10318,-0.669517 -1.57198,-1.681808 -1.08677,-4.52585 0.62332,-3.659778 1.65281,-8.020643 3.1424,-10.322453 a 10.29,10.29 0 0 1 5.52615,-4.105943 c 4.16696,-1.617053 8.9309,-0.368165 12.07749,0.828774 3.14659,1.196939 8.32486,6.574401 6.5463,12.03249 z"
       id="path4619"
       style="fill:#576069;fill-opacity:1" />
    <path
       class="cls-14"
       d="m 510.30899,61.53109 a 2,2 0 0 0 -1.46945,-2.382942 l -0.0669,-0.02076 c -1.3522,-0.231395 -3.02789,0.106906 -3.6738,2.827753 -1.14318,4.828171 3.97792,4.994268 4.00692,4.86715 0.029,-0.127118 0.74511,-3.276416 1.20319,-5.291203 z"
       id="path4621"
       style="fill:#ffbf9d" />
    <path
       class="cls-15"
       d="m 508.46556,64.770126 a 2.14,2.14 0 0 1 -0.26414,0.07505 0.86,0.86 0 0 1 -0.62076,-0.192753 2.16,2.16 0 0 1 -0.53057,-2.10188 3,3 0 0 1 0.52348,-1.146327 1,1 0 0 1 0.79311,-0.497173 0.44,0.44 0 0 1 0.44685,0.348172 c 0.0349,0.157426 -0.0234,0.244032 0.0118,0.265444 0.0352,0.02141 0.12219,-0.0563 0.089,-0.286506 a 0.58,0.58 0 0 0 -0.12411,-0.342195 0.65,0.65 0 0 0 -0.4383,-0.240808 1.25,1.25 0 0 0 -1.06383,0.559705 2.9,2.9 0 0 0 -0.60616,1.277718 2.2,2.2 0 0 0 0.75349,2.328165 0.92,0.92 0 0 0 0.79829,0.0594 c 0.20221,-0.01051 0.24142,-0.103044 0.23187,-0.10601 z"
       id="path4623"
       style="fill:#ff9a6c" />
    <path
       class="cls-6"
       d="m 512.92956,52.282182 a 4.84,4.84 0 0 0 1.81078,1.4523 1.64,1.64 0 0 0 2.03669,-0.624107 1.6,1.6 0 0 1 0.4589,-0.904607 c 0.29313,-0.202166 0.8095,-0.01042 1.19874,0.152332 a 3.2,3.2 0 0 0 3.79345,-1.324662 1.35,1.35 0 0 0 1.68642,0.63883 6.7,6.7 0 0 0 1.69589,-1.044058 2.11,2.11 0 0 1 1.89339,-0.364944 5.21,5.21 0 0 0 0.98824,0.526751 c 0.64746,0.106801 1.14978,-0.533016 1.4028,-1.145536 0.25302,-0.61252 0.53273,-1.310992 1.16475,-1.491701 a 2.54,2.54 0 0 1 1.73255,0.422795 c 0.57136,0.250708 1.35713,0.316693 1.65921,-0.217768 a 1.19,1.19 0 0 0 0.0252,-0.924103 3.27,3.27 0 0 0 -3.37566,-2.179043 4.4,4.4 0 0 0 -7.55708,-2.943395 4.58,4.58 0 0 0 -3.56801,-1.997939 4.5,4.5 0 0 0 -3.68055,1.736674 3.36,3.36 0 0 0 -3.56045,0.20332 3.29,3.29 0 0 0 -1.18346,3.339253 3,3 0 0 0 -2.2605,1.884429 1.76,1.76 0 0 0 1.20898,2.176411 l 0.23876,0.07414 a 1.82,1.82 0 0 0 0.0724,2.430813 1.86,1.86 0 0 0 2.44363,0.08863"
       id="path4625"
       style="fill:#576069;fill-opacity:1" />
    <path
       class="cls-12"
       d="m 510.30223,49.58159 a 1.18,1.18 0 0 0 0.0555,1.001508 1.57,1.57 0 0 0 0.79192,0.821804 1.7,1.7 0 0 0 1.48299,-0.02118 l -0.20055,-0.06227 a 4.83,4.83 0 0 0 0.5962,1.452116 3,3 0 0 0 0.731,0.781946 2.24,2.24 0 0 0 2.55135,-0.05593 3,3 0 0 0 0.65945,-0.842333 1.34,1.34 0 0 0 0.11861,-0.382007 3.68,3.68 0 0 0 -0.24639,0.321391 3.27,3.27 0 0 1 -0.7072,0.827506 2.06,2.06 0 0 1 -2.84304,-0.589604 0.52,0.52 0 0 1 -0.0754,-0.128122 4.89,4.89 0 0 1 -0.61993,-1.375715 l -0.0444,-0.160392 -0.15019,0.07902 a 1.5,1.5 0 0 1 -1.26102,0.04822 1.46,1.46 0 0 1 -0.74814,-0.693028 2.67,2.67 0 0 1 -0.0907,-1.02292 z"
       id="path4627"
       style="fill:#2a2e33;fill-opacity:1" />
    <path
       class="cls-15"
       d="m 519.20224,68.365749 c 0.0764,0.02372 0.25267,-0.476506 0.7836,-0.803782 0.53094,-0.327276 1.0292,-0.245856 1.04338,-0.325223 0.0142,-0.07937 -0.11295,-0.108368 -0.34381,-0.106756 a 1.43,1.43 0 0 0 -0.86222,0.213936 1.4,1.4 0 0 0 -0.58105,0.65726 c -0.0873,0.213724 -0.0715,0.365219 -0.0399,0.364565 z"
       id="path4629"
       style="fill:#ff9a6c" />
    <path
       class="cls-15"
       d="m 519.13889,66.984849 c 0.0668,0.02076 0.27072,-0.06253 0.56712,-0.106618 0.29641,-0.04409 0.53748,-0.01112 0.57075,-0.08455 0.0333,-0.07344 -0.24268,-0.263832 -0.62076,-0.192753 -0.37809,0.07108 -0.57638,0.271283 -0.51711,0.383924 z"
       id="path4631"
       style="fill:#ff9a6c" />
    <path
       class="cls-16"
       d="m 536.1466,42.999494 a 2.24,2.24 0 0 1 0.58107,1.332237 4.44,4.44 0 0 1 -0.024,1.594624 2.86,2.86 0 0 1 -1.06004,1.660335 4,4 0 0 1 -1.85523,0.680451 11.74,11.74 0 0 1 -1.56994,0.09889 6.7,6.7 0 0 1 -1.44379,-0.07135 5.25,5.25 0 0 1 1.43856,-0.181575 14.63,14.63 0 0 0 1.52746,-0.164436 4.06,4.06 0 0 0 1.6853,-0.63898 2.59,2.59 0 0 0 0.95298,-1.484158 4.27,4.27 0 0 0 0.10528,-1.485603 5.48,5.48 0 0 0 -0.33769,-1.340434 z"
       id="path4633"
       style="fill:#2a2e33;fill-opacity:1" />
    <path
       class="cls-16"
       d="m 538.20728,47.052899 a 1.67,1.67 0 0 1 -0.29454,0.746223 3.56,3.56 0 0 1 -3.34559,1.568436 c -0.50717,-0.05277 -0.8266,-0.204311 -0.81177,-0.252062 a 4.74,4.74 0 0 1 0.77788,-0.0098 4.35,4.35 0 0 0 1.75014,-0.409425 4.43,4.43 0 0 0 1.38797,-1.097786 6.08,6.08 0 0 1 0.53591,-0.545623 z"
       id="path4635"
       style="fill:#2a2e33;fill-opacity:1" />
    <path
       class="cls-7"
       d="m 529.11688,93.99886 -10.12865,57.00032 c -0.50561,2.77488 -4.4187,6.87909 -7.24007,6.72553 l -35.90113,-6.95927 a 3.75,3.75 0 0 1 -3.01203,-4.63153 c 1.441,-7.70945 5.70627,-23.53653 7.79121,-34.06168 2.31267,-11.59577 4.58765,-26.543501 7.83307,-27.755615 a 97,97 0 0 1 15.81449,-3.989784 l 2.1661,-4.918913 c 0,0 14.91678,6.589886 16.88507,9.693153 l -0.30116,5.319991 z"
       id="path4637"
       style="fill:#d16a6a;fill-opacity:1" />
    <path
       class="cls-7"
       d="m 523.90593,91.323237 30.92896,12.923053 28.52975,-4.43938 1.85884,12.49318 -4.43392,0.79071 c -7.31247,2.00157 -20.9864,6.71885 -26.29105,7.31249 -7.38376,0.84857 -38.90374,-12.97003 -38.90374,-12.97003 z"
       id="path4639"
       style="fill:#d16a6a;fill-opacity:1" />
    <path
       class="cls-6"
       d="m 527.2504,112.48697 a 16.43,16.43 0 0 1 -2.00615,-0.958 10.79,10.79 0 0 1 -4.07154,-4.32178 12.45,12.45 0 0 1 -0.95112,-8.672128 10,10 0 0 1 2.50458,-4.457796 3.89,3.89 0 0 1 2.27227,-1.315341 6.13,6.13 0 0 1 2.72713,0.490787 c 7.2867,2.869914 13.84066,5.637953 18.59626,7.554398 l 5.64277,2.29663 1.53723,0.61344 a 2.81,2.81 0 0 0 0.55391,0.172 2.84,2.84 0 0 0 -0.51471,-0.26453 l -1.50395,-0.68689 -5.57919,-2.43395 c -4.71936,-1.999426 -11.26146,-4.805666 -18.55771,-7.678545 a 6.33,6.33 0 0 0 -2.97478,-0.536272 4.34,4.34 0 0 0 -2.54168,1.441105 10.45,10.45 0 0 0 -2.60375,4.709721 12.7,12.7 0 0 0 1.0792,8.900371 10.73,10.73 0 0 0 4.26782,4.33038 11.41,11.41 0 0 0 1.52241,0.6612 2.25,2.25 0 0 0 0.601,0.1552 z"
       id="path4641"
       style="fill:#263238" />
    <path
       class="cls-6"
       d="m 504.2504,80.267218 c -0.0178,0.0573 1.03665,0.573195 2.73192,1.487019 1.69526,0.913823 3.99677,2.235781 6.51099,3.749443 2.51423,1.513662 4.8467,2.80335 6.5973,3.640118 0.9135,0.430246 1.55533,0.723778 2.07531,0.937593 a 4,4 0 0 0 0.81177,0.252062 29.47,29.47 0 0 0 -2.73192,-1.487019 c -1.68571,-0.910858 -3.97239,-2.280567 -6.50144,-3.746478 -2.52906,-1.46591 -4.85625,-2.806315 -6.5973,-3.640118 -0.91054,-0.439796 -1.55237,-0.733328 -2.08486,-0.940558 a 3,3 0 0 0 -0.81177,-0.252062 z"
       id="path4643"
       style="fill:#263238" />
    <path
       class="cls-6"
       d="m 485.68188,89.65303 a 3.32,3.32 0 0 0 -0.18682,0.601662 c -0.13641,0.439309 -0.21225,1.05449 -0.36484,1.781963 -0.31805,1.597544 -0.76858,3.824093 -1.31009,6.545944 -1.13834,5.520751 -2.7901,13.133361 -4.88559,21.466801 -1.0311,4.13 -2.09347,8.12464 -3.09452,11.71949 -0.50382,1.79116 -0.9905,3.4934 -1.4416,5.08105 -0.45109,1.58764 -0.9519,3.06561 -1.23632,4.4537 a 17.87,17.87 0 0 0 -0.52883,3.79383 8.27,8.27 0 0 0 0.4198,2.86328 5.45,5.45 0 0 0 0.84944,1.61452 4.37,4.37 0 0 0 0.43036,0.46871 7.41,7.41 0 0 1 -1.11941,-2.12766 8.24,8.24 0 0 1 -0.33253,-2.77336 17.41,17.41 0 0 1 0.58084,-3.72532 c 0.34534,-1.34824 0.81454,-2.82555 1.29725,-4.41385 0.48271,-1.5883 0.94798,-3.25531 1.46366,-5.08467 1.02015,-3.58891 2.09273,-7.54897 3.13569,-11.71718 2.09186,-8.35551 3.70246,-15.97042 4.76672,-21.556063 0.53426,-2.765983 0.93935,-5.048526 1.15431,-6.583841 0.12394,-0.736369 0.21591,-1.336069 0.29206,-1.783621 a 3,3 0 0 0 0.11042,-0.625385 z"
       id="path4645"
       style="fill:#263238" />
    <path
       class="cls-3"
       d="m 514.55552,246.51086 -10.52002,11.92683 c 0,0 14.36968,11.48797 13.55741,14.576 l -31.67198,-10.46273 0.82736,-2.6645 14.1216,-20.69313 z"
       id="path4647"
       style="fill:#d16a6a;fill-opacity:1" />
    <path
       class="cls-16"
       d="m 495.47894,253.04787 a 1.35,1.35 0 0 0 -1.42356,1.21238 1.31,1.31 0 0 0 1.18243,1.35143 1.43,1.43 0 0 0 1.43838,-1.26013 1.36,1.36 0 0 0 -1.37147,-1.31589"
       id="path4649"
       style="opacity:0.6;fill:#ffffff;fill-opacity:1" />
    <path
       class="cls-6"
       d="m 504.60459,258.42592 c -0.0504,0.16236 -0.87998,-0.0324 -1.78271,0.21084 -0.90274,0.24324 -1.54666,0.76579 -1.66257,0.66697 -0.11591,-0.0988 0.40159,-0.92239 1.52499,-1.20183 1.12339,-0.27943 2,0.20218 1.92029,0.32402 z"
       id="path4651"
       style="fill:#263238" />
    <path
       class="cls-6"
       d="m 507.46479,260.91611 c -0.0474,0.1528 -0.76737,0.21197 -1.51338,0.69236 -0.74601,0.48038 -1.12188,1.11758 -1.27172,1.06059 -0.14983,-0.057 0.037,-0.96231 0.97374,-1.55101 0.93671,-0.58871 1.85584,-0.34519 1.81136,-0.20194 z"
       id="path4653"
       style="fill:#263238" />
    <path
       class="cls-6"
       d="m 508.0345,265.52224 c -0.1337,-0.0415 -0.10954,-0.86122 0.58053,-1.59981 0.69006,-0.73859 1.51373,-0.82837 1.52952,-0.67688 0.0158,0.1515 -0.57245,0.46098 -1.11363,1.05732 -0.54119,0.59634 -0.84065,1.25727 -0.99642,1.21937 z"
       id="path4655"
       style="fill:#263238" />
    <path
       class="cls-6"
       d="m 506.88471,255.19683 c -0.11792,0.10998 -0.78211,-0.34756 -1.66173,-0.51598 -0.87962,-0.16842 -1.66113,-0.18073 -1.67395,-0.34177 -0.0128,-0.16105 0.7997,-0.48466 1.84298,-0.20259 1.04328,0.28206 1.5981,0.95695 1.4927,1.06034 z"
       id="path4657"
       style="fill:#263238" />
    <path
       id="polygon4659"
       style="fill:#d16a6a"
       class="cls-3"
       d="m 439.1072,289.21819 13.91695,4.27947 8.74796,-25.57629 -13.74691,-4.92823 z" />
    <path
       class="cls-6"
       d="m 446.41765,290.0222 c 0.12415,0.0386 2.04862,-5.55223 4.29999,-12.46557 2.25137,-6.91334 3.99736,-12.57002 3.91437,-12.60626 -0.083,-0.0362 -2.06049,5.59044 -4.31251,12.47216 -2.25202,6.88172 -3.98781,12.57298 -3.90185,12.59967 z"
       id="path4661"
       style="fill:#263238" />
    <path
       class="cls-6"
       d="m 455.79643,285.31153 a 3.57,3.57 0 0 0 -0.16885,-0.67022 10.07,10.07 0 0 0 -0.79178,-1.73274 9.76,9.76 0 0 0 -1.70298,-2.20415 7.75,7.75 0 0 0 -9.12956,-1.28511 6.28,6.28 0 0 0 -1.51971,1.15112 2,2 0 0 0 -0.42493,0.55914 14.4,14.4 0 0 1 2.09247,-1.44447 7.73,7.73 0 0 1 5.87831,-0.3841 9,9 0 0 1 4.56694,3.80547 23.46,23.46 0 0 1 1.20009,2.20506 z"
       id="path4663"
       style="fill:#263238" />
    <path
       class="cls-8"
       d="m 481.696,150.64447 29.61491,6.43139 -0.50405,3.30938 c 5.46964,8.14851 24.03158,29.33595 32.23493,44.56354 0,0 2.47546,7.43868 -0.93221,12.27573 l -31.4735,36.14246 -17.45802,-10.17472 22.50053,-31.99686 -30.16305,-27.42839 c -6.06823,-4.66953 -9.56711,-15.25316 -9.48627,-20.67297 0.0995,-4.67058 3.78608,-7.03364 5.66673,-12.44956 z"
       id="path4665"
       style="fill:#7994b3;fill-opacity:1" />
    <path
       class="cls-8"
       d="m 495.52673,191.58752 -35.26612,86.59727 -19.17709,-6.12222 c 0,0 7.81292,-27.35351 13.87373,-45.52351 6.06081,-18.17001 15.40608,-56.15743 15.40608,-56.15743 z"
       id="path4667"
       style="fill:#7994b3;fill-opacity:1" />
    <path
       class="cls-8"
       d="m 481.696,150.64447 -9.56189,-1.84867 c 0,0 -6.69313,18.18309 -6.71295,20.74233 -0.0198,2.55924 2.12415,13.39229 2.12415,13.39229 l 24.88518,16.47038 6.46167,-20.80988 z"
       id="path4669"
       style="fill:#7994b3;fill-opacity:1" />
    <path
       class="cls-12"
       d="m 478.25447,170.36076 a 2.38,2.38 0 0 0 0.078,0.55823 13.57,13.57 0 0 0 0.32448,1.61904 20,20 0 0 0 2.30745,5.5855 34.41,34.41 0 0 0 5.61308,6.97841 c 2.39948,2.38901 5.23204,4.7659 8.10442,7.38552 l 14.81796,13.28158 4.52014,3.98988 1.24933,1.06854 a 2.66,2.66 0 0 0 0.44388,0.35773 2.69,2.69 0 0 0 -0.39447,-0.41568 l -1.19037,-1.12353 -4.44867,-4.05146 -14.70236,-13.35039 c -2.88488,-2.61303 -5.72699,-4.99289 -8.11331,-7.35687 a 35.73,35.73 0 0 1 -5.64208,-6.85129 21.58,21.58 0 0 1 -2.3842,-5.47321 c -0.40947,-1.44649 -0.53615,-2.21879 -0.58324,-2.202 z"
       id="path4671"
       style="fill:#455a64" />
    <path
       class="cls-12"
       d="m 528.46954,213.33469 a 8.78,8.78 0 0 0 -1.87737,-1.00179 22.89,22.89 0 0 0 -4.8706,-1.51237 21.4,21.4 0 0 0 -5.12205,-0.36534 8,8 0 0 0 -2.10349,0.2997 18.2,18.2 0 0 0 2.09982,-0.0181 26.9,26.9 0 0 1 5.02389,0.51287 29.48,29.48 0 0 1 4.86502,1.39545 16,16 0 0 0 1.98478,0.6896 z"
       id="path4673"
       style="fill:#455a64" />
    <path
       id="polygon4675"
       class="cls-12"
       style="fill:#455a64"
       d="m 470.95819,152.04318 1.02037,-2.814 39.32341,7.87533 -0.28505,3.34597 z" />
    <path
       class="cls-6"
       d="m 502.39788,159.07257 c -0.0339,-0.26182 0.73596,-3.71904 0.73596,-3.71904 l -2.18538,-0.44822 -0.77787,4.2924 z"
       id="path4677"
       style="fill:#263238" />
    <path
       class="cls-6"
       d="m 481.32255,154.91586 c -0.0434,-0.26479 0.72937,-3.73156 0.72937,-3.73156 l -2.17879,-0.43571 -0.78743,4.28944 z"
       id="path4679"
       style="fill:#263238" />
  </g>
</svg>
