<?xml version="1.0" standalone="no"?>
<!DOCTYPE svg PUBLIC "-//W3C//DTD SVG 20010904//EN"
 "http://www.w3.org/TR/2001/REC-SVG-20010904/DTD/svg10.dtd">
<svg version="1.0" xmlns="http://www.w3.org/2000/svg"
 width="700.000000pt" height="700.000000pt" viewBox="0 0 700.000000 700.000000"
 preserveAspectRatio="xMidYMid meet">
<metadata>
Created by potrace 1.14, written by Peter Selinger 2001-2017
</metadata>
<g transform="translate(0.000000,700.000000) scale(0.100000,-0.100000)"
fill="#000000" stroke="none">
<path d="M2677 6774 c-1 -1 -119 -5 -262 -8 -143 -4 -294 -9 -335 -11 -41 -2
-120 -6 -175 -9 -55 -3 -161 -9 -235 -12 -74 -4 -139 -10 -144 -15 -14 -13 61
-218 101 -278 20 -29 58 -68 85 -85 l47 -32 -67 -2 c-206 -5 -401 -56 -608
-158 -94 -45 -297 -170 -314 -193 -3 -3 -34 -31 -70 -61 -77 -65 -200 -187
-200 -198 0 -4 17 -16 38 -27 73 -38 197 -118 299 -194 57 -42 149 -104 205
-138 56 -35 97 -63 90 -63 -50 0 -317 -131 -467 -230 -162 -107 -310 -253
-365 -360 l-20 -39 83 -87 c45 -48 99 -106 121 -128 21 -23 89 -94 150 -159
61 -65 130 -139 154 -163 42 -44 42 -44 47 -131 11 -224 15 -306 20 -418 3
-66 7 -160 10 -210 6 -122 16 -342 20 -440 4 -99 14 -299 20 -425 10 -189 17
-346 18 -404 2 -65 1 -66 -86 -80 -16 -3 -31 -6 -33 -9 -6 -6 -6 -218 1 -247
11 -54 31 -88 95 -160 97 -108 115 -142 150 -270 17 -63 37 -137 45 -165 14
-53 89 -267 104 -300 6 -11 30 -70 56 -131 25 -61 58 -131 74 -155 97 -153
300 -265 586 -325 11 -2 40 -6 65 -9 25 -3 56 -8 69 -11 26 -6 331 -6 371 0
14 2 50 7 80 11 310 37 570 219 761 532 30 48 60 97 67 108 36 58 76 149 99
220 13 44 40 130 58 190 19 61 48 132 65 158 43 68 78 81 207 74 113 -6 127
-11 172 -62 45 -51 67 -100 121 -265 159 -482 363 -734 704 -870 78 -31 206
-67 267 -75 121 -17 155 -20 254 -20 141 1 217 10 336 40 199 51 357 138 478
264 112 117 183 254 241 462 17 63 52 188 77 279 26 93 61 195 81 233 32 62
53 85 131 145 23 18 23 22 24 165 0 137 -1 149 -21 170 -18 19 -21 32 -18 72
3 28 7 104 11 170 3 66 8 147 10 180 3 33 7 103 10 155 3 52 7 129 10 170 2
41 7 118 10 170 3 52 7 127 10 165 3 39 7 115 10 170 3 55 7 132 10 170 10
142 15 222 20 325 3 58 8 140 10 183 4 72 2 84 -36 180 -66 167 -204 436 -271
529 -86 118 -216 253 -349 361 -37 30 -48 46 -53 77 -12 73 -58 204 -106 303
-122 246 -315 445 -608 624 -118 73 -422 226 -430 218 -3 -3 13 -24 36 -48 36
-37 79 -113 70 -123 -4 -4 -159 127 -223 189 -43 41 -200 160 -250 190 -60 35
-283 144 -375 184 -85 36 -216 79 -274 88 -233 40 -242 41 -361 50 -44 4 -91
8 -105 11 -47 7 -695 24 -703 18z m1898 -2568 c45 -7 129 -20 135 -21 130 -28
319 -71 460 -105 296 -73 454 -102 568 -104 42 -1 42 -1 57 -53 16 -56 79
-181 128 -253 56 -84 174 -225 255 -306 l82 -81 29 -154 c17 -85 46 -235 66
-334 19 -99 37 -189 39 -200 17 -88 62 -322 82 -422 13 -67 24 -128 24 -134 0
-15 -41 -8 -165 26 -86 24 -207 55 -230 60 -41 8 -202 34 -250 40 -27 3 -79
10 -115 15 -133 19 -158 20 -275 20 -151 -1 -257 -8 -375 -25 -141 -21 -188
-28 -205 -31 -11 -2 -31 -6 -45 -9 -14 -2 -74 -14 -135 -25 -272 -52 -433 -81
-465 -86 -19 -3 -42 -7 -50 -9 -8 -2 -42 -7 -75 -11 -33 -3 -67 -8 -76 -9
-138 -26 -489 -24 -639 4 -30 6 -71 13 -90 16 -79 11 -95 19 -61 30 30 9 58
63 66 123 l6 52 -83 0 c-95 1 -138 6 -223 26 -33 8 -67 16 -75 18 -8 2 -73 20
-145 39 -143 39 -251 65 -305 73 -19 3 -37 7 -40 9 -3 2 -50 10 -105 19 -55 9
-113 19 -129 21 -66 11 -208 19 -323 18 -105 -2 -159 -8 -303 -37 -36 -8 -152
-57 -171 -73 -8 -7 -20 -13 -26 -13 -18 0 -137 -121 -161 -164 -20 -34 -21
-38 -5 -32 53 21 265 43 246 26 -4 -4 -71 -19 -148 -35 -166 -32 -158 -31
-215 -44 -25 -6 -51 -11 -58 -11 -16 0 -13 22 23 175 36 147 71 298 79 340 2
11 18 76 35 145 16 69 32 136 34 150 3 14 10 43 15 65 6 22 14 54 17 72 3 18
9 42 14 55 5 13 9 25 8 28 0 3 10 49 23 103 12 54 23 104 24 110 1 7 13 58 26
114 l24 102 85 42 c417 204 787 367 938 413 26 8 109 43 183 79 129 61 232
104 275 113 158 35 252 23 464 -58 184 -71 200 -76 274 -93 40 -10 102 -17
139 -17 121 1 182 20 370 114 106 54 195 92 225 97 47 8 187 6 248 -3z m-2020
-2137 c119 -15 147 -20 235 -40 437 -104 617 -266 596 -537 -10 -134 -46 -252
-144 -468 -85 -186 -146 -280 -252 -384 -75 -74 -94 -90 -147 -123 -192 -120
-378 -171 -628 -171 -93 0 -230 9 -256 18 -7 3 -29 8 -46 11 -81 13 -101 18
-160 40 -214 81 -349 234 -432 490 -89 272 -120 443 -117 650 1 129 3 145 28
197 78 167 249 249 613 294 74 9 121 13 210 20 44 3 81 7 83 9 7 6 354 2 417
-6z m2900 -2 c11 -3 56 -8 99 -12 43 -4 88 -8 98 -10 11 -3 41 -7 66 -10 188
-22 364 -86 448 -162 98 -89 127 -177 120 -359 -6 -140 -11 -177 -37 -304 -35
-173 -96 -365 -145 -465 -71 -141 -200 -260 -350 -323 -86 -36 -294 -73 -428
-76 -356 -9 -620 86 -832 298 -90 90 -150 176 -217 313 -181 370 -220 599
-131 772 24 47 112 127 187 169 96 54 316 128 441 146 21 4 41 8 45 10 3 2 40
7 81 11 41 4 77 9 79 11 5 5 452 -3 476 -9z"/>
<path d="M5385 2663 c-80 -16 -73 -14 -145 -36 -96 -29 -159 -57 -410 -177
-318 -153 -458 -200 -602 -200 -42 0 -48 -3 -48 -21 0 -59 59 -129 129 -152
37 -12 52 -12 92 -2 47 13 299 102 401 143 23 10 215 67 258 78 74 18 99 24
125 28 17 3 39 8 50 10 148 29 388 40 512 24 159 -21 320 -69 422 -126 25 -14
55 -30 66 -36 11 -6 23 -15 27 -21 4 -5 9 -7 12 -5 9 10 -88 143 -162 222
-123 129 -230 204 -364 254 -60 22 -92 27 -183 29 -68 2 -137 -3 -180 -12z"/>
</g>
</svg>
