<?xml version="1.0" encoding="UTF-8" standalone="no"?>
<!-- Created with Inkscape (http://www.inkscape.org/) -->

<svg
   width="900"
   height="500"
   viewBox="0 0 843.74996 468.74997"
   id="svg2"
   version="1.1"
   inkscape:version="1.2.1 (9c6d41e, 2022-07-14)"
   sodipodi:docname="howlermonkey-3.svg"
   inkscape:export-filename="/home/huntingbears/Desarrollo/howlermonkey-cve/docs/_static/banner.png"
   inkscape:export-xdpi="101.69492"
   inkscape:export-ydpi="101.69492"
   xmlns:inkscape="http://www.inkscape.org/namespaces/inkscape"
   xmlns:sodipodi="http://sodipodi.sourceforge.net/DTD/sodipodi-0.dtd"
   xmlns="http://www.w3.org/2000/svg"
   xmlns:svg="http://www.w3.org/2000/svg"
   xmlns:rdf="http://www.w3.org/1999/02/22-rdf-syntax-ns#"
   xmlns:cc="http://creativecommons.org/ns#"
   xmlns:dc="http://purl.org/dc/elements/1.1/">
  <defs
     id="defs4" />
  <sodipodi:namedview
     id="base"
     pagecolor="#ffffff"
     bordercolor="#666666"
     borderopacity="1.0"
     inkscape:pageopacity="1"
     inkscape:pageshadow="2"
     inkscape:zoom="0.98994949"
     inkscape:cx="229.30463"
     inkscape:cy="213.64726"
     inkscape:document-units="px"
     inkscape:current-layer="layer1"
     showgrid="false"
     inkscape:window-width="1954"
     inkscape:window-height="1205"
     inkscape:window-x="0"
     inkscape:window-y="25"
     inkscape:window-maximized="0"
     units="px"
     inkscape:showpageshadow="2"
     inkscape:pagecheckerboard="0"
     inkscape:deskcolor="#d1d1d1" />
  <metadata
     id="metadata7">
    <rdf:RDF>
      <cc:Work
         rdf:about="">
        <dc:format>image/svg+xml</dc:format>
        <dc:type
           rdf:resource="http://purl.org/dc/dcmitype/StillImage" />
      </cc:Work>
    </rdf:RDF>
  </metadata>
  <g
     inkscape:label="Capa 1"
     inkscape:groupmode="layer"
     id="layer1"
     transform="translate(0,-752.36226)">
    <rect
       style="fill:#ffffff;stroke-width:0.9375;fill-opacity:1"
       id="rect2312"
       width="883.56775"
       height="501.91943"
       x="-14.20527"
       y="740.99805"
       ry="0" />
    <g
       id="g2096"
       transform="translate(-20.624997,-13.124999)">
      <g
         id="g117"
         transform="matrix(0.65423904,0,0,0.64538034,55.391057,801.43319)">
        <path
           sodipodi:nodetypes="csssscscsssscscccccsscccsssssccssscsscscc"
           style="fill:#858686"
           d="m 151.9137,285.56559 c -5.01342,-4.85174 -18.7903,-17.61757 -30.6153,-28.36851 -27.84077,-25.31202 -39.6289,-39.16123 -46.6531,-54.81015 -11.30018,-25.17518 -9.10954,-58.76903 5.44499,-83.5 3.12381,-5.30796 8.01817,-11.31908 14.5447,-17.86341 7.35309,-7.37313 9.54898,-10.15037 8.69744,-11 -0.65939,-0.65789 -4.48647,-1.13659 -9.08682,-1.13659 -7.29513,0 -7.94764,-0.16508 -7.94743,-2.01067 2.8e-4,-2.56176 7.99033,-14.679276 13.37458,-20.283583 9.69516,-10.091398 25.50109,-17.131571 40.37564,-17.983844 4.5375,-0.259987 8.25,-0.801562 8.25,-1.2035 0,-0.401938 -1.5989,-2.82481 -3.55311,-5.38416 -1.95421,-2.55935 -3.23951,-5.16077 -2.85623,-5.780933 0.47627,-0.770615 3.2221,-0.932838 8.67371,-0.51244 l 7.97683,0.615128 -0.61007,-3.050327 c -0.33553,-1.67768 -1.68749,-5.717779 -3.00435,-8.977998 l -2.3943,-5.927671 2.13376,0.0098 c 3.487,0.01596 11.6313,4.307822 19.63376,10.346541 4.125,3.112757 7.95,5.492674 8.5,5.288705 3.89497,-1.444457 15.5277,-3.950649 16.02572,-3.45263 0.33709,0.337096 0.0596,2.459614 -0.61663,4.716706 -0.67624,2.257092 -0.94127,4.392062 -0.58895,4.744377 0.35231,0.352316 5.11834,1.220442 10.59116,1.92917 24.78157,3.209201 48.25723,15.391689 60.62024,31.458347 10.65641,13.848812 16.44262,32.310352 16.44167,52.459012 -5.4e-4,11.43178 -0.5594,15.5 -2.12929,15.5 -0.50755,0 -3.26156,-1.575 -6.12002,-3.5 -5.64714,-3.80301 -11.7384,-4.67231 -15.16783,-2.16466 -1.72589,1.262 -1.73816,1.60526 -0.22339,6.25 6.02226,18.46615 6.65266,41.95602 1.63421,60.89377 -2.52887,9.543 -10.23938,24.94332 -16.86668,33.68806 -6.92897,9.14281 -21.5583,22.67379 -32.23681,29.81653 -10.47254,7.00497 -22.51684,13.34852 -23.8178,12.54448 -0.47936,-0.29626 -1.16827,-2.2948 -1.5309,-4.44119 -1.46888,-8.69421 -4.96936,-9.08008 -13.42287,-1.47964 -3.73714,3.36001 -6.26211,6.92854 -9.2063,13.01123 -2.23127,4.60978 -4.30391,8.38142 -4.60589,8.38142 -0.30197,0 -4.65093,-3.9696 -9.66434,-8.82134 z"
           id="path54"
           inkscape:connector-curvature="0" />
        <path
           sodipodi:nodetypes="csssscscsssscscccccsscccsssssccssscsscsccscscccsssssssscssc"
           style="fill:#6e6d6e"
           d="m 151.9137,285.56559 c -5.01342,-4.85174 -18.7903,-17.61757 -30.6153,-28.36851 -27.84077,-25.31202 -39.6289,-39.16123 -46.6531,-54.81015 -11.30018,-25.17518 -9.10954,-58.76903 5.44499,-83.5 3.12381,-5.30796 8.01817,-11.31908 14.5447,-17.86341 7.35309,-7.37313 9.54898,-10.15037 8.69744,-11 -0.65939,-0.65789 -4.48647,-1.13659 -9.08682,-1.13659 -7.29513,0 -7.94764,-0.16508 -7.94743,-2.01067 2.8e-4,-2.56176 7.99033,-14.679276 13.37458,-20.283583 9.69516,-10.091398 25.50109,-17.131571 40.37564,-17.983844 4.5375,-0.259987 8.25,-0.801562 8.25,-1.2035 0,-0.401938 -1.5989,-2.82481 -3.55311,-5.38416 -1.95421,-2.55935 -3.23951,-5.16077 -2.85623,-5.780933 0.47627,-0.770615 3.2221,-0.932838 8.67371,-0.51244 l 7.97683,0.615128 -0.61007,-3.050327 c -0.33553,-1.67768 -1.68749,-5.717779 -3.00435,-8.977998 l -2.3943,-5.927671 2.13376,0.0098 c 3.487,0.01596 11.6313,4.307822 19.63376,10.346541 4.125,3.112757 7.95,5.492674 8.5,5.288705 3.89497,-1.444457 15.5277,-3.950649 16.02572,-3.45263 0.33709,0.337096 0.0596,2.459614 -0.61663,4.716706 -0.67624,2.257092 -0.94127,4.392062 -0.58895,4.744377 0.35231,0.352316 5.11834,1.220442 10.59116,1.92917 24.78157,3.209201 48.25723,15.391689 60.62024,31.458347 10.65641,13.848812 16.44262,32.310352 16.44167,52.459012 -5.4e-4,11.43178 -0.5594,15.5 -2.12929,15.5 -0.50755,0 -3.26156,-1.575 -6.12002,-3.5 -5.64714,-3.80301 -11.7384,-4.67231 -15.16783,-2.16466 -1.72589,1.262 -1.73816,1.60526 -0.22339,6.25 6.02226,18.46615 6.65266,41.95602 1.63421,60.89377 -2.52887,9.543 -10.23938,24.94332 -16.86668,33.68806 -6.92897,9.14281 -21.5583,22.67379 -32.23681,29.81653 -10.47254,7.00497 -22.51684,13.34852 -23.8178,12.54448 -0.47936,-0.29626 -1.16827,-2.2948 -1.5309,-4.44119 -1.46888,-8.69421 -4.96936,-9.08008 -13.42287,-1.47964 -3.73714,3.36001 -6.26211,6.92854 -9.2063,13.01123 -2.23127,4.60978 -4.30391,8.38142 -4.60589,8.38142 -0.30197,0 -4.65093,-3.9696 -9.66434,-8.82134 z m 24.18845,-54.85193 0.30375,-4.17326 -6.30375,-3.05341 c -9.56008,-4.6307 -13.81259,-11.87524 -13.79398,-23.49928 0.0176,-11.01446 6.45596,-20.51343 15.71869,-23.19103 l 3.77154,-1.09024 v -18.30077 c 0,-16.02606 -0.20808,-18.43202 -1.67411,-19.35677 -2.23016,-1.40675 -31.61877,8.10321 -37.90139,12.26465 -9.23064,6.11412 -11.9245,13.42023 -11.9245,32.3408 0,15.54026 1.14694,21.72811 5.19734,28.04011 3.64423,5.67904 7.72398,8.50344 26.15305,18.10569 10.2159,5.32287 13.5986,6.63314 16.5,6.39116 3.51109,-0.29283 3.66114,-0.46277 3.95336,-4.47765 z m -13.10593,-78.10814 c -4.04248,-4.46689 -0.35642,-10.75096 4.90109,-8.35548 2.68119,1.22163 4.17616,5.67839 2.69748,8.04167 -1.46324,2.3386 -5.61113,2.5099 -7.59857,0.31381 z"
           id="path52"
           inkscape:connector-curvature="0" />
        <path
           sodipodi:nodetypes="csssscscsssscscccccsscccsssssccssscsscsccsccsscsssssssscscscsccsscccccccsssccsssccssss"
           style="fill:#a25f33"
           d="m 151.9137,285.56559 c -5.01342,-4.85174 -18.7903,-17.61757 -30.6153,-28.36851 -27.84077,-25.31202 -39.6289,-39.16123 -46.6531,-54.81015 -11.30018,-25.17518 -9.10954,-58.76903 5.44499,-83.5 3.12381,-5.30796 8.01817,-11.31908 14.5447,-17.86341 7.35309,-7.37313 9.54898,-10.15037 8.69744,-11 -0.65939,-0.65789 -4.48647,-1.13659 -9.08682,-1.13659 -7.29513,0 -7.94764,-0.16508 -7.94743,-2.01067 2.8e-4,-2.56176 7.99033,-14.679276 13.37458,-20.283583 9.69516,-10.091398 25.50109,-17.131571 40.37564,-17.983844 4.5375,-0.259987 8.25,-0.801562 8.25,-1.2035 0,-0.401938 -1.5989,-2.82481 -3.55311,-5.38416 -1.95421,-2.55935 -3.23951,-5.16077 -2.85623,-5.780933 0.47627,-0.770615 3.2221,-0.932838 8.67371,-0.51244 l 7.97683,0.615128 -0.61007,-3.050327 c -0.33553,-1.67768 -1.68749,-5.717779 -3.00435,-8.977998 l -2.3943,-5.927671 2.13376,0.0098 c 3.487,0.01596 11.6313,4.307822 19.63376,10.346541 4.125,3.112757 7.95,5.492674 8.5,5.288705 3.89497,-1.444457 15.5277,-3.950649 16.02572,-3.45263 0.33709,0.337096 0.0596,2.459614 -0.61663,4.716706 -0.67624,2.257092 -0.94127,4.392062 -0.58895,4.744377 0.35231,0.352316 5.11834,1.220442 10.59116,1.92917 24.78157,3.209201 48.25723,15.391689 60.62024,31.458347 10.65641,13.848812 16.44262,32.310352 16.44167,52.459012 -5.4e-4,11.43178 -0.5594,15.5 -2.12929,15.5 -0.50755,0 -3.26156,-1.575 -6.12002,-3.5 -5.64714,-3.80301 -11.7384,-4.67231 -15.16783,-2.16466 -1.72589,1.262 -1.73816,1.60526 -0.22339,6.25 6.02226,18.46615 6.65266,41.95602 1.63421,60.89377 -2.52887,9.543 -10.23938,24.94332 -16.86668,33.68806 -6.92897,9.14281 -21.5583,22.67379 -32.23681,29.81653 -10.47254,7.00497 -22.51684,13.34852 -23.8178,12.54448 -0.47936,-0.29626 -1.16827,-2.2948 -1.5309,-4.44119 -1.46888,-8.69421 -4.96936,-9.08008 -13.42287,-1.47964 -3.73714,3.36001 -6.26211,6.92854 -9.2063,13.01123 -2.23127,4.60978 -4.30391,8.38142 -4.60589,8.38142 -0.30197,0 -4.65093,-3.9696 -9.66434,-8.82134 z m 31.86693,-49.68022 c 2.19023,-0.37191 10.50727,-4.1039 18.48231,-8.29332 19.63865,-10.31648 24.63281,-15.53599 27.04734,-28.26778 1.31186,-6.91738 1.21884,-25.41875 -0.15302,-30.43734 -2.82745,-10.34348 -2.49413,-12.48019 3.92896,-25.18604 3.28473,-6.49768 6.26249,-13.61396 6.61726,-15.81396 0.76032,-4.71495 -1.78239,-26.43195 -3.47985,-29.72098 -2.81755,-5.45934 -6.46674,-9.02506 -12.24013,-11.96013 -8.71624,-4.431154 -14.58511,-4.308783 -30.6851,0.63982 -7.40863,2.27717 -14.53655,3.84208 -17.5,3.84208 -2.96178,0 -10.09556,-1.56534 -17.5,-3.83996 -15.29711,-4.699231 -22.09079,-4.971481 -29.54859,-1.18414 -10.01385,5.0854 -13.59436,10.60478 -15.33066,23.63231 -2.24388,16.8359 -1.86271,19.33288 5.06877,33.20435 6.04565,12.09874 6.18219,12.54935 5.87447,19.38665 -0.17328,3.85 -0.34243,14.425 -0.3759,23.5 -0.057,15.45894 0.0913,16.81547 2.35166,21.5 3.7666,7.80633 9.18096,12.28647 25.05436,20.73134 13.65282,7.26349 22.05903,10.14649 26.90589,9.22766 0.825,-0.1564 3.292,-0.58865 5.48223,-0.96056 z m -13.45248,-14.08191 c -7.8283,-3.39547 -12.04121,-10.81003 -12.00779,-21.13329 0.0381,-11.78054 5.62535,-20.03957 15.09325,-22.31088 12.54258,-3.00892 22.89703,8.82851 21.62156,24.71822 -1.18903,14.81279 -13.0329,23.7895 -24.70702,18.72595 z m 11.94567,-69.94614 c -2.13013,-2.56666 0.34633,-6.68163 3.78303,-6.286 3.27602,0.37714 4.20388,3.71042 1.72334,6.19096 -2.03518,2.03519 -3.86991,2.06685 -5.50637,0.095 z m -18.30875,-0.13706 c -1.2546,-1.25459 -0.66841,-5.39543 0.84606,-5.97659 2.11947,-0.81332 4.48727,1.43757 4.48727,4.2657 0,1.82411 -0.54316,2.37756 -2.33333,2.37756 -1.28334,0 -2.63334,-0.3 -3,-0.66667 z m 39.60326,-29.10209 c -2.56967,-0.42072 -6.26993,-4.68831 -6.26993,-7.23124 0,-0.95166 0.93266,-2.91597 2.07258,-4.36514 2.64428,-3.36165 8.86929,-3.69299 11.92742,-0.63486 2.28027,2.28027 2.71015,8.16574 0.71723,9.81972 -2.01422,1.67165 -6.00603,2.81123 -8.4473,2.41152 z m -60.26993,-2.23124 c -4.27438,-4.27438 -1.14219,-12 4.86514,-12 3.84043,0 8.13486,3.49369 8.13486,6.61803 0,5.99839 -8.75785,9.62412 -13,5.38197 z"
           id="path50"
           inkscape:connector-curvature="0" />
        <path
           id="path48"
           d="m 156.09375,20.433594 c -0.12662,0.01117 -0.21993,0.04415 -0.2793,0.103515 -0.29704,0.297041 0.32937,2.522818 1.39258,4.945313 2.80798,6.397946 3.64313,11.756101 1.93359,12.412109 -0.75733,0.290617 -4.20066,0.141702 -7.65039,-0.330078 -3.49939,-0.478552 -6.5061,-0.478003 -6.80273,0.002 -0.29242,0.473144 0.84969,2.739931 2.53906,5.03711 5.0972,6.931115 4.63832,7.445678 -7.17773,8.019531 -12.26397,0.595606 -20.75624,3.441596 -30.99805,10.392578 -6.41911,4.35657 -13.679904,12.369077 -18.572264,20.490234 -2.96009,4.913654 -2.803821,5.956472 0.787109,5.238282 4.39116,-0.87823 11.625835,0.483107 14.240235,2.679687 l 2.29297,1.925781 -4.5,3.697266 C 80.532228,113.75398 69.298828,137.53979 69.298828,167.03906 c 0,18.72765 4.115273,32.28315 14.570313,47.9961 7.23894,10.87946 20.359479,24.56973 45.765629,47.75195 10.90982,9.95484 22.38482,20.44449 25.5,23.31055 3.11517,2.86605 5.96608,5.2285 6.33593,5.25 0.36984,0.0214 1.19399,-1.53748 1.83008,-3.46485 3.11068,-9.42545 15.68495,-22.49609 21.64258,-22.49609 2.2797,0 5.35547,5.07778 5.35547,8.8418 0,3.37726 1.44007,3.29458 8.6289,-0.49805 23.28949,-12.28692 44.11995,-31.8297 54.72657,-51.34375 11.37891,-20.93493 14.41579,-48.85918 8.04687,-73.97656 -2.94996,-11.63385 -2.96013,-12.5193 -0.17969,-14.4668 3.67983,-2.57745 8.79098,-1.91908 15.23438,1.96094 3.2124,1.9344 6.04716,3.31026 6.29883,3.05859 0.25167,-0.25167 0.44814,-5.99538 0.43554,-12.76562 -0.0461,-24.75601 -6.80011,-42.999324 -21.41992,-57.851567 C 249.2996,55.371971 228.10522,45.862979 206.48438,43.40625 c -10.19265,-1.158168 -11.95534,-2.371855 -10.3086,-7.095703 0.62305,-1.786683 0.90523,-3.473689 0.62891,-3.75 -0.27631,-0.276311 -3.19541,0.246611 -6.48828,1.162109 -3.29286,0.915498 -6.87005,1.664063 -7.94922,1.664063 -1.07918,0 -4.99774,-2.295941 -8.70703,-5.103516 -6.52899,-4.941768 -15.66712,-10.017151 -17.56641,-9.849609 z m -16.22852,62.03125 c 4.4985,0.08418 9.73701,1.125547 16.28321,3.046875 22.16943,6.5068 19.95089,6.461162 38.65039,0.826172 14.54452,-4.382918 20.76716,-4.41254 29.18555,-0.132813 5.77338,2.93507 9.42073,6.501598 12.23828,11.960938 1.69746,3.289034 4.24079,25.005754 3.48046,29.720704 -0.35477,2.2 -3.29137,9.23523 -6.52539,15.63281 -6.38783,12.63652 -6.79775,14.90065 -4.27343,23.58399 1.24296,4.27424 1.5235,8.83602 1.24414,20.15429 -0.33604,13.61466 -0.55527,15.02564 -3.16211,20.34375 -3.90405,7.96451 -9.13942,12.08373 -26.8418,21.11524 -14.41696,7.35534 -15.7998,7.85356 -22.8457,8.22851 -8.51722,0.45323 -9.65671,0.16471 -20,-5.04101 -21.1414,-10.64036 -28.12725,-16.12907 -32.31445,-25.39453 -1.86101,-4.11802 -2.07946,-6.42349 -2.00586,-21.12305 0.0454,-9.075 0.21418,-19.875 0.37695,-24 0.29507,-7.47782 0.27783,-7.53415 -5.88086,-19.24024 -6.87381,-13.06538 -7.11226,-14.49094 -5.16211,-30.78515 1.37219,-11.465252 3.24668,-16.038345 8.59766,-20.970705 6.01573,-5.545111 11.45758,-8.066084 18.95507,-7.925781 z m 66.16602,25.824216 c -2.55241,-0.0906 -5.17275,0.8415 -6.66016,2.73242 -1.13992,1.44917 -2.07226,3.41358 -2.07226,4.36524 0,2.54293 3.69986,6.8117 6.26953,7.23242 2.44127,0.39971 6.43305,-0.74046 8.44726,-2.41211 1.99293,-1.65398 1.56348,-7.54004 -0.71679,-9.82031 -1.33793,-1.33793 -3.28237,-2.02718 -5.26758,-2.09766 z m -57.86719,0.0977 c -6.00733,0 -9.13961,7.72562 -4.86523,12 4.24215,4.24215 13,0.61753 13,-5.38086 0,-3.12434 -4.29434,-6.61914 -8.13477,-6.61914 z m 37.25977,37.16211 c -3.09603,0.13549 -5.14739,3.90235 -3.15039,6.30859 1.63646,1.97185 3.47068,1.93949 5.50586,-0.0957 2.48054,-2.48054 1.55336,-5.81231 -1.72266,-6.18945 -0.21479,-0.0247 -0.42641,-0.0325 -0.63281,-0.0234 z m -19.81055,0.0293 c -0.26758,0.0108 -0.5378,0.0644 -0.80273,0.16602 -1.51447,0.58116 -2.10031,4.72197 -0.84571,5.97656 0.36666,0.36667 1.71666,0.66602 3,0.66602 1.79017,0 2.33399,-0.55284 2.33399,-2.37695 0,-2.47462 -1.81246,-4.50701 -3.68555,-4.43165 z m 11.26172,32.31836 c -1.12962,0.03 -2.28507,0.18081 -3.46094,0.4629 -9.4679,2.2713 -15.05565,10.53 -15.09375,22.31054 -0.0334,10.32326 4.17951,17.73734 12.00781,21.13281 11.67413,5.06355 23.51801,-3.91181 24.70704,-18.72461 1.15589,-14.40004 -7.24046,-25.47173 -18.16016,-25.18164 z"
           style="fill:#902c2a"
           inkscape:connector-curvature="0" />
        <path
           sodipodi:nodetypes="ccsscccccccsssccsssccssss"
           style="fill:#262727"
           d="m 170.32815,221.80346 c -7.8283,-3.39547 -12.04121,-10.81003 -12.00779,-21.13329 0.0381,-11.78054 5.62535,-20.03957 15.09325,-22.31088 12.54258,-3.00892 22.89703,8.82851 21.62156,24.71822 -1.18903,14.81279 -13.0329,23.7895 -24.70702,18.72595 z m 11.94567,-69.94614 c -2.13013,-2.56666 0.34633,-6.68163 3.78303,-6.286 3.27602,0.37714 4.20388,3.71042 1.72334,6.19096 -2.03518,2.03519 -3.86991,2.06685 -5.50637,0.095 z m -18.30875,-0.13706 c -1.2546,-1.25459 -0.66841,-5.39543 0.84606,-5.97659 2.11947,-0.81332 4.48727,1.43757 4.48727,4.2657 0,1.82411 -0.54316,2.37756 -2.33333,2.37756 -1.28334,0 -2.63334,-0.3 -3,-0.66667 z m 39.60326,-29.10209 c -2.56967,-0.42072 -6.26993,-4.68831 -6.26993,-7.23124 0,-0.95166 0.93266,-2.91597 2.07258,-4.36514 2.64428,-3.36165 8.86929,-3.69299 11.92742,-0.63486 2.28027,2.28027 2.71015,8.16574 0.71723,9.81972 -2.01422,1.67165 -6.00603,2.81123 -8.4473,2.41152 z m -60.26993,-2.23124 c -4.27438,-4.27438 -1.14219,-12 4.86514,-12 3.84043,0 8.13486,3.49369 8.13486,6.61803 0,5.99839 -8.75785,9.62412 -13,5.38197 z"
           id="path46"
           inkscape:connector-curvature="0" />
      </g>
      <g
         id="g926"
         transform="translate(186.92961,-0.18090216)">
        <path
           d="m 162.23979,920.72675 h -5.81054 v -23.51563 h -26.31836 v 23.51563 h -5.81054 v -49.9707 h 5.81054 v 21.25976 h 26.31836 v -21.25976 h 5.81054 z"
           style="font-style:normal;font-variant:normal;font-weight:normal;font-stretch:normal;font-size:70px;line-height:1.25;font-family:'Open Sans';-inkscape-font-specification:'Open Sans';letter-spacing:0px;word-spacing:0px;fill:#383838;fill-opacity:1;stroke:none;stroke-width:0.9375"
           id="path877"
           inkscape:connector-curvature="0" />
        <path
           d="m 207.45952,901.9621 q 0,9.16015 -4.61426,14.32129 -4.61426,5.12695 -12.74902,5.12695 -5.02441,0 -8.9209,-2.3584 -3.89648,-2.3584 -6.01562,-6.76758 -2.11914,-4.40918 -2.11914,-10.32226 0,-9.16016 4.58007,-14.25293 4.58008,-5.12695 12.71485,-5.12695 7.86132,0 12.47558,5.22949 4.64844,5.22949 4.64844,14.15039 z m -28.54004,0 q 0,7.17773 2.8711,10.9375 2.87109,3.75976 8.44238,3.75976 5.57129,0 8.44238,-3.72558 2.90527,-3.75977 2.90527,-10.97168 0,-7.14355 -2.90527,-10.83496 -2.87109,-3.72559 -8.51074,-3.72559 -5.57129,0 -8.4082,3.65723 -2.83692,3.65723 -2.83692,10.90332 z"
           style="font-style:normal;font-variant:normal;font-weight:normal;font-stretch:normal;font-size:70px;line-height:1.25;font-family:'Open Sans';-inkscape-font-specification:'Open Sans';letter-spacing:0px;word-spacing:0px;fill:#383838;fill-opacity:1;stroke:none;stroke-width:0.9375"
           id="path879"
           inkscape:connector-curvature="0" />
        <path
           d="m 247.96244,920.72675 -6.87011,-21.97754 q -0.64942,-2.0166 -2.42676,-9.16016 h -0.27344 q -1.36718,5.98145 -2.39258,9.22852 l -7.07519,21.90918 h -6.5625 l -10.21972,-37.46094 h 5.94726 q 3.62305,14.11621 5.50293,21.49902 1.91406,7.38281 2.1875,9.94629 h 0.27344 q 0.37597,-1.94824 1.19629,-5.02441 0.85449,-3.11035 1.46972,-4.92188 l 6.87012,-21.49902 h 6.15234 l 6.69922,21.49902 q 1.91406,5.87891 2.59766,9.87793 h 0.27343 q 0.13672,-1.23047 0.71778,-3.79394 0.61523,-2.56348 7.14355,-27.58301 h 5.87891 l -10.35645,37.46094 z"
           style="font-style:normal;font-variant:normal;font-weight:normal;font-stretch:normal;font-size:70px;line-height:1.25;font-family:'Open Sans';-inkscape-font-specification:'Open Sans';letter-spacing:0px;word-spacing:0px;fill:#383838;fill-opacity:1;stroke:none;stroke-width:0.9375"
           id="path881"
           inkscape:connector-curvature="0" />
        <path
           d="m 277.45951,920.72675 h -5.67383 v -53.18359 h 5.67383 z"
           style="font-style:normal;font-variant:normal;font-weight:normal;font-stretch:normal;font-size:70px;line-height:1.25;font-family:'Open Sans';-inkscape-font-specification:'Open Sans';letter-spacing:0px;word-spacing:0px;fill:#383838;fill-opacity:1;stroke:none;stroke-width:0.9375"
           id="path883"
           inkscape:connector-curvature="0" />
        <path
           d="m 305.38431,921.41034 q -8.30566,0 -13.125,-5.05859 -4.78515,-5.0586 -4.78515,-14.04785 0,-9.05762 4.44336,-14.38965 4.47754,-5.33203 11.99707,-5.33203 7.04101,0 11.14257,4.64844 4.10157,4.61425 4.10157,12.20214 v 3.58887 h -25.80567 q 0.1709,6.59668 3.31543,10.01465 3.17871,3.41797 8.9209,3.41797 6.04981,0 11.96289,-2.5293 v 5.05859 q -3.00781,1.29883 -5.70801,1.8457 -2.66601,0.58106 -6.45996,0.58106 z m -1.53808,-34.07715 q -4.51172,0 -7.21192,2.93946 -2.66601,2.93945 -3.14453,8.13476 h 19.58496 q 0,-5.36621 -2.39258,-8.20312 -2.39257,-2.8711 -6.83593,-2.8711 z"
           style="font-style:normal;font-variant:normal;font-weight:normal;font-stretch:normal;font-size:70px;line-height:1.25;font-family:'Open Sans';-inkscape-font-specification:'Open Sans';letter-spacing:0px;word-spacing:0px;fill:#383838;fill-opacity:1;stroke:none;stroke-width:0.9375"
           id="path885"
           inkscape:connector-curvature="0" />
        <path
           d="m 345.88724,882.58222 q 2.49512,0 4.47754,0.41015 l -0.78613,5.26368 q -2.32422,-0.5127 -4.10156,-0.5127 -4.5459,0 -7.79297,3.69141 -3.21289,3.6914 -3.21289,9.19433 v 20.09766 h -5.67383 v -37.46094 h 4.68262 l 0.64941,6.93848 h 0.27344 q 2.08496,-3.65723 5.02441,-5.63965 2.93946,-1.98242 6.45996,-1.98242 z"
           style="font-style:normal;font-variant:normal;font-weight:normal;font-stretch:normal;font-size:70px;line-height:1.25;font-family:'Open Sans';-inkscape-font-specification:'Open Sans';letter-spacing:0px;word-spacing:0px;fill:#383838;fill-opacity:1;stroke:none;stroke-width:0.9375"
           id="path887"
           inkscape:connector-curvature="0" />
        <path
           d="m 380.40871,920.72675 -18.62793,-46.14258 h -0.27343 q 0.27343,4.23828 0.27343,8.68164 v 37.46094 h -3.34961 v -49.9707 h 5.40039 l 17.70508,43.95507 h 0.20508 l 17.70507,-43.95507 h 5.26368 v 49.9707 h -3.52051 v -37.87109 q 0,-3.96485 0.41016,-8.20313 h -0.27344 l -18.69629,46.07422 z"
           style="font-style:normal;font-variant:normal;font-weight:300;font-stretch:normal;font-size:70px;line-height:1.25;font-family:'Open Sans';-inkscape-font-specification:'Open Sans Light';letter-spacing:0px;word-spacing:0px;fill:#5d5d5d;fill-opacity:1;stroke:none;stroke-width:0.9375"
           id="path889"
           inkscape:connector-curvature="0" />
        <path
           d="m 448.73391,902.09882 q 0,9.09179 -4.40918,14.21875 -4.40918,5.09277 -12.16797,5.09277 -4.8877,0 -8.61328,-2.3584 -3.72559,-2.3584 -5.70801,-6.76758 -1.98242,-4.40918 -1.98242,-10.18554 0,-9.0918 4.40918,-14.15039 4.40918,-5.09277 12.09961,-5.09277 7.65625,0 11.99707,5.16113 4.375,5.12695 4.375,14.08203 z m -29.32617,0 q 0,7.65625 3.34961,11.96289 3.38378,4.27246 9.53613,4.27246 6.15234,0 9.50195,-4.27246 3.38379,-4.30664 3.38379,-11.96289 0,-7.69043 -3.41797,-11.92871 -3.38379,-4.23828 -9.53613,-4.23828 -6.15234,0 -9.50195,4.23828 -3.31543,4.2041 -3.31543,11.92871 z"
           style="font-style:normal;font-variant:normal;font-weight:300;font-stretch:normal;font-size:70px;line-height:1.25;font-family:'Open Sans';-inkscape-font-specification:'Open Sans Light';letter-spacing:0px;word-spacing:0px;fill:#5d5d5d;fill-opacity:1;stroke:none;stroke-width:0.9375"
           id="path891"
           inkscape:connector-curvature="0" />
        <path
           d="m 484.9302,920.72675 v -24.09668 q 0,-5.60547 -2.3584,-8.13477 -2.3584,-2.56347 -7.31446,-2.56347 -6.66503,0 -9.77538,3.38379 -3.07618,3.34961 -3.07618,10.90332 v 20.50781 h -3.38379 v -37.15332 h 2.8711 l 0.64941,5.09277 h 0.20508 q 3.62305,-5.81054 12.88574,-5.81054 12.64648,0 12.64648,13.56933 v 24.30176 z"
           style="font-style:normal;font-variant:normal;font-weight:300;font-stretch:normal;font-size:70px;line-height:1.25;font-family:'Open Sans';-inkscape-font-specification:'Open Sans Light';letter-spacing:0px;word-spacing:0px;fill:#5d5d5d;fill-opacity:1;stroke:none;stroke-width:0.9375"
           id="path893"
           inkscape:connector-curvature="0" />
        <path
           d="m 503.62649,904.42304 18.96972,-20.84961 h 4.10156 l -14.6289,15.85937 15.89355,21.29395 h -4.06738 l -14.11621,-18.76465 -6.08398,5.53711 v 13.22754 h -3.38379 v -53.18359 h 3.38379 v 26.66015 l -0.23926,10.21973 z"
           style="font-style:normal;font-variant:normal;font-weight:300;font-stretch:normal;font-size:70px;line-height:1.25;font-family:'Open Sans';-inkscape-font-specification:'Open Sans Light';letter-spacing:0px;word-spacing:0px;fill:#5d5d5d;fill-opacity:1;stroke:none;stroke-width:0.9375"
           id="path895"
           inkscape:connector-curvature="0" />
        <path
           d="m 549.22219,921.41034 q -8.10059,0 -12.64648,-4.99023 -4.51172,-4.99024 -4.51172,-13.9795 0,-8.88671 4.375,-14.21874 4.375,-5.36621 11.79199,-5.36621 6.5625,0 10.35644,4.58007 3.79395,4.58008 3.79395,12.44141 v 2.73437 h -26.7627 q 0.0684,7.65625 3.55469,11.68946 3.52051,4.0332 10.04883,4.0332 3.17871,0 5.57129,-0.44434 2.42675,-0.44433 6.11816,-1.91406 v 3.07617 q -3.14453,1.36719 -5.81055,1.8457 -2.66601,0.5127 -5.8789,0.5127 z m -0.99121,-35.54687 q -5.36621,0 -8.61328,3.55469 -3.24707,3.5205 -3.79395,10.18554 h 22.96875 q 0,-6.45996 -2.80273,-10.08301 -2.80274,-3.65722 -7.75879,-3.65722 z"
           style="font-style:normal;font-variant:normal;font-weight:300;font-stretch:normal;font-size:70px;line-height:1.25;font-family:'Open Sans';-inkscape-font-specification:'Open Sans Light';letter-spacing:0px;word-spacing:0px;fill:#5d5d5d;fill-opacity:1;stroke:none;stroke-width:0.9375"
           id="path897"
           inkscape:connector-curvature="0" />
        <path
           d="m 566.41454,883.57343 h 3.48633 l 7.86133,20.84961 q 3.58886,9.60449 4.5459,12.9541 h 0.20507 q 1.43555,-4.40918 4.68262,-13.15918 l 7.86133,-20.64453 h 3.48633 l -16.64551,43.16894 q -2.0166,5.26367 -3.38379,7.10937 -1.36719,1.84571 -3.21289,2.76856 -1.81152,0.92285 -4.40918,0.92285 -1.94824,0 -4.34082,-0.71777 v -2.93946 q 1.98242,0.54688 4.27246,0.54688 1.74317,0 3.07617,-0.82031 1.33301,-0.82032 2.39258,-2.56348 1.09375,-1.70898 2.49512,-5.46875 1.43555,-3.72558 1.8457,-4.85351 z"
           style="font-style:normal;font-variant:normal;font-weight:300;font-stretch:normal;font-size:70px;line-height:1.25;font-family:'Open Sans';-inkscape-font-specification:'Open Sans Light';letter-spacing:0px;word-spacing:0px;fill:#5d5d5d;fill-opacity:1;stroke:none;stroke-width:0.9375"
           id="path899"
           inkscape:connector-curvature="0" />
      </g>
    </g>
  </g>
</svg>
