<?xml version="1.0" encoding="UTF-8" standalone="no"?>
<!-- Generator: Adobe Illustrator 18.0.0, SVG Export Plug-In . SVG Version: 6.00 Build 0)  -->

<svg
   xmlns:dc="http://purl.org/dc/elements/1.1/"
   xmlns:cc="http://creativecommons.org/ns#"
   xmlns:rdf="http://www.w3.org/1999/02/22-rdf-syntax-ns#"
   xmlns:svg="http://www.w3.org/2000/svg"
   xmlns="http://www.w3.org/2000/svg"
   xmlns:sodipodi="http://sodipodi.sourceforge.net/DTD/sodipodi-0.dtd"
   xmlns:inkscape="http://www.inkscape.org/namespaces/inkscape"
   version="1.1"
   id="Layer_1"
   x="0px"
   y="0px"
   viewBox="0 0 600 250"
   enable-background="new 0 0 626 433"
   xml:space="preserve"
   inkscape:version="0.48.5 r10040"
   width="100%"
   height="100%"
   sodipodi:docname="aeo_logo.svg"><metadata
     id="metadata39"><rdf:RDF><cc:Work
         rdf:about=""><dc:format>image/svg+xml</dc:format><dc:type
           rdf:resource="http://purl.org/dc/dcmitype/StillImage" /><dc:title></dc:title></cc:Work></rdf:RDF></metadata><defs
     id="defs37" /><sodipodi:namedview
     pagecolor="#ffffff"
     bordercolor="#666666"
     borderopacity="1"
     objecttolerance="10"
     gridtolerance="10"
     guidetolerance="10"
     inkscape:pageopacity="0"
     inkscape:pageshadow="2"
     inkscape:window-width="1600"
     inkscape:window-height="855"
     id="namedview35"
     showgrid="false"
     showguides="true"
     inkscape:guide-bbox="true"
     inkscape:zoom="0.77079538"
     inkscape:cx="460.07866"
     inkscape:cy="104.49996"
     inkscape:window-x="0"
     inkscape:window-y="24"
     inkscape:window-maximized="1"
     inkscape:current-layer="Layer_1" /><g
     id="g3068"
     transform="matrix(1.2956165,0,0,1.3012362,-90.045347,-196.32401)"><path
       style="fill:#001c3e"
       inkscape:connector-curvature="0"
       d="m 81.3,288.3 4.4,-10.5 4.1,10.5 h -8.5 z m 21.6,11.2 c -1.1,0 -2.2,-0.6 -2.8,-2 L 88.5,268 h -2.6 l -11.6,29.5 c -0.6,1.3 -1.7,2 -2.8,2 h -2 v 2.4 h 12.2 v -2.4 h -2.4 c -1.1,0 -2,-1.1 -1.5,-2 l 2.4,-6.1 h 10.7 l 2.6,6.1 c 0.2,0.9 -0.4,2 -1.7,2 h -2.4 v 2.4 h 15.5 v -2.4 h -2 l 0,0 z"
       id="path4390_1_" /><path
       style="fill:#001c3e"
       inkscape:connector-curvature="0"
       d="m 137.4,301.9 v -2.4 h 2.4 c 1.1,0 2,-1.1 2,-2 v -20.8 l -11.4,25.2 h -3.1 l -11.4,-25.2 v 20.8 c 0,0.9 0.9,2 2,2 h 2.4 v 2.4 h -12 v -2.4 h 2.4 c 1.1,0 2,-1.1 2,-2 V 273 c 0,-1.1 -0.9,-2 -2,-2 h -2.4 v -2.6 H 119 l 11.2,25.2 11.4,-25.2 h 10.9 v 2.6 h -2.4 c -1.1,0 -2,0.9 -2,2 v 24.5 c 0,0.9 0.9,2 2,2 h 2.4 v 2.4 h -15.1 l 0,0 z"
       id="path4392_1_" /><path
       style="fill:#001c3e"
       inkscape:connector-curvature="0"
       d="m 156.6,301.9 v -2.4 h 2.4 c 1.1,0 2,-1.1 2,-2 V 273 c 0,-1.1 -0.9,-2 -2,-2 h -2.4 v -2.6 h 28.2 v 11.1 h -2.6 v -1.1 c 0,-4 -3.1,-7 -7,-7 h -7.6 v 12.1 h 3.3 c 2.2,0 3.9,-1.8 3.9,-4 v -1.3 h 2.6 v 13.3 h -2.6 v -1.3 c 0,-2.2 -1.7,-3.9 -3.9,-3.9 h -3.3 V 299 h 8.5 c 4,0 7,-3.3 7,-7 v -2.4 h 2.6 v 12.3 h -29.1 l 0,0 z"
       id="path4394_1_" /><path
       style="fill:#001c3e"
       inkscape:connector-curvature="0"
       d="m 184.7,340.6 c -6.3,0 -8.3,-5 -8.3,-11.6 0,-6.6 2,-11.6 8.3,-11.6 6.3,0 8.1,5 8.1,11.6 0,6.6 -1.8,11.6 -8.1,11.6 m 0,-25.6 c -8.8,0 -14,5.7 -14,14 0,8.3 5.2,14 14,14 7.9,0 14,-5.5 14,-14 0,-8.5 -6.2,-14 -14,-14"
       id="path4396_1_" /><path
       style="fill:#001c3e"
       inkscape:connector-curvature="0"
       d="m 227.8,317.4 c -0.9,0 -1.6,0.9 -1.6,1.8 v 14.2 c 0,5.9 -4.8,9.6 -10.7,9.6 -5.9,0 -10.7,-3.7 -10.7,-9.6 v -14.2 c 0,-0.9 -0.7,-1.8 -1.5,-1.8 h -2.4 v -2 H 214 v 2 h -2.4 c -0.6,0 -1.5,0.9 -1.5,1.8 v 14.2 c 0,4.2 3.1,6.3 6.8,6.3 3.7,0 6.6,-2.2 6.6,-6.3 v -14.2 c 0,-0.9 -0.6,-1.8 -1.5,-1.8 h -2.4 v -2 H 230 v 2 h -2.2 l 0,0 z"
       id="path4398_1_" /><path
       style="fill:#001c3e"
       inkscape:connector-curvature="0"
       d="m 201.5,283.3 v -11.8 h 6.1 c 3.3,0 5.4,2.6 5.4,5.9 0,3.3 -2.2,5.9 -5.4,5.9 h -6.1 z m 20.4,16.2 c -1.3,0 -2.4,-0.9 -3.3,-2 l -7,-11.2 c 4.8,-0.2 8.1,-4.2 8.1,-9 0,-5 -3.7,-9 -8.5,-9 h -20.6 v 2.6 h 2.4 c 1.3,0 2,0.9 2,2 l 0,24.5 c 0,0.9 -0.6,2 -2,2 h -2.4 v 2.4 h 15.3 v -2.4 h -2.4 c -1.1,0 -2,-1.1 -2,-2 v -11.2 h 2.8 l 9.6,15.6 h 9.4 v -2.4 h -1.4 l 0,0.1 z"
       id="path4400_1_" /><path
       style="fill:#001c3e"
       inkscape:connector-curvature="0"
       d="m 227.1,301.9 v -2.4 h 2.4 c 1.1,0 2,-1.1 2,-2 V 273 c 0,-1.1 -0.9,-2 -2,-2 h -2.4 v -2.6 h 15.3 V 271 H 240 c -1.1,0 -2,0.9 -2,2 v 24.5 c 0,0.9 0.9,2 2,2 h 2.4 v 2.4 h -15.3 z"
       id="path4402_1_" /><path
       style="fill:#001c3e"
       inkscape:connector-curvature="0"
       d="m 255.1,324.4 v -0.9 c 0,-3.3 -2.6,-5.7 -5.7,-5.7 h -2.2 v 21 c 0,0.9 0.6,1.5 1.5,1.5 h 2 v 2.2 h -12.2 v -2.2 h 2 c 0.9,0 1.6,-0.6 1.6,-1.5 v -21 h -2.2 c -3.1,0 -5.7,2.4 -5.7,5.7 v 0.9 h -2 v -9 h 25 v 9 h -2.1 z"
       id="path4404_1_" /><path
       style="fill:#001c3e"
       inkscape:connector-curvature="0"
       d="m 262.6,302.5 c -10.7,0 -17.1,-7.2 -17.1,-17.3 0,-10.3 6.4,-17.3 17.1,-17.3 7.7,0 12.3,2.2 12.3,2.2 v 9.4 h -2.6 c -0.9,-5 -3.7,-8.8 -9.6,-8.8 -7,0 -10,6.8 -10,14.5 0,7.4 3.5,14.2 10.1,14.2 5.9,0 8.8,-3.3 9.6,-9.4 h 2.6 v 10.1 c -0.2,0 -4.3,2.4 -12.4,2.4"
       id="path4406_1_" /><path
       style="fill:#001c3e"
       inkscape:connector-curvature="0"
       d="m 280.8,324.4 v -0.9 c 0,-3.3 -2.6,-5.7 -5.9,-5.7 h -6.1 v 9.9 h 2.4 c 2,0 3.3,-1.5 3.3,-3.3 v -1.1 h 2 v 10.9 h -2 v -1.1 c 0,-1.8 -1.3,-3.1 -3.3,-3.1 h -2.4 v 8.8 c 0,0.9 0.7,1.5 1.5,1.5 h 3.1 v 2.2 H 260 v -2.2 h 2 c 0.9,0 1.5,-0.6 1.5,-1.5 v -19.7 c 0,-0.9 -0.6,-1.8 -1.5,-1.8 h -2 v -2 h 22.8 v 9 h -2 l 0,0.1 z"
       id="path4408_1_" /><path
       style="fill:#001c3e"
       inkscape:connector-curvature="0"
       d="m 286,342.6 v -2.2 h 2 c 0.9,0 1.5,-0.6 1.5,-1.5 v -19.7 c 0,-0.9 -0.7,-1.8 -1.5,-1.8 h -2 v -2 h 12.5 v 2 h -2 c -0.8,0 -1.7,0.9 -1.7,1.8 v 19.7 c 0,0.9 0.9,1.5 1.7,1.5 h 2 v 2.2 H 286 z"
       id="path4410_1_" /><path
       style="fill:#001c3e"
       inkscape:connector-curvature="0"
       d="m 289.3,288.3 4.2,-10.5 4.4,10.5 h -8.6 z m 21.4,11.2 c -1.1,0 -2.2,-0.6 -2.8,-2 L 296.3,268 h -2.4 l -11.8,29.5 c -0.4,1.3 -1.7,2 -2.8,2 h -2 v 2.4 h 12.3 v -2.4 h -2.4 c -1.1,0 -1.8,-1.1 -1.6,-2 l 2.4,-6.1 h 10.9 l 2.4,6.1 c 0.4,0.9 -0.4,2 -1.5,2 h -2.4 v 2.4 h 15.5 v -2.4 h -2.2 z"
       id="path4412_1_" /><path
       style="fill:#001c3e"
       inkscape:connector-curvature="0"
       d="m 324.1,324.4 v -0.9 c 0,-3.3 -2.4,-5.7 -5.7,-5.7 h -2.2 v 21 c 0,0.9 0.9,1.5 1.8,1.5 h 2 v 2.2 h -12.5 v -2.2 h 2 c 0.9,0 1.5,-0.6 1.5,-1.5 v -21 h -2.2 c -3,0 -5.7,2.4 -5.7,5.7 v 0.9 h -2 v -9 h 25.2 v 9 h -2.2 z"
       id="path4414_1_" /><path
       style="fill:#001c3e"
       inkscape:connector-curvature="0"
       d="m 350.4,271 c -1.1,0 -2,0.9 -2,2 v 29.5 h -3.3 l -21,-26.3 v 21.2 c 0,0.9 0.9,2 2,2 h 2.8 v 2.4 h -13.4 v -2.4 h 3.3 c 1.1,0 2,-1.1 2,-2 V 273 c 0,-1.1 -0.9,-2 -2,-2 h -3.3 v -2.6 H 326 l 19.1,23.6 v -19 c 0,-1.1 -0.9,-2 -2,-2 h -3.3 v -2.6 h 13.3 v 2.6 h -2.7 l 0,0 z"
       id="path4416_1_" /><path
       style="fill:#001c3e"
       inkscape:connector-curvature="0"
       d="m 352,324.4 v -0.9 c 0,-3.3 -2.4,-5.7 -5.7,-5.7 h -2.2 v 21 c 0,0.9 0.9,1.5 1.5,1.5 h 2 v 2.2 h -12.2 v -2.2 h 2 c 0.9,0 1.5,-0.6 1.5,-1.5 v -21 h -2.2 c -3.1,0 -5.7,2.4 -5.7,5.7 v 0.9 h -2 v -9 h 25.2 v 9 H 352 z"
       id="path4418_1_" /><path
       style="fill:#001c3e"
       inkscape:connector-curvature="0"
       d="m 356.8,342.6 v -2.2 h 2 c 0.9,0 1.5,-0.6 1.5,-1.5 v -19.7 c 0,-0.9 -0.7,-1.8 -1.5,-1.8 h -2 v -2 h 22.8 v 9 h -2 v -0.9 c 0,-3.3 -2.6,-5.7 -5.7,-5.7 h -6.3 v 9.9 h 2.6 c 1.7,0 3.3,-1.5 3.3,-3.3 v -1.1 h 2 v 10.9 h -2 v -1.1 c 0,-1.8 -1.5,-3.1 -3.3,-3.1 h -2.6 v 10.1 h 7 c 3.1,0 5.7,-2.6 5.7,-5.7 v -2 h 2 v 10.1 h -23.5 l 0,0.1 z"
       id="path4420_1_" /><path
       style="fill:#001c3e"
       inkscape:connector-curvature="0"
       d="m 368.8,301.9 v -2.4 h 2.4 c 1.1,0 1.7,-1.1 1.7,-2 V 273 c 0,-1.1 -0.7,-2 -1.7,-2 h -2.4 v -2.6 h 28 v 11.1 h -2.4 v -1.1 c 0,-4 -3.3,-7 -7.2,-7 h -7.6 v 12.1 h 3.3 c 2.2,0 3.9,-1.8 3.9,-4 v -1.3 h 2.6 v 13.3 h -2.6 v -1.3 c 0,-2.2 -1.7,-3.9 -3.9,-3.9 h -3.3 V 299 h 8.5 c 3.9,0 7,-3.3 7,-7 v -2.4 h 2.6 v 12.3 h -28.9 l 0,0 z"
       id="path4422_1_" /><path
       style="fill:#001c3e"
       inkscape:connector-curvature="0"
       d="m 397.2,327.5 h -4.8 v -9.6 h 4.8 c 2.6,0 4.6,2.2 4.6,4.8 0,2.6 -2,4.8 -4.6,4.8 m 12.4,12.9 c -1.1,0 -2,-0.4 -2.6,-1.5 l -5.7,-9 c 3.7,-0.2 6.6,-3.3 6.6,-7.2 0,-3.9 -3.1,-7.2 -7,-7.2 h -16.6 v 2 h 2 c 0.9,0 1.7,0.9 1.7,1.8 V 339 c 0,0.9 -0.9,1.5 -1.7,1.5 h -2 v 2.2 h 12.5 v -2.2 h -2 c -0.9,0 -1.5,-0.6 -1.5,-1.5 v -9 h 2.2 l 7.9,12.7 h 7.7 v -2.2 h -1.5 l 0,-0.1 z"
       id="path4424_1_" /><path
       style="fill:#001c3e"
       inkscape:connector-curvature="0"
       d="m 412.6,288.3 4.2,-10.5 4.4,10.5 h -8.6 z m 21.7,11.2 c -1.3,0 -2.4,-0.6 -2.9,-2 L 419.6,268 h -2.4 l -11.8,29.5 c -0.5,1.3 -1.8,2 -2.6,2 h -2.2 v 2.4 H 413 v -2.4 h -2.4 c -1.1,0 -2,-1.1 -1.5,-2 l 2.4,-6.1 h 10.7 l 2.4,6.1 c 0.4,0.9 -0.5,2 -1.5,2 h -2.4 v 2.4 h 15.5 v -2.4 h -1.9 l 0,0 z"
       id="path4426_1_" /><path
       style="fill:#001c3e"
       inkscape:connector-curvature="0"
       d="m 423.8,343 c -6.4,0 -10.1,-2.2 -10.1,-2.2 v -8.3 h 2.2 c 0.7,5 3.1,8.1 7.9,8.1 2.8,0 5,-1.8 5,-4.6 0,-7.2 -15.3,-2.4 -15.3,-13.4 0,-5.5 4.4,-7.7 8.8,-7.7 5.9,0 9,2.2 9,2.2 v 6.8 h -2 c -0.9,-4.2 -2.6,-6.6 -7,-6.6 -2.4,0 -4.4,1.3 -4.4,3.7 0,6.8 15.3,3.1 15.3,13.8 0,6.1 -4.4,8.2 -9.4,8.2"
       id="path4428_1_" /><path
       style="fill:#001c3e"
       inkscape:connector-curvature="0"
       d="m 467.5,287.7 c -1.1,0 -2,0.9 -2,2 v 1.1 8.3 0.4 c 0,0 -5,3.1 -12.9,3.1 -10.7,0 -17.3,-7.2 -17.3,-17.3 0,-10.3 6.5,-17.3 17.3,-17.3 7.7,0 12.3,2.2 12.3,2.2 v 9.4 h -2.6 c -1.1,-5 -4,-8.8 -9.6,-8.8 -7,0 -10.1,6.8 -10.1,14.5 0,7.4 3.3,14.2 10.1,14.2 3.1,0 5,-0.6 6.6,-2.2 v -7.7 c 0,-1.1 -0.9,-2 -2,-2 h -2.9 V 285 h 15.1 v 2.6 h -2 z"
       id="path4430_1_" /><path
       style="fill:#001c3e"
       inkscape:connector-curvature="0"
       d="m 472.2,301.9 v -2.4 h 2.4 c 1.1,0 2,-1.1 2,-2 V 273 c 0,-1.1 -0.9,-2 -2,-2 h -2.4 v -2.6 h 16.4 v 2.6 h -3.7 c -1.1,0 -2,0.9 -2,2 v 26 h 7.9 c 3.7,0 7,-3.3 7,-7 v -2.4 h 2.4 v 12.3 h -28 l 0,0 z"
       id="path4432_1_" /><path
       style="fill:#001c3e"
       inkscape:connector-curvature="0"
       d="m 503.7,301.9 v -2.4 h 2.4 c 0.9,0 1.8,-1.1 1.8,-2 V 273 c 0,-1.1 -0.9,-2 -1.8,-2 h -2.4 v -2.6 h 28 v 11.1 h -2.4 v -1.1 c 0,-4 -3.3,-7 -7.2,-7 h -7.6 v 12.1 h 3.3 c 2.2,0 4,-1.8 4,-4 v -1.3 h 2.6 v 13.3 h -2.6 v -1.3 c 0,-2.2 -1.8,-3.9 -4,-3.9 h -3.3 V 299 h 8.5 c 3.9,0 7,-3.3 7,-7 v -2.4 h 2.6 v 12.3 h -28.9 l 0,0 z"
       id="path4434_1_" /><path
       style="fill:#001c3e"
       inkscape:connector-curvature="0"
       d="m 283.2,238.2 c 0.7,-1.5 3.3,-3.1 3.5,-2.2 0.7,3.4 -1.8,5.3 -2,5.4 0.1,0 0.3,-1.8 -1.5,-3.2 m 67.2,-70 c 7.7,-2.9 8.3,-7.1 8.3,-7.1 0.1,-0.5 -0.2,-0.3 -0.5,0 -0.2,0.2 -0.4,0.3 -0.4,0.3 -3.5,2.8 -9.4,5.3 -9.4,5.3 -1.1,0.3 -0.2,-0.6 -0.2,-0.6 10.3,-8.6 9.1,-12 9.1,-12 -0.2,-0.5 -0.6,-0.2 -0.9,0.2 -0.3,0.3 -0.5,0.5 -0.5,0.5 -8.5,8.8 -13,9.6 -13,9.6 -1.2,0 -0.3,-1 -0.3,-1 9.6,-7.2 9.2,-11.2 9.2,-11.2 -0.1,-1.6 -1.3,0.1 -1.3,0.1 -3.4,5.3 -10.7,9.2 -10.7,9.2 -1.7,0.8 -0.8,-0.5 -0.8,-0.5 2.7,-2.8 3.7,-6 3.7,-6 0.4,-1.8 -1.5,0.2 -1.5,0.2 -3.1,3.8 -20.7,12.4 -20.7,12.4 -13.9,5.9 -17,22.6 -17,22.6 -3.6,11.2 -9.2,11.8 -9.2,11.8 -5.7,-5.1 -10.5,-15.4 -10.5,-15.4 -2.7,-6.8 -12.6,-12.1 -18.7,-16.4 -4,-2.8 -4,-3.4 -5.8,-5.4 -0.1,0.6 0.1,1.4 0.2,1.5 -8.2,-4 -6.4,-15 -6.4,-15 0,-0.6 -0.4,-0.5 -0.6,-0.1 -1.9,2.7 -1,9.9 -1,9.9 -1.8,-0.7 -2.1,-7.7 -2.1,-7.7 -0.3,-0.5 -0.7,1 -0.7,1 -1,3.6 0,10.5 0,10.5 -1.6,-0.4 -1.8,-5.7 -1.8,-5.7 -0.4,-0.7 -0.5,0.4 -0.5,0.4 -1.6,10.4 4.5,15 4.5,15 -1.2,-0.1 -3.1,-1.7 -3.1,-1.7 -0.7,-0.3 0.7,1.6 0.7,1.6 1.5,2 2,1.6 4.5,3.9 0.2,0.4 -2.1,-0.1 -2.1,-0.1 -0.4,0.4 0.8,1.2 0.8,1.2 1.6,1.3 3.5,2.8 3.5,2.8 0.2,0.4 -2,0.2 -2,0.2 -0.3,0.6 4.8,2.4 4.8,2.4 2.6,0.9 5.2,1.8 7.7,3 2.4,1.2 4.7,2.8 6.9,4.3 0.6,0.4 1.4,0.9 1.9,1.4 2.6,2.4 4.9,5.2 5.6,8.7 0.4,1.7 -2.9,2.5 -2.9,2.5 -8.4,3.3 -6.5,6.9 -6.5,6.9 -3.1,2.8 0,5.6 0,5.6 -0.1,-1 0.7,-2.2 0.7,-2.2 0.8,-1 1.2,-0.2 1.2,-0.2 -0.6,1.3 -0.3,1.5 -0.3,1.5 0.8,-1.1 3,-1.1 3,-1.1 2.8,-0.3 3.7,-1.1 3.7,-1.1 8.3,-1.9 6.7,7.7 6.7,7.7 -0.1,1 -0.3,2 -0.6,2.9 -0.3,0.9 -2,4.4 -2.1,4.6 0,0 0.1,0 0.1,0 0,0.2 -0.2,0.5 -0.3,0.7 -0.1,0.3 -0.7,1.6 -0.8,2.3 -0.4,1.8 -1.1,3.8 -2.6,3.3 -0.9,-0.4 -1.7,-0.9 -2.6,-1.3 -1,-0.4 -2.2,-0.9 -3.3,-0.7 -0.4,0.1 -0.9,0.3 -1.2,0.6 -0.1,0.1 -0.6,0.8 -0.5,1.2 0.4,-0.4 1,-0.5 1.5,-0.6 0.3,0 0.5,0 0.8,0 0.1,0 0.2,0 0.3,0.1 0,0 0.2,0.1 0.2,0.1 -0.3,0.1 -0.5,0.3 -0.7,0.4 -0.3,0.3 -0.5,0.7 -0.6,1.1 0,0.2 -0.2,0.9 -0.1,1 0.1,0 0.1,-0.2 0.2,-0.2 0.1,-0.1 0.3,-0.2 0.4,-0.3 0.2,-0.2 0.5,-0.3 0.7,-0.4 0.2,-0.1 0.4,-0.1 0.7,-0.1 0.1,0 0.2,0 0.3,0 0,0 0.3,0.1 0.3,0.1 -0.4,0.3 -0.8,0.7 -0.8,1.2 -0.1,0.7 0.1,1 0.2,1.2 0.1,0.1 0.1,0 0.1,-0.1 0.5,-1.6 3,-0.8 4,-0.3 0.2,0.1 0.4,0.2 0.6,0.3 0.7,0.4 2.2,1.6 3.1,1.6 0,0 0.7,0.1 0.9,0.4 0,0.1 0.1,0.2 0.1,0.3 -1,0.3 -4.1,0.7 -5.4,1.8 -0.3,0.3 -0.6,0.6 -0.6,1.1 -0.1,0.7 0.5,1.2 0.5,1.2 0,-0.1 0,-0.1 0,-0.2 0.1,-0.4 0.5,-0.7 0.9,-0.9 0.2,-0.1 0.4,-0.2 0.6,-0.2 0.1,0 0.2,0 0.3,0 0,0 0.2,0 0.2,0 -0.4,0.4 -0.6,0.8 -0.5,1.3 0.1,0.4 0.3,0.8 0.6,1 0.1,-0.1 -0.1,-0.5 0.7,-1 0.4,-0.3 0.9,-0.4 1.2,-0.4 -0.4,0.5 -0.5,1.1 -0.3,1.7 0.1,0.2 0.2,0.5 0.3,0.7 0.1,0.2 0.3,0.4 0.5,0.5 0.1,0 0,-0.2 0,-0.4 0,-0.1 0.1,-0.3 0.1,-0.4 0.1,-0.3 0.2,-0.6 0.4,-0.8 0.3,-0.5 0.7,-0.8 1.2,-1.2 0.7,-0.5 3.2,-0.8 3.8,-0.4 0.4,0.4 1.8,1.6 3.2,1.3 0.3,0 0.5,0.2 0.7,0.6 0,0.1 0,0.1 0.1,0.1 0.1,0.3 0.1,0.6 0.1,0.9 0,0.2 0.1,0.1 0.2,0 0.1,-0.1 0.2,-0.3 0.3,-0.4 0.1,-0.3 0.2,-0.6 0.2,-1 0,-0.6 -0.3,-1.1 -0.6,-1.5 -0.1,-0.1 -0.2,-0.3 -0.4,-0.4 -0.9,-0.7 -2.1,-1.1 -2.6,-1.3 -0.5,-0.3 -1.1,-1.6 -0.4,-2.9 0.1,-0.2 0.2,-0.3 0.3,-0.4 0,0 0.1,-0.1 0.1,-0.1 0.2,-0.2 0.6,-0.1 0.8,0 0.4,0.3 0.4,0.9 0.6,1.4 0.1,-0.1 0.2,-0.3 0.3,-0.4 0.1,-0.2 0.1,-0.5 0.2,-0.7 0.1,-0.2 0.2,-0.4 0.3,-0.6 0.2,-0.4 0.5,-0.7 0.8,-1.1 0.4,-0.4 0.8,-0.8 1.3,-1.2 0,0 0,0 0,0 0,0 0.1,0 0.1,0 0,0 0.3,1.2 0.9,1.6 0,-0.2 0,-0.4 0,-0.6 0.1,-1 0.6,-2.5 1.1,-3.8 0,0.1 0,0.1 0,0.2 0.1,0.6 0.5,1 0.7,0.8 0,-0.5 0.1,-0.9 0.2,-1.3 0.8,-1.9 2.1,-2.9 2.5,-2.9 1,-0.3 0.6,1.4 0.6,1.4 -0.5,1.5 -2.3,3.7 -2.7,4.2 -0.5,0.7 -1.3,2.1 -0.6,3 0.1,0.1 0.1,0.1 0.2,0 0.1,0 0.1,-0.1 0.2,-0.1 0.3,-0.1 0.5,0.1 0.6,0.3 0.2,0.4 -0.1,0.9 0.2,1.3 0.2,0.2 0.3,0 0.6,-0.1 0.6,-0.1 1,0.5 1.1,1 0.1,0.3 0.1,0.4 0.4,0.4 0.3,-0.1 0.5,-0.2 0.8,-0.2 0.3,0 0.5,0.1 0.8,0.3 0.2,0.2 0.2,0.4 0.5,0.6 0.4,0.2 0.8,-0.3 1.2,-0.2 0.7,0.2 1,1 1,1 0.4,1.1 1.7,0.3 1.7,0.3 1.3,-0.6 2.4,0.9 2.4,0.9 0.9,0.9 2,0.1 2,0.1 0.3,-0.3 0.8,-0.3 1.2,-0.3 0.2,0 0.4,0.1 0.6,0.1 0.1,0.1 0.3,0.1 0.4,0.2 0.1,0.1 0.2,0.2 0.4,0.3 0.3,0.2 0.7,0.2 1,0.1 0.6,-0.1 0.8,-0.3 0.9,-0.4 0.1,-0.1 0.1,-0.2 0.2,-0.3 0,-0.1 0.1,-0.1 0.1,-0.1 0.2,-0.2 0.6,-0.3 0.9,-0.4 0.2,0 0.3,-0.1 0.5,-0.1 0.1,0 0.1,0 0.2,0 0.1,0 0.3,0.1 0.4,0.1 0.1,0 0.2,0.1 0.4,0.1 0.2,0 0.4,0 0.6,-0.1 0.2,-0.1 0.3,-0.2 0.4,-0.4 0.1,-0.1 0.1,-0.3 0.3,-0.4 0.3,-0.3 0.7,-0.3 1,-0.2 l 0.2,0.1 c 0.7,0.4 1.5,0.4 1.9,-0.5 0.1,-0.4 0.1,-0.7 0.5,-0.8 0.4,-0.1 0.8,-0.1 1.1,-0.3 0.3,-0.2 0.3,-0.7 0.6,-0.9 0.4,-0.3 1,0 1.4,-0.4 0.6,-0.8 -0.6,-3.9 -2.3,-5 -1.4,-0.9 -3,-1.6 -4.4,-2.7 -6.8,-5 -10.4,-13.6 -10.4,-13.6 l -0.1,-0.3 c 1.7,0.3 3.9,2.9 3.9,2.9 0.9,1 1.5,1.3 2.5,1.6 0.2,0.1 1.4,0.4 1.6,-0.1 -0.4,-0.3 -0.7,-0.8 -0.6,-1.2 0.1,-0.8 1,-0.5 1.4,-0.3 0.3,0.1 1.3,0.5 1.6,0.8 0.2,-0.1 0.3,-0.7 0.3,-0.9 0,-0.4 -0.1,-0.8 -0.1,-1.2 0,-0.2 -0.3,-0.7 0,-0.8 0.2,-0.1 0.6,0.1 0.8,0.3 0.2,0.2 0.5,0.3 0.8,0.4 0,0 0.1,0 0.1,0 0.1,0 0.8,0.2 0.8,0.1 0.2,-1.3 -0.4,-2.9 -0.4,-2.9 -0.1,-0.8 1.3,-0.9 1.6,-0.4 0,0 0.1,0.2 0.1,0.2 0.1,0 0.2,-0.2 0.2,-0.3 0.1,-0.1 0.1,-0.3 0.1,-0.5 0,-0.3 0,-0.6 -0.1,-0.9 -0.1,-0.4 -0.6,-0.9 -0.5,-1.4 0.2,-0.6 0.8,-0.4 1.2,-0.2 0.2,0.1 0.3,0.2 0.5,0.3 0,0 0.1,0.1 0.1,0.1 0.1,0.1 0.1,0.2 0.2,0.2 0.1,0 0.2,-0.3 0.2,-0.4 0.1,-0.2 0.1,-0.4 0.1,-0.6 0,-0.4 -0.1,-0.8 -0.2,-1.2 -0.2,-0.4 -0.9,-1 -0.2,-1.2 0.2,0 0.4,-0.1 0.6,0 0.2,0.1 0.3,0.2 0.5,0.3 0.1,0.1 0.1,0 0.2,-0.1 0,-0.1 0.1,-0.2 0.1,-0.3 0,-0.2 0,-0.4 -0.1,-0.7 -0.2,-0.5 -0.5,-0.9 -0.8,-1.3 -0.6,-1 0.9,-1.4 0.9,-1.4 0.3,-0.1 1,-0.1 1.3,0 0.1,0 0.2,0.1 0.3,0.1 0.1,0.1 0.1,-0.1 0.1,-0.2 0.3,-0.8 -0.6,-1.6 -1.3,-2 0,0 0,0 0,0 -0.4,-0.3 -0.3,-0.7 0.1,-1 0.4,-0.3 0.7,-0.3 1.2,-0.2 0.1,0 0.2,0.1 0.4,0.1 0.2,0 0.1,-0.4 0.1,-0.5 0,-0.3 -0.2,-0.6 -0.4,-0.8 -0.3,-0.3 -1,-0.6 -0.6,-1.2 0.2,-0.3 0.7,-0.4 1.1,-0.4 0.4,0 0.7,0.4 0.8,-0.2 0,-0.4 0,-0.9 -0.2,-1.3 -0.1,-0.1 -0.2,-0.2 -0.3,-0.3 -0.3,-0.4 -0.2,-1 0.2,-1.3 0.4,-0.3 1,-0.3 1.4,-0.1 0.2,-0.3 0.1,-0.7 -0.1,-0.9 -0.2,-0.3 -0.5,-0.4 -0.6,-0.7 0,-0.3 0.2,-0.6 0.4,-0.8 0.4,-0.4 0.9,-0.5 1.3,-0.8 0.2,-0.2 0.5,-0.7 0.3,-0.9 -0.3,0.1 -0.9,0 -1.1,-0.3 -0.3,-0.5 0.7,-0.7 1,-0.9 0.3,-0.1 0.6,-0.1 0.9,-0.2 1.2,-0.3 1.6,-0.6 1.5,-1.1 -0.3,0 -0.7,0 -0.8,-0.2 -0.6,-0.7 0.4,-1.2 0.9,-1.3 0.6,0 1.2,0 1.8,0 1.4,0 1.4,-0.7 1.4,-0.7 -1.9,-0.7 -1.2,-1.5 -1.2,-1.5 1.7,-1.1 3.4,-0.3 4.7,-1.1 0.5,-0.3 0.4,-0.6 0.4,-0.6 -1,-0.1 -1.5,-0.2 -2.4,-0.4 -0.4,-0.1 -0.2,-0.6 -0.2,-0.6 0.1,-1 3.9,-0.6 5.6,-1.1 1.5,-0.5 1.1,-1.2 1.1,-1.2 -1.2,0.2 -2.5,-0.7 -2.5,-0.7 -0.4,-0.8 1.5,-0.7 1.5,-0.7 3,-0.2 3.3,-1.7 3.3,-1.7 0.2,-0.6 -1.3,0 -1.3,0 -1.9,0.3 -1.9,-0.6 -1.9,-0.6 0,-0.8 2.1,-1.1 2.1,-1.1 4.7,-0.8 7.1,-3.8 7.1,-3.8 0.2,-0.3 0.1,-0.5 -0.1,-0.5 -0.4,-0.1 -1.5,0.3 -1.5,0.3 -2.7,1.3 -6.1,1.4 -6.1,1.4 -0.4,0 -0.4,-0.3 -0.4,-0.4 0,-0.3 0.6,-0.6 0.6,-0.6 1.2,-0.5 6.1,-2 8.6,-3.8 2.4,-1.7 2.7,-3.8 2.7,-3.8 0.1,-0.7 -1.1,-0.2 -2,0.3 -0.6,0.3 -1.1,0.5 -1.1,0.5 -9.5,4.2 -8.1,1.7 -8.1,1.7 1.4,-0.4 4.5,-1.6 4.5,-1.6"
       id="path4436_1_" /></g></svg>